<svg viewBox="0 0 512 512" xmlns="http://www.w3.org/2000/svg"><path d="m0 0h512v512h-512z" fill="#012169" stroke-width="4.1"/><path d="m384 212.7 2 2z" fill="#49497d"/><path d="m386 212.7 2 2z" fill="#0e0e6e"/><path d="m379.9 214.7 2 2z" fill="#262678"/><path d="m382 214.7 2 2z" fill="#808067"/><path d="m388 214.7 2 2z" fill="#58587b"/><path d="m312.9 216.8 2 2z" fill="#0e0e6e"/><path d="m375.9 216.8 2 2z" fill="#1b1b74"/><path d="m377.9 216.8 2 2z" fill="#6e6c70"/><path d="m316.5 220.4c0 52.5-6 111.6 33 152.7 8 8.4 23.4 27.7 36.5 27 13.7-.8 31.4-21.1 39.2-31 34-44.8 28.7-98.2 29.8-150.2-15.3 6.9-23 9.2-36.4 9-10 1-25.3-5.5-34.5-10-6 4-14.7 8.9-30.4 9.4-18 .8-23.8-2.3-37.2-7z" fill="#cc3"/><path d="m390 216.8 2 2z" fill="#99994e"/><path d="m392 216.8 2 2z" fill="#49497d"/><path d="m455 216.8 2 2z" fill="#0e0e6e"/><path d="m315 218.8 2 2z" fill="#a4a43d"/><path d="m317 218.8 2 2z" fill="#6e6c70"/><path d="m319 218.8 2 2z" fill="#3a3a7c"/><path d="m371.8 218.8 2 2z" fill="#1b1b74"/><path d="m373.8 218.8 2 2z" fill="#6e6c70"/><path d="m375.9 218.8 2 2z" fill="#a4a43d"/><path d="m384 218.8 2 2z" fill="#d0d045"/><path d="m392 218.8 2 2z" fill="#a4a43d"/><path d="m394 218.8 2 2z" fill="#8d8d5b"/><path d="m396.2 218.8 2 2z" fill="#3a3a7c"/><path d="m448.9 218.8 2 2z" fill="#262678"/><path d="m451 218.8 2 2z" fill="#53527c"/><path d="m453 218.8 2 2z" fill="#8d8d5b"/><path d="m323 220.9 2 2z" fill="#737370"/><path d="m325 220.9 2 2z" fill="#53527c"/><path d="m327 220.9 2 2z" fill="#1b1b74"/><path d="m367.7 220.9 2 2z" fill="#262678"/><path d="m369.8 220.9 2 2z" fill="#6e6c70"/><path d="m371.8 220.9 2 2z" fill="#a4a43d"/><path d="m382 220.9 2 2z" fill="#e5e59d"/><path d="m320.6 226a509 509 0 0 0 4 88.2c4.9 15.4 4.2 23.9 11.3 33l99-.7c6-9.7 10.5-24.4 11-30.3 5.6-29.7 5.7-62.6 5.9-92a62 62 0 0 1 -35.7 7.4 69 69 0 0 1 -30.5-9.2c-9.5 5.6-12.8 8.2-28.4 8.9-12.2.6-22 1.6-36.6-5.2z" fill="#fff"/><path d="m386 220.9 2 2z" fill="#f2f1d7"/><path d="m388 220.9 2 2z" fill="#d9d868"/><path d="m396.2 220.9 2 2z" fill="#a4a43d"/><path d="m398.2 220.9 2 2z" fill="#99994e"/><path d="m400.2 220.9 2 2z" fill="#49497d"/><path d="m402.2 220.9 2 2z" fill="#0e0e6e"/><path d="m442.9 220.9 2 2z" fill="#3a3a7c"/><path d="m444.9 220.9 2 2z" fill="#667"/><path d="m446.9 220.9 2 2z" fill="#99994e"/><path d="m448.9 220.9 2 2zm-121.8 2 2 2z" fill="#a4a43d"/><path d="m329.2 222.9 2 2z" fill="#99994e"/><path d="m331.2 222.9 2 2z" fill="#6e6c70"/><path d="m333.2 222.9 2 2z" fill="#49497d"/><path d="m335.2 222.9 2 2zm26.4 0 2 2z" fill="#1b1b74"/><path d="m363.6 222.9 2 2z" fill="#53527c"/><path d="m365.7 222.9 2 2z" fill="#8d8d5b"/><path d="m367.7 222.9 2 2z" fill="#a4a43d"/><path d="m377.9 222.9 2 2z" fill="#e5e59d"/><path d="m379.9 222.9 2 2z" fill="#fbfaf2"/><path d="m390 222.9 2 2z" fill="#f2f1d2"/><path d="m392 222.9 2 2z" fill="#d9d868"/><path d="m402.2 222.9 2 2z" fill="#a4a43d"/><path d="m404.3 222.9 2 2z" fill="#6e6c70"/><path d="m406.3 222.9 2 2z" fill="#3a3a7c"/><path d="m432.7 222.9 2 2z" fill="#0e0e6e"/><path d="m434.7 222.9 2 2z" fill="#32327b"/><path d="m436.8 222.9 2 2z" fill="#58587b"/><path d="m438.8 222.9 2 2z" fill="#808067"/><path d="m442.2 223.5 1.3.7z" fill="#a4a43d"/><path d="m319 224.9 2 2z" fill="#dddc7a"/><path d="m321 224.9 2 2z" fill="#d0d045"/><path d="m336.6 225.5 1.4.7z" fill="#a4a43d"/><path d="m339.3 224.9 2 2z" fill="#808067"/><path d="m341.3 224.9 2 2z" fill="#667"/><path d="m343.4 224.9 2 2z" fill="#58587b"/><path d="m345.4 224.9 2 2z" fill="#49497d"/><path d="m357.6 224.9 2 2z" fill="#737370"/><path d="m359.6 224.9 2 2z" fill="#99994e"/><path d="m361.6 224.9 2 2z" fill="#a4a43d"/><path d="m373.8 224.9 2 2z" fill="#e5e59d"/><path d="m375.9 224.9 2 2z" fill="#fbfaf2"/><path d="m394 224.9 2 2z" fill="#f2f1d2"/><path d="m396.2 224.9 2 2z" fill="#d9d868"/><path d="m407.6 225.5 1.4.7-1.3-.7z" fill="#a4a43d"/><path d="m410.4 224.9 2 2z" fill="#808067"/><path d="m412.4 224.9 2 2z" fill="#667"/><path d="m414.4 224.9 2 2z" fill="#58587b"/><path d="m416.5 224.9 2 2z" fill="#3a3a7c"/><path d="m425.9 225.5 1.4.7z" fill="#58587b"/><path d="m428.6 224.9 2 2z" fill="#737370"/><path d="m430.6 224.9 2 2z" fill="#99994e"/><path d="m432.7 224.9 2 2z" fill="#a4a43d"/><path d="m448.9 224.9 2 2z" fill="#dddc7a"/><path d="m451 224.9 2 2z" fill="#d0d045"/><path d="m323 226.9 2 2z" fill="#f2f1d7"/><path d="m325 226.9 2 2z" fill="#e0dea1"/><path d="m327 226.9 2 2z" fill="#dddc7a"/><path d="m367.7 226.9 2 2z" fill="#d9d868"/><path d="m369.8 226.9 2 2z" fill="#e5e3af"/><path d="m398.2 226.9 2 2z" fill="#f6f6e4"/><path d="m400.2 226.9 2 2z" fill="#e1e18c"/><path d="m440.8 226.9 2 2z" fill="#d4d456"/><path d="m442.9 226.9 2 2z" fill="#e1e18c"/><path d="m444.9 226.9 2 2z" fill="#eeedc1"/><path d="m331.2 228.9 2 2z" fill="#f2f1d2"/><path d="m333.2 228.9 2 2z" fill="#e0dea1"/><path d="m335.2 228.9 2 2z" fill="#dddc7a"/><path d="m337.3 228.9 2 2z" fill="#d0d045"/><path d="m361.6 228.9 2 2z" fill="#dddc7a"/><path d="m363.6 228.9 2 2z" fill="#e5e3af"/><path d="m365.7 228.9 2 2z" fill="#f6f6e4"/><path d="m404.3 228.9 2 2z" fill="#eeedc1"/><path d="m406.3 228.9 2 2z" fill="#e1e18c"/><path d="m408.3 228.9 2 2z" fill="#d4d456"/><path d="m432.7 228.9 2 2z" fill="#d9d868"/><path d="m434.7 228.9 2 2z" fill="#e1e18c"/><path d="m436.8 228.9 2 2z" fill="#eeedc1"/><path d="m438.8 228.9 2 2z" fill="#f6f6e4"/><path d="m341.3 230.9 2 2z" fill="#f2f1d7"/><path d="m343.4 230.9 2 2z" fill="#f2f1d2"/><path d="m345.4 230.9 2 2z" fill="#eeedc1"/><path d="m354.9 231.6 1.3.7z" fill="#f2f1d2"/><path d="m357.6 230.9 2 2z" fill="#fbfaf2"/><path d="m367.7 230.9 4 4v-4z" fill="#fef8f1"/><path d="m412.4 230.9 2 2z" fill="#f2f1d7"/><path d="m414.4 230.9 2 2z" fill="#f2f1d2"/><path d="m416.5 230.9 2 2z" fill="#e5e3af"/><path d="m419.9 231.6 1.3.7-1.4-.7z" fill="#e5e59d"/><path d="m422.6 230.9 2 2z" fill="#e0dea1"/><path d="m425.9 231.6 1.4.7z" fill="#f2f1d2"/><path d="m428.6 230.9 2 2z" fill="#fbfaf2"/><path d="m363.6 233 2 2z" fill="#fef8f1"/><path d="m365.7 233 2 2z" fill="#fbbe66"/><path d="m363.6 235 2 2z" fill="#fbc477"/><path d="m367.7 235 2 2z" fill="#fcb144"/><path d="m363.6 237 2 2z" fill="#fe9f11"/><path d="m367.7 237 2 2z" fill="#fea522"/><path d="m361.6 239 2 2zm8.2 0 2 2z" fill="#fae3c9"/><path d="m379.9 239 2 2z" fill="#fbead6"/><path d="m382 239 2 2z" fill="#f9d6aa"/><path d="m390 239 2 2z" fill="#fae3c9"/><path d="m392 239 2 2z" fill="#fef8f1"/><path d="m361.6 241 2 2z" fill="#f9d099"/><path d="m369.8 241 2 2z" fill="#fdab33"/><path d="m373.8 241 2 2z" fill="#fcf1e4"/><path d="m375.9 241 2 2z" fill="#fbc477"/><path d="m377.9 241 2 2z" fill="#fea522"/><path d="m394 241 2 2z" fill="#fcb755"/><path d="m396.2 241 2 2z" fill="#f9d6aa"/><path d="m361.6 243.2 2 2z" fill="#faca88"/><path d="m371.8 243.2 2 2zm26.4 0 2 2z" fill="#fea522"/><path d="m400.2 243.2 2 2z" fill="#f8dcbb"/><path d="m319 245.2 2 2z" fill="#f6f6e4"/><path d="m361.6 245.2 2 2z" fill="#fbc477"/><path d="m402.2 245.2 2 2z" fill="#fbbe66"/><path d="m404.3 245.2 2 2z" fill="#f8dcbb"/><path d="m361.6 247.2 2 2z" fill="#faca88"/><path d="m408.3 247.2 2 2z" fill="#fcb755"/><path d="m410.4 247.2 2 2z" fill="#f8dcbb"/><path d="m359.6 249.3 2 2z" fill="#fef8f1"/><path d="m361.6 249.3 2 2z" fill="#fe9f11"/><path d="m418.5 249.3 2 2z" fill="#fdab33"/><path d="m420.6 249.3 2 2z" fill="#fcb144"/><path d="m422.6 249.3 2 2z" fill="#fbc477"/><path d="m424.6 249.3 4 4z" fill="#f9d6aa"/><path d="m426.6 249.3 2 2z" fill="#fef8f1"/><path d="m359.6 251.3 2 2z" fill="#fcb144"/><path d="m388 251.3 2 2z" fill="#fdab33"/><path d="m390 251.3 2 2zm8 0 2.2 2-2-2z" fill="#fbc477"/><path d="m400.2 251.3 2 2z" fill="#fea522"/><path d="m357.6 253.3 2 2z" fill="#fae3c9"/><path d="m384 253.3 2 2z" fill="#fcb144"/><path d="m386 253.3 2 2z" fill="#fae3c9"/><path d="m402.2 253.3 2 2z" fill="#f8dcbb"/><path d="m404.3 253.3 2 2z" fill="#fdab33"/><path d="m416.5 253.3 2 2z" fill="#fe9f11"/><path d="m418.5 253.3 2 2z" fill="#fcb755"/><path d="m420.6 253.3 2 2z" fill="#f9d099"/><path d="m422.6 253.3 2 2z" fill="#fbead6"/><path d="m357.6 255.3 2 2z" fill="#fcb144"/><path d="m382 255.3 2 2z" fill="#fbbe66"/><path d="m406.3 255.3 2 2z" fill="#f9d099"/><path d="m414.4 255.3 2 2z" fill="#fbead6"/><path d="m355.6 257.4 2 2z" fill="#fcf1e4"/><path d="m379.9 257.4 2 2z" fill="#fbbe66"/><path d="m408.3 257.4 2 2z" fill="#f9d099"/><path d="m414.4 257.4 2 2z" fill="#fae3c9"/><path d="m355.6 259.4 2 2z" fill="#fbc477"/><path d="m377.9 259.4 2 2zm32.5 0 2 2z" fill="#fcb144"/><path d="m414.4 259.4 2 2z" fill="#fbbe66"/><path d="m319 261.4 2 2z" fill="#f6f6e4"/><path d="m355.6 261.4 2 2z" fill="#fea522"/><path d="m377.9 261.4 2 2z" fill="#fbead6"/><path d="m410.4 261.4 2 2z" fill="#fcf1e4"/><path d="m416.5 261.4 2 2z" fill="#fef8f1"/><path d="m353.6 263.5 2 2z" fill="#fcf1e4"/><path d="m375.9 263.5 2 2z" fill="#fbbe66"/><path d="m412.4 263.5 2 2z" fill="#faca88"/><path d="m416.5 263.5 2 2z" fill="#f9d099"/><path d="m353.6 265.5 2 2z" fill="#f9d6aa"/><path d="m375.9 265.5 2 2z" fill="#fcf1e4"/><path d="m386 265.5 2 2z" fill="#fae3c9"/><path d="m388 265.5 2 2z" fill="#fea522"/><path d="m390 265.5 2 2z" fill="#fcb144"/><path d="m392 265.5 2 2z" fill="#f9d6aa"/><path d="m412.4 265.5 2 2z" fill="#fef8f1"/><path d="m414.4 265.5 2 2z" fill="#fea522"/><path d="m416.5 265.5 2 2z" fill="#fdab33"/><path d="m353.6 267.5-2.1 6 2-6z" fill="#faca88"/><path d="m373.8 267.5 2 2z" fill="#fea522"/><path d="m375.9 267.5 2 2z" fill="#fef8f1"/><path d="m386 267.5 2 2z" fill="#f9d099"/><path d="m394 267.5 2 2z" fill="#fdab33"/><path d="m396.2 267.5 2 2z" fill="#fae3c9"/><path d="m414.4 267.5 2 2z" fill="#f8dcbb"/><path d="m416.5 267.5 2 2z" fill="#f90"/><path d="m419.2 268.9.6 1.3z" fill="#fbead6"/><path d="m377.9 269.5 2 2z" fill="#fea522"/><path d="m379.9 269.5 2 2z" fill="#fbbe66"/><path d="m382 269.5 2 2z" fill="#faca88"/><path d="m384 269.5 2 2z" fill="#fcb144"/><path d="m386 269.5 2 2z" fill="#fae3c9"/><path d="m388 269.5 2 2z" fill="#fe9f11"/><path d="m398.2 269.5 2 2z" fill="#fdab33"/><path d="m400.2 269.5 2 2z" fill="#fbc477"/><path d="m402.2 269.5 2 2z" fill="#faca88"/><path d="m404.3 269.5 2 2z" fill="#f9d6aa"/><path d="m407.6 270.2 1.4.7-1.3-.7z" fill="#fae3c9"/><path d="m410.4 269.5 2 2z" fill="#fef8f1"/><path d="m416.5 269.5 2 2z" fill="#fbc477"/><path d="m329.2 271.6 2 2z" fill="#fef8f1"/><path d="m331.2 271.6 2 2z" fill="#fcf1e4"/><path d="m384 271.6 2 2z" fill="#fcb755"/><path d="m388 271.6 2 2z" fill="#fbead6"/><path d="m390 271.6 2 2z" fill="#fea522"/><path d="m406.3 271.6 2 2z" fill="#fe9f11"/><path d="m408.3 271.6-2 4z" fill="#fcb144"/><path d="m412.4 271.6 2 2z" fill="#fe9f11"/><path d="m414.4 271.6 2 2z" fill="#fbbe66"/><path d="m416.5 271.6 2 2z" fill="#fcf1e4"/><path d="m329.2 273.6 2 2z" fill="#fae3c9"/><path d="m331.2 273.6 4 4z" fill="#fe9f11"/><path d="m333.2 273.6 2 2zm18.3 0 2 2z" fill="#fbead6"/><path d="m353.6 273.6 2 2z" fill="#fae3c9"/><path d="m371.8 273.6 2 2z" fill="#fe9f11"/><path d="m373.8 273.6 2 2z" fill="#fbc477"/><path d="m375.9 273.6 2 2z" fill="#fea522"/><path d="m382 273.6 2 2z" fill="#fbc477"/><path d="m384 273.6 2 2z" fill="#fef8f1"/><path d="m392 273.6 2 2z" fill="#fbc477"/><path d="m408.3 273.6 2 2z" fill="#fff"/><path d="m410.4 273.6 2 2z" fill="#fdab33"/><path d="m418.5 273.6 2 2z" fill="#fbc477"/><path d="m329.2 275.6 2 2z" fill="#fef8f1"/><path d="m335.2 275.6 2 2z" fill="#fbead6"/><path d="m345.4 275.6 2 2z" fill="#f9d6aa"/><path d="m355.6 275.6 2 2z" fill="#fe9f11"/><path d="m358.9 276.3 1.4.7z" fill="#f9d6aa"/><path d="m371.8 275.6 2 2z" fill="#f8dcbb"/><path d="m377.9 275.6 2 2z" fill="#fcf1e4"/><path d="m394 275.6 2 2z" fill="#f9d6aa"/><path d="m408.3 275.6 2 2z" fill="#fdab33"/><path d="m420.6 275.6 2 2z" fill="#fcb755"/><path d="m422.6 275.6 2 2z" fill="#fef8f1"/><path d="m312.9 277.7 2 2z" fill="#53527c"/><path d="m331.2 277.7 2 2z" fill="#fcb755"/><path d="m335.2 277.7 2 2z" fill="#fea522"/><path d="m343.4 277.7 2 2z" fill="#fbead6"/><path d="m347.4 277.7 2 2z" fill="#fe9f11"/><path d="m349.5 277.7 2 2z" fill="#fcf1e4"/><path d="m355.6 277.7 2 2z" fill="#fbbe66"/><path d="m357.6 277.7 2 2z" fill="#fbc477"/><path d="m359.6 277.7 2 2z" fill="#fbbe66"/><path d="m369.8 277.7 2 2z" fill="#fea522"/><path d="m396.2 277.7 2 2z" fill="#f9d6aa"/><path d="m422.6 277.7 2 2z" fill="#fcb144"/><path d="m455 277.7 2 2z" fill="#8d8d5b"/><path d="m319 279.7 2 2z" fill="#e5e3af"/><path d="m331.2 279.7 2 2z" fill="#f8dcbb"/><path d="m337.3 279.7 2 2z" fill="#fdab33"/><path d="m343.4 279.7 2 2z" fill="#fe9f11"/><path d="m347.4 279.7 2 2z" fill="#faca88"/><path d="m355.6 279.7 2 2z" fill="#fcf1e4"/><path d="m369.8 279.7 2 2zm28.4 0 2 2z" fill="#f9d099"/><path d="m424.6 279.7 2 2z" fill="#fbbe66"/><path d="m333.2 281.7 2 2z" fill="#fea522"/><path d="m339.3 281.7 2 2z" fill="#fdab33"/><path d="m341.3 281.7 2 2z" fill="#fea522"/><path d="m345.4 281.7 2 2z" fill="#fe9f11"/><path d="m347.4 281.7 2 2z" fill="#fef8f1"/><path d="m357.6 281.7 2 2z" fill="#fbbe66"/><path d="m369.8 281.7 2 2z" fill="#fef8f1"/><path d="m400.2 281.7 2 2z" fill="#fbbe66"/><path d="m426.6 281.7 2 2z" fill="#f9d099"/><path d="m333.2 283.8 2 2z" fill="#f9d6aa"/><path d="m345.4 283.8 2 2z" fill="#f9d099"/><path d="m357.6 283.8 2 2z" fill="#fcf1e4"/><path d="m367.7 283.8 2 2zm34.5 0 2 2z" fill="#fdab33"/><path d="m428.6 283.8 2 2z" fill="#fbead6"/><path d="m335.2 285.8 2 2z" fill="#fea522"/><path d="m343.4 285.8 2 2z" fill="#fe9f11"/><path d="m359.6 285.8 2 2z" fill="#fcb144"/><path d="m367.7 285.8 2 2z" fill="#faca88"/><path d="m402.2 285.8 2 2z" fill="#f8dcbb"/><path d="m428.6 285.8 2 2z" fill="#fcb144"/><path d="m319 287.9 2 2z" fill="#d3d079"/><path d="m335.2 287.9 2 2zm24.4 0 2 2z" fill="#faca88"/><path d="m367.7 287.9 2 2zm34.5 0 2 2z" fill="#fae3c9"/><path d="m430.6 287.9 2 2z" fill="#f8dcbb"/><path d="m448.9 287.9 2 2z" fill="#f2f1d7"/><path d="m455.7 289.2.7 1.3z" fill="#58587b"/><path d="m319.6 291.2.8 1.4-.7-1.4z" fill="#d9d868"/><path d="m335.2 289.9 2 2z" fill="#f8dcbb"/><path d="m400.2 289.9 2 2z" fill="#f9d6aa"/><path d="m402.2 289.9 2 2z" fill="#fe9f11"/><path d="m430.6 289.9 2 2z" fill="#fcb144"/><path d="m449.6 291.2.7 1.4z" fill="#f2f1d2"/><path d="m335.2 291.9 2 2z" fill="#fcf1e4"/><path d="m398.2 291.9 2 2z" fill="#fef8f1"/><path d="m400.2 291.9 2 2z" fill="#fe9f11"/><path d="m406.3 291.9-2 4z" fill="#fdab33"/><path d="m408.3 291.9 2 2z" fill="#fcb755"/><path d="m432.7 291.9 2 2z" fill="#fea522"/><path d="m434.7 291.9 2 2z" fill="#f9d099"/><path d="m455 291.9 2 2z" fill="#53527c"/><path d="m315.6 295.3.7 1.3z" fill="#808067"/><path d="m337.3 293.9 2 2zm6 0 2 2z" fill="#fea522"/><path d="m365.7 293.9 2 2z" fill="#fe9f11"/><path d="m398.2 293.9 2 2z" fill="#fae3c9"/><path d="m406.3 293.9 2 2z" fill="#fef8f1"/><path d="m410.4 293.9 2 2z" fill="#fcb144"/><path d="m436.8 293.9 2 2z" fill="#fcb755"/><path d="m438.8 293.9 4 4z" fill="#fef8f1"/><path d="m449.6 295.3.7 1.3z" fill="#e5e59d"/><path d="m455.7 295.3.7 1.3z" fill="#32327b"/><path d="m338 297.3.6 1.4z" fill="#fcb755"/><path d="m345.4 295.9 2 2z" fill="#fef8f1"/><path d="m365.7 295.9 2 2z" fill="#fbbe66"/><path d="m398.2 295.9 2 2z" fill="#fbead6"/><path d="m402.2 295.9 2 2z" fill="#fe9f11"/><path d="m404.3 295.9 2 2z" fill="#fcf1e4"/><path d="m410.4 295.9 2 2z" fill="#fbead6"/><path d="m438.8 295.9 2 2z" fill="#fdab33"/><path d="m315 297.9 2 2z" fill="#667"/><path d="m321 297.9 2 2z" fill="#f6f6e4"/><path d="m345.4 297.9 2 2z" fill="#f9d6aa"/><path d="m361.6 297.9 2 2z" fill="#fdab33"/><path d="m363.6 297.9 2 2z" fill="#fe9f11"/><path d="m365.7 297.9 2 2z" fill="#fcf1e4"/><path d="m400.2 297.9 2 2z" fill="#fea522"/><path d="m402.2 297.9 2 2zm10.2 0 2 2z" fill="#faca88"/><path d="m440.8 297.9 2 2z" fill="#fcb144"/><path d="m448.9 297.9 2 2z" fill="#dddc7a"/><path d="m315 300 2 2z" fill="#58587b"/><path d="m321 300 2 2z" fill="#f2f1d2"/><path d="m338 301.4.6 1.3z" fill="#fcb144"/><path d="m345.4 300 2 2z" fill="#fea522"/><path d="m365.7 300 2 2z" fill="#fef8f1"/><path d="m367.7 300 2 2z" fill="#fea522"/><path d="m371.8 300 2 2z" fill="#fcb144"/><path d="m373.8 300 2 2z" fill="#fbead6"/><path d="m400.2 300 2 2z" fill="#f8dcbb"/><path d="m402.2 300 2 2z" fill="#fcf1e4"/><path d="m412.4 300 2 2z" fill="#fef8f1"/><path d="m414.4 300 2 2z" fill="#fe9f11"/><path d="m442.9 300 2 2z" fill="#fbead6"/><path d="m448.9 300 2 2z" fill="#d9d868"/><path d="m315 302 2 2z" fill="#3a3a7c"/><path d="m321 302 2 2z" fill="#e5e3af"/><path d="m347.4 302 2 2z" fill="#faca88"/><path d="m367.7 302 2 2z" fill="#fbead6"/><path d="m373.8 302 2 2z" fill="#fe9f11"/><path d="m375.9 302 2 2z" fill="#fcf1e4"/><path d="m398.2 302 2 2z" fill="#fbead6"/><path d="m400.2 302 2 2z" fill="#fae3c9"/><path d="m402.2 302 2 2z" fill="#fbead6"/><path d="m414.4 302 2 2zm16.3 0 2 2z" fill="#fbbe66"/><path d="m432.7 302 2 2z" fill="#fcf1e4"/><path d="m434.7 302 2 2z" fill="#fef8f1"/><path d="m436.8 302 2 2z" fill="#f8dcbb"/><path d="m438.8 302 2 2z" fill="#fcb755"/><path d="m442.9 302 2 2z" fill="#fae3c9"/><path d="m453 302 2 2z" fill="#808067"/><path d="m315 304 2 2z" fill="#32327b"/><path d="m317.6 305.4.7 1.4-.6-1.4z" fill="#a4a43d"/><path d="m321 304 2 2z" fill="#e5e59d"/><path d="m337.3 304 2 2z" fill="#fbc477"/><path d="m349.5 304 2 2z" fill="#f9d6aa"/><path d="m369.8 304 2 2z" fill="#fbbe66"/><path d="m375.9 304 2 2z" fill="#f9d099"/><path d="m394 304 2 2z" fill="#fae3c9"/><path d="m396.2 304 2 2z" fill="#fcb144"/><path d="m404.3 304 2 2z" fill="#fae3c9"/><path d="m414.4 304 2 2z" fill="#f8dcbb"/><path d="m430.6 304 2 2z" fill="#f9d099"/><path d="m440.8 304 2 2z" fill="#fbc477"/><path d="m442.9 304 2 2z" fill="#fbead6"/><path d="m453 304 2 2z" fill="#737370"/><path d="m321 306 2 2z" fill="#d9d868"/><path d="m337.3 306 2 2z" fill="#f9d099"/><path d="m351.5 306 2 2zm18.3 0 2 2z" fill="#f9d6aa"/><path d="m375.9 306 2 2z" fill="#fbc477"/><path d="m386 306 2 2z" fill="#fef8f1"/><path d="m388 306 2 2z" fill="#f8dcbb"/><path d="m390 306 2 2z" fill="#fbc477"/><path d="m392 306 2 2z" fill="#fea522"/><path d="m404.3 306 2 2z" fill="#fbead6"/><path d="m446.9 306 2 2z" fill="#f2f1d2"/><path d="m453 306 2 2z" fill="#58587b"/><path d="m317 308 2 2z" fill="#99994e"/><path d="m321 308 2 2z" fill="#d0d045"/><path d="m353.6 308 2 2z" fill="#fcb144"/><path d="m355.6 308 2 2z" fill="#fae3c9"/><path d="m369.8 308 2 2z" fill="#fef8f1"/><path d="m377.9 308 2 2z" fill="#fcb755"/><path d="m379.9 308 2 2z" fill="#fbc477"/><path d="m382 308 2 2z" fill="#fcb144"/><path d="m384 308 2 2z" fill="#fea522"/><path d="m400.2 308 2 2z" fill="#fe9f11"/><path d="m402.2 308 2 2z" fill="#f9d6aa"/><path d="m430.6 308 2 2z" fill="#fef8f1"/><path d="m446.9 308 2 2z" fill="#e0dea1"/><path d="m453 308 2 2z" fill="#3a3a7c"/><path d="m317 310.2 2 2z" fill="#737370"/><path d="m323 310.2 2 2z" fill="#fbfaf2"/><path d="m339.3 310.2 2 2z" fill="#fea522"/><path d="m357.6 310.2 2 2z" fill="#fe9f11"/><path d="m359.6 310.2 2 2z" fill="#fcb144"/><path d="m361.6 310.2 2 2z" fill="#fbc477"/><path d="m363.6 310.2 2 2z" fill="#faca88"/><path d="m365.7 310.2 2 2z" fill="#fbc477"/><path d="m367.7 310.2 2 2z" fill="#fcb144"/><path d="m369.8 310.2 2 2z" fill="#fdab33"/><path d="m398.2 310.2 2 2z" fill="#fbc477"/><path d="m400.2 310.2 2 2z" fill="#fef8f1"/><path d="m428.6 310.2 2 2z" fill="#fdab33"/><path d="m446.9 310.2 2 2z" fill="#e1e18c"/><path d="m451.6 311.5.7 1.4z" fill="#a4a43d"/><path d="m453 310.2 2 2z" fill="#262678"/><path d="m317 312.2 2 2z" fill="#58587b"/><path d="m323 312.2 2 2z" fill="#f2f1d2"/><path d="m339.3 312.2 2 2z" fill="#faca88"/><path d="m394 312.2 2 2z" fill="#fe9f11"/><path d="m396.2 312.2 2 2z" fill="#fbead6"/><path d="m414.4 312.2 2 2z" fill="#fbc477"/><path d="m428.6 312.2 2 2z" fill="#faca88"/><path d="m446.9 312.2 2 2z" fill="#d4d456"/><path d="m317 314.2 2 2z" fill="#32327b"/><path d="m323 314.2 2 2z" fill="#e5e59d"/><path d="m339.3 314.2 2 2z" fill="#fef8f1"/><path d="m341.3 314.2 2 2z" fill="#fe9f11"/><path d="m394 314.2 2 2z" fill="#fbead6"/><path d="m414.4 314.2 2 2z" fill="#fea522"/><path d="m428.6 314.2 2 2z" fill="#fcf1e4"/><path d="m451 314.2 2 2z" fill="#808067"/><path d="m317 316.2 2 2z" fill="#0e0e6e"/><path d="m319 316.2 2 2z" fill="#a4a43d"/><path d="m323 316.2 2 2z" fill="#d9d868"/><path d="m341.3 316.2 2 2z" fill="#f8dcbb"/><path d="m412.4 316.2 2 2z" fill="#f9d6aa"/><path d="m426.6 316.2 2 2z" fill="#faca88"/><path d="m444.9 316.2 2 2z" fill="#f2f1d2"/><path d="m451 316.2 2 2z" fill="#58587b"/><path d="m319 318.3 2 2z" fill="#8d8d5b"/><path d="m343.4 318.3 2 2z" fill="#f9d6aa"/><path d="m384 318.3 2 2z" fill="#fdab33"/><path d="m386 318.3 2 2z" fill="#fff"/><path d="m389.4 318.9 1.4.7z" fill="#fcb144"/><path d="m410.4 318.3-2 4z" fill="#fef8f1"/><path d="m412.4 318.3 2 2z" fill="#fe9f11"/><path d="m424.6 318.3-2 4z" fill="#fdab33"/><path d="m444.9 318.3 2 2z" fill="#e5e59d"/><path d="m451 318.3 2 2z" fill="#3a3a7c"/><path d="m319 320.3 2 2z" fill="#667"/><path d="m325 320.3 2 2z" fill="#f2f1d2"/><path d="m345.4 320.3 2 2z" fill="#f9d6aa"/><path d="m384 320.3 2 2z" fill="#fe9f11"/><path d="m386 320.3 2 2z" fill="#faca88"/><path d="m388 320.3 2 2z" fill="#fea522"/><path d="m390 320.3 2 2z" fill="#fcf1e4"/><path d="m410.4 320.3 2 2z" fill="#fdab33"/><path d="m424.6 320.3 2 2z" fill="#fef8f1"/><path d="m444.9 320.3 2 2z" fill="#d9d868"/><path d="m448.9 320.3 2 2z" fill="#a4a43d"/><path d="m451 320.3 2 2z" fill="#0e0e6e"/><path d="m319 322.3 2 2z" fill="#3a3a7c"/><path d="m325 322.3 2 2z" fill="#e5e59d"/><path d="m347.4 322.3 4 4z" fill="#fae3c9"/><path d="m349.5 322.3 2 2z" fill="#fe9f11"/><path d="m388 322.3 2 2z" fill="#f8dcbb"/><path d="m406.3 322.3 2 2z" fill="#fcf1e4"/><path d="m408.3 322.3 2 2z" fill="#fdab33"/><path d="m420.6 322.3 2 2z" fill="#fcb144"/><path d="m422.6 322.3 2 2z" fill="#fef8f1"/><path d="m442.9 322.3 2 2z" fill="#fbfaf2"/><path d="m448.9 322.3 2 2z" fill="#8d8d5b"/><path d="m319 324.4 2 2z" fill="#0e0e6e"/><path d="m321 324.4 2 2z" fill="#a4a43d"/><path d="m325 324.4 2 2z" fill="#d4d456"/><path d="m386 324.4 2 2z" fill="#f9d6aa"/><path d="m404.3 324.4 2 2z" fill="#f9d099"/><path d="m406.3 324.4 2 2z" fill="#fe9f11"/><path d="m418.5 324.4 2 2z" fill="#faca88"/><path d="m442.9 324.4 2 2z" fill="#eeedc1"/><path d="m448.9 324.4 2 2z" fill="#58587b"/><path d="m321 326.4 2 2z" fill="#737370"/><path d="m327 326.4 2 2z" fill="#f6f6e4"/><path d="m349.5 326.4 2 2z" fill="#fbbe66"/><path d="m382 326.4 2 2z" fill="#fcb144"/><path d="m384.6 327.8.7 1.3z" fill="#f8dcbb"/><path d="m400.2 326.4 2 2z" fill="#fbbe66"/><path d="m402.2 326.4 2 2z" fill="#fe9f11"/><path d="m414.4 326.4 2 2z" fill="#fbc477"/><path d="m416.5 326.4 2 2z" fill="#fcf1e4"/><path d="m442.9 326.4 2 2z" fill="#d3d079"/><path d="m446.9 326.4 2 2z" fill="#a4a43d"/><path d="m448.9 326.4 2 2z" fill="#262678"/><path d="m321 328.4 2 2z" fill="#49497d"/><path d="m327 328.4 2 2z" fill="#e0dea1"/><path d="m347.4 328.4 2 2z" fill="#fae3c9"/><path d="m375.9 328.4 2 2z" fill="#fdab33"/><path d="m377.9 328.4 2 2z" fill="#fbc477"/><path d="m379.9 328.4 2 2z" fill="#fbead6"/><path d="m386 328.4 2 2z" fill="#fcb144"/><path d="m412.4 328.4 2 2z" fill="#f9d6aa"/><path d="m446.9 328.4 2 2z" fill="#99994e"/><path d="m321 330.5 2 2z" fill="#0e0e6e"/><path d="m323 330.5 2 2z" fill="#a4a43d"/><path d="m327 330.5 2 2z" fill="#d4d456"/><path d="m345.4 330.5 2 2z" fill="#f9d099"/><path d="m347.4 330.5 2 2zm10.2 0 2 2z" fill="#fe9f11"/><path d="m359.6 330.5 2 2z" fill="#f9d6aa"/><path d="m361.6 330.5 2 2z" fill="#f9d099"/><path d="m369.8 330.5 2 2z" fill="#f9d6aa"/><path d="m371.8 330.5 2 2z" fill="#fae3c9"/><path d="m373.8 330.5 2 2z" fill="#fef8f1"/><path d="m390 330.5 2 2z" fill="#fbead6"/><path d="m392 330.5 2 2z" fill="#fae3c9"/><path d="m394 330.5 2 2z" fill="#faca88"/><path d="m396.2 330.5 2 2z" fill="#fbc477"/><path d="m398.2 330.5 2 2z" fill="#fdab33"/><path d="m408.3 330.5 2 2z" fill="#fe9f11"/><path d="m410.4 330.5 2 2z" fill="#f9d6aa"/><path d="m440.8 330.5 2 2z" fill="#e5e3af"/><path d="m446.9 330.5 2 2z" fill="#667"/><path d="m323 332.5 2 2z" fill="#737370"/><path d="m329.2 332.5 2 2z" fill="#f2f1d7"/><path d="m343.4 332.5 2 2z" fill="#fea522"/><path d="m353.6 332.5 2 2z" fill="#fe9f11"/><path d="m355.6 332.5 2 2z" fill="#fbbe66"/><path d="m357.6 332.5 2 2z" fill="#fcf1e4"/><path d="m406.3 332.5 2 2z" fill="#fea522"/><path d="m408.3 332.5 2 2z" fill="#fbead6"/><path d="m440.8 332.5 2 2z" fill="#dddc7a"/><path d="m444.9 332.5 2 2z" fill="#a4a43d"/><path d="m446.9 332.5 2 2z" fill="#262678"/><path d="m323 334.5 2 2z" fill="#49497d"/><path d="m325.8 335.9.7 1.3z" fill="#a4a43d"/><path d="m329.2 334.5 2 2z" fill="#d3d079"/><path d="m345.4 334.5 2 2z" fill="#f9d099"/><path d="m347.4 334.5 2 2z" fill="#fcb144"/><path d="m349.5 334.5 2 2z" fill="#faca88"/><path d="m351.5 334.5 2 2z" fill="#f8dcbb"/><path d="m353.6 334.5 2 2z" fill="#fef8f1"/><path d="m398.2 334.5 2 2z" fill="#f8dcbb"/><path d="m406.3 334.5 2 2z" fill="#fcf1e4"/><path d="m438.8 334.5 2 2z" fill="#f6f6e4"/><path d="m444.9 334.5 2 2z" fill="#8d8d5b"/><path d="m331.2 336.5 2 2z" fill="#fbfaf2"/><path d="m398.2 336.5 2 2z" fill="#fbbe66"/><path d="m404.3 336.5 2 2z" fill="#faca88"/><path d="m438.8 336.5 2 2z" fill="#e1e18c"/><path d="m444.9 336.5 2 2z" fill="#49497d"/><path d="m325 338.6 2 2z" fill="#58587b"/><path d="m331.2 338.6 2 2z" fill="#e5e59d"/><path d="m398.2 338.6 2 2z" fill="#fe9f11"/><path d="m402.2 338.6 2 2z" fill="#fdab33"/><path d="m436.8 338.6 2 2z" fill="#fbfaf2"/><path d="m442.9 338.6 2 2z" fill="#a4a43d"/><path d="m444.9 338.6 2 2z" fill="#0e0e6e"/><path d="m325 340.6 2 2z" fill="#1b1b74"/><path d="m327 340.6 2 2z" fill="#a4a43d"/><path d="m331.2 340.6 2 2z" fill="#d0d045"/><path d="m396.2 340.6 2 2z" fill="#fbead6"/><path d="m400.2 340.6 2 2z" fill="#fe9f11"/><path d="m402.2 340.6 2 2z" fill="#fbead6"/><path d="m436.8 340.6 2 2z" fill="#e5e59d"/><path d="m442.9 340.6 2 2z" fill="#667"/><path d="m327 342.6 2 2z" fill="#6e6c70"/><path d="m333.2 342.6 2 2z" fill="#e5e3af"/><path d="m396.8 344 .7 1.4z" fill="#faca88"/><path d="m400.2 342.6 2 2z" fill="#fae3c9"/><path d="m434.7 342.6 2 2z" fill="#fbfaf2"/><path d="m440.8 342.6 2 2z" fill="#a4a43d"/><path d="m442.9 342.6 2 2zm-115.8 2 2 2z" fill="#1b1b74"/><path d="m329.2 344.7 2 2z" fill="#a4a43d"/><path d="m333.2 344.7 2 2z" fill="#d0d045"/><path d="m335.2 344.7 2 2z" fill="#fbfaf2"/><path d="m398.2 344.7 2 2z" fill="#f9d6aa"/><path d="m434.7 344.7 2 2z" fill="#e5e59d"/><path d="m440.8 344.7 2 2zm-111.6 2 2 2z" fill="#6e6c70"/><path d="m335.2 346.7 2 2z" fill="#8cbf84"/><path d="m336 346.7c7 14.8 32 49.8 51 49.2 18.7-.7 39.6-35 47.7-49.2z" fill="#0cf"/><path d="m438.8 346.7 2 2z" fill="#a4a43d"/><path d="m440.8 346.7 2 2zm-111.6 2 2 2z" fill="#1b1b74"/><path d="m331.2 348.7 2 2z" fill="#a4a43d"/><path d="m335.2 348.7 2 2z" fill="#adb333"/><path d="m337.3 348.7 2 2z" fill="#1ac5b5"/><path d="m432.7 348.7 2 2z" fill="#68b070"/><path d="m438.8 348.7 2 2z" fill="#667"/><path d="m331.2 350.8 2 2z" fill="#58587b"/><path d="m337.3 350.8 2 2z" fill="#7fb15c"/><path d="m430.6 350.8 2 2z" fill="#27c2aa"/><path d="m436.8 350.8-2 4z" fill="#a4a43d"/><path d="m438.8 350.8 2 2zm-107.6 2 2 2z" fill="#0e0e6e"/><path d="m333.2 352.8 4 4z" fill="#a4a43d"/><path d="m339.3 352.8 2 2z" fill="#34be9e"/><path d="m430.6 352.8 2 2z" fill="#96b247"/><path d="m436.8 352.8 2 2z" fill="#53527c"/><path d="m333.2 354.9 2 2z" fill="#3a3a7c"/><path d="m339.3 354.9 2 2z" fill="#a2b23d"/><path d="m341.3 354.9 2 2z" fill="#0dc9c1"/><path d="m428.6 354.9 2 2z" fill="#5bb47c"/><path d="m434.7 354.9 2 2z" fill="#8d8d5b"/><path d="m335.2 356.9 2 2z" fill="#737370"/><path d="m341.3 356.9 2 2z" fill="#74b166"/><path d="m426.6 356.9 2 2z" fill="#27c2aa"/><path d="m432.7 356.9-2 4z" fill="#a4a43d"/><path d="m434.7 356.9 2 2z" fill="#262678"/><path d="m335.2 358.9 2 2z" fill="#0e0e6e"/><path d="m337.3 358.9 4 4z" fill="#a4a43d"/><path d="m343.4 358.9 2 2z" fill="#42bb92"/><path d="m424.6 358.9 2 2z" fill="#0dc9c1"/><path d="m426.6 358.9 2 2z" fill="#96b247"/><path d="m432.7 358.9 2 2z" fill="#58587b"/><path d="m337.3 360.9 2 2z" fill="#3a3a7c"/><path d="m343.4 360.9 2 2z" fill="#adb333"/><path d="m345.4 360.9 2 2z" fill="#27c2aa"/><path d="m424.6 360.9 2 2z" fill="#74b166"/><path d="m430.6 360.9 2 2z" fill="#8d8d5b"/><path d="m339.3 362.9 2 2z" fill="#6e6c70"/><path d="m345.4 362.9 2 2z" fill="#96b247"/><path d="m347.4 362.9 2 2z" fill="#0dc9c1"/><path d="m422.6 362.9 2 2z" fill="#42bb92"/><path d="m428.6 362.9-4 6z" fill="#a4a43d"/><path d="m430.6 362.9 2 2z" fill="#1b1b74"/><path d="m339.3 364.9 2 2z" fill="#0e0e6e"/><path d="m341.3 364.9 2 2z" fill="#8d8d5b"/><path d="m347.4 364.9 2 2z" fill="#7fb15c"/><path d="m420.6 364.9 2 2z" fill="#34be9e"/><path d="m428.6 364.9 2 2z" fill="#3a3a7c"/><path d="m341.3 367 2 2z" fill="#1b1b74"/><path d="m343.4 367 22.3 22.3z" fill="#a4a43d"/><path d="m349.5 367 2 2z" fill="#74b166"/><path d="m418.5 367 2 2z" fill="#27c2aa"/><path d="m420.6 367 2 2z" fill="#adb333"/><path d="m426.6 367 2 2z" fill="#667"/><path d="m343.4 369 2 2z" fill="#32327b"/><path d="m351.5 369 2 2z" fill="#42bb92"/><path d="m416.5 369-8.2 10.2 8.3-10.3z" fill="#0dc9c1"/><path d="m418.5 369 2 2z" fill="#adb333"/><path d="m424.6 369 2 2z" fill="#737370"/><path d="m345.4 371 2 2z" fill="#49497d"/><path d="m353.6 371 2 2z" fill="#42bb92"/><path d="m416.5 371 2 2z" fill="#96b247"/><path d="m422.6 371-2 4z" fill="#8d8d5b"/><path d="m424.6 371 2 2z" fill="#0e0e6e"/><path d="m347.4 373 2 2z" fill="#53527c"/><path d="m355.6 373 2 2z" fill="#42bb92"/><path d="m414.4 373 2 2z" fill="#96b247"/><path d="m422.6 373 2 2z" fill="#0e0e6e"/><path d="m349.5 375 2 2z" fill="#6e6c70"/><path d="m357.6 375 2 2z" fill="#42bb92"/><path d="m412.4 375 2 2z" fill="#96b247"/><path d="m418.5 375-4 6.2 4-6z" fill="#a4a43d"/><path d="m420.6 375 2 2z" fill="#262678"/><path d="m351.5 377.2 2 2z" fill="#6e6c70"/><path d="m359.6 377.2 2 2z" fill="#42bb92"/><path d="m410.4 377.2 2 2z" fill="#96b247"/><path d="m418.5 377.2 2 2z" fill="#262678"/><path d="m353.6 379.2 2 2z" fill="#6e6c70"/><path d="m361.6 379.2 2 2z" fill="#68b070"/><path d="m406.3 379.2 2 2z" fill="#27c2aa"/><path d="m408.3 379.2 2 2z" fill="#adb333"/><path d="m416.5 379.2 2 2z" fill="#262678"/><path d="m355.6 381.2 2 2z" fill="#667"/><path d="m363.6 381.2 2 2z" fill="#74b166"/><path d="m404.3 381.2 2 2z" fill="#34be9e"/><path d="m406.3 381.2 2 2z" fill="#adb333"/><path d="m412.4 381.2-2 4z" fill="#8d8d5b"/><path d="m414.4 381.2 2 2z" fill="#262678"/><path d="m357.6 383.2 2 2z" fill="#49497d"/><path d="m365.7 383.2 2 2z" fill="#96b247"/><path d="m367.7 383.2 2 2z" fill="#0dc9c1"/><path d="m402.2 383.2 2 2z" fill="#42bb92"/><path d="m412.4 383.2 2 2z" fill="#0e0e6e"/><path d="m359.6 385.3 2 2z" fill="#49497d"/><path d="m367.7 385.3 2 2z" fill="#a2b23d"/><path d="m369.8 385.3 2 2z" fill="#27c2aa"/><path d="m400.2 385.3 2 2z" fill="#74b166"/><path d="m406.3 385.3-6 8z" fill="#a4a43d"/><path d="m408.3 385.3 2 2z" fill="#808067"/><path d="m410.4 385.3 2 2z" fill="#0e0e6e"/><path d="m361.6 387.3 2 2z" fill="#262678"/><path d="m369.8 387.3 2 2z" fill="#adb333"/><path d="m371.8 387.3 2 2z" fill="#42bb92"/><path d="m396.2 387.3 2 2z" fill="#0dc9c1"/><path d="m398.2 387.3 2 2z" fill="#96b247"/><path d="m406.3 387.3 2 2z" fill="#6e6c70"/><path d="m363.6 389.3 2 2z" fill="#1b1b74"/><path d="m365.7 389.3 2 2z" fill="#8d8d5b"/><path d="m373.8 389.3 2 2z" fill="#74b166"/><path d="m375.9 389.3 2 2z" fill="#0dc9c1"/><path d="m394 389.3 2 2z" fill="#34be9e"/><path d="m396.2 389.3 2 2z" fill="#adb333"/><path d="m404.3 389.3 2 2z" fill="#49497d"/><path d="m365.7 391.4 2 2z" fill="#0e0e6e"/><path d="m367.7 391.4 2 2z" fill="#6e6c70"/><path d="m369.8 391.4 4 4z" fill="#a4a43d"/><path d="m375.9 391.4 2 2z" fill="#96b247"/><path d="m377.9 391.4 2 2z" fill="#27c2aa"/><path d="m392 391.4 2 2z" fill="#68b070"/><path d="m402.2 391.4 2 2z" fill="#32327b"/><path d="m369.8 393.4 2 2z" fill="#49497d"/><path d="m379.9 393.4 2 2z" fill="#5bb47c"/><path d="m388 393.4 2 2z" fill="#27c2aa"/><path d="m390 393.4 2 2z" fill="#96b247"/><path d="m396.2 393.4-2 4z" fill="#a4a43d"/><path d="m398.2 393.4 2 2z" fill="#808067"/><path d="m400.2 393.4 2 2z" fill="#0e0e6e"/><path d="m371.8 395.4 2 2z" fill="#262678"/><path d="m373.8 395.4 2 2z" fill="#8d8d5b"/><path d="m382 395.4 2 2z" fill="#8bb252"/><path d="m384 395.4 2 2z" fill="#1ac5b5"/><path d="m386 395.4 2 2z" fill="#5bb47c"/><path d="m396.2 395.4 2 2z" fill="#58587b"/><path d="m373.8 397.5 2 2z" fill="#0e0e6e"/><path d="m375.9 397.5 2 2z" fill="#667"/><path d="m377.9 397.5 2 2z" fill="#a4a43d"/><path d="m392 397.5 2 2z" fill="#99994e"/><path d="m394 397.5 2 2zm-16.1 2 2 2z" fill="#32327b"/><path d="m379.9 399.5 2 2z" fill="#99994e"/><path d="m388 399.5 2 2z" fill="#a4a43d"/><path d="m390 399.5 2 2z" fill="#667"/><path d="m392 399.5 2 2zm-12.1 2 2 2z" fill="#0e0e6e"/><path d="m382 401.5 2 2z" fill="#667"/><path d="m384 401.5 2 2z" fill="#a4a43d"/><path d="m386 401.5 2 2z" fill="#99994e"/><path d="m388 401.5 2 2z" fill="#32327b"/><path d="m384 403.5 2 2z" fill="#262678"/><path d="m386 403.5 2 2z" fill="#0e0e6e"/><path d="m388 267.5c3.2 7.4 13.2 15.5 16 19.5-3.5 4-4.2 3.6-3.8 11 6-6.4 6.2-7 10.2-6.1 8.6 8.6 1.5 27-5.6 31-7.1 4.3-5.8-.1-16.5 5.2 4.9 4.2 10.6-.6 15.2.7 2.5 3-1.2 8.4.7 13.6 4-.4 3.6-8.7 4.6-11.7 3-11 21-18.6 21.9-28.7 3.8-1.7 7.5-.5 12 2-2.2-9.4-9.7-9.3-11.8-12.2-4.8-7.4-9.1-15.8-19.4-18-8-1.7-7.3.5-12.3-3-3.2-2.4-12.7-7-11.2-3.3z" fill="#f90"/><path d="m410.6 275.9a1.6 1.6 0 1 1 -3.3 0 1.6 1.6 0 0 1 3.3 0z" fill="#fff" fill-rule="evenodd"/><path d="m362.9 298.8c5-6.2 7.6-19 9.8-23.2 5.2 1.2 5 2 11.5-1.8-8.5-2.4-9.2-2.2-10.2-6.1 3.6-11.7 23.2-14 30-9.6 7.2 4.3 2.7 5.2 12.4 12 1.4-6.2-5.5-9-6.5-13.6 1.5-3.7 8-3 11.6-7-2.2-3.5-9.3.8-12.4 1.4-11 2.5-26.3-9.8-35.6-6-3.3-2.5-4-6.4-4-11.7-7.1 6.5-3.5 13-5.2 16.3-4.2 7.7-9.7 15.5-6.8 25.6 2.2 7.8 3.8 6.2 3.2 12.3-.7 3.9-.4 14.5 2.2 11.4z" fill="#f90"/><path d="m359.8 274.9c.8-.4 1.8-.1 2.2.7a1.6 1.6 0 1 1 -2.2-.7z" fill="#fff" fill-rule="evenodd"/><path d="m404 303c-8-1-20.1 3.4-25 3.8-1.5-5.1-.8-5.5-7.4-9 2.3 8.6 2.8 9 0 12-11.8 2.9-24-12.7-23.8-20.8 0-8.3 3.2-5 4-17-6 2-4.8 9.5-8.3 12.8-4 .6-6.6-5.3-12-6.3-1.8 3.7 5.5 7.5 7.6 9.9 7.9 8.2 5.2 27.5 13.3 33.5-.4 4.2-3.4 6.8-8 9.4 9.3 2.9 13-3.7 16.7-4 8.8-.2 18.3.4 25.5-7.3 5.4-6 3.3-6.5 8.8-9 3.7-1.4 12.6-7.2 8.6-8z" fill="#f90"/><path d="m385.2 318.2a1.6 1.6 0 1 1 1.7-2.8 1.6 1.6 0 0 1 -1.7 2.8z" fill="#fff" fill-rule="evenodd"/><g stroke-width=".5"><path d="m0 0h256v256h-256z" fill="#012169"/><path d="m256 0v32l-95 96 95 93.5v34.5h-33.5l-95.5-94-93 94h-34v-34l93-93.5-93-91.5v-37h31l96 94 93-94z" fill="#fff"/><path d="m92 162 5.5 17-76.5 77h-21v-1.5zm62-6 27 4 75 73.5v22.5zm102-156-96 98-2-22 75-76zm-256 .5 96.5 94.5-29.5-4-67-66.5z" fill="#c8102e"/><path d="m88 0v256h80v-256zm-88 88v80h256v-80z" fill="#fff"/><path d="m0 104v48h256v-48zm104-104v256h48v-256z" fill="#c8102e"/></g></svg>