<svg viewBox="0 0 512 512" xmlns="http://www.w3.org/2000/svg"><path d="m0 0h512v512h-512z" fill="#072b5f"/><path d="m277.8 0c37.7 3.2 73 14.4 104.3 32l18.5-32h6.6l-20.2 35c37 22 68.2 53 90.2 90l34.8-20v6.6l-32 18.4c17.5 31 28.7 66 32 103.2v45.8a255.3 255.3 0 0 1 -32 103l32 18.4v6.6l-34.8-20c-22 37-53.1 68-90.2 90l20.1 34.9h-6.6l-18.4-32c-31 17.5-66 28.7-103.2 32h-45.7a255.3 255.3 0 0 1 -103.2-31.9l-18.4 32h-6.6l20-34.8c-37-22-68-53.1-90-90.2l-35 20.2v-6.6l32-18.6a255.4 255.4 0 0 1 -32-104.2v-43.5c3.2-37.7 14.4-73 32-104.3l-32-18.5v-6.5l35 20.2c22-37.2 53-68.3 90-90.3l-20-34.9h6.5l18.5 32a255.4 255.4 0 0 1 104.3-32zm-109 413-35.9 62a250 250 0 0 0 120.3 32.3v-71.7h-.1c-30.6-.5-59.3-8.6-84.4-22.6zm178.8 7.3-6.5 3.9-7-2.1-12.3 2-1.1-.5a179 179 0 0 1 -61.8 12v71.6h1.3a250 250 0 0 0 119-32.1zm89.2-56.6-10.5.9 2.8 6.3-5.7 5.7-9.2 1.7-2.8 5 6.8 3.4-13 12 3.9 6.4-10.2-2.3-11.4 6.8-15.3 7.3-3.4 5.2-2.3-2 2.3-5-10.2 4-2.3-4-3.8 2.3 31.7 54.8a252.5 252.5 0 0 0 88-88zm-334.8-15.4-62.1 35.8a252.5 252.5 0 0 0 88 88.1l35.9-62a180.5 180.5 0 0 1 -61.8-61.9zm128 6.9-1.7 2.9-8 .5h-2l-3.5 5.8-9.6-7-5.3 1.8.7 4.6-2.6-1.5-26.4 45.7a173 173 0 0 0 81.6 21.9v-69.4l-.4-.1-22.7-5.2zm55.8 5.2-4.2 1.9 2 5.5h-14.4l-10.3-4.5v66.7c19.1-.3 37.4-3.7 54.6-9.7l-3.4-2-13.6 3.5-12-7.7v3.1l-2.9-3.8 3.5-3.5-.6-10.3h4l2.3-6.7 2.9-1.3-2.3-3.4 3.4-1.2-.5-5.1-3.5-1.6 4.6-.5-2.9-12.5-6.7-6.8zm-152-30.5-26.8 15.6c14.7 24.4 35.3 45 59.7 59.7l26.3-45.6-4.9-2.7-.5 4.6-12.5-5.7-.5.5-6.3 2.3-1.2-4.5-14.7-7.3-15.8-5.2-2.6-11.7zm326.5-71 1.1 3.6-1.7 8 3.4 4.6 9 1.8-9 12.4 1.8 2 2.2 2.6-4 6 3.9 2.4-20 16.4 4.7 11.5-1.2 6.7-6.8 2.2-1.8 5.8-7.6 3.4-2.1 6.1 42.9 24.8a250 250 0 0 0 32.2-120.3zm-455.5.1v1.3a250 250 0 0 0 32.2 119l62-35.8a180 180 0 0 1 -22.5-84.5zm77.4 0a173 173 0 0 0 21.8 81.6l28.7-16.5-5.4-9.5 2.8-13.8-5.1-1.7-1.7-5.7 8.6-1h-3.9l.4-8.6-12.4 3.9-.6-3.3-1.7 6.3-6.7 2.7-4.7-4.4-1.6-4.6-1.9-9 4-2.8 1.7 2 1.2-2.6-1.8-13zm44.3 41-1.7 4-5.5 1 3.4-4.5 3.8-.4zm-27.9-90.7-4 5.6-1.1-3.8-5.2 1.5-.7.4a174 174 0 0 0 -5.4 40.3h20.9l-.3-1.7 4.6 1 2.5-21.3.6-.8 4.6-2.6-5.8.5-2-5.1 10-11.5-9.1-1.5-6.9 6.7zm376.5-76.3-47.1 27 11.2 28.2-6.3 5.8-.4 6.6-4.1 5 .7 2.5 4 2.7-2.3 1.9 5 5 7.8 1.3 2.4 3.2 2.1 4.6 5.8 2.3 6.8-4.6 4.6.6-5.7 8 5.7 14.7-6.4 5.4h48.2v-1.3a250 250 0 0 0 -32.1-119zm-438 0a250 250 0 0 0 -32.4 120.2h71.7v-.1c.3-18.4 3.4-36.2 8.8-52.9l-1.6.4-.4-5.7h3.8l1.8-4.7-5.2-9-3.2 1.1-2.3-3.8-1.2 3.4-3.4-2.5 3.4-2-5.1-2 1.1-2.7-4-2.2-1.1-9-4-1.4 2.4-1.5-4.5-11.4-24.7-14.2zm98 56.6 5 6 2.8-1.4-7.9-4.6zm-41.9 5.4h.8l-.2-1.4zm73.4-88a174.7 174.7 0 0 0 -59.7 59.7l43.5 25.2 32-7.4 1.4-6.9 2.7 1.4-.6-2.3 2-1.2 7.8-2.8v-7.9l2.6-3zm-91 79.4.1.2h-.2v-.2zm-5.6-7.6 6.3 3.8-.8 3.8zm58-138.8a252.5 252.5 0 0 0 -88.1 88l22.5 13 1.5-10.2h3.4l-.5 4.2v.2l-.3.1.1.7-.3 2.2 6 8.5 22.6 13 .5-.7 1.5 1.9 5 2.9a180.5 180.5 0 0 1 61.9-61.8l-35.9-62.1zm-66.3 115.2v.7l-1.6 4.4-1.9-5.1zm322.5-115.3-35.2 60.7 2.5-.8.7 4.6 3.6 2.4 2.7-4.7h3.3l2 10.3 7.6 6.1 2.4-1.2 6.3-2.2 17.6 6 3.2-.9 1.4 6.1 4.6.8-1.2-3h3.8l1.2 6.2 4.6-5 10.9 6.8 2.8 12.4-4.6 1.3 1.1 9 46.6-26.9a252.5 252.5 0 0 0 -88-88zm-324 110.3 1.7 4-3.4-2.3zm191.6-68h1a173 173 0 0 0 -81.2 21.8l28.8 50 1.4-5.3-1.7-5.2 8-19v-12.3h3.8l4.8-6.9 5.7-1.7.6-6.3 7.6-9.6 3.7 2 15.8-5.8zm-181.3 51.6v4.4h-.2v.4l-3.4-.4-.3-2.2.1-.8v-.2l3.8-1.1zm-1.3-10.5-2.3 5.1-1-2.3v-.3zm250.6-29 7.5 6.4 8.1.6c-5-2.6-10.2-5-15.6-7zm-63.8-89.5a250 250 0 0 0 -123 32.2l35.8 62a180 180 0 0 1 84.5-22.5v-71.7h2.8zm3 0v71.7c15.4.2 30.2 2.4 44.4 6.3l1.4-.8v1.2c13.6 3.8 26.5 9.2 38.6 15.9l35.8-62a250 250 0 0 0 -120.3-32.4zm25 79.6 12 2.8.3-.3c-4-1-8.1-1.8-12.3-2.5zm-23.8-2.2 16.6 4 2.4-2.5a175 175 0 0 0 -19-1.5z" fill="#fff"/><path d="m257.6 73 1.7 9 1 .2h-1.3v76.5a97 97 0 0 1 43.4 11.6l38.2-66.3-5-2.7 2.1.2 6.3 1 5.2-1.9-.8 1.4 4 2.4v.5l3.5 2.1.1-.2 8 5.6.5 2.7 2.6.5-.5 4.6-.4.6h1l4.4-2.3a178.5 178.5 0 0 1 38.6 45.3l15.5-9v.6l1.8 2.8.7 1.8-15 8.7c6.4 11.6 11.6 24 15.4 37l-1 1.2 1.7 1.2c4 14.4 6.2 29.5 6.4 45h23.3l-.4.5 1.7 5.3h-24.7v.1c-.5 30.6-8.6 59.3-22.6 84.4l19.2 11-.4 1.2-1.7 3.8 8 4.2-1.3.1-26.7-15.4a180.5 180.5 0 0 1 -61.8 61.8l4.2 7.3-5 3-4.1-7.4c-7.3 4-14.9 7.6-22.7 10.6l-2.4-1.2-1.1-.4-2.1-1.3h-.2l2 1.1-2.2-.9-1.2-.7a173 173 0 0 0 27-12.2l-38.2-66.2a97 97 0 0 1 -43.4 11.6v10l-1.5-.8-4.2-2v-7.2a97 97 0 0 1 -43.4-11.6l-11.8 20.5-5-2.7 11.9-20.6a98 98 0 0 1 -31.8-31.8l-39.1 22.8-.3-1.3v-3l-1-1.6 37.7-21.7a97 97 0 0 1 -11.6-43.4h-54.8l-.8-5.7h55.6a97 97 0 0 1 11.6-43.4l-27.4-15.7 2.1-1.1 5.4-1.2 22.7 13a98 98 0 0 1 31.8-31.7l-6.6-11.4 2.1-7.8 9.4 16.4a97 97 0 0 1 43.4-11.6v-76.6h-1.4l.2-.2 3.3-3.4-1.4-5.6h3.5zm81.4 234.2a98 98 0 0 1 -31.8 31.8l38.3 66.2c24.4-14.7 45-35.3 59.7-59.7zm-80-40.5v81a91.2 91.2 0 0 0 40.4-10.8l-40.5-70.2zm-5.8 0-40.5 70.3a91.2 91.2 0 0 0 40.5 10.8v-81zm176.7-7.8h-76.5a97 97 0 0 1 -11.6 43.4l66.2 38.2a173 173 0 0 0 21.9-81.6zm-166 5 40.5 70.1a92.2 92.2 0 0 0 29.6-29.6zm-15.7 0-70.1 40.5a92.2 92.2 0 0 0 29.6 29.6zm18.5-5 70.2 40.5a91.2 91.2 0 0 0 10.8-40.5zm-21.4 0h-81a91.2 91.2 0 0 0 11 40.5zm91.6-46.2-70.2 40.5h81a91.2 91.2 0 0 0 -10.8-40.5zm-161.7 0a91.2 91.2 0 0 0 -10.8 40.5h81zm232.8-41.1-66.2 38.2a97 97 0 0 1 11.6 43.4h76.6a173 173 0 0 0 -21.9-81.6zm-200.3 6.5a92.2 92.2 0 0 0 -29.6 29.6l70.1 40.5zm96.7 0-40.5 70.1 70.1-40.5a92.2 92.2 0 0 0 -29.6-29.6zm-51.2-13.7a91.2 91.2 0 0 0 -40.5 10.8l40.5 70.1v-81zm5.7 0v81l40.5-70.2a91.2 91.2 0 0 0 -40.5-10.8zm-171.3 48.5-2.5 1.3 2.6-10.3-2.3-1.2 1.4-2.8-1.5.3 1.8-5.3h6.1c-2.1 5.9-4 11.8-5.6 18zm257.9-106-38.3 66.2a98 98 0 0 1 31.8 31.9l66.2-38.3a174.7 174.7 0 0 0 -59.7-59.7zm-283.1 34.1 10 5.8 2.3 3.3 6.2 8 12.6 3.5v.4l1.4-2.2 2 1.2 5.2 6.1 3.4 3.8 1.7 2 19.1 9.1 3.5 1.7 1.1 1 4.1 4.9-31-17.9c-3.9 7-7.3 14.4-10.2 22l-.3-1.6h-3.5l-1-1.8c2.9-7.4 6.2-14.6 10-21.5l-37.2-21.5-.2-.6.5-3.8zm242.4-57.7.3 4 7 .7 5.7 4.4h-.6v.6h1.1l.6.6 1 .8a169 169 0 0 0 -23.5-7.4l.3-.3 6.7-3.8zm-25 .1 1 .4 3.3.7-3.4-.5-1.2-.4.7.4-.9-.2.4-.4zm-26.5-1h-.1zm2.7-.1h-2.7zm61 339.5.3.2 1.1.6z" fill="#072b5f"/></svg>