<svg viewBox="0 0 512 512" xmlns="http://www.w3.org/2000/svg"><path d="m0 0h512v512h-512z" fill="#006" stroke-width="1.3"/><path d="m54.9 368.6 40.6 15.4 13.4-41.4 13.3 41.4 40.7-15.4-24.1 36.3 37.4 22.2-43.3 3.7 6 43.1-30-31.5-30 31.5 6-43-43.4-3.8 37.5-22.2m325 71.5-19 1.6 2.7 18.8-13-13.7-13 13.7 2.3-18.8-18.8-1.6 16.3-9.6-10.5-15.8 17.7 6.7 5.8-18 5.7 18 17.8-6.7-10.4 15.8m16.2-270.4-18.8 1.6 2.6 18.8-13-13.7-13 13.7 2.4-18.8-18.8-1.6 16.3-9.6-10.5-15.8 17.7 6.7 5.8-18 5.7 18 17.8-6.7-10.4 15.8m-88.8 123.4-18.8 1.6 2.6 18.7-13-13.7-13 13.7 2.5-18.7-18.8-1.6 16.3-9.7-10.5-15.7 17.7 6.7 5.8-18 5.7 18 17.7-6.7-10.4 15.7m214.4-18.3-18.8 1.6 2.6 18.7-13-13.7-13 13.7 2.5-18.7-18.8-1.6 16.3-9.7-10.5-15.7 17.7 6.7 5.8-18 5.8 18 17.6-6.7-10.4 15.7m-64.2 82.5-10.3 6.4 2.9-11.8-9.3-7.8 12-.9 4.7-11.2 4.4 11.3 12.1 1-9.2 7.7 2.9 11.8" fill="#fff" fill-rule="evenodd" stroke-width="1.3"/><g transform="scale(.5)"><path d="m0 0h512v512h-512z" fill="#006"/><path d="m512 0v64l-190 192 190 187v69h-67l-191-188-186 188h-68v-68l186-187-186-183v-74h62l192 188 186-188z" fill="#fff"/><path d="m184 324 11 34-153 154h-42v-3zm124-12 54 8 150 147v45zm204-312-192 196-4-44 150-152zm-512 1 193 189-59-8-134-133z" fill="#c8102e"/><path d="m176 0v512h160v-512zm-176 176v160h512v-160z" fill="#fff"/><path d="m0 208v96h512v-96zm208-208v512h96v-512z" fill="#c8102e"/></g></svg>