<svg viewBox="0 0 512 512" xmlns="http://www.w3.org/2000/svg"><path d="m0 0h512v256h-512z" fill="#0038a8"/><path d="m0 256h512v256h-512z" fill="#ce1126"/><path d="m443.4 256-443.4 256v-512" fill="#fff"/><g fill="#fcd116"><path d="m25.2 44.4 15.4 13.3 17.9-9.8-8 18.7 15 14-20.5-1.7-8.6 18.4-4.7-19.8-20.2-2.6 17.5-10.5zm346.9 184.6.4 20.3 19.3 6.7-19.3 6.7-.4 20.3-12.3-16.2-19.5 6 11.7-16.8-11.7-16.7 19.5 5.9zm-335.6 185.7 8.6 18.4 20.3-1.7-14.8 14 7.9 18.7-17.9-9.8-15.4 13.3 3.9-20-17.5-10.5 20.2-2.6z" stroke-width="1.1"/><path d="m158.9 148-6.6 6.6 3.2 50.3-3.3.3-6-45.9-5.5 5.4 8.2 41a51 51 0 0 0 -18.4 7.7l-23.3-34.8h-7.7l28.2 36.8-2.5 2.1-33.3-38h-9.4v9.5l38 33.3-2.2 2.5-36.8-28.2v7.7l34.8 23.3a50.9 50.9 0 0 0 -7.6 18.4l-41-8.2-5.5 5.5 46 6-.4 3.4-50.3-3.3-6.7 6.6 6.7 6.6 50.3-3.2.3 3.3-45.9 6 5.4 5.5 41-8.2a51 51 0 0 0 7.7 18.4l-34.8 23.3v7.7l36.8-28.2 2.1 2.5-38 33.3v9.4h9.6l33.3-38 2.5 2.2-28.2 36.8h7.7l23.3-34.8a50.8 50.8 0 0 0 18.4 7.6l-8.2 41 5.5 5.5 6-46 3.3.4-3.2 50.3 6.6 6.7 6.6-6.7-3.2-50.3 3.3-.3 6 45.9 5.5-5.4-8.2-41a51 51 0 0 0 18.4-7.7l23.3 34.8h7.7l-28.4-36.8 2.5-2.1 33.3 38h9.4v-9.5l-38-33.3 2.2-2.5 36.8 28.2v-7.7l-34.8-23.3a50.9 50.9 0 0 0 7.6-18.4l41 8.2 5.5-5.5-46-6 .4-3.3 50.3 3.2 6.7-6.6-6.7-6.6-50.3 3.3c0-1.2-.2-2.3-.3-3.4l45.9-6-5.4-5.5-41 8.2a51 51 0 0 0 -7.7-18.4l34.8-23.3v-7.7l-36.8 28.2-2.1-2.5 38-33.3v-9.4h-9.5l-33.3 38-2.5-2.2 28.2-36.8h-7.7l-23.3 34.8a50.9 50.9 0 0 0 -18.4-7.6l8.2-41-5.5-5.5-6 46-3.3-.4 3.2-50.3z" stroke-width="5.7"/></g></svg>