<svg viewBox="0 0 512 512" xmlns="http://www.w3.org/2000/svg"><path d="m0 0h512v512h-512z" fill="#009fca" stroke-width="4.9"/><path d="m478 226.3 7.1 20.4-18.4-12.6-18.5 12.6 7.1-20.4-18.5-12.6h22.9l7-20.4 7 20.4h22.8zm-57.2 162.8 7 20.4-18.4-12.7-18.4 12.7 7-20.4-18.4-12.7h22.8l7-20.4 7 20.5h22.9zm57.3-36.9 7 20.4-18.4-12.6-18.5 12.6 7.1-20.4-18.5-12.6h22.9l7-20.4 7 20.4h22.8zm-246.2 118 7.1 20.5-18.4-12.7-18.5 12.7 7.1-20.4-18.5-12.6h22.8l7-20.4 7.1 20.4h22.8zm43.1-88.4-7-20.4 18.4 12.6 18.4-12.6-7 20.4 18.4 12.6h-22.8l-7 20.4-7-20.4h-22.8zm67.3-93-7.1-20.4 18.4 12.6 18.5-12.6-7 20.4 18.4 12.6h-22.8l-7 20.4-7-20.4h-22.9zm56.5-19.3-7-20.4 18.4 12.6 18.4-12.6-7 20.4 18.4 12.6h-22.8l-7 20.4-7-20.4h-22.9zm-56.5 161-7.1-20.4 18.4 12.6 18.5-12.6-7 20.4 18.4 12.6h-22.8l-7 20.4-7-20.4h-22.9zm-67.3 16.4-7-20.4 18.4 12.6 18.4-12.6-7 20.4 18.4 12.6h-22.8l-7 20.4-7-20.4h-22.8z" fill="#fff40d" fill-rule="evenodd" stroke-width="1pt"/><g transform="scale(.5)"><path d="m0 0h512v512h-512z" fill="#012169"/><path d="m512 0v64l-190 192 190 187v69h-67l-191-188-186 188h-68v-68l186-187-186-183v-74h62l192 188 186-188z" fill="#fff"/><path d="m184 324 11 34-153 154h-42v-3zm124-12 54 8 150 147v45zm204-312-192 196-4-44 150-152zm-512 1 193 189-59-8-134-133z" fill="#c8102e"/><path d="m176 0v512h160v-512zm-176 176v160h512v-160z" fill="#fff"/><path d="m0 208v96h512v-96zm208-208v512h96v-512z" fill="#c8102e"/></g></svg>