<svg viewBox="0 0 512 512" xmlns="http://www.w3.org/2000/svg" xmlns:xlink="http://www.w3.org/1999/xlink"><clipPath id="a"><path d="m0 0h512v512h-512z"/></clipPath><g clip-path="url(#a)"><path d="m0 0h768v512h-768z" fill="red"/><path d="m0 0h384v256h-384z" fill="#000095"/><g fill="#fff"><path d="m164.3 135.4-2.7 10.2 10.1 2.7-2-7.4zm50 5.5-2 7.4 10.1-2.7-2.7-10.2zm-44.6-25.8-5.4 5.5 2 7.4z"/><path d="m166.3 128-2 7.4 5.4 5.5z"/><path d="m164.3 120.6-7.4 7.4 7.4 7.4 2-7.4zm14.8 29.7 5.5 5.4 7.4-2zm20.3 5.4 10.2 2.7 2.7-10.1-7.4 2z"/><path d="m204.9 150.3 7.4-2 2-7.4zm-33.2-2 2.7 10.1 10.2-2.7-5.5-5.4zm20.3 5.4 7.4 2 5.5-5.4z"/><path d="m184.6 155.7 7.4 7.4 7.4-7.4-7.4-2zm-12.9-48-10.1 2.7 2.7 10.2 5.4-5.5zm-2 33.2 2 7.4 7.4 2zm48-12.9 2-7.4-5.4-5.5z"/><path d="m179.1 105.7-7.4 2-2 7.4zm35.2 9.4-2-7.4-7.4-2zm5.4 20.3 7.4-7.4-7.4-7.4-2 7.4z"/><path d="m214.3 115.1-9.4-9.4-12.9-3.4-12.9 3.4-9.4 9.4-3.4 12.9 3.4 12.9 9.4 9.4 12.9 3.4 12.9-3.4 9.4-9.4 3.4-12.9z"/><path d="m214.3 140.9 5.4-5.5-2-7.4zm5.4-20.3 2.7-10.2-10.1-2.7 2 7.4z"/><path d="m212.3 107.7-2.7-10.1-10.2 2.7 5.5 5.4zm-27.7-7.4-10.2-2.7-2.7 10.1 7.4-2z"/><path d="m192 102.3-7.4-2-5.5 5.4z"/><path d="m199.4 100.3-7.4-7.4-7.4 7.4 7.4 2z"/><path d="m204.9 105.7-5.5-5.4-7.4 2zm-20.3 50-10.2 2.7 4.7 17.6 12.9-12.9zm-5.5 20.3 12.9 48 12.9-48-12.9-12.9zm-7.4-27.7-10.1-2.7-4.7 17.5 17.5-4.7z"/><path d="m156.9 163.1-12.9 48 35.1-35.1-4.7-17.6zm-12.9-22.2-35.1 35.1 48-12.9 4.7-17.5z"/><path d="m164.3 135.4-7.4-7.4-12.9 12.9 17.6 4.7zm0-14.8-2.7-10.2-17.6 4.7 12.9 12.9z"/><path d="m144 115.1-48 12.9 48 12.9 12.9-12.9zm96 25.8-17.6 4.7 4.7 17.5 48 12.9z"/><path d="m212.3 148.3-2.7 10.1 17.5 4.7-4.7-17.5zm-12.9 7.4-7.4 7.4 12.9 12.9 4.7-17.6zm20.3-20.3 2.7 10.2 17.6-4.7-12.9-12.9zm-14.8 40.6 35.1 35.1-12.9-48-17.5-4.7zm7.4-68.3 10.1 2.7 4.7-17.5-17.5 4.7zm27.7 7.4 35.1-35.1-48 12.9-4.7 17.5zm-12.9-22.2 12.9-48-35.1 35.1 4.7 17.6zm12.9 48 48-12.9-48-12.9-12.9 12.9z"/><path d="m219.7 120.6 7.4 7.4 12.9-12.9-17.6-4.7zm-40.6-40.6-35.1-35.1 12.9 48 17.5 4.7zm-7.4 27.7 2.7-10.1-17.5-4.7 4.7 17.5z"/><path d="m156.9 92.9-48-12.9 35.1 35.1 17.6-4.7zm42.5 7.4 10.2-2.7-4.7-17.6-12.9 12.9z"/><path d="m204.9 80-12.9-48-12.9 48 12.9 12.9z"/><path d="m184.6 100.3 7.4-7.4-12.9-12.9-4.7 17.6z"/></g><circle cx="192" cy="128" fill="#000095" r="54.4"/><circle cx="192" cy="128" fill="#fff" r="48"/></g></svg>