<svg viewBox="0 0 576 512" xmlns="http://www.w3.org/2000/svg"><path d="m517.5 309.2c38.8-40 58.1-80 58.5-116.1.8-65.5-59.4-118.2-169.4-135-128.7-19.7-288.5 15.5-406.6 82.4 52-26.5 110.6-48.2 170.7-58.2 74.5-20.5 153-25.4 221.3-14.8 152.5 23.8 196.8 127.5 98.8 231.7-10.2 10.8-22 21.1-35 30.6l-150.9-226.4-190.2 285.5c-65.6-29.4-76.5-90.2-19.1-151.2 20.8-22.2 48.3-41.9 79.5-58.1 20-12.2 39.7-22.6 62-30.7-65.1 20.3-122.7 52.9-161.6 92.9-27.7 28.6-41.4 57.1-41.7 82.9-.5 35.1 23.4 65.1 68.4 83l-34.5 51.7h101.6l22-34.4c22.2 1 45.3 0 68.6-2.7l-22.8 37.1h135.5l-32.6-53.1c18.6-5.3 36.9-11.5 54.5-18.7l45.9 71.8h101.6l-73.4-110.4c18.5-12.1 35-25.5 48.9-39.8zm-187.6 80.5-25-40.6-32.7 53.3c-23.4 3.5-46.7 5.1-69.2 4.4l101.9-159.3 78.7 123c-17.2 7.4-35.3 13.9-53.7 19.2z"/></svg>