<svg viewBox="0 0 576 512" xmlns="http://www.w3.org/2000/svg"><path d="m288 32c-154.73 0-280.21 100.32-280.21 224s125.48 224 280.21 224 280.21-100.32 280.21-224-125.48-224-280.21-224zm-85.39 357.19-138.51 1.36 77.25-290.74h133.44c63.15 0 84.93 28.65 78 72.84a60.24 60.24 0 0 1 -1.5 6.85 77.39 77.39 0 0 0 -17.21-1.93c-42.35 0-76.69 33.88-76.69 75.65 0 37.14 27.14 68 62.93 74.45-18.24 37.16-56.16 60.92-117.71 61.52zm155.39-182.08h32l-22.16 90.31h-35.41l-11.19-35.63-7.83 35.63h-37.83l26.63-90.31h31.34l15 36.75zm145.86 182.08h-197.07l15.84-61.19a78.8 78.8 0 0 0 11.47.83c42.34 0 76.69-33.87 76.69-75.65 0-32.65-21-60.46-50.38-71.06l21.33-82.35h92.5l-53.05 205.36h103.87zm-292.16-119.8h-24.7l-13.8 56.47h24.7c16.14 0 32.11-3.18 37.94-26.65 5.56-22.31-7.99-29.82-24.14-29.82zm21.3-99.39h-21.34l-11.66 47.71h21.37c18 0 35.38-14.64 39.21-30.14 4.65-18.86-9.51-17.57-27.58-17.57z"/></svg>