<svg viewBox="0 0 496 512" xmlns="http://www.w3.org/2000/svg"><path d="m131.5 217.5-76.4-117.4c47.6-59.2 119-91.8 192-92.1 42.3-.3 85.5 10.5 124.8 33.2 43.4 25.2 76.4 61.4 97.4 103l-205.3-10.8c-58.1-3.4-113.4 29.3-132.5 84.1zm32.9 38.5c0 46.2 37.4 83.6 83.6 83.6s83.6-37.4 83.6-83.6-37.4-83.6-83.6-83.6-83.6 37.3-83.6 83.6zm314.9-89.2-139.7 7.2c37.9 44.3 38.5 108.2 6.6 157.2l-112.1 172.4c46.5 2.5 94.4-7.7 137.8-32.9 107.4-62 150.9-192 107.4-303.9zm-345.6 136.8-93.3-183.5c-25.5 39-40.4 85.8-40.4 135.9 0 124 90.8 226.7 209.5 244.9l63.7-124.8c-57.6 10.8-113.2-20.8-139.5-72.5z"/></svg>