<svg viewBox="0 0 496 512" xmlns="http://www.w3.org/2000/svg"><path d="m247.6 8c141.8 0 248.4 110.1 248.4 248 0 147.1-118.5 248-248.4 248-134 0-247.6-109.5-247.6-248 0-132.9 104.7-248 247.6-248zm.8 44.7c-118.2 0-203.7 97.9-203.7 203.3 0 109.8 91.2 202.8 203.7 202.8 103.2 0 202.8-81.1 202.8-202.8.1-113.8-90.2-203.3-202.8-203.3zm101 132.4c7.8 0 13.7 6.1 13.7 13.7v182.5c0 7.7-6.1 13.7-13.7 13.7h-135.1c-7.7 0-13.7-6-13.7-13.7v-54h-54c-7.8 0-13.7-6-13.7-13.7v-182.5c0-8.2 6.6-12.7 12.4-13.7h136.4c7.7 0 13.7 6 13.7 13.7v54zm-189.5 115.2h40.7v-101.4c0-7.4 5.8-12.6 12-13.7h55.8v-40.3h-108.5zm176.2-88.1h-108.5v155.4h108.5z"/></svg>