<svg viewBox="0 0 384 512" xmlns="http://www.w3.org/2000/svg"><path d="m14 95.7924c0-52.9047 42.8878-95.7924 95.793-95.7924h164.368c52.905 0 95.793 42.8877 95.793 95.7924 0 33.4996-17.196 62.9836-43.243 80.1046 26.047 17.122 43.243 46.605 43.243 80.105 0 52.905-42.888 95.793-95.793 95.793h-2.08c-24.802 0-47.403-9.426-64.415-24.891v88.263c0 53.61-44.009 96.833-97.357 96.833-52.7729 0-96.309-42.757-96.309-95.793 0-33.498 17.1945-62.98 43.2392-80.102-26.0447-17.122-43.2392-46.605-43.2392-80.103 0-33.5 17.196-62.983 43.2425-80.105-26.0465-17.121-43.2425-46.605-43.2425-80.1046zm162.288 95.7946h-66.495c-35.5758 0-64.4152 28.84-64.4152 64.415 0 35.438 28.617 64.192 64.0032 64.414.137-.001.274-.001.412-.001h66.495zm31.378 64.415c0 35.575 28.839 64.415 64.415 64.415h2.08c35.576 0 64.415-28.84 64.415-64.415s-28.839-64.415-64.415-64.415h-2.08c-35.576 0-64.415 28.84-64.415 64.415zm-97.873 95.793c-.138 0-.275-.001-.412-.001-35.3862.221-64.0032 28.975-64.0032 64.413 0 35.445 29.2247 64.415 64.9312 64.415 36.282 0 65.979-29.436 65.979-65.455v-63.372zm0-320.4172c-35.5758 0-64.4152 28.8395-64.4152 64.4146 0 35.5756 28.8394 64.4146 64.4152 64.4146h66.495v-128.8292zm97.873 128.8292h66.495c35.576 0 64.415-28.839 64.415-64.4146 0-35.5751-28.839-64.4146-64.415-64.4146h-66.495z"/></svg>