<svg viewBox="0 0 448 512" xmlns="http://www.w3.org/2000/svg"><path d="m400 32h-352a48 48 0 0 0 -48 48v352a48 48 0 0 0 48 48h352a48 48 0 0 0 48-48v-352a48 48 0 0 0 -48-48zm16 400a16 16 0 0 1 -16 16h-352a16 16 0 0 1 -16-16v-352a16 16 0 0 1 16-16h352a16 16 0 0 1 16 16zm-214.4-280c-25.4 0-37.4 10.4-57.6 14.4v-6.4a16 16 0 0 0 -32 0v192a16 16 0 0 0 32 0v-153.6c20.2-4 32.2-14.4 57.6-14.4 31.4 0 43.2 16 74.6 16 10.2 0 17.8-1.4 27.8-4.6v96c-10 3.2-17.6 4.6-27.8 4.6-31.4 0-43.4-16-74.6-16a85.9 85.9 0 0 0 -25.6 4v32a80 80 0 0 1 25.6-4c31.4 0 43.2 16 74.6 16 18.6 0 28.2-4.8 59.8-16v-160c-31.6 11.2-41.2 16-59.8 16-31.4 0-43.4-16-74.6-16z"/></svg>