<svg viewBox="0 0 448 512" xmlns="http://www.w3.org/2000/svg"><path d="m5.8 309.7c-3.8-17-5.8-34.2-5.8-51.4 0-123.3 99.8-223.3 223.1-223.3 16.6 0 33.3 2 49.3 5.5-123.4 47-220.5 145.5-266.6 269.2zm392.9-189.2c-13.7-17.5-29.7-32.7-47.8-45.3-149.6 44.3-266.3 162.1-309.7 312 12.5 18.1 28 35.6 45.2 49 43.1-151.3 161.2-271.7 312.3-315.7zm15.8 252.7c15.2-25.1 25.4-53.7 29.5-82.8-79.4 42.9-145 110.6-187.6 190.3 30-4.4 58.9-15.3 84.6-31.3 35 13.1 70.9 24.3 107 33.6-9.3-36.5-20.4-74.5-33.5-109.8zm29.7-145.5c-2.6-19.5-7.9-38.7-15.8-56.8-137.9 45.8-246.4 156.6-291.3 295.1 18.1 7.6 37 12.5 56.6 15.2 46.3-114.1 136.8-206.8 250.5-253.5z"/></svg>