<svg viewBox="0 0 448 512" xmlns="http://www.w3.org/2000/svg"><path d="m100.59 334.24c48.57 3.31 58.95 2.11 58.95 11.94 0 20-65.55 20.06-65.55 1.52.01-5.09 3.29-9.4 6.6-13.46zm27.95-116.64c-32.29 0-33.75 44.47-.75 44.47 32.51 0 31.71-44.47.75-44.47zm319.46-137.6v352a48 48 0 0 1 -48 48h-352a48 48 0 0 1 -48-48v-352a48 48 0 0 1 48-48h352a48 48 0 0 1 48 48zm-227 69.31c0 14.49 8.38 22.88 22.86 22.88 14.74 0 23.13-8.39 23.13-22.88s-8.37-22.31-23.11-22.31c-14.48 0-22.88 7.84-22.88 22.31zm-21.82 45.69h-49.55c-25-6.55-81.56-4.85-81.56 46.75 0 18.8 9.4 32 21.85 38.11-15.69 14.37-23.12 21.14-23.12 30.74 0 6.87 2.79 13.22 11.18 16.76-8.9 8.4-14 14.48-14 25.92.02 20.07 17.55 31.72 63.54 31.72 44.22 0 69.87-16.51 69.87-45.73 0-36.67-28.23-35.32-94.77-39.38l8.38-13.43c17 4.74 74.19 6.23 74.19-42.43 0-11.69-4.83-19.82-9.4-25.67l23.38-1.78zm84.34 109.84-13-1.78c-3.82-.51-4.07-1-4.07-5.09v-105.45h-52.6l-2.79 20.57c15.75 5.55 17 4.86 17 10.17v74.74c0 5.62-.31 4.58-17 6.87v20.06h72.42zm100.48 10.16-6.87-22.37c-40.93 15.37-37.85-12.41-37.85-16.73v-60.72h37.85v-25.41h-35.82c-2.87 0-2 2.52-2-38.63h-24.18c-2.79 27.7-11.68 38.88-34 41.42v22.62c20.47 0 19.82-.85 19.82 2.54v66.57c0 28.72 11.43 40.91 41.67 40.91 14.45 0 30.45-4.83 41.38-10.2z"/></svg>