<svg viewBox="0 0 512 512" xmlns="http://www.w3.org/2000/svg"><path d="m260.353 254.878-128.815-221.778a2.208 2.208 0 0 0 -3.829.009l-127.409 221.778a2.234 2.234 0 0 0 0 2.235l128.816 221.778a2.208 2.208 0 0 0 3.83-.009l127.412-221.778a2.239 2.239 0 0 0 -.005-2.235zm39.078-25.713a2.19 2.19 0 0 0 1.9 1.111h66.509a2.226 2.226 0 0 0 1.9-3.341l-110.625-193.824a2.187 2.187 0 0 0 -1.9-1.111h-66.508a2.226 2.226 0 0 0 -1.9 3.341zm212.269 25.721-126.8-221.774a2.2 2.2 0 0 0 -1.91-1.112h-66.6a2.226 2.226 0 0 0 -1.906 3.34l126.168 220.66-126.171 220.66a2.226 2.226 0 0 0 1.906 3.34h66.6a2.2 2.2 0 0 0 1.906-1.112l126.807-221.774a2.243 2.243 0 0 0 0-2.228zm-145.684 30.031h-66.508a2.187 2.187 0 0 0 -1.9 1.111l-108.8 190.631a2.226 2.226 0 0 0 1.9 3.341h66.509a2.187 2.187 0 0 0 1.9-1.111l108.8-190.631a2.226 2.226 0 0 0 -1.901-3.341z"/></svg>