<svg viewBox="0 0 576 512" xmlns="http://www.w3.org/2000/svg"><path d="m125.61 165.48a49.07 49.07 0 1 0 49.06 49.06 49.08 49.08 0 0 0 -49.06-49.06zm-39.46 260.36h78.94v-140.52h-78.94zm151.46-211.6c0-20-10-22.53-18.74-22.53h-14.05v45.79h14.05c9.75 0 18.74-2.81 18.74-23.26zm201.69 46v-91.31h22.75v68.57h33.69c-9.24-124.42-107.13-151.31-196.07-151.31h-94.83v82.81h14c25.6 0 41.5 17.35 41.5 45.26 0 28.81-15.52 46-41.5 46h-14v165.62h94.83c144.61 0 194.94-67.16 196.72-165.64zm-109.75 0h-56.25v-91.24h54.43v22.73h-31.73v10.58h30v22.69h-30v12.5h33.51zm74.66 0-5.16-17.67h-29.74l-5.18 17.67h-23.66l27.53-91.32h32.35l27.53 91.34zm-104.56-228.24h-267.65v448h267.65c161.85 0 251-79.73 251-224.52-.03-83.48-32.65-223.48-251-223.48zm0 426.92h-246.58v-405.85h246.58c142.1 0 229.9 64.61 229.9 202.41 0 134.09-81 203.44-229.9 203.44zm83.86-264.85-7.51 25.81h16.4l-7.52-25.81z"/></svg>