<svg viewBox="0 0 448 512" xmlns="http://www.w3.org/2000/svg"><path d="m407.4 32h-366.8c-22.4 0-40.6 18.2-40.6 40.6v366.8c0 22.4 18.2 40.6 40.6 40.6h366.8c22.4 0 40.6-18.2 40.6-40.6v-366.8c0-22.4-18.2-40.6-40.6-40.6zm-231.3 113.6c.4 23.4-22.4 27.3-26.6 27.4-14.9 0-27.1-12-27.1-27 .1-35.2 53.1-35.5 53.7-.4zm156.7 231.4c-65.6 0-34.1-74-25-106.6 14.1-46.4-45.2-59-59.9.7l-25.8 103.3h-45.1l8.1-32.5c-31.5 51.8-94.6 44.4-94.6-4.3.1-14.3.9-14 23-104.1h-31.8l9.7-35.6h76.4c-33.6 133.7-32.6 126.9-32.9 138.2 0 20.9 40.9 13.5 57.4-23.2l19.8-79.4h-32.3l9.7-35.6h68.8l-8.9 40.5c40.5-75.5 127.9-47.8 101.8 38-14.2 51.1-14.6 50.7-14.9 58.8 0 15.5 17.5 22.6 31.8-16.9l17.9 6.7c-10.5 36.7-29.4 52-53.2 52z"/></svg>