<svg viewBox="0 0 640 512" xmlns="http://www.w3.org/2000/svg"><path d="m616 160h-67.3c-37.5-89.3-125.8-152-228.7-152-137 0-248 111-248 248 0 16.4 1.6 32.5 4.7 48h-52.7c-13.3 0-24 10.8-24 24 0 13.3 10.7 24 24 24h67.3c37.5 89.3 125.8 152 228.7 152 137 0 248-111 248-248 0-16.4-1.6-32.5-4.7-48h52.7c13.3 0 24-10.8 24-24 0-13.3-10.7-24-24-24zm-96 96c0 110.5-89.5 200-200 200-75.7 0-141.6-42-175.5-104h279.5c13.3 0 24-10.8 24-24 0-13.3-10.7-24-24-24h-298.2c-3.8-15.4-5.8-31.4-5.8-48 0-110.5 89.5-200 200-200 75.7 0 141.6 42 175.5 104h-279.5c-13.3 0-24 10.8-24 24 0 13.3 10.7 24 24 24h298.2c3.8 15.4 5.8 31.4 5.8 48zm-304-24h208c13.3 0 24 10.7 24 24 0 13.2-10.7 24-24 24h-208c-13.3 0-24-10.7-24-24 0-13.2 10.7-24 24-24z"/></svg>