<svg viewBox="0 0 448 512" xmlns="http://www.w3.org/2000/svg"><path d="m399.36 362.23c29.49-34.69 47.1-78.34 47.1-125.79 0-112.95-99.6-204.44-222.46-204.44s-222.46 91.49-222.46 204.44 99.6 204.43 222.46 204.43a239.28 239.28 0 0 0 79.44-13.44 7.18 7.18 0 0 1 8.12 2.56c18.58 25.09 47.61 42.74 79.89 49.92a4.42 4.42 0 0 0 5.22-3.43 4.37 4.37 0 0 0 -.85-3.62 87 87 0 0 1 3.69-110.69zm-69.84-149.83-57.3 43.49 20.78 68.86a6.5 6.5 0 0 1 -9.94 7.22l-59.06-41.05-59.06 41.08a6.51 6.51 0 0 1 -9.95-7.22l20.79-68.86-57.3-43.49a6.5 6.5 0 0 1 3.8-11.68l71.88-1.51 23.66-67.92a6.5 6.5 0 0 1 12.28 0l23.66 67.92 71.88 1.51a6.5 6.5 0 0 1 3.88 11.68z"/></svg>