<svg viewBox="0 0 384 512" xmlns="http://www.w3.org/2000/svg"><path d="m246.6 299.29c15.57 0 27.15 11.46 27.15 27s-11.62 27-27.15 27c-15.7 0-27.15-11.57-27.15-27s11.55-27 27.15-27zm-133.6 26.96c0-15.61 11.68-27 27.15-27s27.15 11.46 27.15 27-11.47 27-27.15 27c-15.44 0-27.15-11.31-27.15-27m78.76-167.25c-34.76 0-102.31 19.77-132.51 68l-45.25-227v335.48c0 97.65 79.61 176.52 177.76 176.52s177.76-78.95 177.76-176.52-79.39-176.48-177.76-176.48zm0 308.12c-73.27 0-132.51-58.9-132.51-131.59s59.24-131.59 132.51-131.59 132.51 58.86 132.51 131.54-59.27 131.59-132.51 131.59z"/></svg>