<svg viewBox="0 0 496 512" xmlns="http://www.w3.org/2000/svg"><path d="m248 504c-137 0-248-111-248-248s111-248 248-248c20.9 0 41.3 2.6 60.7 7.5l-266.4 376.5h205.7zm0-143.6v-213.6l-149.4 213.6zm96 31.6v92.7c45.7-19.2 84.5-51.7 111.4-92.7zm57.4-138.2-21.2 8.4 21.2 8.3zm-20.3 54.5c-6.7 0-8 6.3-8 12.9v7.7h16.2v-10c0-5.9-2.3-10.6-8.2-10.6zm114.9-52.3c0 37.3-8.2 72.7-23 104.4h-129v-333.1c89.3 37.5 152 125.8 152 228.7zm-135.6-112.4h68.2v-47.6h-13.9v32.6h-13.9v-29.6h-13.9v29.6h-12.7v-32.6h-13.9v47.6zm68.1 185.3h-26.5v-11c0-15.4-5.6-25.2-20.9-25.2-15.4 0-20.7 10.6-20.7 25.9v25.3h68.2v-15zm0-103-68.2 29.7v12.4l68.2 29.5v-16.6l-14.4-5.7v-26.5l14.4-5.9zm-4.8-68.5h-35.6v26.6h13.9v-12.2h11c8.6 15.8 1.3 35.3-18.6 35.3-22.5 0-28.3-25.3-15.5-37.7l-11.6-10.6c-16.2 17.5-12.2 63.9 27.1 63.9 34 0 44.7-35.9 29.3-65.3z"/></svg>