<svg viewBox="0 0 448 512" xmlns="http://www.w3.org/2000/svg"><path d="m305.314 284.578h-58.714v98.722h58.711q24.423 0 38.193-13.77t13.77-36.11q0-21.826-14.032-35.335t-37.928-13.507zm-155.879-155.878h-58.711v98.723h58.711q24.42 0 38.19-13.773t13.77-36.107q0-21.826-14.029-35.338t-37.931-13.505zm217.212-96.7h-285.294a81.445 81.445 0 0 0 -81.353 81.352v285.295a81.445 81.445 0 0 0 81.353 81.353h285.294a81.445 81.445 0 0 0 81.353-81.353v-285.295a81.445 81.445 0 0 0 -81.353-81.352zm63.635 366.647a63.706 63.706 0 0 1 -63.635 63.635h-285.294a63.706 63.706 0 0 1 -63.635-63.635v-285.295a63.706 63.706 0 0 1 63.635-63.634h285.294a63.706 63.706 0 0 1 63.635 63.634zm-124.968-269.947h-58.714v98.723h58.711q24.423 0 38.193-13.773t13.77-36.107q0-21.826-14.032-35.338t-37.928-13.505z"/></svg>