<svg viewBox="0 0 480 512" xmlns="http://www.w3.org/2000/svg"><path d="m455.93 23.2c-26.7 6.8-68.14 28.49-114.58 67.46a206 206 0 0 0 -101.35-26.66c-114.87 0-208 93.12-208 208s93.13 208 208 208 208-93.13 208-208a207.25 207.25 0 0 0 -58.75-144.81 155.35 155.35 0 0 0 -17 27.4 176.16 176.16 0 0 1 44.85 117.41c0 97.66-79.44 177.11-177.09 177.11a175.81 175.81 0 0 1 -87.63-23.4c82.94-107.33 150.79-37.77 184.31-226.65 5.79-32.62 28-94.26 126.23-160.18 8.08-5.43 2.43-18.08-6.99-15.68zm-330.93 383.2a176.66 176.66 0 0 1 -62.1-134.4c0-97.66 79.45-177.1 177.1-177.1a174 174 0 0 1 76.63 17.75c-65.99 62.11-126.86 152.87-191.63 293.75z"/></svg>