<svg viewBox="0 0 448 512" xmlns="http://www.w3.org/2000/svg"><path d="m205.3 174.6c0 21.1-14.2 38.1-31.7 38.1-7.1 0-12.8-1.2-17.2-3.7v-68c4.4-2.7 10.1-4.2 17.2-4.2 17.5 0 31.7 16.9 31.7 37.8zm52.6 67c-7.1 0-12.8 1.5-17.2 4.2v68c4.4 2.5 10.1 3.7 17.2 3.7 17.4 0 31.7-16.9 31.7-37.8 0-21.1-14.3-38.1-31.7-38.1zm190.1-161.6v352c0 26.5-21.5 48-48 48h-352c-26.5 0-48-21.5-48-48v-352c0-26.5 21.5-48 48-48h352c26.5 0 48 21.5 48 48zm-263 175.1c41 0 74.2-35.6 74.2-79.6s-33.2-79.6-74.2-79.6c-12 0-24.1 3.2-34.6 8.8h-45.7v206.3l51.8-10.1v-50.6c8.6 3.1 18.1 4.8 28.5 4.8zm158.4 25.3c0-44-33.2-79.6-73.9-79.6-3.2 0-6.4.2-9.6.7-3.7 12.5-10.1 23.8-19.2 33.4-13.8 15-32.2 23.8-51.8 24.8v156.3l51.8-10.1v-50.6c8.6 3.2 18.2 4.7 28.7 4.7 40.8 0 74-35.6 74-79.6z"/></svg>