<svg viewBox="0 0 448 512" xmlns="http://www.w3.org/2000/svg"><path d="m353.2 32h-258.4c-52.4 0-94.8 42.4-94.8 94.8v258.4c0 52.4 42.4 94.8 94.8 94.8h258.4c52.4 0 94.8-42.4 94.8-94.8v-258.4c0-52.4-42.4-94.8-94.8-94.8zm-208.3 168.9v56.3c0 27-21.9 48.9-48.9 48.9v-154.2c0-13.2 10.7-23.9 23.9-23.9h154.2c0 27-21.9 48.9-48.9 48.9h-56.3c-12.3-.6-24.6 11.6-24 24zm176.3 72h-56.3c-12.3-.6-24.6 11.6-24 24v56.3c0 27-21.9 48.9-48.9 48.9v-154.2c0-13.2 10.7-23.9 23.9-23.9h154.2c0 27-21.9 48.9-48.9 48.9z"/></svg>