<svg viewBox="0 0 496 512" xmlns="http://www.w3.org/2000/svg"><path d="m281.2 278.2c46-13.3 49.6-23.5 44-43.4l-11.2-39.3c-6.1-20.9-18.4-28.1-71.1-12.8l-188.2 54.1 28.6 98.6zm-32.7-270.2c-117.1 0-215.3 80.7-241.3 189.5l221.9-63.9c34.8-10.2 54.2-11.7 79.3-8.2 36.3 6.1 52.7 25 61.4 55.2l10.7 37.8c8.2 28.1 1 50.6-23.5 73.6-19.4 17.4-31.2 24.5-61.4 33.2l-92.6 26.6 220.4 27.1 9.7 34.2-48.1 13.3-286.8-37.3 23 80.2c36.8 22 80.3 34.7 126.3 34.7 137 0 248.5-111.4 248.5-248.3 1-136.3-110.5-247.7-247.5-247.7zm-210.2 380.6-38.3-131.8c0 48.5 14.3 93.4 38.3 131.8z"/></svg>