<svg viewBox="0 0 448 512" xmlns="http://www.w3.org/2000/svg"><path d="m100 410.3 30.6 13.4 4.4-9.9-30.6-13.4zm39.4 17.5 30.6 13.4 4.4-9.9-30.6-13.4zm172.1-14 4.4 9.9 30.6-13.4-4.4-9.9zm-132.4 31.2 30.3 13.7 4.4-9.9-30.3-13.4zm-118.7-52.2 30.6 13.4 4.4-9.6-30.6-13.7zm211.4 38.5 4.4 9.9 30.6-13.4-4.4-9.9zm-39.3 17.5 4.4 9.9 30.6-13.7-4.4-9.6zm118.4-52.2 4.4 9.6 30.6-13.4-4.4-9.9zm-180.9-350h-33.5v10.5h33.5zm-47.2 0h-33.6v10.5h33.5zm-47.3 0h-33.2v10.5h33.3zm141.5 0h-33.2v10.5h33.2zm94.5 0h-33.5v10.5h33.5zm47.3 0h-33.5v10.5h33.5zm-94.6 0h-33.2v10.5h33.2zm141.5 0h-33.3v10.5h33.3zm-352.9 304.5h-10.8v33.5h10.8zm70-215.9h-33.6v10.5h33.5zm-70 10.6h22.8v-10.5h-33.6v33.5h10.8zm168.9 228.6c50.5 0 91.3-40.8 91.3-91.3 0-50.2-40.8-91.3-91.3-91.3-50.2 0-91.3 41.1-91.3 91.3 0 50.5 41.1 91.3 91.3 91.3zm-48.2-111.1c0-25.4 29.5-31.8 49.6-31.8 16.9 0 29.2 5.8 44.3 12l-8.8 16.9h-.9c-6.4-9.9-24.8-13.1-35.6-13.1-9 0-29.8 1.8-29.8 14.9 0 21.6 78.5-10.2 78.5 37.9 0 25.4-31.5 31.2-51 31.2-18.1 0-32.4-2.9-47.2-12.2l9-18.4h.9c6.1 12.2 23.6 14.9 35.9 14.9 8.7 0 32.7-1.2 32.7-14.3 0-26.1-77.6 6.3-77.6-38zm-120.7-84.9h-10.8v33.6h10.8zm342.4 206.2h10.8v-33.5h-10.8zm-342.4-76.7h-10.8v33.5h10.8zm-52.8-304.2v406l221.7 98.6 226.3-98.6v-406zm418.8 387.1-196.8 85.7-192.8-85.7v-270.1h389.7v270.1zm0-299.3h-389.6v-58.6h389.7v58.6zm-366 130.1h-10.8v33.5h10.8zm0 43.2h-10.8v33.5h10.8zm117.2-129.6h-33.5v10.5h33.5zm225.2 163.1h10.8v-33.5h-10.8zm0-43.2h10.8v-33.5h-10.8zm-178.2-119.9h-33.2v10.5h33.2zm178.2 76.8h10.8v-33.5h-10.8zm0 129.5h10.8v-33.5h-10.8zm-131-206.3h-33.2v10.5h33.2zm47.3 0h-33.5v10.5h33.5zm83.7 33.6h10.8v-33.5h-33.5v10.5h22.8zm-36.4-33.6h-33.5v10.5h33.5z"/></svg>