<svg viewBox="0 0 440 512" xmlns="http://www.w3.org/2000/svg"><path d="m382.7 292.5 2.7 2.7-170-167.3c-3.5-3.5-9.7-3.7-13.8-.5l-57.3 43.6c-4.2 3.2-4.6 8.7-1.1 12.2l68.1 64.3c3.6 3.5 9.9 3.7 14 .5l.1-.1c4.1-3.2 10.4-3 14 .5l84 81.3c3.6 3.5 3.2 9-.9 12.2l-93.2 74c-4.2 3.3-10.5 3.1-14.2-.4l-151.9-147.5c-3.5-3.5-9.7-3.7-13.9-.5l-45.8 34.9c-4.2 3.2-4.7 8.7-1.2 12.2l208.7 196.1s7.4 6.8 17.3-.8l198-163.9c4-3.2 4.4-8.7.7-12.2zm54.5-83.4-210.5-206.6c-1.5-1.2-8-5.5-16.3 1.1l-206.8 162.1c-4.2 3.2-4.8 8.7-1.2 12.2l42.3 41.7 171.7 165.1c3.7 3.5 10.1 3.7 14.3.4l50.2-38.8-.3-.3 7.7-6c4.2-3.2 4.6-8.7.9-12.2l-57.1-54.4c-3.6-3.5-10-3.7-14.2-.5l-.1.1c-4.2 3.2-10.5 3.1-14.2-.4l-94.6-91.8c-3.6-3.5-3.1-8.9 1.1-12.2l92.2-71.5c4.1-3.2 10.3-3 13.9.5l160.4 159c3.7 3.5 10 3.7 14.1.5l45.8-35.8c4.1-3.2 4.4-8.7.7-12.2z"/></svg>