<svg viewBox="0 0 512 512" xmlns="http://www.w3.org/2000/svg"><path d="m502.9 266v69.7c0 62.1-50.3 112.4-112.4 112.4-61.8 0-112.4-49.8-112.4-111.3v-70.2l34.3 16 51.1-15.2v70.6c0 14.7 12 26.5 26.7 26.5s26.8-11.8 26.8-26.5v-72zm-224.7-58.2 34.3 16 51.1-15.2v-35.6c0-60.5-51.1-109-112.1-109-60.8 0-112.1 48.2-112.1 108.2v162.4c0 14.9-12 26.7-26.7 26.7s-26.7-11.8-26.7-26.7v-68.6h-86v69.7c0 62 50.3 112.3 112.4 112.3 61.6 0 112.4-49.5 112.4-110.8v-160.3c0-14.7 12-26.7 26.7-26.7s26.7 12 26.7 26.7z"/></svg>