<svg viewBox="0 0 496 512" xmlns="http://www.w3.org/2000/svg"><path d="m248 8.8c-137 0-248 111-248 248s111 248 248 248 248-111 248-248-111-248-248-248zm0 482.8c-129.7 0-234.8-105.1-234.8-234.8s105.1-234.8 234.8-234.8 234.8 105.1 234.8 234.8-105.1 234.8-234.8 234.8zm155.1-328.5v-46.8h-193.8v81.7h-155.1l36.7 46h117.7v196.8h48.8v-195.8h83.3v-47h-83.3v-34.8h145.7zm-73.3 45.1v23.9h-82.9v197.4h-26.8v-197.4h-123.8l-20.1-23.9h143.9v-80.6h171.8v24.4h-145v56.2zm-161.3-69-12.4-20.7 2.1 23.8-23.5 5.4 23.3 5.4-2.1 24 12.3-20.5 22.2 9.5-15.7-18.1 15.8-18.1zm-29.6-19.7 9.3-11.5-12.7 5.9-8-12.4 1.7 13.9-14.3 3.8 13.7 2.7-.8 14.7 6.8-12.2 13.8 5.3zm165.4 145.2-13.1 5.6-7.3-12.2 1.3 14.2-13.9 3.2 13.9 3.2-1.2 14.2 7.3-12.2 13.1 5.5-9.4-10.7zm106.9-77.2-20.9 9.1-12-19.6 2.2 22.7-22.3 5.4 22.2 4.9-1.8 22.9 11.5-19.6 21.2 8.8-15.1-17zm-163.2-157.6c-125.3 0-226.9 101.6-226.9 226.9s101.6 226.9 226.9 226.9 226.9-101.6 226.9-226.9-101.6-226.9-226.9-226.9zm94.6 166.1v51h-83.3v195.7h-52.7v-196.8h-116.7l-40-49.9h157.4v-81.6h197.8v50.7h-145.7v30.9zm-94.6-152.8c60.3 0 114.8 25 153.6 65.2h-199.1v81.6h-157.4c28-85.2 108.3-146.8 202.9-146.8zm0 427.1c-117.9 0-213.6-95.6-213.6-213.5 0-21.2 3.1-41.8 8.9-61.1l43.8 56.3h114.7v196.8h64.6v-195.8h83.3v-62.7h-83.2v-19.2h145.6v-50.8c30.8 37 49.3 84.6 49.3 136.5.1 117.9-95.5 213.5-213.4 213.5zm-69.2-195.3-11-21.4 1.7 24.5-23.7 3.9 23.8 5.9-3.7 23.8 13-20.9 21.5 10.8-15.8-18.8 16.9-17.1z"/></svg>