<svg viewBox="0 0 512 512" xmlns="http://www.w3.org/2000/svg"><path d="m502.17 201.67c14.52 85.86-30.94 167.92-113.17 208.13 13 34.1-12.4 70.2-48.32 70.2a51.68 51.68 0 0 1 -51.57-49c-6.44.19-64.2 0-76.33-.64a51.69 51.69 0 0 1 -53.78 49.56c-33.86-1.36-57.95-34.84-47-67.92-37.21-13.11-72.54-34.87-99.62-70.8-13-17.28-.48-41.8 20.84-41.8 46.31 0 32.22-54.17 43.15-110.26 18.43-93.94 116.75-157.14 211.72-157.14 102.48 0 197.15 70.67 214.08 169.67zm-128.66 186.61c42-19.18 81.33-56.71 96.29-102.14 40.48-123.09-64.15-228-181.71-228-83.45 0-170.32 55.42-186.07 136-9.53 48.91 5 131.35-68.75 131.35 24.94 33.11 58.33 52.62 93.73 64.05 24.66-21.8 63.87-15.47 79.83 14.34 14.22 1 79.19 1.18 87.9.82a51.69 51.69 0 0 1 78.78-16.42zm-168.39-201.15c0-34.74 50.84-34.75 50.84 0s-50.84 34.74-50.84 0zm116.57 0c0-34.74 50.86-34.75 50.86 0s-50.86 34.75-50.86 0zm-122.61 70.69c-3.44-16.94 22.18-22.18 25.62-5.21l.06.28c4.14 21.42 29.85 44 64.12 43.07 35.68-.94 59.25-22.21 64.11-42.77 4.46-16.05 28.6-10.36 25.47 6-5.23 22.18-31.21 62-91.46 62.9-42.55 0-80.88-27.84-87.9-64.25z"/></svg>