<svg viewBox="0 0 448 512" xmlns="http://www.w3.org/2000/svg"><path d="m400 64h-48v-52c0-6.627-5.373-12-12-12h-40c-6.627 0-12 5.373-12 12v52h-128v-52c0-6.627-5.373-12-12-12h-40c-6.627 0-12 5.373-12 12v52h-48c-26.51 0-48 21.49-48 48v352c0 26.51 21.49 48 48 48h352c26.51 0 48-21.49 48-48v-352c0-26.51-21.49-48-48-48zm-6 400h-340a6 6 0 0 1 -6-6v-298h352v298a6 6 0 0 1 -6 6zm-52.849-200.65-142.309 141.169c-4.705 4.667-12.303 4.637-16.971-.068l-75.091-75.699c-4.667-4.705-4.637-12.303.068-16.971l22.719-22.536c4.705-4.667 12.303-4.637 16.97.069l44.104 44.461 111.072-110.181c4.705-4.667 12.303-4.637 16.971.068l22.536 22.718c4.667 4.705 4.636 12.303-.069 16.97z"/></svg>