<svg viewBox="0 0 576 512" xmlns="http://www.w3.org/2000/svg"><path d="m527.9 32h-479.8c-26.6 0-48.1 21.5-48.1 48v352c0 26.5 21.5 48 48.1 48h479.8c26.6 0 48.1-21.5 48.1-48v-352c0-26.5-21.5-48-48.1-48zm-473.8 48h467.8c3.3 0 6 2.7 6 6v42h-479.8v-42c0-3.3 2.7-6 6-6zm467.8 352h-467.8c-3.3 0-6-2.7-6-6v-170h479.8v170c0 3.3-2.7 6-6 6zm-329.9-100v40c0 6.6-5.4 12-12 12h-72c-6.6 0-12-5.4-12-12v-40c0-6.6 5.4-12 12-12h72c6.6 0 12 5.4 12 12zm192 0v40c0 6.6-5.4 12-12 12h-136c-6.6 0-12-5.4-12-12v-40c0-6.6 5.4-12 12-12h136c6.6 0 12 5.4 12 12z"/></svg>