<svg viewBox="0 0 512 512" xmlns="http://www.w3.org/2000/svg"><path d="m494.586 164.516c-4.697-3.883-111.723-89.95-135.251-108.657-22.104-17.668-59.898-55.859-103.335-55.859-43.205 0-80.636 37.717-103.335 55.859-24.463 19.45-131.07 105.195-135.15 108.549a48.004 48.004 0 0 0 -17.515 37.077v262.515c0 26.51 21.49 48 48 48h416c26.51 0 48-21.49 48-48v-262.491a48 48 0 0 0 -17.414-36.993zm-30.586 293.484a6 6 0 0 1 -6 6h-404a6 6 0 0 1 -6-6v-253.653c0-1.813.816-3.526 2.226-4.665 15.87-12.814 108.793-87.554 132.364-106.293 18.165-14.509 49.808-45.389 73.41-45.389 23.693 0 55.857 31.369 73.41 45.389 23.573 18.741 116.503 93.493 132.366 106.316a5.99 5.99 0 0 1 2.224 4.663zm-31.991-187.704c4.249 5.159 3.465 12.795-1.745 16.981-28.975 23.283-59.274 47.597-70.929 56.863-22.699 18.143-60.13 55.86-103.335 55.86-43.452 0-81.287-38.237-103.335-55.86-11.279-8.967-41.744-33.413-70.927-56.865-5.21-4.187-5.993-11.822-1.745-16.981l15.258-18.528c4.178-5.073 11.657-5.843 16.779-1.726 28.618 23.001 58.566 47.035 70.56 56.571 17.553 14.02 49.717 45.389 73.41 45.389 23.602 0 55.246-30.88 73.41-45.389 11.994-9.535 41.944-33.57 70.563-56.568 5.122-4.116 12.601-3.346 16.778 1.727z"/></svg>