<svg viewBox="0 0 384 512" xmlns="http://www.w3.org/2000/svg"><path d="m369.941 97.941-83.882-83.882a48 48 0 0 0 -33.941-14.059h-204.118c-26.51 0-48 21.49-48 48v416c0 26.51 21.49 48 48 48h288c26.51 0 48-21.49 48-48v-332.118a48 48 0 0 0 -14.059-33.941zm-37.823 30.059h-76.118v-76.118zm-284.118 336v-416h160v104c0 13.255 10.745 24 24 24h104v288zm228.687-211.303-52.687 52.677v-37.374c0-11.046-8.954-20-20-20h-104c-11.046 0-20 8.954-20 20v104c0 11.046 8.954 20 20 20h104c11.046 0 20-8.954 20-20v-37.374l52.687 52.674c10.017 10.018 27.313 2.98 27.313-11.314v-111.975c0-14.311-17.309-21.319-27.313-11.314z"/></svg>