<svg viewBox="0 0 384 512" xmlns="http://www.w3.org/2000/svg"><path d="m369.941 97.941-83.882-83.882a48 48 0 0 0 -33.941-14.059h-204.118c-26.51 0-48 21.49-48 48v416c0 26.51 21.49 48 48 48h288c26.51 0 48-21.49 48-48v-332.118a48 48 0 0 0 -14.059-33.941zm-37.823 30.059h-76.118v-76.118zm-284.118 336v-416h160v104c0 13.255 10.745 24 24 24h104v288zm144-76.024c0 10.691-12.926 16.045-20.485 8.485l-35.515-35.975h-28c-6.627 0-12-5.373-12-12v-56c0-6.627 5.373-12 12-12h28l35.515-36.947c7.56-7.56 20.485-2.206 20.485 8.485zm41.201-47.13c9.051-9.297 9.06-24.133.001-33.439-22.149-22.752 12.235-56.246 34.395-33.481 27.198 27.94 27.212 72.444.001 100.401-21.793 22.386-56.947-10.315-34.397-33.481z"/></svg>