<svg viewBox="0 0 384 512" xmlns="http://www.w3.org/2000/svg"><path d="m128.3 160v32h32v-32zm64-96h-32v32h32zm-64 32v32h32v-32zm64 32h-32v32h32zm177.6-30.1-83.9-83.9c-9-9-21.2-14.1-33.9-14.1h-204.1c-26.5.1-48 21.6-48 48.1v416c0 26.5 21.5 48 48 48h288c26.5 0 48-21.5 48-48v-332.1c0-12.7-5.1-25-14.1-34zm-113.9-46 76.1 76.1h-76.1zm80 412.1h-288v-416h79.7v16h32v-16h48.3v104c0 13.3 10.7 24 24 24h104zm-141.8-198.3c-1.1-5.6-6-9.7-11.8-9.7h-22.1v-32h-32v32l-19.7 97.1c-6.6 32.5 18.2 62.9 51.4 62.9 33.1 0 57.9-30.2 51.5-62.6zm-33.9 124.4c-17.9 0-32.4-12.1-32.4-27s14.5-27 32.4-27 32.4 12.1 32.4 27-14.5 27-32.4 27zm32-198.1h-32v32h32z"/></svg>