<svg viewBox="0 0 384 512" xmlns="http://www.w3.org/2000/svg"><path d="m369.9 97.9-83.9-83.9c-9-9-21.2-14.1-33.9-14.1h-204.1c-26.5.1-48 21.6-48 48.1v416c0 26.5 21.5 48 48 48h288c26.5 0 48-21.5 48-48v-332.1c0-12.7-5.1-25-14.1-34zm-37.8 30.1h-76.1v-76.1zm-284.1 336v-416h160v104c0 13.3 10.7 24 24 24h104v288zm72-60v-168c0-6.6 5.4-12 12-12h69.2c36.7 0 62.8 27 62.8 66.3 0 74.3-68.7 66.5-95.5 66.5v47.2c0 6.6-5.4 12-12 12h-24.5c-6.6 0-12-5.4-12-12zm48.5-87.4h23c7.9 0 13.9-2.4 18.1-7.2 8.5-9.8 8.4-28.5.1-37.8-4.1-4.6-9.9-7-17.4-7h-23.9v52z"/></svg>