<svg viewBox="0 0 384 512" xmlns="http://www.w3.org/2000/svg"><path d="m288 248v28c0 6.6-5.4 12-12 12h-168c-6.6 0-12-5.4-12-12v-28c0-6.6 5.4-12 12-12h168c6.6 0 12 5.4 12 12zm-12 72h-168c-6.6 0-12 5.4-12 12v28c0 6.6 5.4 12 12 12h168c6.6 0 12-5.4 12-12v-28c0-6.6-5.4-12-12-12zm108-188.1v332.1c0 26.5-21.5 48-48 48h-288c-26.5 0-48-21.5-48-48v-416c0-26.5 21.5-48 48-48h204.1c12.7 0 24.9 5.1 33.9 14.1l83.9 83.9c9 8.9 14.1 21.2 14.1 33.9zm-128-80v76.1h76.1zm80 412.1v-288h-104c-13.3 0-24-10.7-24-24v-104h-160v416z"/></svg>