<svg viewBox="0 0 512 512" xmlns="http://www.w3.org/2000/svg"><path d="m336.174 80c-49.132 0-93.305-32-161.913-32-31.301 0-58.303 6.482-80.721 15.168a48.04 48.04 0 0 0 2.142-20.727c-2.615-22.866-21.515-40.847-44.481-42.337-27.959-1.814-51.201 20.327-51.201 47.896 0 17.764 9.657 33.262 24 41.562v406.438c0 8.837 7.163 16 16 16h16c8.837 0 16-7.163 16-16v-83.443c37.869-17.277 71.259-28.557 127.826-28.557 49.132 0 93.305 32 161.913 32 58.479 0 101.972-22.617 128.548-39.981 13.559-8.858 21.713-23.968 21.713-40.164v-239.918c0-34.459-35.264-57.768-66.904-44.117-35.903 15.489-73.455 28.18-108.922 28.18zm127.826 256c-21.783 15.412-60.824 32-102.261 32-59.945 0-102.002-32-161.913-32-43.361 0-96.379 9.403-127.826 24v-232c21.784-15.412 60.824-32 102.261-32 59.945 0 102.002 32 161.913 32 43.271 0 96.32-17.366 127.826-32z"/></svg>