<svg viewBox="0 0 496 512" xmlns="http://www.w3.org/2000/svg"><path d="m483.8 179.4c-34-104.8-131.2-171.4-235.7-171.4-25.4 0-51.2 3.9-76.7 12.2-130.2 42.3-201.5 182.2-159.2 312.4 34 104.8 131.2 171.4 235.7 171.4 25.4 0 51.2-3.9 76.7-12.2 130.2-42.3 201.5-182.2 159.2-312.4zm-74.5 193.7-52.2 6.4-43.7-60.9 24.4-75.2 71.1-22.1 38.9 36.4c-.2 30.7-7.4 61.1-21.7 89.2-4.7 9.3-10.7 17.8-16.8 26.2zm0-235.4-10.4 53.1-70.7 22-64.2-46.5v-73.8l47.4-26.2c39.2 13 73.4 38 97.9 71.4zm-224.4-71.3 47.1 26.1v73.8l-64.2 46.5-70.6-22-10.1-52.5c24.3-33.4 57.9-58.6 97.8-71.9zm-45.9 313.1-53.1-6.5c-14.4-20.1-37.3-59.6-37.8-115.3l39-36.4 71.1 22.2 24.3 74.3zm48.2 67-22.4-48.1 43.6-61.7h78.6l44.3 61.7-22.4 48.1c-6.2 1.8-57.6 20.4-121.7 0z"/></svg>