<svg viewBox="0 0 496 512" xmlns="http://www.w3.org/2000/svg"><path d="m328 180c-25.69 0-55.88 16.92-59.86 42.12-1.75 11.22 11.5 18.24 19.83 10.84l9.55-8.48c14.81-13.19 46.16-13.19 60.97 0l9.55 8.48c8.48 7.43 21.56.25 19.83-10.84-3.99-25.2-34.18-42.12-59.87-42.12zm-160 60c17.67 0 32-14.33 32-32s-14.33-32-32-32-32 14.33-32 32 14.33 32 32 32zm185.55 64.64c-25.93 8.3-64.4 13.06-105.55 13.06s-79.62-4.75-105.55-13.06c-9.94-3.13-19.4 5.37-17.71 15.34 7.93 47.15 71.32 80.02 123.26 80.02s115.33-32.87 123.26-80.02c1.68-9.89-7.67-18.48-17.71-15.34zm-105.55-296.64c-136.97 0-248 111.03-248 248s111.03 248 248 248 248-111.03 248-248-111.03-248-248-248zm0 448c-110.28 0-200-89.72-200-200s89.72-200 200-200 200 89.72 200 200-89.72 200-200 200z"/></svg>