<svg viewBox="0 0 640 512" xmlns="http://www.w3.org/2000/svg"><path d="m117.1 256.1c-25.8 3.7-84 13.7-100.9 30.6-21.9 21.9-21.5 57.9.9 80.3s58.3 22.8 80.3.9c16.9-16.9 26.9-75.1 30.6-100.9.8-6.4-4.6-11.8-10.9-10.9zm506.7 30.6c-16.9-16.9-75.1-26.9-100.9-30.6-6.3-.9-11.7 4.5-10.8 10.8 3.7 25.8 13.7 84 30.6 100.9 21.9 21.9 57.9 21.5 80.3-.9 22.3-22.3 22.7-58.3.8-80.2zm-126.6 61.7c-33.4 63.9-100.3 107.6-177.2 107.6s-143.8-43.7-177.2-107.6c-12.5 37.4-25.2 43.9-28.3 46.5 44.6 65.8 120 109.1 205.5 109.1s160.9-43.3 205.5-109.1c-3.2-2.7-15.9-9.2-28.3-46.5zm-374.5-123.9c15.2-95.3 97.8-168.5 197.3-168.5s182.1 73.2 197.3 168.5c2.1-.2 5.2-2.4 49.5 7-12.4-125.5-118.1-223.5-246.8-223.5s-234.4 98-246.8 223.4c44.5-9.4 47.1-7.2 49.5-6.9zm197.3 175.5c51.9 0 115.3-32.9 123.3-80 1.7-9.9-7.7-18.5-17.7-15.3-25.9 8.3-64.4 13.1-105.6 13.1s-79.6-4.8-105.6-13.1c-9.8-3.1-19.4 5.3-17.7 15.3 8 47.1 71.4 80 123.3 80zm130.3-168.3c3.6-1.1 6-4.5 5.7-8.3-3.3-42.1-32.2-71.4-56-71.4s-52.7 29.3-56 71.4c-.3 3.7 2.1 7.2 5.7 8.3 3.5 1.1 7.4-.5 9.3-3.7l9.5-17c7.7-13.7 19.2-21.6 31.5-21.6s23.8 7.9 31.5 21.6l9.5 17c2.1 3.6 6.2 4.6 9.3 3.7zm-210.3-42.3c12.3 0 23.8 7.9 31.5 21.6l9.5 17c2.1 3.7 6.2 4.7 9.3 3.7 3.6-1.1 6-4.5 5.7-8.3-3.3-42.1-32.2-71.4-56-71.4s-52.7 29.3-56 71.4c-.3 3.7 2.1 7.2 5.7 8.3 3.5 1.1 7.4-.5 9.3-3.7l9.5-17c7.7-13.8 19.2-21.6 31.5-21.6z"/></svg>