<svg viewBox="0 0 512 512" xmlns="http://www.w3.org/2000/svg"><path d="m501.03053 116.17605c-19.39059-31.50779-51.24406-35.72849-66.31044-35.01756-14.11325-50.81051-62.0038-54.08-70.73816-54.08a74.03091 74.03091 0 0 0 -72.23816 58.916l-4.64648 22.66014-13.68357-53.207c-9.09569-35.37107-46.412-64.05074-89.66-53.07223a73.89749 73.89749 0 0 0 -55.121 78.94722 73.68273 73.68273 0 0 0 -64.8495 94.42181l24.35933 82.19721c-38.24017-7.54492-62.79677 16.18358-68.11512 21.84764a73.6791 73.6791 0 0 0 3.19921 104.19329l91.36509 85.9765a154.164 154.164 0 0 0 106.03106 42.04093h107.4549a127.30079 127.30079 0 0 0 124.26151-98.13861l57.623-241.96272a73.20274 73.20274 0 0 0 -8.93167-55.72262zm-37.7597 44.60544-57.62295 241.96663a79.46616 79.46616 0 0 1 -77.57019 61.25972h-107.4549a106.34052 106.34052 0 0 1 -73.1366-28.998l-91.369-85.98041c-24.77338-23.30274 10.49414-60.89843 35.27925-37.49023l51.123 48.10739c5.42577 5.10937 13.48239.71679 13.48239-5.82617a246.79914 246.79914 0 0 0 -10.17771-70.1523l-36.01362-121.539c-9.7324-32.88279 39.69916-47.27145 49.38664-14.625l31.3437 105.77923c5.59374 18.90428 33.78119 10.71288 28.9648-8.00781l-42.44137-165.03892c-8.50389-33.1035 41.43157-45.64646 49.86515-12.83593l47.32609 184.035c4.42773 17.24218 29.16207 16.5039 32.71089-.80468l31.791-154.9706c6.81054-33.1074 57.51748-24.10741 50.11906 11.96288l-28.54882 139.16595c-3.72265 18.10936 23.66793 24.63084 28.05659 6.21679l24.80077-104.14641c7.9648-33.34762 57.955-21.06249 50.08583 11.92187z"/></svg>