<svg viewBox="0 0 512 512" xmlns="http://www.w3.org/2000/svg"><path d="m0 220.8c0 45.616 37.765 83.2 83.2 83.2h35.647a93.148 93.148 0 0 0 7.929 22.064c-2.507 22.006 3.503 44.978 15.985 62.791 1.139 52.487 37.398 91.145 99.94 91.145h21.299c60.063 0 98.512-40 127.2-40h2.679c5.747 4.952 13.536 8 22.12 8h64c17.673 0 32-12.894 32-28.8v-230.4c0-15.906-14.327-28.8-32-28.8h-64c-8.584 0-16.373 3.048-22.12 8h-2.679c-6.964 0-14.862-6.193-30.183-23.668l-.129-.148-.131-.146c-8.856-9.937-18.116-20.841-25.851-33.253-18.704-30.248-30.392-78.785-75.706-78.785-56.928 0-92 35.286-92 83.2 0 8.026.814 15.489 2.176 22.4h-86.176c-45.099 0-83.2 38.101-83.2 83.2zm48 0c0-18.7 16.775-35.2 35.2-35.2h158.4c0-17.325-26.4-35.2-26.4-70.4 0-26.4 20.625-35.2 44-35.2 8.794 0 20.445 32.712 34.926 56.1 9.074 14.575 19.524 27.225 30.799 39.875 16.109 18.374 33.836 36.633 59.075 39.596v176.752c-42.79 3.764-74.509 39.677-120 39.677h-21.299c-40.524 0-57.124-22.197-50.601-61.325-14.612-8.001-24.151-33.979-12.925-53.625-19.365-18.225-17.787-46.381-4.95-61.05h-91.025c-18.975 0-35.2-16.225-35.2-35.2zm400 139.2c13.255 0 24 10.745 24 24s-10.745 24-24 24-24-10.745-24-24 10.745-24 24-24z"/></svg>