<svg viewBox="0 0 448 512" xmlns="http://www.w3.org/2000/svg"><path d="m372.57 112.641v-10.825c0-43.612-40.52-76.691-83.039-65.546-25.629-49.5-94.09-47.45-117.982.747-41.28-10.561-82.405 20.928-82.405 64.983v126.13c-19.953-7.427-43.308-5.068-62.083 8.871-29.355 21.796-35.794 63.333-14.55 93.153l119.969 168.415a32 32 0 0 0 26.062 13.432h222.897c14.904 0 27.835-10.289 31.182-24.813l30.184-130.958a203.637 203.637 0 0 0 5.195-45.666v-131.564c0-40.62-35.523-71.992-75.43-66.359zm27.427 197.922c0 11.731-1.334 23.469-3.965 34.886l-27.325 118.551h-201.92l-115.196-161.697c-14.439-20.27 15.023-42.776 29.394-22.605l27.128 38.079c8.995 12.626 29.031 6.287 29.031-9.283v-206.494c0-25.645 36.571-24.81 36.571.691v153.309c0 8.837 7.163 16 16 16h6.856c8.837 0 16-7.163 16-16v-189c0-25.663 36.571-24.81 36.571.691v188.309c0 8.837 7.163 16 16 16h6.856c8.837 0 16-7.163 16-16v-154.875c0-25.672 36.57-24.81 36.57.691v154.184c0 8.837 7.163 16 16 16h6.857c8.837 0 16-7.163 16-16v-76.309c0-26.242 36.57-25.64 36.57-.691v131.563z"/></svg>