<svg viewBox="0 0 512 512" xmlns="http://www.w3.org/2000/svg"><path d="m408.864 79.052c-22.401-33.898-66.108-42.273-98.813-23.588-29.474-31.469-79.145-31.093-108.334-.022-47.16-27.02-108.71 5.055-110.671 60.806-46.2-10.841-91.046 23.753-91.046 71.181v56.953c0 32.741 14.28 63.954 39.18 85.634l97.71 85.081c4.252 3.702 3.11 5.573 3.11 32.903 0 17.673 14.327 32 32 32h252c17.673 0 32-14.327 32-32 0-23.513-1.015-30.745 3.982-42.37l42.835-99.656c6.094-14.177 9.183-29.172 9.183-44.568v-114.443c0-52.839-54.314-88.662-103.136-67.911zm55.136 182.354a64.505 64.505 0 0 1 -5.282 25.613l-42.835 99.655c-5.23 12.171-7.883 25.04-7.883 38.25v7.076h-220v-10.286c0-16.37-7.14-31.977-19.59-42.817l-97.71-85.08c-14.426-12.562-22.7-30.581-22.7-49.436v-56.953c0-33.208 52-33.537 52 .677v41.228a16 16 0 0 0 5.493 12.067l7 6.095a16 16 0 0 0 26.507-12.066v-116.572c0-33.097 52-33.725 52 .677v26.751c0 8.836 7.164 16 16 16h7c8.836 0 16-7.164 16-16v-41.143c0-33.134 52-33.675 52 .677v40.466c0 8.836 7.163 16 16 16h7c8.837 0 16-7.164 16-16v-27.429c0-33.03 52-33.78 52 .677v26.751c0 8.836 7.163 16 16 16h7c8.837 0 16-7.164 16-16 0-33.146 52-33.613 52 .677z"/></svg>