<svg viewBox="0 0 448 512" xmlns="http://www.w3.org/2000/svg"><path d="m362.146 191.976c-13.71-21.649-38.761-34.016-65.006-30.341v-87.635c0-40.804-32.811-74-73.141-74s-73.14 33.196-73.14 74l9.141 94-18.679-78.85c-14.743-38.307-57.471-57.04-95.112-41.942-37.474 15.03-55.78 57.755-41.201 95.642l55.757 144.927c-30.557 24.956-43.994 57.809-24.733 92.218l54.853 97.999c11.74 20.976 33.845 34.006 57.69 34.006h205.702c30.744 0 57.558-21.44 64.555-51.797l27.427-118.999a67.801 67.801 0 0 0 1.729-15.203l.012-70.001c0-44.956-43.263-77.343-85.854-64.024zm37.841 134.024c0 1.488-.169 2.977-.502 4.423l-27.427 119.001c-1.978 8.582-9.29 14.576-17.782 14.576h-205.701c-6.486 0-12.542-3.621-15.805-9.449l-54.854-98c-4.557-8.141-2.619-18.668 4.508-24.488l26.647-21.764a16 16 0 0 0 4.812-18.139l-64.09-166.549c-12.567-32.655 34.577-50.774 46.717-19.222l59.784 155.357a16 16 0 0 0 14.933 10.254h11.632c8.837 0 16-7.163 16-16v-182c0-34.375 50.281-34.43 50.281 0v182c0 8.837 7.163 16 16 16h6.856c8.837 0 16-7.163 16-16v-28c0-25.122 36.567-25.159 36.567 0v28c0 8.837 7.163 16 16 16h6.856c8.837 0 16-7.163 16-16 0-25.12 36.567-25.16 36.567 0v70z"/></svg>