<svg viewBox="0 0 512 512" xmlns="http://www.w3.org/2000/svg"><path d="m428.8 137.6h-86.177a115.52 115.52 0 0 0 2.176-22.4c0-47.914-35.072-83.2-92-83.2-45.314 0-57.002 48.537-75.707 78.784-7.735 12.413-16.994 23.317-25.851 33.253l-.131.146-.129.148c-15.319 17.476-23.217 23.669-30.181 23.669h-2.679c-5.747-4.952-13.536-8-22.12-8h-64.001c-17.673 0-32 12.894-32 28.8v230.4c0 15.906 14.327 28.8 32 28.8h64c8.584 0 16.373-3.048 22.12-8h2.679c28.688 0 67.137 40 127.2 40h21.299c62.542 0 98.8-38.658 99.94-91.145 12.482-17.813 18.491-40.785 15.985-62.791a93.148 93.148 0 0 0 7.929-22.064h35.648c45.435 0 83.2-37.584 83.2-83.2 0-45.099-38.101-83.2-83.2-83.2zm0 118.4h-91.026c12.837 14.669 14.415 42.825-4.95 61.05 11.227 19.646 1.687 45.624-12.925 53.625 6.524 39.128-10.076 61.325-50.6 61.325h-21.299c-45.491 0-77.21-35.913-120-39.676v-176.753c25.239-2.964 42.966-21.222 59.075-39.596 11.275-12.65 21.725-25.3 30.799-39.875 14.481-23.388 26.132-56.1 34.926-56.1 23.375 0 44 8.8 44 35.2 0 35.2-26.4 53.075-26.4 70.4h158.4c18.425 0 35.2 16.5 35.2 35.2 0 18.975-16.225 35.2-35.2 35.2zm-340.8 128c0 13.255-10.745 24-24 24s-24-10.745-24-24 10.745-24 24-24 24 10.745 24 24z"/></svg>