<svg viewBox="0 0 576 512" xmlns="http://www.w3.org/2000/svg"><path d="m567.403 235.642-105.08-151.053a48 48 0 0 0 -39.404-20.589h-269.838a48 48 0 0 0 -39.404 20.589l-105.08 151.053a48.001 48.001 0 0 0 -8.597 27.412v136.946c0 26.51 21.49 48 48 48h480c26.51 0 48-21.49 48-48v-136.946c0-9.801-3-19.366-8.597-27.412zm-414.322-123.642h269.838l77.913 112h-425.664zm374.919 288h-480v-128h480zm-32-64c0 17.673-14.327 32-32 32s-32-14.327-32-32 14.327-32 32-32 32 14.327 32 32zm-96 0c0 17.673-14.327 32-32 32s-32-14.327-32-32 14.327-32 32-32 32 14.327 32 32z"/></svg>