<svg viewBox="0 0 448 512" xmlns="http://www.w3.org/2000/svg"><path d="m128 244v-40c0-6.627 5.373-12 12-12h40c6.627 0 12 5.373 12 12v40c0 6.627-5.373 12-12 12h-40c-6.627 0-12-5.373-12-12zm140 12h40c6.627 0 12-5.373 12-12v-40c0-6.627-5.373-12-12-12h-40c-6.627 0-12 5.373-12 12v40c0 6.627 5.373 12 12 12zm-76 84v-40c0-6.627-5.373-12-12-12h-40c-6.627 0-12 5.373-12 12v40c0 6.627 5.373 12 12 12h40c6.627 0 12-5.373 12-12zm76 12h40c6.627 0 12-5.373 12-12v-40c0-6.627-5.373-12-12-12h-40c-6.627 0-12 5.373-12 12v40c0 6.627 5.373 12 12 12zm180 124v36h-448v-36c0-6.627 5.373-12 12-12h19.5v-378.965c0-11.617 10.745-21.035 24-21.035h88.5v-40c0-13.255 10.745-24 24-24h112c13.255 0 24 10.745 24 24v40h88.5c13.255 0 24 9.418 24 21.035v378.965h19.5c6.627 0 12 5.373 12 12zm-368.5-13h112.5v-67c0-6.627 5.373-12 12-12h40c6.627 0 12 5.373 12 12v67h112.5v-351h-64.5v24c0 13.255-10.745 24-24 24h-112c-13.255 0-24-10.745-24-24v-24h-64.5zm186.5-399h-26v-26a6 6 0 0 0 -6-6h-20a6 6 0 0 0 -6 6v26h-26a6 6 0 0 0 -6 6v20a6 6 0 0 0 6 6h26v26a6 6 0 0 0 6 6h20a6 6 0 0 0 6-6v-26h26a6 6 0 0 0 6-6v-20a6 6 0 0 0 -6-6z"/></svg>