<svg viewBox="0 0 384 512" xmlns="http://www.w3.org/2000/svg"><path d="m368 48h4c6.627 0 12-5.373 12-12v-24c0-6.627-5.373-12-12-12h-360c-6.627 0-12 5.373-12 12v24c0 6.627 5.373 12 12 12h4c0 80.564 32.188 165.807 97.18 208-65.281 42.381-97.18 127.9-97.18 208h-4c-6.627 0-12 5.373-12 12v24c0 6.627 5.373 12 12 12h360c6.627 0 12-5.373 12-12v-24c0-6.627-5.373-12-12-12h-4c0-80.564-32.188-165.807-97.18-208 65.282-42.381 97.18-127.9 97.18-208zm-304 0h256c0 101.62-57.307 184-128 184s-128-82.379-128-184zm256 416h-256c0-101.62 57.308-184 128-184s128 82.38 128 184z"/></svg>