<svg viewBox="0 0 576 512" xmlns="http://www.w3.org/2000/svg"><path d="m480 416v16c0 26.51-21.49 48-48 48h-384c-26.51 0-48-21.49-48-48v-256c0-26.51 21.49-48 48-48h16v48h-10a6 6 0 0 0 -6 6v244a6 6 0 0 0 6 6h372a6 6 0 0 0 6-6v-10zm42-336h-372a6 6 0 0 0 -6 6v244a6 6 0 0 0 6 6h372a6 6 0 0 0 6-6v-244a6 6 0 0 0 -6-6zm6-48c26.51 0 48 21.49 48 48v256c0 26.51-21.49 48-48 48h-384c-26.51 0-48-21.49-48-48v-256c0-26.51 21.49-48 48-48zm-264 112c0 22.091-17.909 40-40 40s-40-17.909-40-40 17.909-40 40-40 40 17.909 40 40zm-72 96 39.515-39.515c4.686-4.686 12.284-4.686 16.971 0l39.514 39.515 103.515-103.515c4.686-4.686 12.284-4.686 16.971 0l71.514 71.515v80h-288z"/></svg>