<svg viewBox="0 0 496 512" xmlns="http://www.w3.org/2000/svg"><path d="m248 8c-137 0-248 111-248 248s111 248 248 248 248-111 248-248-111-248-248-248zm141.4 389.4c-37.8 37.8-88 58.6-141.4 58.6s-103.6-20.8-141.4-58.6-58.6-88-58.6-141.4 20.8-103.6 58.6-141.4 88-58.6 141.4-58.6 103.6 20.8 141.4 58.6 58.6 88 58.6 141.4-20.8 103.6-58.6 141.4zm-61.4-245.4c-23.8 0-52.7 29.3-56 71.4-.7 8.6 10.8 11.9 14.9 4.5l9.5-17c7.7-13.7 19.2-21.6 31.5-21.6s23.8 7.9 31.5 21.6l9.5 17c4.1 7.4 15.6 4 14.9-4.5-3.1-42.1-32-71.4-55.8-71.4zm-201 75.9 9.5-17c7.7-13.7 19.2-21.6 31.5-21.6s23.8 7.9 31.5 21.6l9.5 17c4.1 7.4 15.6 4 14.9-4.5-3.3-42.1-32.2-71.4-56-71.4s-52.7 29.3-56 71.4c-.6 8.5 10.9 11.9 15.1 4.5zm235.4 60.1h-228.8c-8.2 0-14.5 7-13.5 15 7.5 59.2 58.9 105 121.1 105h13.6c62.2 0 113.6-45.8 121.1-105 1-8-5.3-15-13.5-15z"/></svg>