<svg viewBox="0 0 496 512" xmlns="http://www.w3.org/2000/svg"><path d="m248 8c-137 0-248 111-248 248s111 248 248 248 248-111 248-248-111-248-248-248zm141.4 389.4c-37.8 37.8-88 58.6-141.4 58.6s-103.6-20.8-141.4-58.6-58.6-88-58.6-141.4 20.8-103.6 58.6-141.4 88-58.6 141.4-58.6 103.6 20.8 141.4 58.6 58.6 88 58.6 141.4-20.8 103.6-58.6 141.4zm-45.8-201.4 33.6-40.3c8.6-10.3-3.8-24.8-15.4-18l-80 48c-7.8 4.7-7.8 15.9 0 20.6l80 48c11.5 6.8 24-7.6 15.4-18zm-209.4 58.3 80-48c7.8-4.7 7.8-15.9 0-20.6l-80-48c-11.6-6.9-24 7.7-15.4 18l33.6 40.3-33.6 40.3c-8.7 10.4 3.8 24.8 15.4 18zm228.2 33.7h-228.8c-8.2 0-14.5 7-13.5 15 7.5 59.2 58.9 105 121.1 105h13.6c62.2 0 113.6-45.8 121.1-105 1-8-5.3-15-13.5-15z"/></svg>