<svg viewBox="0 0 512 512" xmlns="http://www.w3.org/2000/svg"><path d="m256 504c136.967 0 248-111.033 248-248s-111.033-248-248-248-248 111.033-248 248 111.033 248 248 248zm-103.398-76.72 53.411-53.411c31.806 13.506 68.128 13.522 99.974 0l53.411 53.411c-63.217 38.319-143.579 38.319-206.796 0zm183.398-171.28c0 44.112-35.888 80-80 80s-80-35.888-80-80 35.888-80 80-80 80 35.888 80 80zm91.28 103.398-53.411-53.411c13.505-31.806 13.522-68.128 0-99.974l53.411-53.411c38.319 63.217 38.319 143.579 0 206.796zm-67.883-274.678-53.411 53.411c-31.806-13.505-68.128-13.522-99.973 0l-53.411-53.411c63.217-38.319 143.579-38.319 206.795 0zm-274.677 67.882 53.411 53.411c-13.506 31.806-13.522 68.128 0 99.974l-53.411 53.411c-38.319-63.217-38.319-143.579 0-206.796z"/></svg>