<svg viewBox="0 0 576 512" xmlns="http://www.w3.org/2000/svg"><path d="m560.02 32c-1.96 0-3.98.37-5.96 1.16l-170.05 62.84h-.01l-172-60.72a64.252 64.252 0 0 0 -20.24-3.28c-6.69 0-13.37 1.05-19.81 3.14l-151.83 52.81a32.006 32.006 0 0 0 -20.12 29.71v346.32c0 9.19 7.53 16.02 15.99 16.02 1.96 0 3.97-.37 5.96-1.16l170.05-62.84 172 60.71a63.98 63.98 0 0 0 40.05.15l151.83-52.81a31.996 31.996 0 0 0 20.12-29.71v-346.32c0-9.19-7.53-16.02-15.98-16.02zm-336.02 58.42 128 45.19v285.97l-128-45.19zm-176 327.63v-288.98l128-44.53v286.2l-.64.23zm480-35.13-128 44.53v-286.19l.64-.24 127.36-47.07z"/></svg>