<svg viewBox="0 0 576 512" xmlns="http://www.w3.org/2000/svg"><path d="m552 64h-440c-20.858 0-38.643 13.377-45.248 32h-42.752c-13.255 0-24 10.745-24 24v272c0 30.928 25.072 56 56 56h496c13.255 0 24-10.745 24-24v-336c0-13.255-10.745-24-24-24zm-504 328v-248h16v248c0 4.411-3.589 8-8 8s-8-3.589-8-8zm480 8h-416.578c.374-2.614.578-5.283.578-8v-280h416zm-356-120h136c6.627 0 12-5.373 12-12v-96c0-6.627-5.373-12-12-12h-136c-6.627 0-12 5.373-12 12v96c0 6.627 5.373 12 12 12zm28-80h80v40h-80zm-40 140v-24c0-6.627 5.373-12 12-12h136c6.627 0 12 5.373 12 12v24c0 6.627-5.373 12-12 12h-136c-6.627 0-12-5.373-12-12zm192 0v-24c0-6.627 5.373-12 12-12h104c6.627 0 12 5.373 12 12v24c0 6.627-5.373 12-12 12h-104c-6.627 0-12-5.373-12-12zm0-144v-24c0-6.627 5.373-12 12-12h104c6.627 0 12 5.373 12 12v24c0 6.627-5.373 12-12 12h-104c-6.627 0-12-5.373-12-12zm0 72v-24c0-6.627 5.373-12 12-12h104c6.627 0 12 5.373 12 12v24c0 6.627-5.373 12-12 12h-104c-6.627 0-12-5.373-12-12z"/></svg>