<svg viewBox="0 0 496 512" xmlns="http://www.w3.org/2000/svg"><path d="m248 8c-137 0-248 111-248 248s111 248 248 248 248-111 248-248-111-248-248-248zm144 386.4v-114.4c0-13.2-10.8-24-24-24s-24 10.8-24 24v151.4c-28.5 15.6-61.2 24.6-96 24.6s-67.5-9-96-24.6v-151.4c0-13.2-10.8-24-24-24s-24 10.8-24 24v114.4c-34.6-36-56-84.7-56-138.4 0-110.3 89.7-200 200-200s200 89.7 200 200c0 53.7-21.4 102.5-56 138.4zm-186.2-159.9c4.4-2.4 6.9-7.4 6.1-12.4-4-25.2-34.2-42.1-59.8-42.1s-55.9 16.9-59.8 42.1c-.8 5 1.7 10 6.1 12.4s9.9 1.8 13.7-1.6l9.5-8.5c14.8-13.2 46.2-13.2 61 0l9.5 8.5c2.5 2.3 7.9 4.8 13.7 1.6zm138.2-54.5c-25.7 0-55.9 16.9-59.8 42.1-.8 5 1.7 10 6.1 12.4 4.5 2.4 9.9 1.8 13.7-1.6l9.5-8.5c14.8-13.2 46.2-13.2 61 0l9.5 8.5c2.5 2.2 8 4.7 13.7 1.6 4.4-2.4 6.9-7.4 6.1-12.4-3.9-25.2-34.1-42.1-59.8-42.1zm-96 92c-30.9 0-56 28.7-56 64s25.1 64 56 64 56-28.7 56-64-25.1-64-56-64z"/></svg>