<svg viewBox="0 0 448 512" xmlns="http://www.w3.org/2000/svg"><path d="m433.941 129.941-83.882-83.882a48 48 0 0 0 -33.941-14.059h-268.118c-26.51 0-48 21.49-48 48v352c0 26.51 21.49 48 48 48h352c26.51 0 48-21.49 48-48v-268.118a48 48 0 0 0 -14.059-33.941zm-161.941-49.941v80h-128v-80zm122 352h-340a6 6 0 0 1 -6-6v-340a6 6 0 0 1 6-6h42v104c0 13.255 10.745 24 24 24h176c13.255 0 24-10.745 24-24v-100.118l78.243 78.243a6 6 0 0 1 1.757 4.243v259.632a6 6 0 0 1 -6 6zm-170-200c-48.523 0-88 39.477-88 88s39.477 88 88 88 88-39.477 88-88-39.477-88-88-88zm0 128c-22.056 0-40-17.944-40-40s17.944-40 40-40 40 17.944 40 40-17.944 40-40 40z"/></svg>