<svg viewBox="0 0 576 512" xmlns="http://www.w3.org/2000/svg"><path d="m561.938 158.06-143.998-143.968c-30.014-30.014-81.94-8.995-81.94 33.94v57.198c-42.45 1.88-84.03 6.55-120.76 17.99-35.17 10.95-63.07 27.58-82.91 49.42-24.11 26.56-36.33 59.96-36.33 99.3 0 61.697 33.178 112.455 84.87 144.76 37.546 23.508 85.248-12.651 71.02-55.74-15.515-47.119-17.156-70.923 84.11-78.76v53.8c0 42.993 51.968 63.913 81.94 33.94l143.998-144c18.75-18.74 18.75-49.14 0-67.88zm-177.938 177.94v-103.84c-128.691 1.922-217.508 23.19-177.69 143.84-29.52-18.45-62.31-51.92-62.31-104.06 0-109.334 129.14-118.947 240-119.85v-104.09l144 144zm24.74 84.493a82.658 82.658 0 0 0 20.974-9.303c7.976-4.952 18.286.826 18.286 10.214v42.596c0 26.51-21.49 48-48 48h-352c-26.51 0-48-21.49-48-48v-352c0-26.51 21.49-48 48-48h132c6.627 0 12 5.373 12 12v4.486c0 4.917-2.987 9.369-7.569 11.152-13.702 5.331-26.396 11.537-38.05 18.585a12.138 12.138 0 0 1 -6.28 1.777h-86.101a6 6 0 0 0 -6 6v340a6 6 0 0 0 6 6h340a6 6 0 0 0 6-6v-25.966c0-5.37 3.579-10.059 8.74-11.541z"/></svg>