<svg viewBox="0 0 512 512" xmlns="http://www.w3.org/2000/svg"><path d="m157.52 272h36.96l-18.48-53.22zm194.48-16c-13.23 0-24 10.77-24 24s10.77 24 24 24 24-10.77 24-24-10.77-24-24-24zm112-192h-416c-26.5 0-48 21.5-48 48v288c0 26.5 21.5 48 48 48h416c26.5 0 48-21.5 48-48v-288c0-26.5-21.5-48-48-48zm-213.42 288h-16.94c-6.81 0-12.88-4.32-15.12-10.75l-7.37-21.25h-70.29l-7.38 21.25a16 16 0 0 1 -15.12 10.75h-16.94c-11.01 0-18.73-10.85-15.12-21.25l53.7-154.63a23.995 23.995 0 0 1 22.67-16.12h26.66a23.99 23.99 0 0 1 22.67 16.13l53.69 154.62c3.61 10.4-4.11 21.25-15.11 21.25zm173.42-16c0 8.84-7.16 16-16 16h-16c-4.85 0-9.04-2.27-11.98-5.68-8.62 3.66-18.09 5.68-28.02 5.68-39.7 0-72-32.3-72-72s32.3-72 72-72c8.46 0 16.46 1.73 24 4.42v-36.42c0-8.84 7.16-16 16-16h16c8.84 0 16 7.16 16 16z"/></svg>