<svg viewBox="0 0 576 512" xmlns="http://www.w3.org/2000/svg"><path d="m528 32h-480c-26.5 0-48 21.5-48 48v352c0 26.5 21.5 48 48 48h480c26.5 0 48-21.5 48-48v-352c0-26.5-21.5-48-48-48zm-352 96c35.3 0 64 28.7 64 64s-28.7 64-64 64-64-28.7-64-64 28.7-64 64-64zm112 236.8c0 10.6-10 19.2-22.4 19.2h-179.2c-12.4 0-22.4-8.6-22.4-19.2v-19.2c0-31.8 30.1-57.6 67.2-57.6h5c12.3 5.1 25.7 8 39.8 8s27.6-2.9 39.8-8h5c37.1 0 67.2 25.8 67.2 57.6zm224-52.8c0 4.4-3.6 8-8 8h-144c-4.4 0-8-3.6-8-8v-16c0-4.4 3.6-8 8-8h144c4.4 0 8 3.6 8 8zm0-64c0 4.4-3.6 8-8 8h-144c-4.4 0-8-3.6-8-8v-16c0-4.4 3.6-8 8-8h144c4.4 0 8 3.6 8 8zm0-64c0 4.4-3.6 8-8 8h-144c-4.4 0-8-3.6-8-8v-16c0-4.4 3.6-8 8-8h144c4.4 0 8 3.6 8 8z"/></svg>