<svg viewBox="0 0 512 512" xmlns="http://www.w3.org/2000/svg"><path d="m224 160h-128c-53 0-96 43-96 96v224c0 17.625 14.375 32 32 32h256c17.625 0 32-14.375 32-32v-224c0-53-43-96-96-96zm-64 256c-44.125 0-80-35.875-80-80s35.875-80 80-80 80 35.875 80 80-35.875 80-80 80zm64-384c0-17.625-14.375-32-32-32h-64c-17.625 0-32 14.375-32 32v96h128zm157.781 19.578c1.219-.609 2.219-2.219 2.219-3.578 0-1.375-1-2.969-2.219-3.578l-29.781-12.422-12.438-29.781c-.593-1.219-2.187-2.219-3.562-2.219s-2.969 1-3.594 2.219l-12.406 29.781-29.781 12.422c-1.219.609-2.219 2.203-2.219 3.578 0 1.359 1 2.969 2.219 3.578l29.781 12.422 12.406 29.781c.625 1.219 2.219 2.219 3.594 2.219s2.969-1 3.562-2.219l12.438-29.781zm66.219 12.422 12.406 29.781c.625 1.219 2.219 2.219 3.594 2.219s2.969-1 3.562-2.219l12.438-29.781 29.781-12.422c1.219-.609 2.219-2.219 2.219-3.578 0-1.375-1-2.969-2.219-3.578l-29.781-12.422-12.438-29.781c-.593-1.219-2.187-2.219-3.562-2.219s-2.969 1-3.594 2.219l-12.406 29.781-29.781 12.422c-1.219.609-2.219 2.203-2.219 3.578 0 1.359 1 2.969 2.219 3.578zm32 160-12.438-29.781c-.593-1.219-2.187-2.219-3.562-2.219s-2.969 1-3.594 2.219l-12.406 29.781-29.781 12.422c-1.219.609-2.219 2.203-2.219 3.578 0 1.359 1 2.969 2.219 3.578l29.781 12.422 12.406 29.781c.625 1.219 2.219 2.219 3.594 2.219s2.969-1 3.562-2.219l12.438-29.781 29.781-12.422c1.219-.609 2.219-2.219 2.219-3.578 0-1.375-1-2.969-2.219-3.578zm-34.219-76.422c1.219-.609 2.219-2.219 2.219-3.578 0-1.375-1-2.969-2.219-3.578l-29.781-12.422-12.438-29.781c-.593-1.219-2.187-2.219-3.562-2.219s-2.969 1-3.594 2.219l-12.406 29.781-29.781 12.422c-1.219.609-2.219 2.203-2.219 3.578 0 1.359 1 2.969 2.219 3.578l29.781 12.422 12.406 29.781c.625 1.219 2.219 2.219 3.594 2.219s2.969-1 3.562-2.219l12.438-29.781z"/></svg>