<svg viewBox="0 0 448 512" xmlns="http://www.w3.org/2000/svg"><path d="m16 224h416a16 16 0 0 0 16-16v-32a16 16 0 0 0 -16-16h-416a16 16 0 0 0 -16 16v32a16 16 0 0 0 16 16zm416 192h-416a16 16 0 0 0 -16 16v32a16 16 0 0 0 16 16h416a16 16 0 0 0 16-16v-32a16 16 0 0 0 -16-16zm3.17-384h-262.34a12.82 12.82 0 0 0 -12.83 12.83v38.34a12.82 12.82 0 0 0 12.83 12.83h262.34a12.82 12.82 0 0 0 12.83-12.83v-38.34a12.82 12.82 0 0 0 -12.83-12.83zm0 256h-262.34a12.82 12.82 0 0 0 -12.83 12.83v38.34a12.82 12.82 0 0 0 12.83 12.83h262.34a12.82 12.82 0 0 0 12.83-12.83v-38.34a12.82 12.82 0 0 0 -12.83-12.83z"/></svg>