<svg viewBox="0 0 448 512" xmlns="http://www.w3.org/2000/svg"><path d="m12.83 352h262.34a12.82 12.82 0 0 0 12.83-12.83v-38.34a12.82 12.82 0 0 0 -12.83-12.83h-262.34a12.82 12.82 0 0 0 -12.83 12.83v38.34a12.82 12.82 0 0 0 12.83 12.83zm0-256h262.34a12.82 12.82 0 0 0 12.83-12.83v-38.34a12.82 12.82 0 0 0 -12.83-12.83h-262.34a12.82 12.82 0 0 0 -12.83 12.83v38.34a12.82 12.82 0 0 0 12.83 12.83zm419.17 64h-416a16 16 0 0 0 -16 16v32a16 16 0 0 0 16 16h416a16 16 0 0 0 16-16v-32a16 16 0 0 0 -16-16zm0 256h-416a16 16 0 0 0 -16 16v32a16 16 0 0 0 16 16h416a16 16 0 0 0 16-16v-32a16 16 0 0 0 -16-16z"/></svg>