<svg viewBox="0 0 448 512" xmlns="http://www.w3.org/2000/svg"><path d="m432 160h-416a16 16 0 0 0 -16 16v32a16 16 0 0 0 16 16h416a16 16 0 0 0 16-16v-32a16 16 0 0 0 -16-16zm0 256h-416a16 16 0 0 0 -16 16v32a16 16 0 0 0 16 16h416a16 16 0 0 0 16-16v-32a16 16 0 0 0 -16-16zm-323.9-320h231.81a12.09 12.09 0 0 0 12.09-12.1v-39.81a12.09 12.09 0 0 0 -12.09-12.09h-231.81a12.09 12.09 0 0 0 -12.1 12.09v39.81a12.1 12.1 0 0 0 12.1 12.1zm231.81 256a12.09 12.09 0 0 0 12.09-12.1v-39.81a12.09 12.09 0 0 0 -12.09-12.09h-231.81a12.09 12.09 0 0 0 -12.1 12.09v39.81a12.1 12.1 0 0 0 12.1 12.1z"/></svg>