<svg viewBox="0 0 576 512" xmlns="http://www.w3.org/2000/svg"><path d="m12.971 352h32.394c21.807 102.735 136.579 160 242.635 160 106.229 0 220.853-57.38 242.635-160h32.394c10.691 0 16.045-12.926 8.485-20.485l-67.029-67.029c-4.686-4.686-12.284-4.686-16.971 0l-67.029 67.029c-7.56 7.56-2.206 20.485 8.485 20.485h35.146c-20.29 54.317-84.963 86.588-144.117 94.015v-190.015h52c6.627 0 12-5.373 12-12v-40c0-6.627-5.373-12-12-12h-52v-5.47c37.281-13.178 63.995-48.725 64-90.518.006-52.24-42.394-95.274-94.629-96.002-53.647-.749-97.37 42.515-97.37 95.99 0 41.798 26.716 77.35 64 90.53v5.47h-52c-6.627 0-12 5.373-12 12v40c0 6.627 5.373 12 12 12h52v190.015c-58.936-7.399-123.82-39.679-144.117-94.015h35.146c10.691 0 16.045-12.926 8.485-20.485l-67.029-67.029c-4.686-4.686-12.284-4.686-16.971 0l-67.029 67.029c-7.559 7.559-2.205 20.485 8.486 20.485zm275.029-288c17.645 0 32 14.355 32 32s-14.355 32-32 32-32-14.355-32-32 14.355-32 32-32z"/></svg>