<svg viewBox="0 0 512 512" xmlns="http://www.w3.org/2000/svg"><path d="m478.21 334.093-142.21-78.093 142.21-78.093c11.795-6.477 15.961-21.384 9.232-33.037l-19.48-33.741c-6.728-11.653-21.72-15.499-33.227-8.523l-138.735 84.112 3.475-162.204c.288-13.453-10.538-24.514-23.995-24.514h-38.96c-13.456 0-24.283 11.061-23.994 24.514l3.474 162.204-138.735-84.111c-11.506-6.976-26.499-3.13-33.227 8.523l-19.48 33.741c-6.728 11.653-2.562 26.56 9.233 33.037l142.209 78.092-142.21 78.093c-11.795 6.477-15.961 21.384-9.232 33.037l19.48 33.741c6.728 11.653 21.721 15.499 33.227 8.523l138.735-84.112-3.475 162.204c-.288 13.453 10.539 24.514 23.995 24.514h38.961c13.456 0 24.283-11.061 23.995-24.514l-3.476-162.204 138.735 84.111c11.506 6.976 26.499 3.13 33.227-8.523l19.48-33.741c6.728-11.653 2.563-26.559-9.232-33.036z"/></svg>