<svg viewBox="0 0 512 512" xmlns="http://www.w3.org/2000/svg"><path d="m256 8c-137.059 0-248 110.919-248 248 0 137.059 110.919 248 248 248 48.154 0 95.342-14.14 135.408-40.223 12.005-7.815 14.625-24.288 5.552-35.372l-10.177-12.433c-7.671-9.371-21.179-11.667-31.373-5.129-29.49 18.914-64.096 29.157-99.41 29.157-101.458 0-184-82.542-184-184s82.542-184 184-184c100.139 0 184 57.619 184 160 0 38.786-21.093 79.742-58.17 83.693-17.349-.454-16.91-12.857-13.476-30.024l23.433-121.11c2.866-14.809-8.479-28.559-23.562-28.559h-44.981a13.518 13.518 0 0 0 -13.432 11.993l-.01.092c-14.697-17.901-40.448-21.775-59.971-21.775-74.58 0-137.831 62.234-137.831 151.46 0 65.303 36.785 105.87 96 105.87 26.984 0 57.369-15.637 74.991-38.333 9.522 34.104 40.613 34.103 70.71 34.103 108.908 0 150.299-71.612 150.299-147.41 0-136.347-109.977-224-248-224zm-21.68 304.43c-22.249 0-36.07-15.623-36.07-40.771 0-44.993 30.779-72.729 58.63-72.729 22.292 0 35.601 15.241 35.601 40.77 0 45.061-33.875 72.73-58.161 72.73z"/></svg>