<svg viewBox="0 0 512 512" xmlns="http://www.w3.org/2000/svg"><path d="m144.8 17c-11.3-17.8-37.2-22.8-54-9.4-55.5 44.3-90.8 110.4-90.8 184.4h256zm351.2 79h-48c-35.3 0-64 28.7-64 64v64h-384c0 50.6 23 96.4 60.3 130.7-34.6 8.9-60.3 40-60.3 77.3 0 44.2 35.8 80 80 80s80-35.8 80-80c0-8.9-1.8-17.2-4.4-25.2 21.6 5.9 44.6 9.2 68.4 9.2s46.9-3.3 68.4-9.2c-2.7 8-4.4 16.3-4.4 25.2 0 44.2 35.8 80 80 80s80-35.8 80-80c0-37.3-25.7-68.4-60.3-77.3 37.3-34.3 60.3-80.1 60.3-130.7v-64h48c8.8 0 16-7.2 16-16v-32c0-8.8-7.2-16-16-16zm-416 368c-17.6 0-32-14.4-32-32s14.4-32 32-32 32 14.4 32 32-14.4 32-32 32zm320-32c0 17.6-14.4 32-32 32s-32-14.4-32-32 14.4-32 32-32 32 14.4 32 32z"/></svg>