<svg viewBox="0 0 640 512" xmlns="http://www.w3.org/2000/svg"><path d="m576 64h-370.74a63.97 63.97 0 0 0 -45.26 18.75l-150.63 150.62c-12.5 12.5-12.5 32.76 0 45.25l150.63 150.63c12 12 28.28 18.75 45.25 18.75h370.75c35.35 0 64-28.65 64-64v-256c0-35.35-28.65-64-64-64zm-84.69 254.06c6.25 6.25 6.25 16.38 0 22.63l-22.62 22.62c-6.25 6.25-16.38 6.25-22.63 0l-62.06-62.06-62.06 62.06c-6.25 6.25-16.38 6.25-22.63 0l-22.62-22.62c-6.25-6.25-6.25-16.38 0-22.63l62.06-62.06-62.06-62.06c-6.25-6.25-6.25-16.38 0-22.63l22.62-22.62c6.25-6.25 16.38-6.25 22.63 0l62.06 62.06 62.06-62.06c6.25-6.25 16.38-6.25 22.63 0l22.62 22.62c6.25 6.25 6.25 16.38 0 22.63l-62.06 62.06z"/></svg>