<svg viewBox="0 0 576 512" xmlns="http://www.w3.org/2000/svg"><path d="m218.92 336.39c34.89-34.89 44.2-59.7 54.05-86 10.61-28.29 21.59-57.54 61.37-97.34s69.05-50.77 97.35-61.38c23.88-9 46.64-17.68 76.79-45.37l-37.67-37.39a31 31 0 0 0 -40.18-2.83c-13.64 10.1-25.15 14.39-41 20.3-142.63 53.14-180.37 164.91-188.98 187.72-29.75 78.83-89.55 94.68-98.72 98.09-24.86 9.26-54.73 20.38-91.07 50.36-13.86 11.45-14.49 32.45-1.79 45.06l35.76 35.51c35.17-32.6 62.17-42.97 88.17-52.73 26.27-9.84 51.06-19.12 85.92-54zm348-232-35.75-35.51c-35.19 32.63-62.18 43-88.25 52.79-26.26 9.85-51.06 19.16-85.95 54s-44.19 59.69-54 86c-10.64 28.33-21.63 57.55-61.42 97.33s-69 50.73-97.3 61.32c-23.86 9-46.61 17.66-76.72 45.33l37.68 37.43a31 31 0 0 0 40.18 2.82c13.6-10.06 25.09-14.34 40.94-20.24 142.2-53 180-164.1 188.94-187.69 29.73-78.79 89.53-94.67 98.73-98.11 24.87-9.27 54.74-20.4 91.11-50.41 13.89-11.4 14.52-32.45 1.82-45.05z"/></svg>