<svg viewBox="0 0 640 512" xmlns="http://www.w3.org/2000/svg"><path d="m528 448h-176v-294.75c20.42-8.94 36.1-26.22 43.38-47.47l132-44.26c8.38-2.81 12.89-11.88 10.08-20.26l-10.17-30.34c-2.81-8.38-11.88-12.89-20.26-10.08l-117.92 39.53c-13.81-24.01-39.42-40.37-69.11-40.37-44.18 0-80 35.82-80 80 0 3.43.59 6.71 1.01 10.03l-128.39 43.05c-8.38 2.81-12.89 11.88-10.08 20.26l10.17 30.34c2.81 8.38 11.88 12.89 20.26 10.08l142.05-47.63c4.07 2.77 8.43 5.12 12.99 7.12v342.75c0 8.84 7.16 16 16 16h224c8.84 0 16-7.16 16-16v-32c-.01-8.84-7.17-16-16.01-16zm111.98-144c0-16.18 1.34-8.73-85.05-181.51-17.65-35.29-68.19-35.36-85.87 0-87.12 174.26-85.04 165.84-85.04 181.51h-.02c0 44.18 57.31 80 128 80s128-35.82 128-80zm-199.98-16 72-144 72 144zm-269.07-37.51c-17.65-35.29-68.19-35.36-85.87 0-87.12 174.26-85.04 165.84-85.04 181.51h-.02c0 44.18 57.31 80 128 80s128-35.82 128-80h-.02c0-16.18 1.34-8.73-85.05-181.51zm-114.93 165.51 72-144 72 144z"/></svg>