<svg viewBox="0 0 640 512" xmlns="http://www.w3.org/2000/svg"><path d="m256 336h-.02c0-16.18 1.34-8.73-85.05-181.51-17.65-35.29-68.19-35.36-85.87 0-87.12 174.26-85.04 165.84-85.04 181.51h-.02c0 44.18 57.31 80 128 80s128-35.82 128-80zm-128-160 72 144h-144zm511.98 160c0-16.18 1.34-8.73-85.05-181.51-17.65-35.29-68.19-35.36-85.87 0-87.12 174.26-85.04 165.84-85.04 181.51h-.02c0 44.18 57.31 80 128 80s128-35.82 128-80zm-199.98-16 72-144 72 144zm88 128h-176v-294.75c23.51-10.29 41.16-31.48 46.39-57.25h129.61c8.84 0 16-7.16 16-16v-32c0-8.84-7.16-16-16-16h-144.36c-14.6-19.32-37.55-32-63.64-32s-49.04 12.68-63.64 32h-144.36c-8.84 0-16 7.16-16 16v32c0 8.84 7.16 16 16 16h129.61c5.23 25.76 22.87 46.96 46.39 57.25v294.75h-176c-8.84 0-16 7.16-16 16v32c0 8.84 7.16 16 16 16h416c8.84 0 16-7.16 16-16v-32c0-8.84-7.16-16-16-16z"/></svg>