<svg viewBox="0 0 512 512" xmlns="http://www.w3.org/2000/svg"><path d="m32 384a95.4 95.4 0 0 0 32 71.09v40.91a16 16 0 0 0 16 16h32a16 16 0 0 0 16-16v-16h256v16a16 16 0 0 0 16 16h32a16 16 0 0 0 16-16v-40.91a95.4 95.4 0 0 0 32-71.09v-48h-448zm464-128h-416v-186.75a21.26 21.26 0 0 1 36.28-15l19.27 19.26c-13.13 29.88-7.61 59.11 8.62 79.73l-.17.17a16 16 0 0 0 0 22.59l11.31 11.31a16 16 0 0 0 22.63 0l105.37-105.37a16 16 0 0 0 0-22.63l-11.31-11.31a16 16 0 0 0 -22.62 0l-.17.17c-20.62-16.23-49.83-21.75-79.73-8.62l-19.26-19.27a69.25 69.25 0 0 0 -118.22 48.97v186.75h-16a16 16 0 0 0 -16 16v16a16 16 0 0 0 16 16h480a16 16 0 0 0 16-16v-16a16 16 0 0 0 -16-16z"/></svg>