<svg viewBox="0 0 640 512" xmlns="http://www.w3.org/2000/svg"><path d="m633.82 458.1-90.62-70.05c.19-1.38.8-2.66.8-4.06.05-7.55-2.61-15.27-8.61-21.71-19.32-20.76-55.47-51.99-55.47-154.29 0-77.7-54.48-139.9-127.94-155.16v-20.83c0-17.67-14.32-32-31.98-32s-31.98 14.33-31.98 32v20.84c-40.33 8.38-74.66 31.07-97.59 62.57l-144.96-112.04c-6.98-5.42-17.04-4.17-22.46 2.81l-19.64 25.27c-5.42 6.97-4.17 17.02 2.81 22.45l588.35 454.73c6.98 5.43 17.03 4.17 22.46-2.81l19.64-25.27c5.42-6.97 4.17-17.02-2.81-22.45zm-476.59-206.56c-8.61 67.96-36.41 93.33-52.62 110.75-6 6.45-8.66 14.16-8.61 21.71.11 16.4 12.98 32 32.1 32h241.92zm162.77 260.46c35.32 0 63.97-28.65 63.97-64h-127.94c0 35.35 28.65 64 63.97 64z"/></svg>