<svg viewBox="0 0 448 512" xmlns="http://www.w3.org/2000/svg"><path d="m448 358.4v-332.8c0-16-9.6-25.6-25.6-25.6h-326.4c-54.4 0-96 41.6-96 96v320c0 54.4 41.6 96 96 96h326.4c12.8 0 25.6-9.6 25.6-25.6v-16c0-6.4-3.2-12.8-9.6-19.2-3.2-16-3.2-60.8 0-73.6 6.4-3.2 9.6-9.6 9.6-19.2zm-304-214.4c0-8.84 7.16-16 16-16h48v-48c0-8.84 7.16-16 16-16h32c8.84 0 16 7.16 16 16v48h48c8.84 0 16 7.16 16 16v32c0 8.84-7.16 16-16 16h-48v112c0 8.84-7.16 16-16 16h-32c-8.84 0-16-7.16-16-16v-112h-48c-8.84 0-16-7.16-16-16zm236.8 304h-284.8c-19.2 0-32-12.8-32-32s16-32 32-32h284.8z"/></svg>