<svg viewBox="0 0 512 512" xmlns="http://www.w3.org/2000/svg"><path d="m416 48c0-8.84-7.16-16-16-16h-64c-8.84 0-16 7.16-16 16v48h96zm-352.09 111.99c-2.51 93.85-60.45 114.23-63.91 244.01v44c0 17.67 14.33 32 32 32h96c17.67 0 32-14.33 32-32v-160h32v-160h-96.16c-17.63 0-31.45 14.37-31.93 31.99zm384.18 0c-.48-17.62-14.3-31.99-31.93-31.99h-96.16v160h32v160c0 17.67 14.33 32 32 32h96c17.67 0 32-14.33 32-32v-44c-3.46-129.78-61.4-150.16-63.91-244.01zm-272.09-127.99h-64c-8.84 0-16 7.16-16 16v48h96v-48c0-8.84-7.16-16-16-16zm48 256h64v-160h-64z"/></svg>