<svg viewBox="0 0 384 512" xmlns="http://www.w3.org/2000/svg"><path d="m380.15 510.837a8 8 0 0 1 -10.989-2.687l-125.33-206.427a31.923 31.923 0 0 0 12.958-9.485l126.048 207.608a8 8 0 0 1 -2.687 10.991zm-237.347-196.499-32.54 89.485 36.12 88.285c6.693 16.36 25.377 24.192 41.733 17.501 16.357-6.692 24.193-25.376 17.501-41.734zm-46.803-226.338c24.301 0 44-19.699 44-44s-19.699-44-44-44-44 19.699-44 44 19.699 44 44 44zm154.837 169.128-120-152c-4.733-5.995-11.75-9.108-18.837-9.112v-.016h-32v.026c-7.146.003-14.217 3.161-18.944 9.24l-61.056 78.5v95.694c0 13.455 11.011 24.791 24.464 24.536 13.041-.248 23.536-10.896 23.536-23.996v-79.766l16-20.571v140.698l-54.073 148.694c-6.04 16.609 2.528 34.969 19.138 41.009 16.602 6.039 34.968-2.524 41.009-19.138l65.926-181.288v-107.197l-31.406-39.816a4 4 0 1 1 6.269-4.971l102.3 129.217c9.145 11.584 24.368 11.339 33.708 3.965 10.41-8.216 12.159-23.334 3.966-33.708z"/></svg>