<svg viewBox="0 0 640 512" xmlns="http://www.w3.org/2000/svg"><path d="m598.88 244.56c25.2-12.6 41.12-38.36 41.12-66.53v-7.64c0-41.09-33.3-74.39-74.39-74.39-32.02 0-60.44 20.49-70.57 50.86-7.68 23.03-11.6 45.14-38.11 45.14h-273.87c-27.38 0-31.58-25.54-38.11-45.14-10.12-30.37-38.55-50.86-70.56-50.86-41.09 0-74.39 33.3-74.39 74.39v7.64c0 28.17 15.92 53.93 41.12 66.53 9.43 4.71 9.43 18.17 0 22.88-25.2 12.6-41.12 38.36-41.12 66.53v7.64c0 41.09 33.3 74.39 74.38 74.39 32.02 0 60.44-20.49 70.57-50.86 7.68-23.03 11.6-45.14 38.11-45.14h273.87c27.38 0 31.58 25.54 38.11 45.14 10.13 30.37 38.56 50.86 70.57 50.86 41.08 0 74.38-33.3 74.38-74.39v-7.64c0-28.18-15.92-53.93-41.12-66.53-9.42-4.71-9.42-18.17.01-22.88z"/></svg>