<svg viewBox="0 0 448 512" xmlns="http://www.w3.org/2000/svg"><path d="m302.5 512c23.18 0 44.43-12.58 56-32.66 16.19-28.08 25.5-60.59 25.5-95.34 0-36.12-10.08-69.81-27.44-98.62l43.44-43.44 9.38 9.38c6.25 6.25 16.38 6.25 22.63 0l11.3-11.32c6.25-6.25 6.25-16.38 0-22.63l-52.69-52.69c-6.25-6.25-16.38-6.25-22.63 0l-11.31 11.31c-6.25 6.25-6.25 16.38 0 22.63l9.38 9.38-39.41 39.41c-11.56-11.37-24.53-21.33-38.65-29.51v-154.16l15.97-.02c8.82-.01 15.97-7.16 15.98-15.98l.04-31.72c.01-8.85-7.17-16.03-16.02-16.02l-223.94.26c-8.82.01-15.97 7.16-15.98 15.98l-.04 31.73c-.01 8.85 7.17 16.02 16.02 16.01l15.97-.02v153.93c-57.33 33.21-96 95.08-96 166.11 0 34.75 9.31 67.27 25.5 95.34 11.58 20.08 32.83 32.66 56 32.66zm-182.44-252.57 23.94-13.87v-181.65l96-.11v181.76l23.94 13.87c24.81 14.37 44.12 35.73 56.56 60.57h-257c12.45-24.84 31.75-46.2 56.56-60.57z"/></svg>