<svg viewBox="0 0 576 512" xmlns="http://www.w3.org/2000/svg"><path d="m542.22 32.05c-54.8 3.11-163.72 14.43-230.96 55.59-4.64 2.84-7.27 7.89-7.27 13.17v363.87c0 11.55 12.63 18.85 23.28 13.49 69.18-34.82 169.23-44.32 218.7-46.92 16.89-.89 30.02-14.43 30.02-30.66v-337.84c.01-17.71-15.35-31.74-33.77-30.7zm-277.49 55.59c-67.23-41.16-176.15-52.47-230.95-55.59-18.42-1.04-33.78 12.99-33.78 30.7v337.85c0 16.24 13.13 29.78 30.02 30.66 49.49 2.6 149.59 12.11 218.77 46.95 10.62 5.35 23.21-1.94 23.21-13.46v-364.12c0-5.29-2.62-10.14-7.27-12.99z"/></svg>