<svg viewBox="0 0 640 512" xmlns="http://www.w3.org/2000/svg"><path d="m425.7 256c-16.9 0-32.8-9-41.4-23.4l-64.3-106.6-64.2 106.6c-8.7 14.5-24.6 23.5-41.5 23.5-4.5 0-9-.6-13.3-1.9l-137-39.2v178c0 14.7 10 27.5 24.2 31l216.2 54.1c10.2 2.5 20.9 2.5 31 0l216.4-54.1c14.2-3.6 24.2-16.4 24.2-31v-178l-137 39.1c-4.3 1.3-8.8 1.9-13.3 1.9zm212.6-112.2-51.5-102.8c-3.1-6.2-9.8-9.8-16.7-8.9l-250.1 31.9 91.7 152.1c3.8 6.3 11.4 9.3 18.5 7.3l197.9-56.5c9.9-2.9 14.7-13.9 10.2-23.1zm-585.1-102.8-51.5 102.8c-4.6 9.2.3 20.2 10.1 23l197.9 56.5c7.1 2 14.7-1 18.5-7.3l91.8-152-250.2-31.9c-6.9-.8-13.5 2.7-16.6 8.9z"/></svg>