<svg viewBox="0 0 640 512" xmlns="http://www.w3.org/2000/svg"><path d="m150.94 192h33.73c11.01 0 18.61-10.83 14.86-21.18-4.93-13.58-7.55-27.98-7.55-42.82s2.62-29.24 7.55-42.82c3.76-10.35-3.85-21.18-14.86-21.18h-33.73c-7.01 0-13.46 4.49-15.41 11.23-4.89 16.98-7.53 34.65-7.53 52.77s2.64 35.79 7.54 52.76c1.94 6.74 8.39 11.24 15.4 11.24zm-61.02-168.66c5.64-10.62-1.95-23.34-13.96-23.34h-35.33c-6.27 0-12.14 3.59-14.74 9.31-16.49 36.23-25.89 76.34-25.89 118.69 0 24.75 3.12 68.33 26.69 118.86 2.62 5.63 8.42 9.14 14.61 9.14h34.84c12.02 0 19.61-12.74 13.95-23.37-49.78-93.32-16.71-178.15-.17-209.29zm524.14-14.05c-2.6-5.71-8.46-9.29-14.73-9.29h-35.42c-11.98 0-19.66 12.66-14.02 23.25 18.27 34.29 48.42 119.42.28 209.23-5.72 10.68 1.8 23.52 13.91 23.52h35.23c6.27 0 12.13-3.58 14.73-9.29 16.53-36.23 25.96-76.35 25.96-118.71s-9.42-82.48-25.94-118.71zm-125 54.71h-33.73c-11.01 0-18.61 10.83-14.86 21.18 4.93 13.58 7.55 27.98 7.55 42.82s-2.62 29.24-7.55 42.82c-3.76 10.35 3.85 21.18 14.86 21.18h33.73c7.02 0 13.46-4.49 15.41-11.24 4.9-16.97 7.53-34.64 7.53-52.76s-2.64-35.79-7.54-52.76c-1.94-6.75-8.39-11.24-15.4-11.24zm-116.3 100.12c7.05-10.29 11.2-22.71 11.2-36.12 0-35.35-28.63-64-63.96-64-35.32 0-63.96 28.65-63.96 64 0 13.41 4.15 25.83 11.2 36.12l-130.5 313.41c-3.4 8.15.46 17.52 8.61 20.92l29.51 12.31c8.15 3.4 17.52-.46 20.91-8.61l49.19-118.15h150.07l49.2 118.15c3.4 8.16 12.76 12.01 20.91 8.61l29.51-12.31c8.15-3.4 12-12.77 8.61-20.92zm-101.14 155.88 48.38-116.19 48.38 116.19z"/></svg>