<svg viewBox="0 0 512 512" xmlns="http://www.w3.org/2000/svg"><path d="m511.988 288.9c-.478 17.43-15.217 31.1-32.653 31.1h-55.335v16c0 21.864-4.882 42.584-13.6 61.145l60.228 60.228c12.496 12.497 12.496 32.758 0 45.255-12.498 12.497-32.759 12.496-45.256 0l-54.736-54.736c-24.75 20.073-56.285 32.108-90.636 32.108v-244c0-6.627-5.373-12-12-12h-24c-6.627 0-12 5.373-12 12v244c-34.351 0-65.886-12.035-90.636-32.108l-54.736 54.736c-12.498 12.497-32.759 12.496-45.256 0-12.496-12.497-12.496-32.758 0-45.255l60.228-60.228c-8.718-18.561-13.6-39.281-13.6-61.145v-16h-55.334c-17.436 0-32.175-13.67-32.653-31.1-.497-18.084 14.015-32.9 31.987-32.9h56v-58.745l-46.628-46.628c-12.496-12.497-12.496-32.758 0-45.255 12.498-12.497 32.758-12.497 45.256 0l54.627 54.628h229.489l54.627-54.627c12.498-12.497 32.758-12.497 45.256 0 12.496 12.497 12.496 32.758 0 45.255l-46.627 46.627v58.745h56c17.972 0 32.484 14.816 31.988 32.9zm-254.988-288.9c-61.856 0-112 50.144-112 112h224c0-61.856-50.144-112-112-112z"/></svg>