<svg viewBox="0 0 576 512" xmlns="http://www.w3.org/2000/svg"><path d="m576 240c0-23.63-12.95-44.04-32-55.12v-152.87c0-8.75-6.98-32.01-32-32.01-7.12 0-14.19 2.38-19.98 7.02l-85.03 68.03c-42.71 34.14-96.33 52.95-150.99 52.95h-192c-35.35 0-64 28.65-64 64v96c0 35.35 28.65 64 64 64h33.7c-1.39 10.48-2.18 21.14-2.18 32 0 39.77 9.26 77.35 25.56 110.94 5.19 10.69 16.52 17.06 28.4 17.06h74.28c26.05 0 41.69-29.84 25.9-50.56-16.4-21.52-26.15-48.36-26.15-77.44 0-11.11 1.62-21.79 4.41-32h28.08c54.66 0 108.28 18.81 150.98 52.95l85.03 68.03a32.023 32.023 0 0 0 19.98 7.02c24.92 0 32-22.78 32-32v-152.87c19.06-11.09 32.01-31.5 32.01-55.13zm-96 141.42-33.05-26.44c-54-43.2-121.83-66.98-190.95-66.98v-96c69.12 0 136.95-23.78 190.95-66.98l33.05-26.44z"/></svg>