<svg viewBox="0 0 512 512" xmlns="http://www.w3.org/2000/svg"><path d="m488 128h-8v-48c0-44.8-99.2-80-224-80s-224 35.2-224 80v48h-8c-13.25 0-24 10.74-24 24v80c0 13.25 10.75 24 24 24h8v160c0 17.67 14.33 32 32 32v32c0 17.67 14.33 32 32 32h32c17.67 0 32-14.33 32-32v-32h192v32c0 17.67 14.33 32 32 32h32c17.67 0 32-14.33 32-32v-32h6.4c16 0 25.6-12.8 25.6-25.6v-166.4h8c13.25 0 24-10.75 24-24v-80c0-13.26-10.75-24-24-24zm-328-56c0-4.42 3.58-8 8-8h176c4.42 0 8 3.58 8 8v16c0 4.42-3.58 8-8 8h-176c-4.42 0-8-3.58-8-8zm-48 328c-17.67 0-32-14.33-32-32s14.33-32 32-32 32 14.33 32 32-14.33 32-32 32zm128-112h-112c-17.67 0-32-14.33-32-32v-96c0-17.67 14.33-32 32-32h112zm32 0v-160h112c17.67 0 32 14.33 32 32v96c0 17.67-14.33 32-32 32zm128 112c-17.67 0-32-14.33-32-32s14.33-32 32-32 32 14.33 32 32-14.33 32-32 32z"/></svg>