<svg viewBox="0 0 448 512" xmlns="http://www.w3.org/2000/svg"><path d="m436 160h-424c-6.627 0-12-5.373-12-12v-36c0-26.51 21.49-48 48-48h48v-52c0-6.627 5.373-12 12-12h40c6.627 0 12 5.373 12 12v52h128v-52c0-6.627 5.373-12 12-12h40c6.627 0 12 5.373 12 12v52h48c26.51 0 48 21.49 48 48v36c0 6.627-5.373 12-12 12zm-424 32h424c6.627 0 12 5.373 12 12v260c0 26.51-21.49 48-48 48h-352c-26.51 0-48-21.49-48-48v-260c0-6.627 5.373-12 12-12zm333.296 95.947-28.169-28.398c-4.667-4.705-12.265-4.736-16.97-.068l-106.037 105.184-45.98-46.352c-4.667-4.705-12.266-4.736-16.971-.068l-28.397 28.17c-4.705 4.667-4.736 12.265-.068 16.97l82.601 83.269c4.667 4.705 12.265 4.736 16.97.068l142.953-141.805c4.705-4.667 4.736-12.265.068-16.97z"/></svg>