<svg viewBox="0 0 576 512" xmlns="http://www.w3.org/2000/svg"><path d="m555.3 300.1-131.1-187.3c-22.3-31.8-57.8-48.8-93.8-48.8-22.6 0-45.5 6.7-65.5 20.7-19.7 13.8-33.7 32.8-41.5 53.8-2.9-59.3-51.4-106.5-111.4-106.5-61.9 0-112 50.1-112 112v224c0 61.9 50.1 112 112 112s112-50.1 112-112v-149.1c3.3 8.6 7.3 17.1 12.8 25l131.2 187.3c22.2 31.8 57.7 48.8 93.8 48.8 22.7 0 45.5-6.7 65.5-20.7 51.7-36.2 64.2-107.5 28-159.2zm-395.3-44.1h-96v-112c0-26.5 21.5-48 48-48s48 21.5 48 48zm194.8 44.9-65.6-93.7c-7.7-11-10.7-24.4-8.3-37.6 2.3-13.2 9.7-24.8 20.7-32.5 8.5-6 18.5-9.1 28.8-9.1 16.5 0 31.9 8 41.3 21.5l65.6 93.7z"/></svg>