<svg viewBox="0 0 640 512" xmlns="http://www.w3.org/2000/svg"><path d="m544 192h-16l-108.78-135.98a64.025 64.025 0 0 0 -49.98-24.02h-213.91c-26.17 0-49.7 15.93-59.42 40.23l-47.91 122.03c-27.56 7.14-48 31.95-48 61.74v112c0 8.84 7.16 16 16 16h48c0 53.02 42.98 96 96 96s96-42.98 96-96h128c0 53.02 42.98 96 96 96s96-42.98 96-96h48c8.84 0 16-7.16 16-16v-80c0-53.02-42.98-96-96-96zm-384 240c-26.47 0-48-21.53-48-48s21.53-48 48-48 48 21.53 48 48-21.53 48-48 48zm72-240h-115.07l38.4-96h76.67zm48 0v-96h89.24l76.8 96zm200 240c-26.47 0-48-21.53-48-48s21.53-48 48-48 48 21.53 48 48-21.53 48-48 48z"/></svg>