<svg viewBox="0 0 480 512" xmlns="http://www.w3.org/2000/svg"><path d="m438.66 212.33-11.24-28.1-19.93-49.83c-17.11-42.77-57.92-70.4-103.99-70.4h-127c-46.06 0-86.88 27.63-103.99 70.4l-19.93 49.83-11.24 28.1c-24.12 9.17-41.34 32.33-41.34 59.67v48c0 16.12 6.16 30.67 16 41.93v54.07c0 17.67 14.33 32 32 32h32c17.67 0 32-14.33 32-32v-32h256v32c0 17.67 14.33 32 32 32h32c17.67 0 32-14.33 32-32v-54.07c9.84-11.25 16-25.8 16-41.93v-48c0-27.34-17.22-50.5-41.34-59.67zm-306.73-54.16c7.29-18.22 24.94-30.17 44.57-30.17h127c19.63 0 37.28 11.95 44.57 30.17l19.93 49.83h-256zm-51.93 161.63c-19.2 0-32-12.76-32-31.9s12.8-31.9 32-31.9 48 28.71 48 47.85-28.8 15.95-48 15.95zm320 0c-19.2 0-48 3.19-48-15.95s28.8-47.85 48-47.85 32 12.76 32 31.9-12.8 31.9-32 31.9z"/></svg>