<svg viewBox="0 0 512 512" xmlns="http://www.w3.org/2000/svg"><path d="m499.99 176h-59.87l-16.64-41.6c-17.1-42.77-57.91-70.4-103.98-70.4h-127c-46.06 0-86.88 27.63-103.99 70.4l-16.64 41.6h-59.86c-7.81 0-13.54 7.34-11.64 14.91l6 24c1.33 5.34 6.13 9.09 11.64 9.09h20.07c-13.43 11.73-22.08 28.78-22.08 48v48c0 16.12 6.16 30.67 16 41.93v54.07c0 17.67 14.33 32 32 32h32c17.67 0 32-14.33 32-32v-32h256v32c0 17.67 14.33 32 32 32h32c17.67 0 32-14.33 32-32v-54.07c9.84-11.25 16-25.8 16-41.93v-48c0-19.22-8.65-36.27-22.07-48h20.07c5.51 0 10.31-3.75 11.64-9.09l6-24c1.89-7.57-3.84-14.91-11.65-14.91zm-352.06-17.83c7.29-18.22 24.94-30.17 44.57-30.17h127c19.63 0 37.28 11.95 44.57 30.17l19.93 49.83h-256zm-51.93 161.63c-19.2 0-32-12.76-32-31.9s12.8-31.9 32-31.9 48 28.71 48 47.85-28.8 15.95-48 15.95zm320 0c-19.2 0-48 3.19-48-15.95s28.8-47.85 48-47.85 32 12.76 32 31.9-12.8 31.9-32 31.9z"/></svg>