<svg viewBox="0 0 576 512" xmlns="http://www.w3.org/2000/svg"><path d="m504.717 320h-293.145l6.545 32h268.418c15.401 0 26.816 14.301 23.403 29.319l-5.517 24.276c18.691 9.073 31.579 28.233 31.579 50.405 0 31.202-25.519 56.444-56.824 55.994-29.823-.429-54.35-24.631-55.155-54.447-.44-16.287 6.085-31.049 16.803-41.548h-209.648c10.377 10.166 16.824 24.327 16.824 40.001 0 31.813-26.528 57.431-58.67 55.938-28.54-1.325-51.751-24.385-53.251-52.917-1.158-22.034 10.436-41.455 28.051-51.586l-70.247-343.435h-69.883c-13.255 0-24-10.745-24-24v-16c0-13.255 10.745-24 24-24h102.529c11.401 0 21.228 8.021 23.513 19.19l9.166 44.81h392.782c15.401 0 26.816 14.301 23.403 29.319l-47.273 208c-2.483 10.927-12.197 18.681-23.403 18.681zm-101.688-128h-43.029v-60c0-6.627-5.373-12-12-12h-24c-6.627 0-12 5.373-12 12v60h-43.029c-10.691 0-16.045 12.926-8.485 20.485l67.029 67.029c4.686 4.686 12.284 4.686 16.971 0l67.029-67.029c7.559-7.559 2.205-20.485-8.486-20.485z"/></svg>