<svg viewBox="0 0 640 512" xmlns="http://www.w3.org/2000/svg"><path d="m208 352c-2.39 0-4.78.35-7.06 1.09-12.96 4.21-26.59 6.91-40.94 6.91s-27.98-2.7-40.95-6.91c-2.28-.74-4.66-1.09-7.05-1.09-62.06 0-112.33 50.48-112 112.62.14 26.26 21.73 47.38 48 47.38h224c26.27 0 47.86-21.12 48-47.38.33-62.14-49.94-112.62-112-112.62zm-48-32c53.02 0 96-42.98 96-96s-42.98-96-96-96-96 42.98-96 96 42.98 96 96 96zm432-320h-384c-26.47 0-48 22.25-48 49.59v46.41c23.42 0 45.1 6.78 64 17.8v-49.8h352v288h-64v-64h-128v64h-76.24c19.1 16.69 33.12 38.73 39.69 64h244.55c26.47 0 48-22.25 48-49.59v-316.82c0-27.34-21.53-49.59-48-49.59z"/></svg>