<svg viewBox="0 0 544 512" xmlns="http://www.w3.org/2000/svg"><path d="m527.79 288h-237.29l158.03 158.03c6.04 6.04 15.98 6.53 22.19.68 38.7-36.46 65.32-85.61 73.13-140.86 1.34-9.46-6.51-17.85-16.06-17.85zm-15.83-64.8c-8.24-119.46-103.7-214.92-223.16-223.16-9.12-.63-16.8 7.06-16.8 16.2v223.76h223.77c9.14 0 16.82-7.68 16.19-16.8zm-287.96 64.8v-237.29c0-9.55-8.39-17.4-17.84-16.06-119.17 16.84-210.26 120.95-206.02 245.72 4.36 128.14 114.69 233.22 242.89 231.61 50.4-.63 96.97-16.87 135.26-44.03 7.9-5.6 8.42-17.23 1.57-24.08z"/></svg>