<svg viewBox="0 0 576 512" xmlns="http://www.w3.org/2000/svg"><path d="m336 448h-320c-8.84 0-16 7.16-16 16v32c0 8.84 7.16 16 16 16h320c8.84 0 16-7.16 16-16v-32c0-8.84-7.16-16-16-16zm208-320v-48c0-8.84-7.16-16-16-16s-16 7.16-16 16v48h-32v-48c0-8.84-7.16-16-16-16s-16 7.16-16 16v48h-16c-8.84 0-16 7.16-16 16v32c0 35.76 23.62 65.69 56 75.93v118.49c0 13.95-9.5 26.92-23.26 29.19-17.52 2.89-32.74-10.62-32.74-27.61v-28c0-48.6-39.4-88-88-88h-8v-192c0-35.35-28.65-64-64-64h-160c-35.35 0-64 28.65-64 64v352h288v-112h8c22.09 0 40 17.91 40 40v24.61c0 39.67 28.92 75.16 68.41 79.01 45.3 4.43 83.59-31.21 83.59-75.62v-120.07c32.38-10.24 56-40.17 56-75.93v-32c0-8.84-7.16-16-16-16zm-283.91 47.76-93.7 139c-2.2 3.33-6.21 5.24-10.39 5.24-7.67 0-13.47-6.28-11.67-12.92l23.02-83.08h-59.35c-7.25 0-12.85-5.59-11.89-11.89l16-107c.79-5.21 5.87-9.11 11.89-9.11h68c7.88 0 13.62 6.54 11.6 13.21l-11.6 50.79h57.7c9.24 0 15.01 8.78 10.39 15.76z"/></svg>