<svg viewBox="0 0 512 512" xmlns="http://www.w3.org/2000/svg"><path d="m74 208h-10a16 16 0 0 0 -16 16v16a16 16 0 0 0 16 16h15.94a535.78 535.78 0 0 1 -15.94 128h128a535.78 535.78 0 0 1 -15.94-128h15.94a16 16 0 0 0 16-16v-16a16 16 0 0 0 -16-16h-10l33.89-90.38a16 16 0 0 0 -15-21.62h-56.89v-32h24a8 8 0 0 0 8-8v-16a8 8 0 0 0 -8-8h-24v-24a8 8 0 0 0 -8-8h-16a8 8 0 0 0 -8 8v24h-24a8 8 0 0 0 -8 8v16a8 8 0 0 0 8 8h24v32h-56.91a16 16 0 0 0 -15 21.62zm173.16 251.58-23.16-11.58v-16a16 16 0 0 0 -16-16h-160a16 16 0 0 0 -16 16v16l-23.15 11.58a16 16 0 0 0 -8.85 14.31v22.11a16 16 0 0 0 16 16h224a16 16 0 0 0 16-16v-22.11a16 16 0 0 0 -8.84-14.31zm92.77-157.78-3.29 82.2h126.72l-3.29-82.21 24.6-20.79a32 32 0 0 0 11.33-24.46v-58.54a6 6 0 0 0 -6-6h-26.38a6 6 0 0 0 -6 6v26h-24.71v-26a6 6 0 0 0 -6-6h-53.81a6 6 0 0 0 -6 6v26h-24.71v-26a6 6 0 0 0 -6-6h-26.39a6 6 0 0 0 -6 6v58.6a32 32 0 0 0 11.36 24.4zm44.07 2.2a16 16 0 0 1 32 0v32h-32zm119.16 155.58-23.16-11.58v-16a16 16 0 0 0 -16-16h-128a16 16 0 0 0 -16 16v16l-23.15 11.58a16 16 0 0 0 -8.85 14.31v22.11a16 16 0 0 0 16 16h192a16 16 0 0 0 16-16v-22.11a16 16 0 0 0 -8.84-14.31z"/></svg>