<svg viewBox="0 0 384 512" xmlns="http://www.w3.org/2000/svg"><path d="m19 272.47 40.63 18.06a32 32 0 0 0 24.88.47l12.78-5.12a32 32 0 0 0 18.76-20.5l9.22-30.65a24 24 0 0 1 12.55-15.65l22.12-11.08v50.33a48 48 0 0 1 -26.53 42.94l-57.22 28.65a80 80 0 0 0 -44.19 71.56v14.52h319.86v-192c0-106-85.92-192-191.92-192h-147.94a12 12 0 0 0 -12 12 16.9 16.9 0 0 0 1.79 7.58l14.21 28.42-9 9a24 24 0 0 0 -7 17v137.21a32 32 0 0 0 19 29.26zm33-144.47a20 20 0 1 1 -20 20 20 20 0 0 1 20-20zm316 320h-352a16 16 0 0 0 -16 16v32a16 16 0 0 0 16 16h352a16 16 0 0 0 16-16v-32a16 16 0 0 0 -16-16z"/></svg>