<svg viewBox="0 0 512 512" xmlns="http://www.w3.org/2000/svg"><path d="m256 112a56 56 0 1 0 -56-56 56 56 0 0 0 56 56zm176 336h-352a16 16 0 0 0 -16 16v32a16 16 0 0 0 16 16h352a16 16 0 0 0 16-16v-32a16 16 0 0 0 -16-16zm72.87-263.84-28.51-15.92c-7.44-5-16.91-2.46-22.29 4.68a47.59 47.59 0 0 1 -47.23 18.23c-23.14-4.29-38.84-26.22-38.84-49.75a13.4 13.4 0 0 0 -13.4-13.4h-38.77c-6 0-11.61 4-12.86 9.91a48 48 0 0 1 -93.94 0c-1.25-5.92-6.82-9.91-12.86-9.91h-38.77a13.4 13.4 0 0 0 -13.4 13.4c0 25.69-19 48.75-44.67 50.49a47.5 47.5 0 0 1 -41.54-19.15c-5.28-7.09-14.73-9.45-22.09-4.54l-28.57 16a16 16 0 0 0 -5.44 20.47l102.55 211.33h303.52l102.55-211.37a16 16 0 0 0 -5.44-20.47z"/></svg>