<svg viewBox="0 0 320 512" xmlns="http://www.w3.org/2000/svg"><path d="m8 287.88c0 51.64 22.14 73.83 56 84.6v43.52h192v-43.52c33.86-10.77 56-33 56-84.6 0-30.61-10.73-67.1-26.69-102.56l-100.31 100.33a8 8 0 0 1 -11.31 0l-11.31-11.31a8 8 0 0 1 0-11.31l107.89-107.93c-20.8-37.91-46.47-72.1-70.87-92.59 14-3.42 24.6-15.46 24.6-30.51a32 32 0 0 0 -32-32h-64a32 32 0 0 0 -32 32c0 15 10.6 27.09 24.6 30.51-52.79 44.29-112.6 151.99-112.6 225.37zm296 160.12h-288a16 16 0 0 0 -16 16v32a16 16 0 0 0 16 16h288a16 16 0 0 0 16-16v-32a16 16 0 0 0 -16-16z"/></svg>