<svg viewBox="0 0 512 512" xmlns="http://www.w3.org/2000/svg"><path d="m255.9.2h-64v64h64zm-255.9 63.97v64h64v-64zm128-63.97h-64v64h64zm64 255.9v64h64v-64zm-192-63.98v64h64v-64zm383.85-191.92h-64v64h64zm128 0h-64v64h64zm-383.85 255.9h-64v64h64zm383.8 191.9v-64h-64v64zm0-128v-64h-64v64zm-127.95 192h64v-64h-64zm128-319.88v-64h-64v64zm-383.85 319.88h64v-64h-64zm-128 0h64v-64h-64zm255.9 0h64v-64h-64zm-255.9-191.93v64h64v-64zm319.88-191.92v-64h-64v64zm-64 128h64v-64h-64zm-64 128v64h64v-64zm128-64h64v-64h-64zm0-127.95h64v-64h-64zm0 191.93v64h64v-64zm-255.88-.08v64h64v-64zm128-255.9v-64h-64v64zm191.92 255.9h64v-64h-64zm-128-191.93v-64h-64v64zm128-127.95v64h64v-64zm-128 255.9v64h64v-64zm-64-127.95h-63.92v64h64zm191.92 64h64v-64h-64zm-255.84-127.97h-64v64h64zm0 191.92v64h64v-64z"/></svg>