<svg viewBox="0 0 384 512" xmlns="http://www.w3.org/2000/svg"><path d="m120 72c0-39.765 32.235-72 72-72s72 32.235 72 72c0 39.764-32.235 72-72 72s-72-32.236-72-72zm254.627 1.373c-12.496-12.497-32.758-12.497-45.254 0l-86.628 86.627h-101.491l-86.627-86.627c-12.496-12.497-32.758-12.497-45.254 0-12.497 12.497-12.497 32.758 0 45.255l94.627 94.626v266.746c0 17.673 14.327 32 32 32h16c17.673 0 32-14.327 32-32v-112h16v112c0 17.673 14.327 32 32 32h16c17.673 0 32-14.327 32-32v-266.746l94.627-94.627c12.497-12.497 12.497-32.757 0-45.254z"/></svg>