<svg viewBox="0 0 640 512" xmlns="http://www.w3.org/2000/svg"><path d="m464.46 246.68-112.46-67.48v-51.2h48c8.84 0 16-7.16 16-16v-32c0-8.84-7.16-16-16-16h-48v-48c0-8.84-7.16-16-16-16h-32c-8.84 0-16 7.16-16 16v48h-48c-8.84 0-16 7.16-16 16v32c0 8.84 7.16 16 16 16h48v51.2l-112.46 67.48a31.997 31.997 0 0 0 -15.54 27.44v237.88h96v-96c0-35.35 28.65-64 64-64s64 28.65 64 64v96h96v-237.88c0-11.24-5.9-21.66-15.54-27.44zm-464.46 149.28v100.04c0 8.84 7.16 16 16 16h112v-192l-108.61 46.54a32.024 32.024 0 0 0 -19.39 29.42zm620.61-29.42-108.61-46.54v192h112c8.84 0 16-7.16 16-16v-100.04c0-12.8-7.63-24.37-19.39-29.42z"/></svg>