<svg viewBox="0 0 512 512" xmlns="http://www.w3.org/2000/svg"><path d="m288 39.056v16.659c0 10.804 7.281 20.159 17.686 23.066 77.518 21.653 134.314 92.737 134.314 177.219 0 101.689-82.295 184-184 184-101.689 0-184-82.295-184-184 0-84.47 56.786-155.564 134.312-177.219 10.407-2.907 17.688-12.264 17.688-23.069v-16.648c0-15.709-14.834-27.153-30.046-23.234-107.351 27.652-186.56 125.376-185.951 241.502.72 137.052 111.477 246.956 248.531 246.667 136.721-.288 247.466-111.211 247.466-247.999 0-115.633-79.14-212.779-186.211-240.236-15.111-3.875-29.789 7.692-29.789 23.292z"/></svg>