<svg viewBox="0 0 512 512" xmlns="http://www.w3.org/2000/svg"><path d="m416 128c-.6 0-1.1.2-1.6.2 1.1-5.2 1.6-10.6 1.6-16.2 0-44.2-35.8-80-80-80-24.6 0-46.3 11.3-61 28.8-18.6-36-55.7-60.8-99-60.8-61.9 0-112 50.1-112 112 0 7.3.8 14.3 2.1 21.2-38.3 12.6-66.1 48.3-66.1 90.8 0 53 43 96 96 96h320c53 0 96-43 96-96s-43-96-96-96zm-328 246.2c-12.8 44.4-40 56.4-40 87.7 0 27.7 21.5 50.1 48 50.1s48-22.4 48-50.1c0-31.4-27.2-43.1-40-87.7-2.2-8.1-13.5-8.5-16 0zm160 0c-12.8 44.4-40 56.4-40 87.7 0 27.7 21.5 50.1 48 50.1s48-22.4 48-50.1c0-31.4-27.2-43.1-40-87.7-2.2-8.1-13.5-8.5-16 0zm160 0c-12.8 44.4-40 56.4-40 87.7 0 27.7 21.5 50.1 48 50.1s48-22.4 48-50.1c0-31.4-27.2-43.1-40-87.7-2.2-8.1-13.5-8.5-16 0z"/></svg>