<svg viewBox="0 0 576 512" xmlns="http://www.w3.org/2000/svg"><path d="m296 464h-56v-125.22l168.74-168.73c15.52-15.52 4.53-42.05-17.42-42.05h-366.64c-21.95 0-32.94 26.53-17.42 42.05l168.74 168.73v125.22h-56c-22.09 0-40 17.91-40 40 0 4.42 3.58 8 8 8h240c4.42 0 8-3.58 8-8 0-22.09-17.91-40-40-40zm136-464c-62.61 0-115.35 40.2-135.18 96h52.54c16.65-28.55 47.27-48 82.64-48 52.93 0 96 43.06 96 96s-43.07 96-96 96c-14.04 0-27.29-3.2-39.32-8.64l-35.26 35.26c21.81 13.3 47.17 21.38 74.58 21.38 79.53 0 144-64.47 144-144s-64.47-144-144-144z"/></svg>