<svg viewBox="0 0 640 512" xmlns="http://www.w3.org/2000/svg"><path d="m64 240c0 49.6 21.4 95 57 130.7-12.6 50.3-54.3 95.2-54.8 95.8-2.2 2.3-2.8 5.7-1.5 8.7 1.3 2.9 4.1 4.8 7.3 4.8 66.3 0 116-31.8 140.6-51.4 32.7 12.3 69 19.4 107.4 19.4 27.4 0 53.7-3.6 78.4-10l-325.5-251.6c-5.6 17.1-8.9 35-8.9 53.6zm569.8 218.1-114.4-88.4c35.2-35.6 56.6-80.5 56.6-129.7 0-114.9-114.6-208-256-208-65.1 0-124.2 20.1-169.4 52.7l-105.1-81.3c-7-5.4-17-4.2-22.5 2.8l-19.6 25.2c-5.4 7-4.2 17 2.8 22.4l588.4 454.7c7 5.4 17 4.2 22.5-2.8l19.6-25.3c5.4-6.8 4.1-16.9-2.9-22.3z"/></svg>