<svg viewBox="0 0 576 512" xmlns="http://www.w3.org/2000/svg"><path d="m416 192c0-88.37-93.12-160-208-160s-208 71.63-208 160c0 34.27 14.13 65.95 37.97 91.98-13.36 30.24-35.45 54.18-35.77 54.52a7.995 7.995 0 0 0 5.8 13.5c36.58 0 66.93-12.25 88.73-24.98 32.2 15.74 70.29 24.98 111.27 24.98 114.88 0 208-71.63 208-160zm-224 96v-16.29c-11.29-.58-22.27-4.52-31.37-11.35-3.9-2.93-4.1-8.77-.57-12.14l11.75-11.21c2.77-2.64 6.89-2.76 10.13-.73 3.87 2.42 8.26 3.72 12.82 3.72h28.11c6.5 0 11.8-5.92 11.8-13.19 0-5.95-3.61-11.19-8.77-12.73l-45-13.5c-18.59-5.58-31.58-23.42-31.58-43.39 0-24.52 19.05-44.44 42.67-45.07v-16.12c0-4.42 3.58-8 8-8h16c4.42 0 8 3.58 8 8v16.29c11.29.58 22.27 4.51 31.37 11.35 3.9 2.93 4.1 8.77.57 12.14l-11.75 11.21c-2.77 2.64-6.89 2.76-10.13.73-3.87-2.43-8.26-3.72-12.82-3.72h-28.11c-6.5 0-11.8 5.92-11.8 13.19 0 5.95 3.61 11.19 8.77 12.73l45 13.5c18.59 5.58 31.58 23.42 31.58 43.39 0 24.53-19.05 44.44-42.67 45.07v16.12c0 4.42-3.58 8-8 8h-16c-4.42 0-8-3.58-8-8zm346.01 123.99c23.86-26.03 37.99-57.72 37.99-91.99 0-66.94-53.49-124.2-129.33-148.07.86 6.6 1.33 13.29 1.33 20.07 0 105.87-107.66 192-240 192-10.78 0-21.32-.77-31.73-1.88 31.53 57.51 105.5 97.88 191.73 97.88 40.98 0 79.07-9.24 111.27-24.98 21.8 12.73 52.15 24.98 88.73 24.98 3.2 0 6.09-1.91 7.34-4.84 1.27-2.94.66-6.34-1.55-8.67-.31-.33-22.42-24.24-35.78-54.5z"/></svg>