<svg viewBox="0 0 448 512" xmlns="http://www.w3.org/2000/svg"><path d="m4.686 427.314 99.314-99.314-32.922-31.029c-15.12-15.12-4.412-40.971 16.97-40.971h112c13.255 0 23.952 10.745 23.952 24v112c0 21.382-25.803 32.09-40.922 16.971l-31.078-32.971-99.314 99.314c-6.248 6.248-16.379 6.248-22.627 0l-25.373-25.373c-6.248-6.248-6.248-16.379 0-22.627zm438.628-342.628-99.314 99.314 32.922 31.029c15.12 15.12 4.412 40.971-16.97 40.971h-112c-13.255 0-23.952-10.745-23.952-24v-112c0-21.382 25.803-32.09 40.922-16.971l31.078 32.971 99.314-99.314c6.248-6.248 16.379-6.248 22.627 0l25.373 25.373c6.248 6.248 6.248 16.379 0 22.627z"/></svg>