<svg viewBox="0 0 496 512" xmlns="http://www.w3.org/2000/svg"><path d="m225.38 233.37c-12.5 12.5-12.5 32.76 0 45.25 12.49 12.5 32.76 12.5 45.25 0 12.5-12.5 12.5-32.76 0-45.25s-32.76-12.49-45.25 0zm22.62-225.37c-136.97 0-248 111.03-248 248s111.03 248 248 248 248-111.03 248-248-111.03-248-248-248zm126.14 148.05-65.97 144.35a31.938 31.938 0 0 1 -15.77 15.77l-144.34 65.97c-16.65 7.61-33.81-9.55-26.2-26.2l65.98-144.35a31.938 31.938 0 0 1 15.77-15.77l144.34-65.97c16.65-7.6 33.8 9.55 26.19 26.2z"/></svg>