<svg viewBox="0 0 512 512" xmlns="http://www.w3.org/2000/svg"><path d="m200 288h-112c-21.4 0-32.1 25.8-17 41l32.9 31-99.2 99.3c-6.2 6.2-6.2 16.4 0 22.6l25.4 25.4c6.2 6.2 16.4 6.2 22.6 0l99.3-99.3 31.1 33c15.1 15.1 40.9 4.4 40.9-17v-112c0-13.3-10.7-24-24-24zm112-64h112c21.4 0 32.1-25.9 17-41l-33-31 99.3-99.3c6.2-6.2 6.2-16.4 0-22.6l-25.4-25.4c-6.2-6.2-16.4-6.2-22.6 0l-99.3 99.3-31.1-33c-15.1-15.1-40.9-4.4-40.9 17v112c0 13.3 10.7 24 24 24zm96 136 33-31.1c15.1-15.1 4.4-40.9-17-40.9h-112c-13.3 0-24 10.7-24 24v112c0 21.4 25.9 32.1 41 17l31-32.9 99.3 99.3c6.2 6.2 16.4 6.2 22.6 0l25.4-25.4c6.2-6.2 6.2-16.4 0-22.6zm-225-288.9-31 32.9-99.3-99.3c-6.2-6.2-16.4-6.2-22.6 0l-25.4 25.4c-6.2 6.2-6.2 16.4 0 22.6l99.3 99.3-33 31.1c-15.1 15.1-4.4 40.9 17 40.9h112c13.3 0 24-10.7 24-24v-112c0-21.3-25.9-32-41-16.9z"/></svg>