<svg viewBox="0 0 512 512" xmlns="http://www.w3.org/2000/svg"><path d="m488 352h-40v-242.75l59.31-59.31c6.25-6.25 6.25-16.38 0-22.63l-22.62-22.62c-6.25-6.25-16.38-6.25-22.63 0l-59.31 59.31h-210.75v96h114.75l-146.75 146.75v-282.75c0-13.26-10.75-24-24-24h-48c-13.25 0-24 10.74-24 24v40h-40c-13.25 0-24 10.74-24 24v48c0 13.25 10.75 24 24 24h40v264c0 13.25 10.75 24 24 24h232v-96h-114.75l146.75-146.75v282.75c0 13.25 10.75 24 24 24h48c13.25 0 24-10.75 24-24v-40h40c13.25 0 24-10.75 24-24v-48c0-13.26-10.75-24-24-24z"/></svg>