<svg viewBox="0 0 512 512" xmlns="http://www.w3.org/2000/svg"><path d="m500 224h-30.364c-13.912-93.675-87.961-167.724-181.636-181.636v-30.364c0-6.627-5.373-12-12-12h-40c-6.627 0-12 5.373-12 12v30.364c-93.675 13.912-167.724 87.961-181.636 181.636h-30.364c-6.627 0-12 5.373-12 12v40c0 6.627 5.373 12 12 12h30.364c13.912 93.675 87.961 167.724 181.636 181.636v30.364c0 6.627 5.373 12 12 12h40c6.627 0 12-5.373 12-12v-30.364c93.675-13.912 167.724-87.961 181.636-181.636h30.364c6.627 0 12-5.373 12-12v-40c0-6.627-5.373-12-12-12zm-212 180.634v-40.634c0-6.627-5.373-12-12-12h-40c-6.627 0-12 5.373-12 12v40.634c-58.174-12.402-104.217-58.391-116.634-116.634h40.634c6.627 0 12-5.373 12-12v-40c0-6.627-5.373-12-12-12h-40.634c12.402-58.174 58.391-104.217 116.634-116.634v40.634c0 6.627 5.373 12 12 12h40c6.627 0 12-5.373 12-12v-40.634c58.174 12.402 104.217 58.391 116.634 116.634h-40.634c-6.627 0-12 5.373-12 12v40c0 6.627 5.373 12 12 12h40.634c-12.402 58.174-58.391 104.217-116.634 116.634zm0-148.634c0 17.673-14.327 32-32 32s-32-14.327-32-32 14.327-32 32-32 32 14.327 32 32z"/></svg>