<svg viewBox="0 0 640 512" xmlns="http://www.w3.org/2000/svg"><path d="m544 32h-16.36c-14.6-19.32-37.55-32-63.64-32-44.18 0-80 35.82-80 80v20.98l-371.91 292.59a30.216 30.216 0 0 0 -12.09 24.17c0 22.46 23.64 37.07 43.73 27.03l121.54-60.77h96.49l44.41 120.1c2.27 6.23 9.15 9.44 15.38 7.17l22.55-8.21c6.23-2.27 9.44-9.15 7.17-15.38l-38.33-103.68h39.06c1.91 0 3.76-.23 5.66-.29l44.51 120.38c2.27 6.23 9.15 9.44 15.38 7.17l22.55-8.21c6.23-2.27 9.44-9.15 7.17-15.38l-41.24-111.53c79.71-23.34 137.97-96.88 137.97-184.14v-80l96-16c0-35.35-42.98-64-96-64zm-80 72c-13.25 0-24-10.75-24-24 0-13.26 10.75-24 24-24s24 10.74 24 24c0 13.25-10.75 24-24 24z"/></svg>