<svg viewBox="0 0 512 512" xmlns="http://www.w3.org/2000/svg"><path d="m216 260c0 15.464-12.536 28-28 28s-28-12.536-28-28c0-44.112 35.888-80 80-80s80 35.888 80 80c0 15.464-12.536 28-28 28s-28-12.536-28-28c0-13.234-10.767-24-24-24s-24 10.766-24 24zm24-176c-97.047 0-176 78.953-176 176 0 15.464 12.536 28 28 28s28-12.536 28-28c0-66.168 53.832-120 120-120s120 53.832 120 120c0 75.164-71.009 70.311-71.997 143.622l-.003.378c0 28.673-23.327 52-52 52-15.464 0-28 12.536-28 28s12.536 28 28 28c59.475 0 107.876-48.328 108-107.774.595-34.428 72-48.24 72-144.226 0-97.047-78.953-176-176-176zm268.485-52.201-28.285-28.284c-4.687-4.686-12.284-4.686-16.971 0l-87.029 87.029c-4.686 4.686-4.686 12.284 0 16.971l28.285 28.285c4.686 4.686 12.284 4.686 16.97 0l87.03-87.029c4.687-4.688 4.687-12.286 0-16.972zm-339.515 282.946c-4.686-4.686-12.284-4.686-16.97 0l-148.485 148.485c-4.686 4.686-4.686 12.284 0 16.971l28.285 28.284c4.687 4.686 12.284 4.686 16.971 0l148.485-148.485c4.686-4.686 4.686-12.284 0-16.971z"/></svg>