<svg viewBox="0 0 448 512" xmlns="http://www.w3.org/2000/svg"><path d="m422.19 109.95-165.98-100.88c-19.91-12.1-44.52-12.1-64.43 0l-165.97 100.88c-5.32 3.23-5.29 11.27.06 14.46l198.13 118.14 198.14-118.14c5.35-3.19 5.38-11.22.05-14.46zm13.84 44.63-196.03 116.88v223.82c0 12.88 13.39 20.91 24.05 14.43l152.16-92.48c19.68-11.96 31.79-33.94 31.79-57.7v-197.7c0-6.41-6.64-10.43-11.97-7.25zm-436.03 7.25v197.7c0 23.77 12.11 45.74 31.79 57.7l152.16 92.47c10.67 6.48 24.05-1.54 24.05-14.43v-223.81l-196.03-116.88c-5.33-3.18-11.97.84-11.97 7.25z"/></svg>