<svg viewBox="0 0 640 512" xmlns="http://www.w3.org/2000/svg"><path d="m592 192h-118.74c12.69 29.59 7.12 65.2-17 89.32l-136.26 136.26v46.42c0 26.51 21.49 48 48 48h224c26.51 0 48-21.49 48-48v-224c0-26.51-21.49-48-48-48zm-112 184c-13.25 0-24-10.75-24-24 0-13.26 10.75-24 24-24s24 10.74 24 24c0 13.25-10.75 24-24 24zm-46.37-186.7-174.93-174.93c-19.16-19.16-50.23-19.16-69.39 0l-174.94 174.93c-19.16 19.16-19.16 50.23 0 69.39l174.93 174.94c19.16 19.16 50.23 19.16 69.39 0l174.94-174.93c19.16-19.17 19.16-50.24 0-69.4zm-337.63 58.7c-13.25 0-24-10.75-24-24 0-13.26 10.75-24 24-24s24 10.74 24 24c0 13.25-10.75 24-24 24zm128 128c-13.25 0-24-10.75-24-24 0-13.26 10.75-24 24-24s24 10.74 24 24c0 13.25-10.75 24-24 24zm0-128c-13.25 0-24-10.75-24-24 0-13.26 10.75-24 24-24s24 10.74 24 24c0 13.25-10.75 24-24 24zm0-128c-13.25 0-24-10.75-24-24 0-13.26 10.75-24 24-24s24 10.74 24 24c0 13.25-10.75 24-24 24zm128 128c-13.25 0-24-10.75-24-24 0-13.26 10.75-24 24-24s24 10.74 24 24c0 13.25-10.75 24-24 24z"/></svg>