<svg viewBox="0 0 448 512" xmlns="http://www.w3.org/2000/svg"><path d="m.1 494.1c-1.1 9.5 6.3 17.8 15.9 17.8l32.3.1c8.1 0 14.9-5.9 16-13.9.7-4.9 1.8-11.1 3.4-18.1h312.3c1.6 6.9 2.9 13.2 3.5 18.1 1.1 8 7.9 14 16 13.9l32.3-.1c9.6 0 17.1-8.3 15.9-17.8-4.6-37.9-25.6-129-118.9-207.7-17.6 12.4-37.1 24.2-58.5 35.4 6.2 4.6 11.4 9.4 17 14.2h-127.6c21.3-18.1 47-35.6 78.7-51.4 172.1-85.5 203.7-218.8 209.5-266.7 1.1-9.5-6.3-17.8-15.9-17.8l-32.4-.1c-8.1 0-14.9 5.9-16 13.9-.7 4.9-1.8 11.1-3.4 18.1h-312.4c-1.6-7-2.7-13.1-3.4-18.1-1.1-8-7.9-14-16-13.9l-32.3.1c-9.6 0-17.1 8.3-16 17.8 5.2 42.9 31.3 153.9 159.9 238.1-128.5 84.2-154.7 195.2-159.9 238.1zm223.9-274.5c-25.1-13.7-46.4-28.4-64.3-43.6h128.5c-17.8 15.2-39.1 30-64.2 43.6zm131.1-123.6c-5.8 10.4-12.8 21.1-21 32h-220.1c-8.3-10.9-15.3-21.6-21-32zm-262.2 320c5.8-10.4 12.8-21.1 21-32h219.4c8.3 10.9 15.4 21.6 21.2 32z"/></svg>