<svg viewBox="0 0 576 512" xmlns="http://www.w3.org/2000/svg"><path d="m298.06 224 149.94 53.55v218.45a16 16 0 0 1 -16 16h-64a16 16 0 0 1 -16-16v-112h-160v112a16 16 0 0 1 -16 16h-64a16 16 0 0 1 -16-16v-213.91c-37.16-13.25-64-48.43-64-90.09a32 32 0 0 1 64 0 32.06 32.06 0 0 0 32 32zm245.94-112v32a64 64 0 0 1 -64 64h-32v35.58l-128-45.71v-149.87c0-14.25 17.22-21.39 27.31-11.31l27.28 27.31h53.63c10.91 0 23.75 7.92 28.62 17.69l7.16 14.31h64a16 16 0 0 1 16 16zm-112 0a16 16 0 1 0 -16 16 16 16 0 0 0 16-16z"/></svg>