<svg viewBox="0 0 640 512" xmlns="http://www.w3.org/2000/svg"><path d="m208 320h384c8.8 0 16-7.2 16-16v-256c0-8.8-7.2-16-16-16h-144v128l-48-32-48 32v-128h-144c-8.8 0-16 7.2-16 16v256c0 8.8 7.2 16 16 16zm416 64h-496v-368c0-8.8-7.2-16-16-16h-96c-8.8 0-16 7.2-16 16v32c0 8.8 7.2 16 16 16h48v368c0 8.8 7.2 16 16 16h82.9c-1.8 5-2.9 10.4-2.9 16 0 26.5 21.5 48 48 48s48-21.5 48-48c0-5.6-1.2-11-2.9-16h197.9c-1.8 5-2.9 10.4-2.9 16 0 26.5 21.5 48 48 48s48-21.5 48-48c0-5.6-1.2-11-2.9-16h82.8c8.8 0 16-7.2 16-16v-32c0-8.8-7.2-16-16-16z"/></svg>