<svg viewBox="0 0 288 512" xmlns="http://www.w3.org/2000/svg"><path d="m209.2 233.4-108-31.6c-12.5-3.6-21.2-15.3-21.2-28.3 0-16.3 13.2-29.5 29.5-29.5h66.3c12.2 0 24.2 3.7 34.2 10.5 6.1 4.1 14.3 3.1 19.5-2l34.8-34c7.1-6.9 6.1-18.4-1.8-24.5-24.5-19.2-55.1-29.9-86.5-30v-48c0-8.8-7.2-16-16-16h-32c-8.8 0-16 7.2-16 16v48h-2.5c-63.7 0-114.9 54.7-109 119.6 4.2 46.1 39.4 83.6 83.8 96.6l102.5 30c12.5 3.7 21.2 15.3 21.2 28.3 0 16.3-13.2 29.5-29.5 29.5h-66.3c-12.2 0-24.2-3.7-34.2-10.5-6.1-4.1-14.3-3.1-19.5 2l-34.8 34c-7.1 6.9-6.1 18.4 1.8 24.5 24.5 19.2 55.1 29.9 86.5 30v48c0 8.8 7.2 16 16 16h32c8.8 0 16-7.2 16-16v-48.2c46.6-.9 90.3-28.6 105.7-72.7 21.5-61.6-14.6-124.8-72.5-141.7z"/></svg>