<svg viewBox="0 0 576 512" xmlns="http://www.w3.org/2000/svg"><path d="m294.2 277.7c18 5 34.7 13.4 49.5 24.7l161.5-53.8c8.4-2.8 12.9-11.9 10.1-20.2l-60.4-181.2c-2.8-8.4-11.9-12.9-20.2-10.1l-61.1 20.4 33.1 99.4-60.7 20.1-33.1-99.4-61.6 20.5c-8.4 2.8-12.9 11.9-10.1 20.2zm281 48.7-10.2-30.4c-2.8-8.4-11.9-12.9-20.2-10.1l-213.5 71.2c-17.2-22-43.6-36.4-73.5-37l-99.4-298.2c-4.4-13.1-16.6-21.9-30.4-21.9h-112c-8.8 0-16 7.2-16 16v32c0 8.8 7.2 16 16 16h88.9l92.2 276.7c-26.1 20.4-41.7 53.6-36 90.5 6.1 39.4 37.9 72.3 77.3 79.2 60.2 10.7 112.3-34.8 113.4-92.6l213.3-71.2c8.3-2.8 12.9-11.8 10.1-20.2zm-319.2 137.6c-26.5 0-48-21.5-48-48s21.5-48 48-48 48 21.5 48 48-21.5 48-48 48z"/></svg>