<svg viewBox="0 0 576 512" xmlns="http://www.w3.org/2000/svg"><path d="m288 32c-159.06 0-288 57.31-288 128v192c0 70.69 128.94 128 288 128s288-57.31 288-128v-192c0-70.69-128.94-128-288-128zm-82.99 158.36c-4.45 16.61-14.54 30.57-28.31 40.48-76.47-13.38-128.7-40.06-128.7-70.84 0-30.16 50.11-56.39 124.04-70.03l25.6 44.34c9.86 17.09 12.48 36.99 7.37 56.05zm82.99 49.64c-21.08 0-41.41-1-60.89-2.7 8.06-26.13 32.15-45.3 60.89-45.3s52.83 19.17 60.89 45.3c-19.48 1.7-39.81 2.7-60.89 2.7zm64-144c0 35.29-28.71 64-64 64s-64-28.71-64-64v-13.04c20.4-1.88 41.8-2.96 64-2.96s43.6 1.08 64 2.96zm46.93 134.9c-13.81-9.91-23.94-23.9-28.4-40.54-5.11-19.06-2.49-38.96 7.38-56.04l25.65-44.42c74.16 13.6 124.44 39.89 124.44 70.1 0 30.83-52.4 57.54-129.07 70.9z"/></svg>