<svg viewBox="0 0 512 512" xmlns="http://www.w3.org/2000/svg"><path d="m431.34 122.05 73.53-47.42a16 16 0 0 0 4.44-22.19l-8.87-13.31a16 16 0 0 0 -22.19-4.44l-110.06 71c-49.76-8.78-96.97-9.69-112.19-9.69-36.45 0-256 4.55-256 112.15v160.23c0 30.27 27.5 57.68 72 77.86v-101.9a24 24 0 1 1 48 0v118.93c33.05 9.11 71.07 15.06 112 16.73v-103.61a24 24 0 1 1 48 0v103.61c40.93-1.67 78.95-7.62 112-16.73v-118.93a24 24 0 1 1 48 0v101.9c44.5-20.18 72-47.59 72-77.86v-160.23c0-43.32-35.76-69.76-80.66-86.1zm-175.34 150.19c-114.88 0-208-28.69-208-64.09s93.12-64.08 208-64.08c17.15 0 33.73.71 49.68 1.91l-72.81 47a16 16 0 0 0 -4.43 22.19l8.87 13.31a16 16 0 0 0 22.19 4.44l118.64-76.52c51.95 11.6 85.86 30.44 85.86 51.75 0 35.4-93.13 64.09-208 64.09z"/></svg>