<svg viewBox="0 0 640 512" xmlns="http://www.w3.org/2000/svg"><path d="m104 96h-48c-13.3 0-24 10.7-24 24v104h-24c-4.4 0-8 3.6-8 8v48c0 4.4 3.6 8 8 8h24v104c0 13.3 10.7 24 24 24h48c13.3 0 24-10.7 24-24v-272c0-13.3-10.7-24-24-24zm528 128h-24v-104c0-13.3-10.7-24-24-24h-48c-13.3 0-24 10.7-24 24v272c0 13.3 10.7 24 24 24h48c13.3 0 24-10.7 24-24v-104h24c4.4 0 8-3.6 8-8v-48c0-4.4-3.6-8-8-8zm-176-192h-48c-13.3 0-24 10.7-24 24v168h-128v-168c0-13.3-10.7-24-24-24h-48c-13.3 0-24 10.7-24 24v400c0 13.3 10.7 24 24 24h48c13.3 0 24-10.7 24-24v-168h128v168c0 13.3 10.7 24 24 24h48c13.3 0 24-10.7 24-24v-400c0-13.3-10.7-24-24-24z"/></svg>