<svg viewBox="0 0 576 512" xmlns="http://www.w3.org/2000/svg"><path d="m560 160c10.4 0 18-9.8 15.5-19.9l-24-96c-1.8-7.1-8.2-12.1-15.5-12.1h-98.9l25.6 128zm-288-128h-100.5l-25.6 128h126.1zm132.5 0h-100.5v128h126.1zm-388.5 128h97.3l25.6-128h-98.9c-7.3 0-13.7 5-15.5 12.1l-24 96c-2.5 10.1 5.1 19.9 15.5 19.9zm544 64h-20l4-32h-512l4 32h-20c-8.8 0-16 7.2-16 16v32c0 8.8 7.2 16 16 16h28l20 160v16c0 8.8 7.2 16 16 16h32c8.8 0 16-7.2 16-16v-16h320v16c0 8.8 7.2 16 16 16h32c8.8 0 16-7.2 16-16v-16l20-160h28c8.8 0 16-7.2 16-16v-32c0-8.8-7.2-16-16-16z"/></svg>