<svg viewBox="0 0 320 512" xmlns="http://www.w3.org/2000/svg"><path d="m310.706 413.765c-1.314-6.63-7.835-10.872-14.424-9.369-10.692 2.439-27.422 5.413-45.426 5.413-56.763 0-101.929-34.79-121.461-85.449h113.689a12 12 0 0 0 11.708-9.369l6.373-28.36c1.686-7.502-4.019-14.631-11.708-14.631h-134.237c-1.21-14.328-1.414-28.287.137-42.245h146.593a12 12 0 0 0 11.723-9.434l6.512-29.755c1.638-7.484-4.061-14.566-11.723-14.566h-138.278c20.633-44.991 62.69-75.03 117.619-75.03 14.486 0 28.564 2.25 37.851 4.145 6.216 1.268 12.347-2.498 14.002-8.623l11.991-44.368c1.822-6.741-2.465-13.616-9.326-14.917-12.104-2.295-31.611-5.207-52.686-5.207-97.184 0-175.605 60.252-204.56 144h-33.075c-6.627 0-12 5.373-12 12v29.755c0 6.627 5.373 12 12 12h21.569c-1.009 13.607-1.181 29.287-.181 42.245h-21.388c-6.627 0-12 5.373-12 12v28.36c0 6.627 5.373 12 12 12h30.114c25.025 90.332 103.15 155.64 207.521 155.64 26.301 0 48.562-4.544 61.101-7.788 6.167-1.595 10.027-7.708 8.788-13.957z"/></svg>