<svg viewBox="0 0 448 512" xmlns="http://www.w3.org/2000/svg"><path d="m448 344v112a23.94 23.94 0 0 1 -24 24h-112c-21.39 0-32.09-25.9-17-41l36.2-36.2-107.2-107.2-107.23 107.3 36.23 36.1c15.09 15.1 4.39 41-17 41h-112a23.94 23.94 0 0 1 -24-24v-112c0-21.4 25.89-32.1 41-17l36.19 36.2 107.27-107.2-107.28-107.3-36.18 36.3c-15.1 15.1-41 4.4-41-17v-112a23.94 23.94 0 0 1 24-24h112c21.39 0 32.09 25.9 17 41l-36.2 36.2 107.2 107.2 107.23-107.3-36.23-36.1c-15.09-15.1-4.39-41 17-41h112a23.94 23.94 0 0 1 24 24v112c0 21.4-25.89 32.1-41 17l-36.19-36.2-107.27 107.2 107.28 107.3 36.18-36.2c15.1-15.2 41-4.5 41 16.9z"/></svg>