<svg viewBox="0 0 512 512" xmlns="http://www.w3.org/2000/svg"><path d="m352 256h-38.61c-15.71-13.44-35.46-23.07-57.39-28v-47.56l-32-3.38-32 3.38v47.56c-21.93 5-41.68 14.6-57.39 28h-118.61a16 16 0 0 0 -16 16v96a16 16 0 0 0 16 16h92.79c20.59 37.73 64.21 64 115.21 64s94.62-26.27 115.21-64h12.79a32 32 0 0 1 32 32 32 32 0 0 0 32 32h64a32 32 0 0 0 32-32 160 160 0 0 0 -160-160zm-270.41-96.09 142.41-15 142.41 15c9.42 1 17.59-6.81 17.59-16.8v-30.22c0-10-8.17-17.8-17.59-16.81l-110.41 11.66v-27.74a16 16 0 0 0 -16-16h-32a16 16 0 0 0 -16 16v27.74l-110.41-11.66c-9.42-.99-17.59 6.82-17.59 16.81v30.22c0 9.99 8.17 17.8 17.59 16.8z"/></svg>