<svg viewBox="0 0 512 512" xmlns="http://www.w3.org/2000/svg"><path d="m480 160v-82.75a32 32 0 0 0 -9.38-22.63l-45.25-45.25a32 32 0 0 0 -22.62-9.37h-242.75a32 32 0 0 0 -32 32v448a32 32 0 0 0 32 32h320a32 32 0 0 0 32-32v-288a32 32 0 0 0 -32-32zm-192 272a16 16 0 0 1 -16 16h-32a16 16 0 0 1 -16-16v-32a16 16 0 0 1 16-16h32a16 16 0 0 1 16 16zm0-128a16 16 0 0 1 -16 16h-32a16 16 0 0 1 -16-16v-32a16 16 0 0 1 16-16h32a16 16 0 0 1 16 16zm128 128a16 16 0 0 1 -16 16h-32a16 16 0 0 1 -16-16v-32a16 16 0 0 1 16-16h32a16 16 0 0 1 16 16zm0-128a16 16 0 0 1 -16 16h-32a16 16 0 0 1 -16-16v-32a16 16 0 0 1 16-16h32a16 16 0 0 1 16 16zm0-112h-224v-128h160v48a16 16 0 0 0 16 16h48zm-352-64h-32a32 32 0 0 0 -32 32v320a32 32 0 0 0 32 32h32a32 32 0 0 0 32-32v-320a32 32 0 0 0 -32-32z"/></svg>