<svg viewBox="0 0 384 512" xmlns="http://www.w3.org/2000/svg"><path d="m224 136v-136h-200c-13.3 0-24 10.7-24 24v464c0 13.3 10.7 24 24 24h336c13.3 0 24-10.7 24-24v-328h-136c-13.2 0-24-10.8-24-24zm-96 144c0 4.42-3.58 8-8 8h-8c-8.84 0-16 7.16-16 16v32c0 8.84 7.16 16 16 16h8c4.42 0 8 3.58 8 8v16c0 4.42-3.58 8-8 8h-8c-26.51 0-48-21.49-48-48v-32c0-26.51 21.49-48 48-48h8c4.42 0 8 3.58 8 8zm44.27 104h-12.27c-4.42 0-8-3.58-8-8v-16c0-4.42 3.58-8 8-8h12.27c5.95 0 10.41-3.5 10.41-6.62 0-1.3-.75-2.66-2.12-3.84l-21.89-18.77c-8.47-7.22-13.33-17.48-13.33-28.14 0-21.3 19.02-38.62 42.41-38.62h12.25c4.42 0 8 3.58 8 8v16c0 4.42-3.58 8-8 8h-12.27c-5.95 0-10.41 3.5-10.41 6.62 0 1.3.75 2.66 2.12 3.84l21.89 18.77c8.47 7.22 13.33 17.48 13.33 28.14.01 21.29-19 38.62-42.39 38.62zm83.73-120v20.8c0 20.27 5.7 40.17 16 56.88 10.3-16.7 16-36.61 16-56.88v-20.8c0-4.42 3.58-8 8-8h16c4.42 0 8 3.58 8 8v20.8c0 35.48-12.88 68.89-36.28 94.09-3.02 3.25-7.27 5.11-11.72 5.11s-8.7-1.86-11.72-5.11c-23.4-25.2-36.28-58.61-36.28-94.09v-20.8c0-4.42 3.58-8 8-8h16c4.42 0 8 3.58 8 8zm121-159-97.9-98c-4.5-4.5-10.6-7-17-7h-6.1v128h128v-6.1c0-6.3-2.5-12.4-7-16.9z"/></svg>