<svg viewBox="0 0 448 512" xmlns="http://www.w3.org/2000/svg"><path d="m288 136v-136h-200c-13.3 0-24 10.7-24 24v232h-56c-4.4 0-8 3.6-8 8v16c0 4.4 3.6 8 8 8h140.9c3 0 5.8 1.7 7.2 4.4l19.9 39.8 56.8-113.7c2.9-5.9 11.4-5.9 14.3 0l34.7 69.5h70.2c8.8 0 16 7.2 16 16s-7.2 16-16 16h-89.9l-22.1-44.2-56.8 113.7c-2.9 5.9-11.4 5.9-14.3 0l-34.8-69.5h-70.1v168c0 13.3 10.7 24 24 24h336c13.3 0 24-10.7 24-24v-328h-136c-13.2 0-24-10.8-24-24zm153-31-97.9-98c-4.5-4.5-10.6-7-17-7h-6.1v128h128v-6.1c0-6.3-2.5-12.4-7-16.9z"/></svg>