<svg viewBox="0 0 384 512" xmlns="http://www.w3.org/2000/svg"><path d="m384 121.941v6.059h-128v-128h6.059c6.365 0 12.47 2.529 16.971 7.029l97.941 97.941a24.005 24.005 0 0 1 7.029 16.971zm-160 14.059v-136h-200c-13.255 0-24 10.745-24 24v464c0 13.255 10.745 24 24 24h336c13.255 0 24-10.745 24-24v-328h-136c-13.2 0-24-10.8-24-24zm96 144.016v111.963c0 21.445-25.943 31.998-40.971 16.971l-55.029-55.009v38.059c0 13.255-10.745 24-24 24h-112c-13.255 0-24-10.745-24-24v-112c0-13.255 10.745-24 24-24h112c13.255 0 24 10.745 24 24v38.059l55.029-55.013c15.011-15.01 40.971-4.491 40.971 16.97z"/></svg>