<svg viewBox="0 0 384 512" xmlns="http://www.w3.org/2000/svg"><path d="m384 121.941v6.059h-128v-128h6.059c6.365 0 12.47 2.529 16.971 7.029l97.941 97.941a24.005 24.005 0 0 1 7.029 16.971zm-136 38.059c-13.2 0-24-10.8-24-24v-136h-200c-13.255 0-24 10.745-24 24v464c0 13.255 10.745 24 24 24h336c13.255 0 24-10.745 24-24v-328zm-124.794 240.505a5.4 5.4 0 0 1 -7.633.246l-64.866-60.812a5.4 5.4 0 0 1 0-7.879l64.866-60.812a5.4 5.4 0 0 1 7.633.246l19.579 20.885a5.4 5.4 0 0 1 -.372 7.747l-40.763 35.874 40.763 35.874a5.4 5.4 0 0 1 .372 7.747zm51.295 50.479-27.453-7.97a5.402 5.402 0 0 1 -3.681-6.692l61.44-211.626a5.402 5.402 0 0 1 6.692-3.681l27.452 7.97a5.4 5.4 0 0 1 3.68 6.692l-61.44 211.626a5.397 5.397 0 0 1 -6.69 3.681zm160.792-111.045-64.866 60.812a5.4 5.4 0 0 1 -7.633-.246l-19.58-20.885a5.4 5.4 0 0 1 .372-7.747l40.764-35.873-40.763-35.874a5.4 5.4 0 0 1 -.372-7.747l19.58-20.885a5.4 5.4 0 0 1 7.633-.246l64.866 60.812a5.4 5.4 0 0 1 -.001 7.879z"/></svg>