<svg viewBox="0 0 384 512" xmlns="http://www.w3.org/2000/svg"><path d="m377 105-97.9-98c-4.5-4.5-10.6-7-17-7h-6.1v128h128v-6.1c0-6.3-2.5-12.4-7-16.9zm-248.6 231c-17.9 0-32.4 12.1-32.4 27 0 15 14.6 27 32.5 27s32.4-12.1 32.4-27-14.6-27-32.5-27zm95.6-200v-136h-63.6v32h-32v-32h-104.4c-13.3 0-24 10.7-24 24v464c0 13.3 10.7 24 24 24h336c13.3 0 24-10.7 24-24v-328h-136c-13.2 0-24-10.8-24-24zm-128.1-104h32v32h-32zm32.3 384c-33.2 0-58-30.4-51.4-62.9l19.6-97.1v-32h32v-32h-32v-32h32v-32h-32v-32h32v-32h32v32h-32v32h32v32h-32v32h32v32h-32v32h22.1c5.7 0 10.7 4.1 11.8 9.7l17.3 87.7c6.4 32.4-18.4 62.6-51.4 62.6z"/></svg>