<svg viewBox="0 0 384 512" xmlns="http://www.w3.org/2000/svg"><path d="m288 256h-192v64h192zm89-151-97.9-98c-4.5-4.5-10.6-7-17-7h-6.1v128h128v-6.1c0-6.3-2.5-12.4-7-16.9zm-153 31v-136h-200c-13.3 0-24 10.7-24 24v464c0 13.3 10.7 24 24 24h336c13.3 0 24-10.7 24-24v-328h-136c-13.2 0-24-10.8-24-24zm-160-64c0-4.42 3.58-8 8-8h80c4.42 0 8 3.58 8 8v16c0 4.42-3.58 8-8 8h-80c-4.42 0-8-3.58-8-8zm0 64c0-4.42 3.58-8 8-8h80c4.42 0 8 3.58 8 8v16c0 4.42-3.58 8-8 8h-80c-4.42 0-8-3.58-8-8zm256 304c0 4.42-3.58 8-8 8h-80c-4.42 0-8-3.58-8-8v-16c0-4.42 3.58-8 8-8h80c4.42 0 8 3.58 8 8zm0-200v96c0 8.84-7.16 16-16 16h-224c-8.84 0-16-7.16-16-16v-96c0-8.84 7.16-16 16-16h224c8.84 0 16 7.16 16 16z"/></svg>