<svg viewBox="0 0 384 512" xmlns="http://www.w3.org/2000/svg"><path d="m224 136v-136h-200c-13.3 0-24 10.7-24 24v464c0 13.3 10.7 24 24 24h336c13.3 0 24-10.7 24-24v-328h-136c-13.2 0-24-10.8-24-24zm68.53 179.48 11.31 11.31c6.25 6.25 6.25 16.38 0 22.63l-29.9 29.9 30.06 30.06c6.25 6.25 6.25 16.38 0 22.63l-11.31 11.31c-6.25 6.25-16.38 6.25-22.63 0l-30.06-30.07-30.06 30.06c-6.25 6.25-16.38 6.25-22.63 0l-11.31-11.31c-6.25-6.25-6.25-16.38 0-22.63l30.06-30.06-59.32-59.31h-18.74v48c0 8.84-7.16 16-16 16h-16c-8.84 0-16-7.16-16-16v-160c0-8.84 7.16-16 16-16h80c35.35 0 64 28.65 64 64 0 24.22-13.62 45.05-33.46 55.92l33.46 33.46 29.9-29.9c6.25-6.25 16.38-6.25 22.63 0zm-116.53-43.48h-48v-32h48c8.82 0 16 7.18 16 16s-7.18 16-16 16zm208-150.1v6.1h-128v-128h6.1c6.4 0 12.5 2.5 17 7l97.9 98c4.5 4.5 7 10.6 7 16.9z"/></svg>