<svg viewBox="0 0 384 512" xmlns="http://www.w3.org/2000/svg"><path d="m384 121.941v6.059h-128v-128h6.059a24 24 0 0 1 16.97 7.029l97.941 97.941a24.002 24.002 0 0 1 7.03 16.971zm-136 38.059c-13.2 0-24-10.8-24-24v-136h-200c-13.255 0-24 10.745-24 24v464c0 13.255 10.745 24 24 24h336c13.255 0 24-10.745 24-24v-328zm-135.455 16c26.51 0 48 21.49 48 48s-21.49 48-48 48-48-21.49-48-48 21.491-48 48-48zm208 240h-256l.485-48.485 39.515-39.515c4.686-4.686 11.799-4.201 16.485.485l39.515 39.515 103.515-103.515c4.686-4.686 12.284-4.686 16.971 0l39.514 39.515z"/></svg>