<svg viewBox="0 0 384 512" xmlns="http://www.w3.org/2000/svg"><path d="m224 136v-136h-200c-13.3 0-24 10.7-24 24v464c0 13.3 10.7 24 24 24h336c13.3 0 24-10.7 24-24v-328h-136c-13.2 0-24-10.8-24-24zm60.1 106.5-60.1 93.5 60.1 93.5c5.1 8-.6 18.5-10.1 18.5h-34.9c-4.4 0-8.5-2.4-10.6-6.3-19.6-36.2-36.5-68.7-36.5-68.7-6.4 14.8-10 20-36.6 68.8-2.1 3.9-6.1 6.3-10.5 6.3h-34.9c-9.5 0-15.2-10.5-10.1-18.5l60.3-93.5-60.3-93.5c-5.2-8 .6-18.5 10.1-18.5h34.8c4.4 0 8.5 2.4 10.6 6.3 26.1 48.8 20 33.6 36.6 68.5 0 0 6.1-11.7 36.6-68.5 2.1-3.9 6.2-6.3 10.6-6.3h34.8c9.5-.1 15.2 10.4 10.1 18.4zm99.9-120.6v6.1h-128v-128h6.1c6.4 0 12.5 2.5 17 7l97.9 98c4.5 4.5 7 10.6 7 16.9z"/></svg>