<svg viewBox="0 0 384 512" xmlns="http://www.w3.org/2000/svg"><path d="m224 136v-136h-200c-13.3 0-24 10.7-24 24v464c0 13.3 10.7 24 24 24h336c13.3 0 24-10.7 24-24v-328h-136c-13.2 0-24-10.8-24-24zm64 236c0 6.6-5.4 12-12 12h-168c-6.6 0-12-5.4-12-12v-8c0-6.6 5.4-12 12-12h168c6.6 0 12 5.4 12 12zm0-64c0 6.6-5.4 12-12 12h-168c-6.6 0-12-5.4-12-12v-8c0-6.6 5.4-12 12-12h168c6.6 0 12 5.4 12 12zm0-72v8c0 6.6-5.4 12-12 12h-168c-6.6 0-12-5.4-12-12v-8c0-6.6 5.4-12 12-12h168c6.6 0 12 5.4 12 12zm96-114.1v6.1h-128v-128h6.1c6.4 0 12.5 2.5 17 7l97.9 98c4.5 4.5 7 10.6 7 16.9z"/></svg>