<svg viewBox="0 0 448 512" xmlns="http://www.w3.org/2000/svg"><path d="m434.027 26.329-168 28c-11.334 1.889-10.027 13.471-10.027 17.671h-58.332c10.685-35.892-16.222-72-53.668-72-39.435 0-66.368 39.676-52.228 76.203-52.039 13.051-75.381 54.213-90.049 90.884-4.923 12.307 1.063 26.274 13.37 31.197 12.317 4.926 26.279-1.075 31.196-13.37 28.769-71.924 60.675-64.914 121.711-64.914v27.076c-41.543 10.862-72 49.235-72 94.129v246.795c0 13.255 10.745 24 24 24h144c13.255 0 24-10.745 24-24v-248c0-44.731-30.596-82.312-72-92.97v-27.03h40c0 2.974-1.703 15.716 10.027 17.671l168 28c7.315 1.219 13.973-4.421 13.973-11.837v-115.668c0-7.416-6.658-13.056-13.973-11.837zm-290.027 45.671c-8.822 0-16-7.178-16-16s7.178-16 16-16 16 7.178 16 16-7.178 16-16 16z"/></svg>