<svg viewBox="0 0 448 512" xmlns="http://www.w3.org/2000/svg"><path d="m323.56 51.2c-20.8 19.3-39.58 39.59-56.22 59.97-27.26-37.55-61.06-75.64-99.34-111.17-98.26 91.17-168 209.96-168 281.6 0 127.25 100.29 230.4 224 230.4s224-103.15 224-230.4c0-53.27-51.98-163.14-124.44-230.4zm-19.47 340.65c-21.66 15.16-48.37 24.15-77.23 24.15-72.15 0-130.86-47.74-130.86-125.25 0-38.61 24.31-72.63 72.79-130.75 6.93 7.98 98.83 125.34 98.83 125.34l58.63-66.88c4.14 6.85 7.91 13.55 11.27 19.97 27.35 52.19 15.81 118.97-33.43 153.42z"/></svg>