<svg viewBox="0 0 384 512" xmlns="http://www.w3.org/2000/svg"><path d="m255.98 160v-144c0-8.84-7.16-16-16-16h-32c-8.84 0-16 7.16-16 16v146.93c5.02-1.78 10.34-2.93 15.97-2.93zm128 95.99c-.01-35.34-28.66-63.99-63.99-63.99h-112.14c-8.78 0-15.9 7.07-15.9 15.85v.56c0 26.27 21.3 47.59 47.57 47.59h35.26c9.68 0 13.2 3.58 13.2 8v16.2c0 4.29-3.59 7.78-7.88 8-44.52 2.28-64.16 24.71-96.05 72.55l-6.31 9.47a7.994 7.994 0 0 1 -11.09 2.22l-13.31-8.88a7.994 7.994 0 0 1 -2.22-11.09l6.31-9.47c15.73-23.6 30.2-43.26 47.31-58.08-17.27-5.51-31.4-18.12-38.87-34.45-6.59 3.41-13.96 5.52-21.87 5.52h-32c-12.34 0-23.49-4.81-32-12.48-8.52 7.68-19.67 12.49-32 12.49h-32c-5.64 0-10.97-1.15-16-2.95v77.93c0 33.95 13.48 66.5 37.49 90.51l26.5 26.51v64h255.98v-63.96l35.91-35.92a96.035 96.035 0 0 0 28.12-67.91zm-32.01-90.09v-117.9c0-8.84-7.16-16-16-16h-32c-8.84 0-16 7.16-16 16v112h32c11.28 0 21.94 2.31 32 5.9zm-335.97 58.1h32c8.84 0 16-7.16 16-16v-128c0-8.84-7.16-16-16-16h-32c-8.84 0-16 7.16-16 16v128c0 8.84 7.16 16 16 16zm95.99 0h32c8.84 0 16-7.16 16-16v-160c0-8.84-7.16-16-16-16h-32c-8.84 0-16 7.16-16 16v160c0 8.84 7.16 16 16 16z"/></svg>