<svg viewBox="0 0 512 512" xmlns="http://www.w3.org/2000/svg"><path d="m349.565 98.783c-53.587 0-97.844-34.783-165.217-34.783-24.955 0-47.309 4.384-68.045 12.013a55.947 55.947 0 0 0 3.586-23.562c-1.772-28.436-25.083-51.245-53.551-52.403-31.993-1.302-58.338 24.248-58.338 55.952 0 19.026 9.497 35.825 24 45.945v386.055c0 13.255 10.745 24 24 24h16c13.255 0 24-10.745 24-24v-94.4c28.311-12.064 63.582-22.122 114.435-22.122 53.588 0 97.844 34.783 165.217 34.783 48.169 0 86.667-16.294 122.505-40.858 8.683-5.951 13.843-15.832 13.843-26.358v-243.1c0-23.393-24.269-38.87-45.485-29.016-34.338 15.948-76.454 31.854-116.95 31.854z"/></svg>