<svg viewBox="0 0 512 512" xmlns="http://www.w3.org/2000/svg"><path d="m32 0c-17.7 0-32 14.3-32 32v464c0 8.8 7.2 16 16 16h32c8.8 0 16-7.2 16-16v-464c0-17.7-14.3-32-32-32zm267.9 303.6c-57.2-15.1-111.7-28.8-203.9 11.1v69.3c185.7-92.2 221.7 53.3 397.5-23.1 11.4-5 18.5-16.5 18.5-28.8v-36c-43.6 17.3-80.2 24.1-112.1 24.1-37.4-.1-68.9-8.4-100-16.6zm0-96c-57.2-15.1-111.7-28.8-203.9 11.1v61.5c94.8-37.6 154.6-22.7 212.1-7.6 57.2 15.1 111.7 28.8 203.9-11.1v-61.5c-43.6 17.3-80.2 24.1-112.1 24.1-37.4 0-68.9-8.3-100-16.5zm9.5-125.9c51.8 15.6 97.4 29 202.6-20.1v-30.8c0-25.1-26.8-38.1-49.4-26.6-171.3 87.3-157.2-66.4-366.6 28.2v151.9c94.8-37.5 154.6-22.7 212.1-7.6 57.2 15 111.7 28.7 203.9-11.1v-68.9c-53.6 23.5-93.3 31.4-126.1 31.4s-59-7.8-85.7-15.9c-4-1.2-8.1-2.4-12.1-3.5v-33.2c7.2 2 14.3 4.1 21.3 6.2zm-149.4 46.4c-8.8 0-16-7.1-16-16 0-8.8 7.2-16 16-16s16 7.1 16 16-7.2 16-16 16zm0-55.8c-8.8 0-16-7.1-16-16 0-8.8 7.2-16 16-16s16 7.1 16 16c0 8.8-7.2 16-16 16zm64 47.9c-8.8 0-16-7.1-16-16 0-8.8 7.2-16 16-16s16 7.1 16 16c0 8.8-7.2 16-16 16zm0-55.9c-8.8 0-16-7.1-16-16 0-8.8 7.2-16 16-16s16 7.1 16 16c0 8.8-7.2 16-16 16z"/></svg>