<svg viewBox="0 0 512 512" xmlns="http://www.w3.org/2000/svg"><path d="m243.2 189.9v68.1c26.1 5.9 49.3 15.6 73.6 22.3v-68.2c-26-5.8-49.4-15.5-73.6-22.2zm223.3-123c-34.3 15.9-76.5 31.9-117 31.9-53.5 0-97.8-34.8-165.2-34.8-25 0-47.3 4.4-68 12 2.8-7.3 4.1-15.2 3.6-23.6-1.8-28.4-25.1-51.2-53.6-52.4-32-1.3-58.3 24.3-58.3 56 0 19 9.5 35.8 24 45.9v386.1c0 13.3 10.7 24 24 24h16c13.3 0 24-10.7 24-24v-94.4c28.3-12.1 63.6-22.1 114.4-22.1 53.6 0 97.8 34.8 165.2 34.8 48.2 0 86.7-16.3 122.5-40.9 8.7-6 13.8-15.8 13.8-26.4v-243.1c.1-23.3-24.2-38.8-45.4-29zm-296.9 258.6c-25.8 2.7-50 8.2-73.6 16.6v-70.5c26.2-9.3 47.5-15 73.6-17.4zm294.4-134.5c-23.6 9.8-46.3 19.5-73.6 23.9v71.1c24.8-3.4 51.4-11.8 73.6-26v70.5c-25.1 16.1-48.5 24.7-73.6 27.1v-71.6c-27 3.7-47.9 1.5-73.6-5.6v67.4c-23.9-7.4-47.3-16.7-73.6-21.3v-68.5c-19.7-4.4-40.8-6.8-73.6-3.8v-70c-22.4 3.1-44.6 10.2-73.6 20.9v-70.5c33.2-12.2 50.1-19.8 73.6-22v71.6c27-3.7 48.4-1.3 73.6 5.7v-67.4c23.7 7.4 47.2 16.7 73.6 21.3v68.4c23.7 5.3 47.6 6.9 73.6 2.7v-71.9c27-4.8 52.3-13.6 73.6-22.5z"/></svg>