<svg viewBox="0 0 496 512" xmlns="http://www.w3.org/2000/svg"><path d="m344 200c-13.3 0-24 10.7-24 24s10.7 24 24 24 24-10.7 24-24-10.7-24-24-24zm-192 0c-13.3 0-24 10.7-24 24s10.7 24 24 24 24-10.7 24-24-10.7-24-24-24zm96-192c-137 0-248 111-248 248s111 248 248 248 248-111 248-248-111-248-248-248zm-168 216c0-39.8 32.2-72 72-72s72 32.2 72 72-32.2 72-72 72-72-32.2-72-72zm232 176h-128c-21.2 0-21.2-32 0-32h128c21.2 0 21.2 32 0 32zm32-104c-39.8 0-72-32.2-72-72s32.2-72 72-72 72 32.2 72 72-32.2 72-72 72z"/></svg>