<svg viewBox="0 0 496 512" xmlns="http://www.w3.org/2000/svg"><path d="m481.5 60.3c-4.8-18.2-19.1-32.5-37.3-37.4-23.9-6.4-61.2-14-104.8-14.9l156.6 156.8c-.8-43.5-8.2-80.6-14.5-104.5zm-467 391.4c4.8 18.2 19.1 32.5 37.3 37.4 23.9 6.4 61.2 14 104.8 14.9l-156.6-156.8c.8 43.5 8.2 80.6 14.5 104.5zm-10.3-168.3 216.2 216.6c132.5-19.4 248.8-118.7 271.5-271.4l-216.3-216.6c-132.5 19.4-248.8 118.7-271.4 271.4zm317.3-123.6c3.1-3.1 8.2-3.1 11.3 0l11.3 11.3c3.1 3.1 3.1 8.2 0 11.3l-28.3 28.3 28.3 28.3c3.1 3.1 3.1 8.2 0 11.3l-11.3 11.3c-3.1 3.1-8.2 3.1-11.3 0l-28.3-28.3-22.6 22.7 28.3 28.3c3.1 3.1 3.1 8.2 0 11.3l-11.3 11.3c-3.1 3.1-8.2 3.1-11.3 0l-28.3-28.3-22.6 22.6 28.3 28.3c3.1 3.1 3.1 8.2 0 11.3l-11.3 11.3c-3.1 3.1-8.2 3.1-11.3 0l-28.3-28.3-28.3 28.3c-3.1 3.1-8.2 3.1-11.3 0l-11.3-11.3c-3.1-3.1-3.1-8.2 0-11.3l28.3-28.3-28.3-28.2c-3.1-3.1-3.1-8.2 0-11.3l11.3-11.3c3.1-3.1 8.2-3.1 11.3 0l28.3 28.3 22.6-22.6-28.3-28.3c-3.1-3.1-3.1-8.2 0-11.3l11.3-11.3c3.1-3.1 8.2-3.1 11.3 0l28.3 28.3 22.6-22.6-28.3-28.3c-3.1-3.1-3.1-8.2 0-11.3l11.3-11.3c3.1-3.1 8.2-3.1 11.3 0l28.3 28.3z"/></svg>