<svg viewBox="0 0 512 512" xmlns="http://www.w3.org/2000/svg"><path d="m336 448h-320c-8.8 0-16 7.2-16 16v32c0 8.8 7.2 16 16 16h320c8.8 0 16-7.2 16-16v-32c0-8.8-7.2-16-16-16zm157.2-340.7-81-81c-6.2-6.2-16.4-6.2-22.6 0l-11.3 11.3c-6.2 6.2-6.2 16.4 0 22.6l37.7 37.7v62.1c0 28.1 20.9 51.3 48 55.2v160.8c0 13.2-10.8 24-24 24s-24-10.8-24-24v-32c0-48.6-39.4-88-88-88h-8v-192c0-35.3-28.7-64-64-64h-160c-35.3 0-64 28.7-64 64v352h288v-112h8c22.1 0 40 17.9 40 40v27.8c0 37.7 27 72 64.5 75.9 43 4.3 79.5-29.5 79.5-71.7v-223.4c0-17-6.8-33.3-18.8-45.3zm-237.2 84.7h-160v-128h160z"/></svg>