<svg viewBox="0 0 512 512" xmlns="http://www.w3.org/2000/svg"><path d="m496 352h-16v-112c0-8.8-7.2-16-16-16h-16v-80c0-8.8-7.2-16-16-16h-16v-112c0-8.8-7.2-16-16-16s-16 7.2-16 16v16h-64v-16c0-8.8-7.2-16-16-16s-16 7.2-16 16v16h-64v-16c0-8.8-7.2-16-16-16s-16 7.2-16 16v16h-64v-16c0-8.8-7.2-16-16-16s-16 7.2-16 16v112h-16c-8.8 0-16 7.2-16 16v80h-16c-8.8 0-16 7.2-16 16v112h-16c-8.8 0-16 7.2-16 16v128c0 8.8 7.2 16 16 16h80v-160h32v-128h32v-96h32v96h-32v128h-32v160h80v-80c0-8.8 7.2-16 16-16h64c8.8 0 16 7.2 16 16v80h80v-160h-32v-128h-32v-96h32v96h32v128h32v160h80c8.8 0 16-7.2 16-16v-128c0-8.8-7.2-16-16-16zm-264-176c0-8.8 7.2-16 16-16h16c8.8 0 16 7.2 16 16v48h-48zm56 176h-64v-64c0-8.8 7.2-16 16-16h32c8.8 0 16 7.2 16 16z"/></svg>