<svg viewBox="0 0 640 512" xmlns="http://www.w3.org/2000/svg"><path d="m622.34 153.2-278.94-85.7c-15.2-4.67-31.6-4.67-46.79 0l-278.95 85.7c-23.54 7.23-23.54 38.36 0 45.59l48.63 14.94c-10.67 13.19-17.23 29.28-17.88 46.9-9.63 5.52-16.41 15.48-16.41 27.37 0 10.78 5.68 19.85 13.86 25.65l-25.53 114.88c-2.22 9.99 5.38 19.47 15.61 19.47h56.11c10.24 0 17.84-9.48 15.62-19.47l-25.53-114.88c8.18-5.8 13.86-14.87 13.86-25.65 0-11.57-6.47-21.25-15.66-26.87.76-15.02 8.44-28.3 20.69-36.72l195.57 60.09c9.06 2.78 26.44 6.25 46.79 0l278.95-85.7c23.55-7.24 23.55-38.36 0-45.6zm-269.55 161.89c-28.53 8.76-52.84 3.92-65.59 0l-145.02-44.55-14.18 113.46c0 35.35 85.96 64 192 64s192-28.65 192-64l-14.18-113.47z"/></svg>