<svg viewBox="0 0 448 512" xmlns="http://www.w3.org/2000/svg"><path d="m55.22 107.69 175.56 68.09-175.44 68.05c-18.39 6.03-27.88 24.39-21.2 41l12.09 30.08c6.68 16.61 26.99 25.19 45.38 19.15l301.41-119.86c13.77-4.52 22.98-16.61 22.98-30.17v-15.96c0-13.56-9.21-25.65-22.98-30.17l-301.72-119.98c-18.29-6-38.51 2.53-45.15 19.06l-12.03 29.92c-6.64 16.53 2.81 34.79 21.1 40.79zm368.78 292.31h-400c-13.25 0-24 10.74-24 24v48c0 13.25 10.75 24 24 24h400c13.25 0 24-10.75 24-24v-48c0-13.26-10.75-24-24-24z"/></svg>