<svg viewBox="0 0 496 512" xmlns="http://www.w3.org/2000/svg"><path d="m0 256c0 137 111 248 248 248s248-111 248-248-111-248-248-248-248 111-248 248zm200-48c0 17.7-14.3 32-32 32s-32-14.3-32-32 14.3-32 32-32 32 14.3 32 32zm168 25-9.5-8.5c-14.8-13.2-46.2-13.2-61 0l-9.5 8.5c-8.3 7.4-21.6.4-19.8-10.8 4-25.2 34.2-42.1 59.9-42.1s55.9 16.9 59.9 42.1c1.6 11-11.5 18.2-20 10.8zm-243.1 87.8c30.2 9.7 75.1 15.2 123.1 15.2s92.9-5.5 123.1-15.2c11.3-3.7 22.6 6 20.7 17.9-9.2 55-83.2 93.3-143.8 93.3s-134.5-38.3-143.8-93.3c-2-11.9 9.3-21.6 20.7-17.9z"/></svg>