<svg viewBox="0 0 496 512" xmlns="http://www.w3.org/2000/svg"><path d="m248 8c-137 0-248 111-248 248s111 248 248 248 248-111 248-248-111-248-248-248zm-153.4 160.9 34.9-5 15.5-31.6c2.9-5.8 11-5.8 13.9 0l15.5 31.6 34.9 5c6.2 1 8.9 8.6 4.3 13.2l-25.4 24.6 6 34.9c1 6.2-5.3 11-11 7.9l-31.2-16.2-31.3 16.3c-5.7 3.1-12-1.7-11-7.9l6-34.9-25.4-24.6c-4.6-4.7-1.9-12.3 4.3-13.3zm153.4 263.1c-60.6 0-134.5-38.3-143.8-93.3-2-11.8 9.3-21.5 20.7-17.9 30.2 9.7 75.1 15.2 123.1 15.2s92.9-5.5 123.1-15.2c11.5-3.7 22.6 6.1 20.7 17.9-9.3 55-83.2 93.3-143.8 93.3zm157.7-249.9-25.4 24.6 6 34.9c1 6.2-5.3 11-11 7.9l-31.3-16.2-31.3 16.3c-5.7 3.1-12-1.7-11-7.9l6-34.9-25.4-24.6c-4.5-4.6-1.9-12.2 4.3-13.2l34.9-5 15.5-31.6c2.9-5.8 11-5.8 13.9 0l15.5 31.6 34.9 5c6.3.9 9 8.5 4.4 13.1z"/></svg>