<svg viewBox="0 0 512 512" xmlns="http://www.w3.org/2000/svg"><path d="m502.63 39-29.63-29.63a32 32 0 0 0 -45.26 0l-46.28 46.33a35.14 35.14 0 0 0 -8.53 13.79l-12.16 36.51-76.26 76.26c-12.16-8.76-25.5-15.74-40.1-19.14-33.45-7.78-67-.88-89.88 22a82.45 82.45 0 0 0 -20.24 33.47c-6 18.56-23.21 32.69-42.15 34.46-23.7 2.27-45.73 11.45-62.61 28.44-45.64 45.51-37.43 127.51 18.05 182.96s137.42 63.55 182.98 18.07c17-16.88 26.16-38.9 28.45-62.71 1.76-18.85 15.89-36.13 34.43-42.14a82.6 82.6 0 0 0 33.48-20.25c22.87-22.88 29.74-56.36 22-89.75-3.39-14.64-10.37-28-19.16-40.2l76.24-76.24 36.48-12.16a35.14 35.14 0 0 0 13.79-8.53l46.33-46.32a32 32 0 0 0 .03-45.22zm-294.63 313a48 48 0 1 1 48-48 48 48 0 0 1 -48 48z"/></svg>