<svg viewBox="0 0 512 512" xmlns="http://www.w3.org/2000/svg"><path d="m509.34 307.25c-5.06-11.69-16.59-19.25-29.34-19.25h-64v-208c0-22-18-40-40-40s-40 18-40 40v134c0 5.52-4.48 10-10 10h-20c-5.52 0-10-4.48-10-10v-174c0-22-18-40-40-40s-40 18-40 40v174c0 5.52-4.48 10-10 10h-20c-5.52 0-10-4.48-10-10v-134c0-22-18-40-40-40s-40 18-40 40v208h-64c-12.75 0-24.28 7.56-29.34 19.25a31.966 31.966 0 0 0 5.94 34.58l102.69 110.03c35.68 38.22 88.4 60.14 144.71 60.14s109.03-21.92 144.72-60.14l102.68-110.03a31.966 31.966 0 0 0 5.94-34.58zm-253.34 108.75c-53.02 0-96-64-96-64s42.98-64 96-64 96 64 96 64-42.98 64-96 64zm0-96c-17.67 0-32 14.33-32 32s14.33 32 32 32 32-14.33 32-32-14.33-32-32-32z"/></svg>