<svg viewBox="0 0 640 512" xmlns="http://www.w3.org/2000/svg"><path d="m358.59 195.6 145.61 118.2a63.4 63.4 0 0 1 22.21 37.91h97.59a16.05 16.05 0 0 0 16-16v-191.8a16 16 0 0 0 -16-15.91h-112l-54.59-54.59a32 32 0 0 0 -22.61-9.41h-85.89a32 32 0 0 0 -21.61 8.41l-88.12 80.68-25.69-19.85 75.6-69.24h-83.79a32 32 0 0 0 -22.6 9.41l-20.34 20.3-116.89-90.33a16 16 0 0 0 -22.47 2.81l-19.62 25.27a16 16 0 0 0 2.81 22.45l588.35 454.72a16 16 0 0 0 22.46-2.81l19.64-25.27a16 16 0 0 0 -2.81-22.45l-330.43-255.38 32.69-29.92 27-24.7a16 16 0 0 1 21.61 23.61zm-342.59-67.6a16.05 16.05 0 0 0 -16 16v191.91a16 16 0 0 0 16 16h130.3l90.5 81.89a64 64 0 0 0 90-9.3l.2-.2 17.91 15.5a37.16 37.16 0 0 0 52.29-5.39l8.8-10.82-382.44-295.59z"/></svg>