<svg viewBox="0 0 576 512" xmlns="http://www.w3.org/2000/svg"><path d="m275.3 250.5c7 7.4 18.4 7.4 25.5 0l108.9-114.2c31.6-33.2 29.8-88.2-5.6-118.8-30.8-26.7-76.7-21.9-104.9 7.7l-11.2 11.7-11.1-11.6c-28.2-29.7-74.1-34.5-104.9-7.8-35.3 30.6-37.2 85.6-5.6 118.8zm290 77.6c-11.8-10.7-30.2-10-42.6 0l-92.4 73.9c-11.3 9.1-25.4 14-40 14h-118.3c-8.8 0-16-7.2-16-16s7.2-16 16-16h78.3c15.9 0 30.7-10.9 33.3-26.6 3.3-20-12.1-37.4-31.6-37.4h-160c-27 0-53.1 9.3-74.1 26.3l-46.5 37.7h-55.4c-8.8 0-16 7.2-16 16v96c0 8.8 7.2 16 16 16h356.8c14.5 0 28.6-4.9 40-14l151.2-121c15.2-12.1 16.4-35.3 1.3-48.9z"/></svg>