<svg viewBox="0 0 512 512" xmlns="http://www.w3.org/2000/svg"><path d="m512 199.652c0 23.625-20.65 43.826-44.8 43.826h-99.851c16.34 17.048 18.346 49.766-6.299 70.944 14.288 22.829 2.147 53.017-16.45 62.315 8.974 49.141-21.946 71.263-72.6 71.263-2.746 0-13.276-.203-16-.195-61.971.168-76.894-31.065-123.731-38.315-11.673-1.807-20.269-11.891-20.269-23.704v-171.525l.002-.001c.011-18.366 10.607-35.889 28.464-43.845 28.886-12.994 95.413-49.038 107.534-77.323 7.797-18.194 21.384-29.084 40-29.092 34.222-.014 57.752 35.098 44.119 66.908-3.583 8.359-8.312 16.67-14.153 24.918h149.234c23.45 0 44.8 20.543 44.8 43.826zm-416 .348v192c0 13.255-10.745 24-24 24h-48c-13.255 0-24-10.745-24-24v-192c0-13.255 10.745-24 24-24h48c13.255 0 24 10.745 24 24zm-28 168c0-11.046-8.954-20-20-20s-20 8.954-20 20 8.954 20 20 20 20-8.954 20-20z"/></svg>