<svg viewBox="0 0 512 512" xmlns="http://www.w3.org/2000/svg"><path d="m479.93 317.12a37.33 37.33 0 0 0 -28.28-36.19l-35.65-8.93v-49.59c0-11.44-9.69-21.29-23.15-23.54l-38.4-6.4c-17.82-2.97-34.45 8.39-34.45 23.53v32a8 8 0 0 1 -16 0v-198c0-26.28-20.25-49.2-46.52-50a48 48 0 0 0 -49.48 48v200a8 8 0 0 1 -16 0v-32c0-15.15-16.63-26.51-34.45-23.54l-30.68 5.12c-18 3-30.87 16.12-30.87 31.38v147.04a8 8 0 0 1 -16 0v-76l-27.36 15a37.34 37.34 0 0 0 -20.64 33.4v73.47a37.31 37.31 0 0 0 10.93 26.39l30.93 30.93a112 112 0 0 0 79.19 32.81h215a112 112 0 0 0 111.95-112z"/></svg>