<svg viewBox="0 0 448 512" xmlns="http://www.w3.org/2000/svg"><path d="m408 216c-22.092 0-40 17.909-40 40h-8v-32c0-22.091-17.908-40-40-40s-40 17.909-40 40v32h-8v-208c0-26.51-21.49-48-48-48s-48 21.49-48 48v208h-13.572l-69.74-177.551c-9.694-24.675-37.554-36.819-62.227-27.125-24.674 9.693-36.817 37.553-27.124 62.227l74.765 190.342-31.09 24.872c-15.381 12.306-19.515 33.978-9.741 51.081l64 112a39.998 39.998 0 0 0 34.729 20.154h240c18.562 0 34.686-12.77 38.937-30.838l32-136a39.97 39.97 0 0 0 1.063-9.162v-80c0-22.091-17.908-40-40-40z"/></svg>