<svg viewBox="0 0 448 512" xmlns="http://www.w3.org/2000/svg"><path d="m408.781 128.007c-22.425-.429-40.781 18.353-40.781 40.783v87.21h-8v-176.21c0-22.43-18.356-41.212-40.781-40.783-21.731.416-39.219 18.162-39.219 39.993v177h-8v-215.21c0-22.43-18.356-41.212-40.781-40.783-21.731.416-39.219 18.162-39.219 39.993v216h-8v-175.21c0-22.43-18.356-41.212-40.781-40.783-21.731.416-39.219 18.162-39.219 39.993v235.992l-31.648-43.519c-12.993-17.866-38.009-21.817-55.877-8.823-17.865 12.994-21.815 38.01-8.822 55.877l125.601 172.705a48 48 0 0 0 38.819 19.768h197.59c22.274 0 41.622-15.324 46.724-37.006l26.508-112.66a192.011 192.011 0 0 0 5.104-43.975v-150.359c.001-21.831-17.487-39.577-39.218-39.993z"/></svg>