<svg viewBox="0 0 512 512" xmlns="http://www.w3.org/2000/svg"><path d="m510.9005 145.27027-68.2965 286.82364a103.99507 103.99507 0 0 1 -101.16655 79.90609h-127.36345a135.96968 135.96968 0 0 1 -93.18489-36.95291l-108.29839-101.91986a39.992 39.992 0 0 1 54.8122-58.24988l60.59342 57.02528a283.24849 283.24849 0 0 0 -11.6703-80.46734l-42.68878-144.07518a40.00575 40.00575 0 1 1 76.71833-22.7187l37.15458 125.39477a8.33113 8.33113 0 0 0 16.05656-4.4414l-50.3049-195.64072a39.99638 39.99638 0 1 1 77.46832-19.93746l56.09491 218.15825a10.42047 10.42047 0 0 0 20.30018-.501l37.68242-183.70419a40.052 40.052 0 0 1 51.30245-30.0893c19.86073 6.2998 30.86262 27.67378 26.67564 48.08487l-33.83869 164.966a7.55172 7.55172 0 0 0 14.74406 3.2666l29.3973-123.45874a39.99414 39.99414 0 1 1 77.81208 18.53121z"/></svg>