<svg viewBox="0 0 640 512" xmlns="http://www.w3.org/2000/svg"><path d="m0 128.21v255.79h64a32 32 0 0 0 32-32v-168l-72.17-55.79zm48 191.89a16 16 0 1 1 -16 16 16 16 0 0 1 16-16zm80 31.81h18.3l90.5 81.89a64 64 0 0 0 90-9.3l.2-.2 17.91 15.5a37.16 37.16 0 0 0 52.29-5.39l8.8-10.82-278-214.87zm416-223.7v223.89a32 32 0 0 0 32 32h64v-255.89zm48 223.89a16 16 0 1 1 16-16 16 16 0 0 1 -16 16zm-288.67-149.43 59.58-54.57a16 16 0 0 1 21.59 23.61l-26.09 23.89 145.59 118.2a73.08 73.08 0 0 1 7.91 7.7v-193.5l-54.61-54.59a31.76 31.76 0 0 0 -22.6-9.41h-85.9a31.93 31.93 0 0 0 -21.6 8.41l-88.07 80.64-25.64-19.81 75.6-69.24h-83.79a32 32 0 0 0 -22.6 9.41l-20.34 20.31-116.89-90.34a16 16 0 0 0 -22.47 2.81l-19.62 25.27a16 16 0 0 0 2.81 22.45l588.34 454.72a16 16 0 0 0 22.47-2.81l19.65-25.27a16 16 0 0 0 -2.82-22.45z"/></svg>