<svg viewBox="0 0 384 512" xmlns="http://www.w3.org/2000/svg"><path d="m135.652 0c23.625 0 43.826 20.65 43.826 44.8v99.851c17.048-16.34 49.766-18.346 70.944 6.299 22.829-14.288 53.017-2.147 62.315 16.45 49.141-8.974 71.263 21.946 71.263 72.6 0 2.746-.203 13.276-.195 16 .168 61.971-31.065 76.894-38.315 123.731-1.807 11.673-11.891 20.269-23.704 20.269h-171.525l-.001-.002c-18.366-.011-35.889-10.607-43.845-28.464-12.994-28.886-49.038-95.412-77.323-107.534-18.195-7.797-29.084-21.384-29.092-40-.014-34.222 35.098-57.752 66.908-44.119 8.359 3.583 16.67 8.312 24.918 14.153v-149.234c0-23.45 20.543-44.8 43.826-44.8zm.348 416h192c13.255 0 24 10.745 24 24v48c0 13.255-10.745 24-24 24h-192c-13.255 0-24-10.745-24-24v-48c0-13.255 10.745-24 24-24zm168 28c-11.046 0-20 8.954-20 20s8.954 20 20 20 20-8.954 20-20-8.954-20-20-20z"/></svg>