<svg viewBox="0 0 640 512" xmlns="http://www.w3.org/2000/svg"><path d="m106.66 170.64h.09l49.55-20.65a7.32 7.32 0 0 0 3.68-6 7.29 7.29 0 0 0 -3.68-6l-49.57-20.67h-.07l-20.66-49.64a6.66 6.66 0 0 0 -11.92 0l-20.7 49.63h-.05l-49.63 20.69a7.29 7.29 0 0 0 -3.7 6 7.32 7.32 0 0 0 3.68 6l49.59 20.6h.07l20.66 49.66a6.65 6.65 0 0 0 11.92 0l20.69-49.62zm364.72 296.77-1-.42-1-.5a38.67 38.67 0 0 1 0-69.14l1-.49 1-.43 37.49-15.63 15.63-37.48.41-1 .47-.95c3.85-7.74 10.58-13.63 18.35-17.34 0-1.33.25-2.69.27-4v-176.03a32 32 0 0 0 -64 0v72a8 8 0 0 1 -8 8h-16a8 8 0 0 1 -8-8v-152a32 32 0 0 0 -64 0v152a8 8 0 0 1 -8 8h-16a8 8 0 0 1 -8-8v-184a32 32 0 0 0 -64 0v184a8 8 0 0 1 -8 8h-16a8 8 0 0 1 -8-8v-152a32 32 0 0 0 -64 0v241l-23.59-32.49a40 40 0 0 0 -64.71 47.09l125.6 172.61a48.07 48.07 0 0 0 38.79 19.79h197.61c19.24 0 35.65-11.73 43.24-28.79l-.07-.17zm-121.59-127.89-29.79 12.41-12.42 29.78a4 4 0 0 1 -7.15 0l-12.43-29.78-29.79-12.41a4 4 0 0 1 0-7.16l29.79-12.42 12.42-29.78a4 4 0 0 1 7.15 0l12.43 29.78 29.79 12.42a4 4 0 0 1 0 7.16zm290.21 92.39a7.28 7.28 0 0 0 -3.68-6l-49.57-20.67h-.07l-20.68-49.61a6.66 6.66 0 0 0 -11.92 0l-20.7 49.63h-.05l-49.63 20.74a7.28 7.28 0 0 0 -3.68 6 7.29 7.29 0 0 0 3.68 5.95l49.57 20.67h.07l20.66 49.59a6.65 6.65 0 0 0 11.92 0l20.69-49.62h.09l49.55-20.66a7.29 7.29 0 0 0 3.68-5.95z"/></svg>