<svg viewBox="0 0 448 512" xmlns="http://www.w3.org/2000/svg"><path d="m448 240v96c0 3.084-.356 6.159-1.063 9.162l-32 136c-4.251 18.068-20.375 30.838-38.937 30.838h-208a40.004 40.004 0 0 1 -32.35-16.473l-127.997-176c-12.993-17.866-9.043-42.883 8.822-55.876 17.867-12.994 42.884-9.043 55.877 8.823l31.648 43.518v-275.992c0-22.091 17.908-40 40-40s40 17.909 40 40v200h8v-40c0-22.091 17.908-40 40-40s40 17.909 40 40v40h8v-24c0-22.091 17.908-40 40-40s40 17.909 40 40v24h8c0-22.091 17.908-40 40-40s40 17.909 40 40zm-256 80h-8v96h8zm88 0h-8v96h8zm88 0h-8v96h8z"/></svg>