<svg viewBox="0 0 640 512" xmlns="http://www.w3.org/2000/svg"><path d="m232 160c-4.42 0-8 3.58-8 8v120h32v-120c0-4.42-3.58-8-8-8zm-64 0c-4.42 0-8 3.58-8 8v120h32v-120c0-4.42-3.58-8-8-8zm224 0c-4.42 0-8 3.58-8 8v120h32v-120c0-4.42-3.58-8-8-8zm64 0c-4.42 0-8 3.58-8 8v120h32v-120c0-4.42-3.58-8-8-8zm88 8c0-4.42-3.58-8-8-8h-16c-4.42 0-8 3.58-8 8v120h32zm-440-8c-4.42 0-8 3.58-8 8v120h32v-120c0-4.42-3.58-8-8-8zm520 0h-32c-8.84 0-16 7.16-16 16v112c0 17.67-14.33 32-32 32h-192v-192c0-8.84-7.16-16-16-16h-32c-8.84 0-16 7.16-16 16v192h-192c-17.67 0-32-14.33-32-32v-112c0-8.84-7.16-16-16-16h-32c-8.84 0-16 7.16-16 16v112c0 53.02 42.98 96 96 96h192v64h-176c-8.84 0-16 7.16-16 16v32c0 8.84 7.16 16 16 16h416c8.84 0 16-7.16 16-16v-32c0-8.84-7.16-16-16-16h-176v-64h192c53.02 0 96-42.98 96-96v-112c0-8.84-7.16-16-16-16zm-16-32c13.25 0 24-11.94 24-26.67s-24-53.33-24-53.33-24 38.61-24 53.33 10.75 26.67 24 26.67zm-576 0c13.25 0 24-11.94 24-26.67s-24-53.33-24-53.33-24 38.61-24 53.33 10.75 26.67 24 26.67zm288-48c13.25 0 24-11.94 24-26.67s-24-53.33-24-53.33-24 38.61-24 53.33 10.75 26.67 24 26.67zm-208 48c13.25 0 24-11.94 24-26.67s-24-53.33-24-53.33-24 38.61-24 53.33 10.75 26.67 24 26.67zm64 0c13.25 0 24-11.94 24-26.67s-24-53.33-24-53.33-24 38.61-24 53.33 10.75 26.67 24 26.67zm64 0c13.25 0 24-11.94 24-26.67s-24-53.33-24-53.33-24 38.61-24 53.33 10.75 26.67 24 26.67zm160 0c13.25 0 24-11.94 24-26.67s-24-53.33-24-53.33-24 38.61-24 53.33 10.75 26.67 24 26.67zm64 0c13.25 0 24-11.94 24-26.67s-24-53.33-24-53.33-24 38.61-24 53.33 10.75 26.67 24 26.67zm64 0c13.25 0 24-11.94 24-26.67s-24-53.33-24-53.33-24 38.61-24 53.33 10.75 26.67 24 26.67z"/></svg>