<svg viewBox="0 0 448 512" xmlns="http://www.w3.org/2000/svg"><path d="m440.667 182.109 7.143-40c1.313-7.355-4.342-14.109-11.813-14.109h-74.81l14.623-81.891c1.313-7.355-4.342-14.109-11.813-14.109h-40.632a12 12 0 0 0 -11.813 9.891l-15.377 86.109h-98.635l14.623-81.891c1.314-7.355-4.341-14.109-11.813-14.109h-40.632a12 12 0 0 0 -11.813 9.891l-15.377 86.109h-79.096a12 12 0 0 0 -11.813 9.891l-7.143 40c-1.313 7.355 4.342 14.109 11.813 14.109h74.81l-22.857 128h-79.096a12 12 0 0 0 -11.813 9.891l-7.143 40c-1.313 7.355 4.342 14.109 11.813 14.109h74.81l-14.623 81.891c-1.313 7.355 4.342 14.109 11.813 14.109h40.632a12 12 0 0 0 11.813-9.891l15.378-86.109h98.634l-14.623 81.891c-1.314 7.355 4.341 14.109 11.813 14.109h40.632a12 12 0 0 0 11.813-9.891l15.377-86.109h79.096a12 12 0 0 0 11.813-9.891l7.143-40c1.313-7.355-4.342-14.109-11.813-14.109h-74.81l22.857-128h79.096a12 12 0 0 0 11.813-9.891zm-178.778 137.891h-98.634l22.857-128h98.634z"/></svg>