<svg viewBox="0 0 576 512" xmlns="http://www.w3.org/2000/svg"><path d="m576 304v96c0 26.51-21.49 48-48 48h-480c-26.51 0-48-21.49-48-48v-96c0-26.51 21.49-48 48-48h480c26.51 0 48 21.49 48 48zm-48-80a79.557 79.557 0 0 1 30.777 6.165l-96.527-144.791a48.003 48.003 0 0 0 -39.939-21.374h-268.622a48 48 0 0 0 -39.938 21.374l-96.528 144.791a79.557 79.557 0 0 1 30.777-6.165zm-48 96c-17.673 0-32 14.327-32 32s14.327 32 32 32 32-14.327 32-32-14.327-32-32-32zm-96 0c-17.673 0-32 14.327-32 32s14.327 32 32 32 32-14.327 32-32-14.327-32-32-32z"/></svg>