<svg viewBox="0 0 512 512" xmlns="http://www.w3.org/2000/svg"><path d="m256 32c-141.48 0-256 114.496-256 256v48a32 32 0 0 0 17.689 28.622l14.383 7.191c2.011 60.09 51.349 108.187 111.928 108.187h24c13.255 0 24-10.745 24-24v-176c0-13.255-10.745-24-24-24h-24c-31.342 0-59.671 12.879-80 33.627v-1.627c0-105.869 86.131-192 192-192s192 86.131 192 192v1.627c-20.329-20.748-48.658-33.627-80-33.627h-24c-13.255 0-24 10.745-24 24v176c0 13.255 10.745 24 24 24h24c60.579 0 109.917-48.098 111.928-108.187l14.382-7.191a32 32 0 0 0 17.69-28.622v-48c0-141.479-114.496-256-256-256z"/></svg>