<svg viewBox="0 0 512 512" xmlns="http://www.w3.org/2000/svg"><path d="m.15 184.42c-2.32 59.79 22.85 113.64 63.85 150.46v177.12h160v-195.49l-220.33-160.26a182.28 182.28 0 0 0 -3.52 28.17zm509.07 90.58c-21-47.12-48.5-151.75-73.12-186.75a208.11 208.11 0 0 0 -169.99-88.25h-66.11c-83 0-157.52 50.57-186.75 123.65l225.96 164.35h272.55a31.35 31.35 0 0 0 -2.54-13zm-189.22-51a32 32 0 1 1 32-32 32.07 32.07 0 0 1 -32 32zm16 144h160l16-48h-256v192h145.88a64 64 0 0 0 60.71-43.76l1.41-4.24h-128a16 16 0 0 1 0-32h138.67l10.67-32h-149.34a16 16 0 0 1 0-32z"/></svg>