<svg viewBox="0 0 640 512" xmlns="http://www.w3.org/2000/svg"><path d="m454.11 319.21c19.56-3.81 31.62-25 23.11-44.21-21-47.12-48.5-151.75-73.12-186.75a208.13 208.13 0 0 0 -170-88.25h-42.1a190.64 190.64 0 0 0 -107.82 33.3l-38.72-29.92a16 16 0 0 0 -22.46 2.81l-19.63 25.27a16 16 0 0 0 2.81 22.45l588.35 454.72a16 16 0 0 0 22.47-2.81l19.64-25.27a16 16 0 0 0 -2.81-22.45zm-140.72-108.76-49.78-38.45c5.88-7.14 14.43-12 24.36-12a32.06 32.06 0 0 1 32 32c.03 7-2.73 13.17-6.58 18.45zm302.61 93.55a24 24 0 1 0 -24-24 24 24 0 0 0 24 24zm-64 64a24 24 0 1 0 -24-24 24 24 0 0 0 24 24zm-264 16a32 32 0 0 1 32-32h19.54l-318.81-246.41a190.86 190.86 0 0 0 -20.73 86.41c0 56.75 24.75 107.62 64 142.88v177.12h224v-32h64a64 64 0 0 0 64-64h-96a32 32 0 0 1 -32-32zm328-24a24 24 0 1 0 24 24 24 24 0 0 0 -24-24z"/></svg>