<svg viewBox="0 0 640 512" xmlns="http://www.w3.org/2000/svg"><path d="m304 384h272c17.67 0 32-14.33 32-32 0-123.71-100.29-224-224-224v-64h176c8.84 0 16-7.16 16-16v-32c0-8.84-7.16-16-16-16h-416c-8.84 0-16 7.16-16 16v32c0 8.84 7.16 16 16 16h176v64h-208l-43.2-57.6c-3.02-4.03-7.77-6.4-12.8-6.4h-39.99c-10.41 0-18.05 9.78-15.52 19.88l31.51 108.12 160 64 86.4 115.2a31.992 31.992 0 0 0 25.6 12.8zm112-188.49c62.55 12.79 112.03 61.93 124.79 124.49h-124.79zm219.37 263.3-22.15-22.2c-6.25-6.26-16.24-6.1-22.64.01-7.09 6.77-13.84 11.25-24.64 11.25h-325.94c-8.84 0-16 7.18-16 16.03v32.06c0 8.85 7.16 16.03 16 16.03h325.94c14.88 0 35.3-.47 68.45-29.52 7.02-6.14 7.57-17.05.98-23.66z"/></svg>