<svg viewBox="0 0 640 512" xmlns="http://www.w3.org/2000/svg"><path d="m581.12 96.2c-27.67-.15-52.5 17.58-76.6 26.62-14.54-34.55-48.69-58.82-88.52-58.82-11.28 0-21.95 2.3-32 5.88v-13.88c0-13.26-10.75-24-24-24h-16c-13.25 0-24 10.74-24 24v48.98c-33.99-25.4-78.76-40.98-128-40.98-106.04 0-192 71.64-192 160v240c0 8.84 7.16 16 16 16h64c8.84 0 16-7.16 16-16v-70.79c32.35 14.36 70.72 22.79 112 22.79s79.65-8.43 112-22.79v70.79c0 8.84 7.16 16 16 16h64c8.84 0 16-7.16 16-16v-176h128v32c0 8.84 7.16 16 16 16h32c8.84 0 16-7.16 16-16v-32c17.67 0 32-14.33 32-32v-92.02c0-34.09-24.79-67.59-58.88-67.78zm-133.12 79.8c-8.84 0-16-7.16-16-16s7.16-16 16-16 16 7.16 16 16-7.16 16-16 16z"/></svg>