<svg viewBox="0 0 512 512" xmlns="http://www.w3.org/2000/svg"><path d="m504 255.531c.253 136.64-111.18 248.372-247.82 248.468-59.015.042-113.223-20.53-155.822-54.911-11.077-8.94-11.905-25.541-1.839-35.607l11.267-11.267c8.609-8.609 22.353-9.551 31.891-1.984 31.385 24.905 71.104 39.77 114.323 39.77 101.705 0 184-82.311 184-184 0-101.705-82.311-184-184-184-48.814 0-93.149 18.969-126.068 49.932l50.754 50.754c10.08 10.08 2.941 27.314-11.313 27.314h-145.373c-8.837 0-16-7.163-16-16v-145.373c0-14.254 17.234-21.393 27.314-11.314l49.372 49.372c44.523-42.549 104.866-68.685 171.314-68.685 136.81 0 247.747 110.78 248 247.531zm-180.912 78.784 9.823-12.63c8.138-10.463 6.253-25.542-4.21-33.679l-40.701-31.657v-104.349c0-13.255-10.745-24-24-24h-16c-13.255 0-24 10.745-24 24v135.651l65.409 50.874c10.463 8.137 25.541 6.253 33.679-4.21z"/></svg>