<svg viewBox="0 0 640 512" xmlns="http://www.w3.org/2000/svg"><path d="m480 320a96 96 0 1 0 -96-96 96 96 0 0 0 96 96zm48 32a22.88 22.88 0 0 0 -7.06 1.09 124.76 124.76 0 0 1 -81.89 0 22.82 22.82 0 0 0 -7.05-1.09 112 112 0 0 0 -112 112.62c.14 26.26 21.73 47.38 48 47.38h224c26.27 0 47.86-21.12 48-47.38a112 112 0 0 0 -112-112.62zm-198.09 10.45a145.19 145.19 0 0 1 22.09-17.83v-216.62a32 32 0 0 0 -32-32h-32v-64a32 32 0 0 0 -32-32h-160a32 32 0 0 0 -32 32v64h-32a32 32 0 0 0 -32 32v368a16 16 0 0 0 16 16h288.31a78.62 78.62 0 0 1 -16.31-47.21 143.06 143.06 0 0 1 41.91-102.34zm-185.91 41.55a12 12 0 0 1 -12 12h-40a12 12 0 0 1 -12-12v-40a12 12 0 0 1 12-12h40a12 12 0 0 1 12 12zm0-128a12 12 0 0 1 -12 12h-40a12 12 0 0 1 -12-12v-40a12 12 0 0 1 12-12h40a12 12 0 0 1 12 12zm48-122a6 6 0 0 1 -6 6h-20a6 6 0 0 1 -6-6v-26h-26a6 6 0 0 1 -6-6v-20a6 6 0 0 1 6-6h26v-26a6 6 0 0 1 6-6h20a6 6 0 0 1 6 6v26h26a6 6 0 0 1 6 6v20a6 6 0 0 1 -6 6h-26zm80 250a12 12 0 0 1 -12 12h-40a12 12 0 0 1 -12-12v-40a12 12 0 0 1 12-12h40a12 12 0 0 1 12 12zm0-128a12 12 0 0 1 -12 12h-40a12 12 0 0 1 -12-12v-40a12 12 0 0 1 12-12h40a12 12 0 0 1 12 12z"/></svg>