<svg viewBox="0 0 512 512" xmlns="http://www.w3.org/2000/svg"><path d="m488.56 23.44a80 80 0 0 0 -113.12 0l-352 352a80 80 0 1 0 113.12 113.12l352-352a80 80 0 0 0 0-113.12zm-49.93 95.19c-19.6 19.59-37.52 22.67-51.93 25.14-12.94 2.23-22.3 3.83-34.7 16.23s-14 21.76-16.23 34.71c-2.48 14.4-5.55 32.33-25.15 51.92s-37.52 22.67-51.92 25.15c-12.95 2.22-22.3 3.82-34.7 16.22s-14 21.75-16.23 34.7c-2.47 14.4-5.54 32.33-25.14 51.92s-37.53 22.68-51.93 25.15c-12.94 2.23-22.3 3.83-34.7 16.23a16 16 0 0 1 -22.63-22.63c19.6-19.59 37.52-22.67 51.92-25.14 13-2.22 22.3-3.82 34.71-16.23s14-21.75 16.22-34.7c2.48-14.4 5.55-32.33 25.15-51.92s37.52-22.67 51.92-25.14c13-2.22 22.3-3.83 34.7-16.23s14-21.76 16.24-34.71c2.47-14.4 5.54-32.33 25.14-51.92s37.52-22.68 51.92-25.15c12.95-2.23 22.3-3.82 34.71-16.23a16 16 0 0 1 22.63 22.63zm-407.19 203.55 290.74-290.74-11.54-11.55c-25-25-63.85-26.66-86.79-3.72l-207.68 207.68c-22.94 22.94-21.27 61.79 3.72 86.78zm449.12-132.36-290.74 290.74 11.54 11.55c25 25 63.85 26.66 86.79 3.72l207.68-207.68c22.94-22.94 21.27-61.79-3.72-86.79z"/></svg>