<svg viewBox="0 0 384 512" xmlns="http://www.w3.org/2000/svg"><path d="m360 64c13.255 0 24-10.745 24-24v-16c0-13.255-10.745-24-24-24h-336c-13.255 0-24 10.745-24 24v16c0 13.255 10.745 24 24 24 0 90.965 51.016 167.734 120.842 192-69.826 24.266-120.842 101.035-120.842 192-13.255 0-24 10.745-24 24v16c0 13.255 10.745 24 24 24h336c13.255 0 24-10.745 24-24v-16c0-13.255-10.745-24-24-24 0-90.965-51.016-167.734-120.842-192 69.826-24.266 120.842-101.035 120.842-192zm-168 144c-57.787 0-104-66.518-104-144h208c0 77.945-46.51 144-104 144z"/></svg>