<svg viewBox="0 0 384 512" xmlns="http://www.w3.org/2000/svg"><path d="m360 0h-336c-13.255 0-24 10.745-24 24v16c0 13.255 10.745 24 24 24 0 90.965 51.016 167.734 120.842 192-69.826 24.266-120.842 101.035-120.842 192-13.255 0-24 10.745-24 24v16c0 13.255 10.745 24 24 24h336c13.255 0 24-10.745 24-24v-16c0-13.255-10.745-24-24-24 0-90.965-51.016-167.734-120.842-192 69.826-24.266 120.842-101.035 120.842-192 13.255 0 24-10.745 24-24v-16c0-13.255-10.745-24-24-24zm-75.078 384h-185.842c17.059-46.797 52.096-80 92.92-80 40.821 0 75.862 33.196 92.922 80zm.019-256h-185.863c-7.09-19.452-11.078-41.252-11.078-64h208c0 22.805-3.987 44.587-11.059 64z"/></svg>