<svg viewBox="0 0 576 512" xmlns="http://www.w3.org/2000/svg"><path d="m288 114.96-218.53 192.75c-1.62 1.46-3.69 2.14-5.47 3.35v184.94c0 8.84 7.16 16 16 16h149.23l-37.23-72.81 104.11-64-60.16-119.22 148.05 136.78-104.11 64 39.92 55.25h176.19c8.84 0 16-7.16 16-16v-184.9c-1.7-1.16-3.72-1.82-5.26-3.2zm282.69 121.32-58.69-51.83v-136.45c0-8.84-7.16-16-16-16h-64c-8.84 0-16 7.16-16 16v51.69l-101.25-89.38c-7.63-6.86-17.19-10.3-26.75-10.31s-19.1 3.41-26.7 10.27l-255.99 226.01c-6.57 5.91-7.12 16.02-1.21 22.6l21.4 23.82c5.9 6.57 16.02 7.12 22.6 1.21l229.32-202.28c6.05-5.33 15.12-5.33 21.17 0l229.32 202.27c6.57 5.9 16.69 5.36 22.6-1.21l21.4-23.82c5.9-6.57 5.36-16.69-1.22-22.59z"/></svg>