<svg viewBox="0 0 384 512" xmlns="http://www.w3.org/2000/svg"><path d="m368 240c8.84 0 16-7.16 16-16v-32c0-8.84-7.16-16-16-16h-41.86c13.41-28.63 13.74-63.33-4.13-94.05-18.67-32.11-54.91-49.95-92.05-49.95h-78.82c-24.32 0-47.86 8.53-66.54 24.09l-11.77 9.81c-10.18 8.49-11.56 23.62-3.07 33.8l20.49 24.59c8.49 10.19 23.62 11.56 33.81 3.07l11.73-9.78c4.32-3.6 9.77-5.57 15.39-5.57h83.62c11.69 0 21.2 9.52 21.2 21.2 0 5.91-2.48 11.58-6.81 15.58l-29.49 27.21h-203.7c-8.84 0-16 7.16-16 16v32c0 8.84 7.16 16 16 16h134.37l-34.67 32h-99.7c-8.84 0-16 7.16-16 16v32c0 8.84 7.16 16 16 16h41.86c-13.41 28.63-13.74 63.33 4.13 94.05 18.67 32.1 54.91 49.95 92.05 49.95h78.82c24.32 0 47.86-8.53 66.54-24.09l11.77-9.81c10.18-8.49 11.56-23.62 3.07-33.8l-20.49-24.59c-8.49-10.19-23.62-11.56-33.81-3.07l-11.75 9.8a23.992 23.992 0 0 1 -15.36 5.56h-83.63c-11.69 0-21.2-9.52-21.2-21.2 0-5.91 2.48-11.58 6.81-15.58l29.49-27.22h203.7c8.84 0 16-7.16 16-16v-32c0-8.84-7.16-16-16-16h-134.37l34.67-32z"/></svg>