<svg viewBox="0 0 576 512" xmlns="http://www.w3.org/2000/svg"><path d="m528 32h-480c-26.5 0-48 21.5-48 48v16h576v-16c0-26.5-21.5-48-48-48zm-528 400c0 26.5 21.5 48 48 48h480c26.5 0 48-21.5 48-48v-304h-576zm352-232c0-4.4 3.6-8 8-8h144c4.4 0 8 3.6 8 8v16c0 4.4-3.6 8-8 8h-144c-4.4 0-8-3.6-8-8zm0 64c0-4.4 3.6-8 8-8h144c4.4 0 8 3.6 8 8v16c0 4.4-3.6 8-8 8h-144c-4.4 0-8-3.6-8-8zm0 64c0-4.4 3.6-8 8-8h144c4.4 0 8 3.6 8 8v16c0 4.4-3.6 8-8 8h-144c-4.4 0-8-3.6-8-8zm-176-136c35.3 0 64 28.7 64 64s-28.7 64-64 64-64-28.7-64-64 28.7-64 64-64zm-108.9 204.2c8.4-25.7 32.5-44.2 60.9-44.2h8.2c12.3 5.1 25.7 8 39.8 8s27.6-2.9 39.8-8h8.2c28.4 0 52.5 18.5 60.9 44.2 3.2 9.9-5.2 19.8-15.6 19.8h-186.6c-10.4 0-18.8-10-15.6-19.8z"/></svg>