<svg viewBox="0 0 576 512" xmlns="http://www.w3.org/2000/svg"><path d="m320 33.9c-10.5-1.2-21.2-1.9-32-1.9-99.8 0-187.8 50.8-239.4 128h271.4zm-224 158.1h-65.7c-19.2 38.6-30.3 82-30.3 128h96zm256-152.6v120.6h175.4c-40.2-60.1-102.6-104.1-175.4-120.6zm128 280.6h96c0-46-11.1-89.4-30.3-128h-65.7zm-64 64v96h128c17.7 0 32-14.3 32-32v-96h-164.5c2.6 10.3 4.5 20.9 4.5 32zm32-192h-320v128h49.8c22.2-38.1 63-64 110.2-64s88 25.9 110.2 64h49.8zm-448 256c0 17.7 14.3 32 32 32h128v-96c0-11.1 1.9-21.7 4.5-32h-164.5zm288-160c-53 0-96 43-96 96v96h192v-96c0-53-43-96-96-96z"/></svg>