<svg viewBox="0 0 576 512" xmlns="http://www.w3.org/2000/svg"><path d="m480 416v16c0 26.51-21.49 48-48 48h-384c-26.51 0-48-21.49-48-48v-256c0-26.51 21.49-48 48-48h16v208c0 44.112 35.888 80 80 80zm96-80v-256c0-26.51-21.49-48-48-48h-384c-26.51 0-48 21.49-48 48v256c0 26.51 21.49 48 48 48h384c26.51 0 48-21.49 48-48zm-320-208c0 26.51-21.49 48-48 48s-48-21.49-48-48 21.49-48 48-48 48 21.49 48 48zm-96 144 55.515-55.515c4.686-4.686 12.284-4.686 16.971 0l39.514 39.515 135.515-135.515c4.686-4.686 12.284-4.686 16.971 0l87.514 87.515v112h-352z"/></svg>