<svg viewBox="0 0 448 512" xmlns="http://www.w3.org/2000/svg"><path d="m27.31 363.3 96-96a16 16 0 0 0 0-22.62l-96-96c-10.04-10.02-27.31-2.9-27.31 11.32v192c0 14.31 17.33 21.3 27.31 11.3zm404.69 52.7h-416a16 16 0 0 0 -16 16v32a16 16 0 0 0 16 16h416a16 16 0 0 0 16-16v-32a16 16 0 0 0 -16-16zm3.17-128h-230.34a12.82 12.82 0 0 0 -12.83 12.83v38.34a12.82 12.82 0 0 0 12.83 12.83h230.34a12.82 12.82 0 0 0 12.83-12.83v-38.34a12.82 12.82 0 0 0 -12.83-12.83zm0-128h-230.34a12.82 12.82 0 0 0 -12.83 12.83v38.34a12.82 12.82 0 0 0 12.83 12.83h230.34a12.82 12.82 0 0 0 12.83-12.83v-38.34a12.82 12.82 0 0 0 -12.83-12.83zm-3.17-128h-416a16 16 0 0 0 -16 16v32a16 16 0 0 0 16 16h416a16 16 0 0 0 16-16v-32a16 16 0 0 0 -16-16z"/></svg>