<svg viewBox="0 0 576 512" xmlns="http://www.w3.org/2000/svg"><path d="m535.95308 352c-42.64069 94.17188-137.64086 160-247.9848 160q-6.39844 0-12.84377-.29688c-103.96893-4.76562-193.8597-69.46874-235.10977-159.70312h39.92194l-58.60948-58.59375a264.82522 264.82522 0 0 1 -5.10938-39.42187 273.6653 273.6653 0 0 1 .5-29.98438h47.21883l-41.39065-41.375a269.79782 269.79782 0 0 1 107.96889-162.07812 16.06393 16.06393 0 0 1 9.28127-3 16.36332 16.36332 0 0 1 13.5 7.25 16.02739 16.02739 0 0 1 1.625 15.09374 138.387 138.387 0 0 0 -9.84376 51.26563c0 45.10937 21.04691 86.57813 57.71884 113.73437a16.29989 16.29989 0 0 1 1.20313 25.39063c-26.54692 23.98437-41.17194 56.5-41.17194 91.57813 0 60.03124 42.95319 110.28124 99.89079 121.92187l2.5-65.26563-27.15622 18.48438a8.33911 8.33911 0 0 1 -10-.75 8.025 8.025 0 0 1 -1.39063-9.9375l20.125-33.76562-42.06257-8.73438a7.9898 7.9898 0 0 1 0-15.65625l42.06257-8.71875-20.10941-33.73438a7.99122 7.99122 0 0 1 11.35939-10.71874l30.39065 20.65624 11.51565-287.96874a7.97138 7.97138 0 0 1 8-7.67188h.04687a8.02064 8.02064 0 0 1 7.95314 7.70312l11.53128 287.92188 30.39068-20.67188a8.08327 8.08327 0 0 1 10 .8125 7.99866 7.99866 0 0 1 1.39062 9.90626l-20.14063 33.76562 42.07819 8.73438a7.99373 7.99373 0 0 1 0 15.65624l-42.07819 8.71876 20.1094 33.73437a7.97791 7.97791 0 0 1 -1.32812 9.92187 8.25739 8.25739 0 0 1 -10.03127.79688l-27.17192-18.46875 2.5 65.34375c48.48446-9.40625 87.57828-48.15625 97.31267-96.5a123.52652 123.52652 0 0 0 -38.56257-117.07812 16.30634 16.30634 0 0 1 1.20313-25.42188c36.65631-27.17188 57.6876-68.60938 57.6876-113.73438a138.01689 138.01689 0 0 0 -9.85939-51.3125 15.98132 15.98132 0 0 1 1.60937-15.09374 16.36914 16.36914 0 0 1 13.5-7.23438 16.02453 16.02453 0 0 1 9.25 2.98438 271.26947 271.26947 0 0 1 107.90649 162.28124l-41.25008 41.23438h46.9532c.35938 5.76562 1.04688 11.45312 1.04688 17.26562a270.092 270.092 0 0 1 -5.125 51.85938l-58.89073 58.875z"/></svg>