<svg viewBox="0 0 640 512" xmlns="http://www.w3.org/2000/svg"><path d="m444.34 181.1c22.38 15.68 35.66 41.16 35.66 68.59v30.31c0 4.42 3.58 8 8 8h48c4.42 0 8-3.58 8-8v-30.31c0-43.24-21.01-83.41-56.34-108.06-23.81-16.61-39.66-42.29-39.66-71.32v-62.31c0-4.42-3.58-8-8-8h-48c-4.42 0-8 3.58-8 8v66.4c0 43.69 24.56 81.63 60.34 106.7zm-249.37 177.88c-68.94 11.09-135.28 35.71-194.97 73.02 83.65 52.28 180.3 80 278.94 80h88.57l-112.72-131.51c-14.74-17.2-37.45-25.11-59.82-21.51zm358.31-271.89c-5.67-3.8-9.28-9.96-9.28-16.78v-62.31c0-4.42-3.58-8-8-8h-48c-4.42 0-8 3.58-8 8v62.31c0 22.02 10.17 43.41 28.64 55.39 42.15 27.34 67.36 73.84 67.36 123.99v30.31c0 4.42 3.58 8 8 8h48c4.42 0 8-3.58 8-8v-30.31c0-65.44-32.41-126.19-86.72-162.6zm-192.39 264.96c-34.4.06-86.81.15-88.21.17l117.8 137.43a63.987 63.987 0 0 0 48.59 22.35h88.45l-117.95-137.6a63.955 63.955 0 0 0 -48.68-22.35zm255.11-.05h-184l117.99 137.65a63.987 63.987 0 0 0 48.59 22.35h17.42c13.25 0 24-10.75 24-24v-112c0-13.26-10.75-24-24-24z"/></svg>