<svg viewBox="0 0 496 512" xmlns="http://www.w3.org/2000/svg"><path d="m248 8c-137 0-248 111-248 248s111 248 248 248 248-111 248-248-111-248-248-248zm-80 232c-17.7 0-32-14.3-32-32s14.3-32 32-32 32 14.3 32 32-14.3 32-32 32zm136 156c0 19.2-28.7 41.5-71.5 44-8.5.8-12.1-11.8-3.6-15.4l17-7.2c13-5.5 20.8-13.5 20.8-21.5s-7.8-16-20.8-21.5l-17-7.2c-6-2.5-6.1-12.2 0-14.8l17-7.2c13-5.5 20.8-13.5 20.8-21.5s-7.8-16-20.8-21.5l-17-7.2c-8.6-3.6-4.8-16.5 3.6-15.4 42.8 2.5 71.5 24.8 71.5 44 0 13-13.4 27.3-35.2 36 21.8 9.1 35.2 23.4 35.2 36.4zm24-156c-17.7 0-32-14.3-32-32s14.3-32 32-32 32 14.3 32 32-14.3 32-32 32z"/></svg>