<svg viewBox="0 0 512 512" xmlns="http://www.w3.org/2000/svg"><path d="m501.62 92.11-234.38-90.07a31.958 31.958 0 0 0 -22.47 0l-234.39 90.07a16.001 16.001 0 0 0 -10.38 14.98v36.91c0 8.84 7.16 16 16 16h480c8.84 0 16-7.16 16-16v-36.91c0-6.67-4.14-12.64-10.38-14.98zm-437.62 99.89v160h-16c-8.84 0-16 7.16-16 16v48h448v-48c0-8.84-7.16-16-16-16h-16v-160h-64v160h-96v-160h-64v160h-96v-160zm432 256h-480c-8.84 0-16 7.16-16 16v32c0 8.84 7.16 16 16 16h480c8.84 0 16-7.16 16-16v-32c0-8.84-7.16-16-16-16z"/></svg>