<svg viewBox="0 0 640 512" xmlns="http://www.w3.org/2000/svg"><path d="m272 288h-64a16 16 0 0 1 -16-16v-64a16 16 0 0 1 16-16h64a16 16 0 0 1 16 16v37.12c11.11-12.88 27-21.12 44.8-21.12h136.94l6.65-7.53a16.51 16.51 0 0 0 3.61-9.47 16.31 16.31 0 0 0 -4.75-10.61l-59.25-52.39v-96a16 16 0 0 0 -16-16h-32a16 16 0 0 0 -16 16v39.3l-88.5-78.38c-5.5-4.92-16.05-8.92-23.45-8.92s-17.93 4-23.47 8.92l-211.8 187.5a16.15 16.15 0 0 0 -4.78 10.58 16.4 16.4 0 0 0 3.55 9.39l18.79 21.31a16.22 16.22 0 0 0 10.66 4.78 16.51 16.51 0 0 0 9.34-3.48l21.66-19.12v164.12a32 32 0 0 0 32 32h176zm357.33 160h-37.33v-160c0-17.67-12.89-32-28.8-32h-230.4c-15.91 0-28.8 14.33-28.8 32v160h-37.33a10.67 10.67 0 0 0 -10.67 10.67v10.66a42.82 42.82 0 0 0 42.6 42.67h298.8a42.82 42.82 0 0 0 42.6-42.67v-10.66a10.67 10.67 0 0 0 -10.67-10.67zm-85.33 0h-192v-144h192z"/></svg>