<svg viewBox="0 0 512 512" xmlns="http://www.w3.org/2000/svg"><path d="m12.41 148.02 232.94 105.67c6.8 3.09 14.49 3.09 21.29 0l232.94-105.67c16.55-7.51 16.55-32.52 0-40.03l-232.93-105.68a25.607 25.607 0 0 0 -21.29 0l-232.95 105.67c-16.55 7.51-16.55 32.53 0 40.04zm487.18 88.28-58.09-26.33-161.64 73.27c-7.56 3.43-15.59 5.17-23.86 5.17s-16.29-1.74-23.86-5.17l-161.63-73.27-58.1 26.33c-16.55 7.5-16.55 32.5 0 40l232.94 105.59c6.8 3.08 14.49 3.08 21.29 0l232.95-105.59c16.55-7.5 16.55-32.5 0-40zm0 127.8-57.87-26.23-161.86 73.37c-7.56 3.43-15.59 5.17-23.86 5.17s-16.29-1.74-23.86-5.17l-161.85-73.37-57.88 26.23c-16.55 7.5-16.55 32.5 0 40l232.94 105.59c6.8 3.08 14.49 3.08 21.29 0l232.95-105.59c16.55-7.5 16.55-32.5 0-40z"/></svg>