<svg viewBox="0 0 512 512" xmlns="http://www.w3.org/2000/svg"><path d="m489.038 22.963c-23.094-23.093-54.39-28.893-75.091-16.834-58.906 34.312-181.25-53.077-321.073 86.746s-52.433 262.166-86.745 321.07c-12.059 20.702-6.26 51.999 16.833 75.093 23.095 23.095 54.392 28.891 75.095 16.832 58.901-34.31 181.246 53.079 321.068-86.743s52.435-262.167 86.746-321.071c12.059-20.702 6.261-51.999-16.833-75.093zm-245.157 72.559c-58.189 14.547-133.808 90.155-148.358 148.358-1.817 7.27-8.342 12.124-15.511 12.124-1.284 0-2.59-.156-3.893-.481-8.572-2.144-13.784-10.83-11.642-19.403 17.424-69.693 101.839-154.19 171.642-171.642 8.575-2.143 17.261 3.069 19.403 11.642s-3.069 17.259-11.641 19.402z"/></svg>