<svg viewBox="0 0 384 512" xmlns="http://www.w3.org/2000/svg"><path d="m371.994 256h-48.019c-6.335 0-11.975 4.912-11.975 11.246 0 100.754-81.821 148.754-168 148.754v-159.219l134.603-29.912a12 12 0 0 0 9.397-11.714v-40.976c0-7.677-7.109-13.38-14.603-11.714l-129.397 28.754v-30.439l134.603-29.912a12 12 0 0 0 9.397-11.714v-40.975c0-7.677-7.109-13.38-14.603-11.714l-129.397 28.754v-51.219c0-6.627-5.373-12-12-12h-56c-6.627 0-12 5.373-12 12v68.997l-54.603 12.134a12 12 0 0 0 -9.397 11.714v40.976c0 7.677 7.109 13.38 14.603 11.714l49.397-10.977v30.439l-54.603 12.134a12 12 0 0 0 -9.397 11.714v40.976c0 7.677 7.109 13.38 14.603 11.714l49.397-10.977v193.442c0 6.627 5.373 12 12 12h79.583c134.091 0 223.255-77.834 228.408-211.592.261-6.782-5.211-12.408-11.997-12.408z"/></svg>