<svg viewBox="0 0 576 512" xmlns="http://www.w3.org/2000/svg"><path d="m569.344 231.631c-56.384-95.682-161.534-159.631-281.344-159.631-28.468 0-56.102 3.619-82.451 10.409l-52.771-72.169c-7.601-10.858-22.564-13.5-33.423-5.9l-13.114 9.178c-10.86 7.601-13.502 22.566-5.9 33.426l43.131 58.395c-54.023 26.391-103.244 69.344-136.79 126.242-.01.017-.023.033-.034.05-8.765 14.875-8.964 33.528 0 48.739 38.5 65.332 99.742 115.862 172.859 141.349l-124.191-177.417a272.194 272.194 0 0 1 28.294-35.912l119.4 170.58h.01l40.63 58.04a330.055 330.055 0 0 0 78.94 1.17l-189.98-271.4a277.628 277.628 0 0 1 38.777-21.563l251.836 356.544c7.601 10.858 22.564 13.499 33.423 5.9l13.114-9.178c10.86-7.601 13.502-22.567 5.9-33.426l-43.12-58.377-.007-.009c57.161-27.978 104.835-72.04 136.81-126.301a47.938 47.938 0 0 0 .001-48.739zm-179.318 114.309-19.066-27.23c24.682-32.567 27.711-76.353 8.8-111.68v.03c0 23.65-19.17 42.82-42.82 42.82-23.828 0-42.82-19.349-42.82-42.82 0-23.65 19.17-42.82 42.82-42.82h.03c-24.75-13.249-53.522-15.643-79.51-7.68l-19.068-27.237c15.366-6.017 32.096-9.323 49.608-9.323 75.162 0 136 60.826 136 136 0 34.504-12.833 65.975-33.974 89.94z"/></svg>