<svg viewBox="0 0 640 512" xmlns="http://www.w3.org/2000/svg"><path d="m224 320h32v-224h-32c-17.67 0-32 14.33-32 32v160c0 17.67 14.33 32 32 32zm352-32v-160c0-17.67-14.33-32-32-32h-32v224h32c17.67 0 32-14.33 32-32zm48 96h-496v-368c0-8.84-7.16-16-16-16h-96c-8.84 0-16 7.16-16 16v32c0 8.84 7.16 16 16 16h48v368c0 8.84 7.16 16 16 16h82.94c-1.79 5.03-2.94 10.36-2.94 16 0 26.51 21.49 48 48 48s48-21.49 48-48c0-5.64-1.15-10.97-2.94-16h197.88c-1.79 5.03-2.94 10.36-2.94 16 0 26.51 21.49 48 48 48s48-21.49 48-48c0-5.64-1.15-10.97-2.94-16h82.94c8.84 0 16-7.16 16-16v-32c0-8.84-7.16-16-16-16zm-144-288v-48c0-26.51-21.49-48-48-48h-96c-26.51 0-48 21.49-48 48v272h192zm-48 0h-96v-48h96z"/></svg>