<svg viewBox="0 0 640 512" xmlns="http://www.w3.org/2000/svg"><path d="m636.11 390.15c-21.67-81.3-56.04-159.15-102.01-231.02-22.12-34.57-36.07-63.13-80.05-63.13-38.69 0-70.05 29.42-70.05 65.71v60.11l-32.88-21.92a15.996 15.996 0 0 1 -7.12-13.31v-170.59c0-8.84-7.16-16-16-16h-16c-8.84 0-16 7.16-16 16v170.59c0 5.35-2.67 10.34-7.12 13.31l-32.88 21.92v-60.11c0-36.29-31.36-65.71-70.05-65.71-43.98 0-57.93 28.56-80.05 63.13-45.97 71.87-80.34 149.72-102.01 231.02-2.59 9.69-3.89 19.64-3.89 29.63 0 61.23 62.48 105.44 125.24 88.62l59.5-15.95c42.18-11.3 71.26-47.47 71.26-88.62v-87.49l-85.84 57.23a7.992 7.992 0 0 1 -11.09-2.22l-8.88-13.31a7.992 7.992 0 0 1 2.22-11.09l167.59-111.72 167.59 111.72a7.994 7.994 0 0 1 2.22 11.09l-8.88 13.31a7.994 7.994 0 0 1 -11.09 2.22l-85.84-57.23v87.49c0 41.15 29.08 77.31 71.26 88.62l59.5 15.95c62.76 16.82 125.24-27.39 125.24-88.62 0-9.99-1.3-19.94-3.89-29.63z"/></svg>