<svg viewBox="0 0 576 512" xmlns="http://www.w3.org/2000/svg"><path d="m160 448c-25.6 0-51.2-22.4-64-32-64-44.8-83.2-60.8-96-70.4v134.4c0 17.67 14.33 32 32 32h256c17.67 0 32-14.33 32-32v-134.4c-12.8 9.6-32 25.6-96 70.4-12.8 9.6-38.4 32-64 32zm128-192h-256c-17.67 0-32 14.33-32 32v16c25.6 19.2 22.4 19.2 115.2 86.4 9.6 6.4 28.8 25.6 44.8 25.6s35.2-19.2 44.8-22.4c92.8-67.2 89.6-67.2 115.2-86.4v-19.2c0-17.67-14.33-32-32-32zm256-96h-320c-17.67 0-32 14.33-32 32v32h96c33.21 0 60.59 25.42 63.71 57.82l.29-.22v134.4h192c17.67 0 32-14.33 32-32v-192c0-17.67-14.33-32-32-32zm-32 128h-64v-64h64zm-352-96c0-35.29 28.71-64 64-64h224v-96c0-17.67-14.33-32-32-32h-320c-17.67 0-32 14.33-32 32v192h96z"/></svg>