<svg viewBox="0 0 512 512" xmlns="http://www.w3.org/2000/svg"><path d="m507.31 84.69-43.31-43.32c-6-6-14.14-9.37-22.63-9.37h-153.37v-16c0-8.84-7.16-16-16-16h-32c-8.84 0-16 7.16-16 16v16h-168c-13.25 0-24 10.75-24 24v80c0 13.25 10.75 24 24 24h385.37c8.49 0 16.62-3.37 22.63-9.37l43.31-43.31c6.25-6.26 6.25-16.38 0-22.63zm-283.31 411.31c0 8.84 7.16 16 16 16h32c8.84 0 16-7.16 16-16v-112h-64zm232-272h-168v-32h-64v32h-153.37c-8.49 0-16.62 3.37-22.63 9.37l-43.31 43.32c-6.25 6.25-6.25 16.38 0 22.63l43.31 43.31c6 6 14.14 9.37 22.63 9.37h385.37c13.25 0 24-10.75 24-24v-80c0-13.25-10.75-24-24-24z"/></svg>