<svg viewBox="0 0 512 512" xmlns="http://www.w3.org/2000/svg"><path d="m223.75 130.75-69.13-115.21a31.997 31.997 0 0 0 -27.44-15.54h-111.15c-12.95 0-20.53 14.57-13.11 25.18l111.27 158.96c29.72-27.77 67.52-46.83 109.56-53.39zm272.22-130.75h-111.15c-11.24 0-21.66 5.9-27.44 15.54l-69.13 115.21c42.04 6.56 79.84 25.62 109.56 53.38l111.27-158.95c7.42-10.61-.16-25.18-13.11-25.18zm-239.97 160c-97.2 0-176 78.8-176 176s78.8 176 176 176 176-78.8 176-176-78.8-176-176-176zm92.52 157.26-37.93 36.96 8.97 52.22c1.6 9.36-8.26 16.51-16.65 12.09l-46.91-24.65-46.9 24.65c-8.4 4.45-18.25-2.74-16.65-12.09l8.97-52.22-37.93-36.96c-6.82-6.64-3.05-18.23 6.35-19.59l52.43-7.64 23.43-47.52c2.11-4.28 6.19-6.39 10.28-6.39 4.11 0 8.22 2.14 10.33 6.39l23.43 47.52 52.43 7.64c9.4 1.36 13.17 12.95 6.35 19.59z"/></svg>