<svg viewBox="0 0 640 512" xmlns="http://www.w3.org/2000/svg"><path d="m640 130.94v-34.94c0-17.67-14.33-32-32-32h-576c-17.67 0-32 14.33-32 32v34.94c18.6 6.61 32 24.19 32 45.06s-13.4 38.45-32 45.06v98.94h640v-98.94c-18.6-6.61-32-24.19-32-45.06s13.4-38.45 32-45.06zm-416 125.06h-64v-128h64zm128 0h-64v-128h64zm128 0h-64v-128h64zm-480 192h64v-26.67c0-8.84 7.16-16 16-16s16 7.16 16 16v26.67h128v-26.67c0-8.84 7.16-16 16-16s16 7.16 16 16v26.67h128v-26.67c0-8.84 7.16-16 16-16s16 7.16 16 16v26.67h128v-26.67c0-8.84 7.16-16 16-16s16 7.16 16 16v26.67h64v-96h-640z"/></svg>