<svg viewBox="0 0 640 512" xmlns="http://www.w3.org/2000/svg"><path d="m144 128h-32c-8.84 0-16 7.16-16 16v144h64v-144c0-8.84-7.16-16-16-16zm96 0h-32c-8.84 0-16 7.16-16 16v144h64v-144c0-8.84-7.16-16-16-16zm192 0h-32c-8.84 0-16 7.16-16 16v144h64v-144c0-8.84-7.16-16-16-16zm96 0h-32c-8.84 0-16 7.16-16 16v144h64v-144c0-8.84-7.16-16-16-16zm80-32c17.67 0 32-14.33 32-32s-32-64-32-64-32 46.33-32 64 14.33 32 32 32zm-96 0c17.67 0 32-14.33 32-32s-32-64-32-64-32 46.33-32 64 14.33 32 32 32zm-96 0c17.67 0 32-14.33 32-32s-32-64-32-64-32 46.33-32 64 14.33 32 32 32zm-96 0c17.67 0 32-14.33 32-32s-32-64-32-64-32 46.33-32 64 14.33 32 32 32zm-96 0c17.67 0 32-14.33 32-32s-32-64-32-64-32 46.33-32 64 14.33 32 32 32zm-96 0c17.67 0 32-14.33 32-32s-32-64-32-64-32 46.33-32 64 14.33 32 32 32zm-96 0c17.67 0 32-14.33 32-32s-32-64-32-64-32 46.33-32 64 14.33 32 32 32zm544 192c0 17.67-14.33 32-32 32h-192v-176c0-8.84-7.16-16-16-16h-32c-8.84 0-16 7.16-16 16v176h-192c-17.67 0-32-14.33-32-32v-144c0-8.84-7.16-16-16-16h-32c-8.84 0-16 7.16-16 16v144c0 53.02 42.98 96 96 96h192v64h-176c-8.84 0-16 7.16-16 16v32c0 8.84 7.16 16 16 16h416c8.84 0 16-7.16 16-16v-32c0-8.84-7.16-16-16-16h-176v-64h192c53.02 0 96-42.98 96-96v-144c0-8.84-7.16-16-16-16h-32c-8.84 0-16 7.16-16 16z"/></svg>