<svg viewBox="0 0 288 512" xmlns="http://www.w3.org/2000/svg"><path d="m288 208c0-44.2-19.9-83.7-51.2-110.1 2.5-1.8 4.9-3.8 7.2-5.8 24.7-21.2 39.8-48.8 43.2-78.8.9-7.1-4.7-13.3-11.9-13.3h-40.5c-5.8 0-10.7 4.1-11.8 9.8-2.4 12.5-9.6 24.3-20.7 33.8-15.3 13.2-36 20.4-58.3 20.4s-43-7.2-58.4-20.4c-11.1-9.5-18.2-21.3-20.7-33.8-1.1-5.7-6-9.8-11.7-9.8h-40.5c-7.2 0-12.8 6.2-11.9 13.3 3.4 30.1 18.4 57.7 43.2 78.9 2.3 2 4.7 3.9 7.2 5.8-31.3 26.3-51.2 65.8-51.2 110 0 68.5 47.9 125.9 112 140.4v51.6h-36c-6.6 0-12 5.4-12 12v40c0 6.6 5.4 12 12 12h36v36c0 6.6 5.4 12 12 12h40c6.6 0 12-5.4 12-12v-36h36c6.6 0 12-5.4 12-12v-40c0-6.6-5.4-12-12-12h-36v-51.6c64.1-14.5 112-71.9 112-140.4zm-224 0c0-44.1 35.9-80 80-80s80 35.9 80 80-35.9 80-80 80-80-35.9-80-80z"/></svg>