<svg viewBox="0 0 352 512" xmlns="http://www.w3.org/2000/svg"><path d="m336 192h-16c-8.84 0-16 7.16-16 16v48c0 74.8-64.49 134.82-140.79 127.38-66.5-6.49-115.21-66.27-115.21-133.08v-42.3c0-8.84-7.16-16-16-16h-16c-8.84 0-16 7.16-16 16v40.16c0 89.64 63.97 169.55 152 181.69v34.15h-56c-8.84 0-16 7.16-16 16v16c0 8.84 7.16 16 16 16h160c8.84 0 16-7.16 16-16v-16c0-8.84-7.16-16-16-16h-56v-33.77c85.71-11.76 152-85.33 152-174.23v-48c0-8.84-7.16-16-16-16zm-160 160c53.02 0 96-42.98 96-96h-85.33c-5.89 0-10.67-3.58-10.67-8v-16c0-4.42 4.78-8 10.67-8h85.33v-32h-85.33c-5.89 0-10.67-3.58-10.67-8v-16c0-4.42 4.78-8 10.67-8h85.33v-32h-85.33c-5.89 0-10.67-3.58-10.67-8v-16c0-4.42 4.78-8 10.67-8h85.33c0-53.02-42.98-96-96-96s-96 42.98-96 96v160c0 53.02 42.98 96 96 96z"/></svg>