<svg viewBox="0 0 640 512" xmlns="http://www.w3.org/2000/svg"><path d="m633.82 458.1-157.56-121.77c12.48-24.12 19.74-51.35 19.74-80.33v-48c0-8.84-7.16-16-16-16h-16c-8.84 0-16 7.16-16 16v48c0 17.92-3.96 34.8-10.72 50.2l-26.55-20.52c3.1-9.4 5.28-19.22 5.28-29.67h-43.67l-41.4-32h85.06v-32h-85.33c-5.89 0-10.67-3.58-10.67-8v-16c0-4.42 4.78-8 10.67-8h85.33v-32h-85.33c-5.89 0-10.67-3.58-10.67-8v-16c0-4.42 4.78-8 10.67-8h85.33c0-53.02-42.98-96-96-96s-96 42.98-96 96v45.36l-178.53-138c-6.98-5.42-17.04-4.17-22.46 2.81l-19.64 25.27c-5.42 6.97-4.17 17.02 2.81 22.45l588.36 454.73c6.98 5.43 17.03 4.17 22.46-2.81l19.64-25.27c5.41-6.97 4.16-17.02-2.82-22.45zm-233.82 5.9h-56v-33.78c11.71-1.62 23.1-4.28 33.96-8.08l-50.4-38.96c-6.71.4-13.41.87-20.35.2-55.85-5.45-98.74-48.63-111.18-101.85l-52.03-40.22v6.85c0 89.64 63.97 169.55 152 181.69v34.15h-56c-8.84 0-16 7.16-16 16v16c0 8.84 7.16 16 16 16h160c8.84 0 16-7.16 16-16v-16c0-8.84-7.16-16-16-16z"/></svg>