<svg viewBox="0 0 512 512" xmlns="http://www.w3.org/2000/svg"><path d="m416 48v416c0 26.51-21.49 48-48 48h-224c-26.51 0-48-21.49-48-48v-416c0-26.51 21.49-48 48-48h224c26.51 0 48 21.49 48 48zm96 58v12a6 6 0 0 1 -6 6h-18v6a6 6 0 0 1 -6 6h-42v-48h42a6 6 0 0 1 6 6v6h18a6 6 0 0 1 6 6zm0 96v12a6 6 0 0 1 -6 6h-18v6a6 6 0 0 1 -6 6h-42v-48h42a6 6 0 0 1 6 6v6h18a6 6 0 0 1 6 6zm0 96v12a6 6 0 0 1 -6 6h-18v6a6 6 0 0 1 -6 6h-42v-48h42a6 6 0 0 1 6 6v6h18a6 6 0 0 1 6 6zm0 96v12a6 6 0 0 1 -6 6h-18v6a6 6 0 0 1 -6 6h-42v-48h42a6 6 0 0 1 6 6v6h18a6 6 0 0 1 6 6zm-482-18h42v48h-42a6 6 0 0 1 -6-6v-6h-18a6 6 0 0 1 -6-6v-12a6 6 0 0 1 6-6h18v-6a6 6 0 0 1 6-6zm0-96h42v48h-42a6 6 0 0 1 -6-6v-6h-18a6 6 0 0 1 -6-6v-12a6 6 0 0 1 6-6h18v-6a6 6 0 0 1 6-6zm0-96h42v48h-42a6 6 0 0 1 -6-6v-6h-18a6 6 0 0 1 -6-6v-12a6 6 0 0 1 6-6h18v-6a6 6 0 0 1 6-6zm0-96h42v48h-42a6 6 0 0 1 -6-6v-6h-18a6 6 0 0 1 -6-6v-12a6 6 0 0 1 6-6h18v-6a6 6 0 0 1 6-6z"/></svg>