<svg viewBox="0 0 512 512" xmlns="http://www.w3.org/2000/svg"><path d="m501.54 60.91c17.22-17.22 12.51-46.25-9.27-57.14a35.696 35.696 0 0 0 -37.37 3.37l-203.81 152.86h151.37zm-5.54 131.09h-480c-8.84 0-16 7.16-16 16v32c0 8.84 7.16 16 16 16h16c0 80.98 50.2 150.11 121.13 178.32-12.76 16.87-21.72 36.8-24.95 58.69-1.46 9.92 6.04 18.98 16.07 18.98h223.5c10.03 0 17.53-9.06 16.07-18.98-3.22-21.89-12.18-41.82-24.95-58.69 70.93-28.21 121.13-97.34 121.13-178.32h16c8.84 0 16-7.16 16-16v-32c0-8.84-7.16-16-16-16z"/></svg>