<svg viewBox="0 0 640 512" xmlns="http://www.w3.org/2000/svg"><path d="m0 480c0 17.67 14.33 32 32 32h64c17.67 0 32-14.33 32-32v-320h-128zm579.16-192c17.86-17.39 28.84-37.34 28.84-58.91 0-52.86-41.79-93.79-87.92-122.9-41.94-26.47-80.63-57.77-111.96-96.22l-8.12-9.97-8.12 9.97c-31.33 38.45-70.01 69.76-111.96 96.22-46.13 29.11-87.92 70.04-87.92 122.9 0 21.57 10.98 41.52 28.84 58.91zm28.84 32h-416c-17.67 0-32 14.33-32 32v128c0 17.67 14.33 32 32 32h32v-64c0-17.67 14.33-32 32-32s32 14.33 32 32v64h64v-72c0-48 48-72 48-72s48 24 48 72v72h64v-64c0-17.67 14.33-32 32-32s32 14.33 32 32v64h32c17.67 0 32-14.33 32-32v-128c0-17.67-14.33-32-32-32zm-544-320s-64 32-64 96v32h128v-32c0-64-64-96-64-96z"/></svg>