<svg viewBox="0 0 640 512" xmlns="http://www.w3.org/2000/svg"><path d="m640 264v-16c0-8.84-7.16-16-16-16h-280v-40h72c17.67 0 32-14.33 32-32v-128c0-17.67-14.33-32-32-32h-192c-17.67 0-32 14.33-32 32v128c0 17.67 14.33 32 32 32h72v40h-280c-8.84 0-16 7.16-16 16v16c0 8.84 7.16 16 16 16h104v40h-56c-17.67 0-32 14.33-32 32v128c0 17.67 14.33 32 32 32h160c17.67 0 32-14.33 32-32v-128c0-17.67-14.33-32-32-32h-56v-40h304v40h-56c-17.67 0-32 14.33-32 32v128c0 17.67 14.33 32 32 32h160c17.67 0 32-14.33 32-32v-128c0-17.67-14.33-32-32-32h-56v-40h104c8.84 0 16-7.16 16-16zm-384-136v-64h128v64zm-64 320h-96v-64h96zm352 0h-96v-64h96z"/></svg>