<svg viewBox="0 0 448 512" xmlns="http://www.w3.org/2000/svg"><path d="m416 208c17.67 0 32-14.33 32-32v-32c0-17.67-14.33-32-32-32h-23.88l51.87-66.81c5.37-7.02 4.04-17.06-2.97-22.43l-25.41-19.46c-7.02-5.38-17.06-4.04-22.44 2.97l-82.08 105.73h-279.09c-17.67 0-32 14.33-32 32v32c0 17.67 14.33 32 32 32h204.56l-74.53 96h-130.03c-17.67 0-32 14.33-32 32v32c0 17.67 14.33 32 32 32h55.49l-51.87 66.81c-5.37 7.01-4.04 17.05 2.97 22.43l25.41 19.46c7.02 5.38 17.06 4.04 22.43-2.97l82.09-105.73h247.48c17.67 0 32-14.33 32-32v-32c0-17.67-14.33-32-32-32h-172.95l74.53-96z"/></svg>