<svg viewBox="0 0 512 512" xmlns="http://www.w3.org/2000/svg"><path d="m480 128v-32h20c6.627 0 12-5.373 12-12v-40c0-6.627-5.373-12-12-12h-40c-6.627 0-12 5.373-12 12v20h-384v-20c0-6.627-5.373-12-12-12h-40c-6.627 0-12 5.373-12 12v40c0 6.627 5.373 12 12 12h20v320h-20c-6.627 0-12 5.373-12 12v40c0 6.627 5.373 12 12 12h40c6.627 0 12-5.373 12-12v-20h384v20c0 6.627 5.373 12 12 12h40c6.627 0 12-5.373 12-12v-40c0-6.627-5.373-12-12-12h-20zm-384 148v-136c0-6.627 5.373-12 12-12h168c6.627 0 12 5.373 12 12v136c0 6.627-5.373 12-12 12h-168c-6.627 0-12-5.373-12-12zm320 96c0 6.627-5.373 12-12 12h-168c-6.627 0-12-5.373-12-12v-52h72c13.255 0 24-10.745 24-24v-72h84c6.627 0 12 5.373 12 12z"/></svg>