<svg viewBox="0 0 576 512" xmlns="http://www.w3.org/2000/svg"><path d="m64 320v26a6 6 0 0 1 -6 6h-52a6 6 0 0 1 -6-6v-52a6 6 0 0 1 6-6h26v-192h-26a6 6 0 0 1 -6-6v-52a6 6 0 0 1 6-6h52a6 6 0 0 1 6 6v26h288v-26a6 6 0 0 1 6-6h52a6 6 0 0 1 6 6v52a6 6 0 0 1 -6 6h-26v192h26a6 6 0 0 1 6 6v52a6 6 0 0 1 -6 6h-52a6 6 0 0 1 -6-6v-26zm480-64v-32h26a6 6 0 0 0 6-6v-52a6 6 0 0 0 -6-6h-52a6 6 0 0 0 -6 6v26h-104v72h8c13.255 0 24 10.745 24 24v64c0 13.255-10.745 24-24 24h-64c-13.255 0-24-10.745-24-24v-8h-136v72h-26a6 6 0 0 0 -6 6v52a6 6 0 0 0 6 6h52a6 6 0 0 0 6-6v-26h288v26a6 6 0 0 0 6 6h52a6 6 0 0 0 6-6v-52a6 6 0 0 0 -6-6h-26z"/></svg>