<svg viewBox="0 0 640 512" xmlns="http://www.w3.org/2000/svg"><path d="m629.8 160.31-213.8 63.69-50.49-25.24a64.07 64.07 0 0 0 -28.62-6.76h-56.89v-48h56c8.84 0 16-7.16 16-16v-16c0-8.84-7.16-16-16-16h-160c-8.84 0-16 7.16-16 16v16c0 8.84 7.16 16 16 16h56v48h-56l-138.28-25.14a31.9 31.9 0 0 0 -5.79-.53c-17.26 0-31.93 14.03-31.93 32.01v94.95c0 15.46 11.06 28.72 26.28 31.48l69.72 12.69v46.54c0 17.67 14.33 32 32 32h274.63c8.55 0 16.75-3.42 22.76-9.51l212.26-214.75c1.5-1.5 2.34-3.54 2.34-5.66v-18.08c.01-5.31-5.08-9.15-10.19-7.69zm-533.8 128.36-48-8.73v-62.43l48 8.73zm453.33 84.66c0 23.56 19.1 42.67 42.67 42.67s42.67-19.1 42.67-42.67-42.67-85.33-42.67-85.33-42.67 61.77-42.67 85.33z"/></svg>