<svg viewBox="0 0 640 512" xmlns="http://www.w3.org/2000/svg"><path d="m608 32h-32l-13.25-13.25a63.97 63.97 0 0 0 -45.26-18.75h-20.49c-11.14 0-22.08 2.91-31.75 8.43l-153.25 87.57h-56c-106.04 0-192 85.96-192 192v1.61c0 32.75-16 62.14-39.56 84.89-18.19 17.58-28.1 43.68-23.19 71.8 6.76 38.8 42.9 65.7 82.28 65.7h108.47c17.67 0 32-14.33 32-32s-14.33-32-32-32h-112c-8.83 0-16-7.17-16-16s7.17-16 16-16h224c8.84 0 16-7.16 16-16v-16c0-17.67-14.33-32-32-32h-64l149.49-80.5 74.51 144.5h80c8.84 0 16-7.16 16-16v-16c0-17.67-14.33-32-32-32h-28.22l-55.11-110.21 92.47-49.79h22.86c53.02 0 96-42.98 96-96v-32c0-17.67-14.33-32-32-32zm-96 16c8.84 0 16 7.16 16 16s-7.16 16-16 16-16-7.16-16-16 7.16-16 16-16zm32 96h-34.96l-101.84 54.84-13.77-27.55 118.57-59.29h77.05c-6.62 18.58-24.22 32-45.05 32z"/></svg>