<svg viewBox="0 0 448 512" xmlns="http://www.w3.org/2000/svg"><path d="m100.69 363.29c10 10 27.31 2.93 27.31-11.31v-191.98c0-14.32-17.33-21.31-27.31-11.31l-96 96a16 16 0 0 0 0 22.62zm331.31 52.71h-416a16 16 0 0 0 -16 16v32a16 16 0 0 0 16 16h416a16 16 0 0 0 16-16v-32a16 16 0 0 0 -16-16zm3.17-128h-230.34a12.82 12.82 0 0 0 -12.83 12.83v38.34a12.82 12.82 0 0 0 12.83 12.83h230.34a12.82 12.82 0 0 0 12.83-12.83v-38.34a12.82 12.82 0 0 0 -12.83-12.83zm0-128h-230.34a12.82 12.82 0 0 0 -12.83 12.83v38.34a12.82 12.82 0 0 0 12.83 12.83h230.34a12.82 12.82 0 0 0 12.83-12.83v-38.34a12.82 12.82 0 0 0 -12.83-12.83zm-3.17-128h-416a16 16 0 0 0 -16 16v32a16 16 0 0 0 16 16h416a16 16 0 0 0 16-16v-32a16 16 0 0 0 -16-16z"/></svg>