<svg viewBox="0 0 512 512" xmlns="http://www.w3.org/2000/svg"><path d="m511.9 175c-9.1-75.6-78.4-132.4-158.3-158.7 36.4 39.4 62.4 100.6 62.4 175.7h28.1l-116.6 129.5c-2.5-.6-4.8-1.5-7.5-1.5h-48v-128h112c0-115.2-68.9-192-128-192s-128 76.8-128 192h112v128h-48c-2.7 0-5 .9-7.5 1.5l-116.6-129.5h28.1c0-75.1 26-136.3 62.4-175.7-79.9 26.4-149.2 83.2-158.3 158.7-1.1 9.1 6.8 17 16 17h8.7l136.7 151.9c-.7 2.6-1.6 5.2-1.6 8.1v128c0 17.7 14.3 32 32 32h128c17.7 0 32-14.3 32-32v-128c0-2.9-.9-5.4-1.6-8.1l136.8-151.9h8.7c9.3 0 17.2-7.8 16.1-17z"/></svg>