<svg viewBox="0 0 448 512" xmlns="http://www.w3.org/2000/svg"><path d="m128 184c0-30.879 25.122-56 56-56h136v-72c0-13.255-10.745-24-24-24h-80.61c-11.084-19.11-31.753-32-55.39-32s-44.306 12.89-55.39 32h-80.61c-13.255 0-24 10.745-24 24v336c0 13.255 10.745 24 24 24h104zm32-144c13.255 0 24 10.745 24 24s-10.745 24-24 24-24-10.745-24-24 10.745-24 24-24zm184 248h104v200c0 13.255-10.745 24-24 24h-240c-13.255 0-24-10.745-24-24v-304c0-13.255 10.745-24 24-24h136v104c0 13.2 10.8 24 24 24zm104-38.059v6.059h-96v-96h6.059a24 24 0 0 1 16.97 7.029l65.941 65.941a24.002 24.002 0 0 1 7.03 16.971z"/></svg>