<svg viewBox="0 0 576 512" xmlns="http://www.w3.org/2000/svg"><path d="m96 128a64 64 0 1 0 -64-64 64 64 0 0 0 64 64zm0 176.08a44.11 44.11 0 0 1 13.64-32l72.13-68.08c1.65-1.55 3.77-2.31 5.61-3.57a63.91 63.91 0 0 0 -59.38-40.43h-64a64 64 0 0 0 -64 64v96a32 32 0 0 0 32 32v128a32 32 0 0 0 32 32h64a32 32 0 0 0 32-32v-96.39l-50.36-47.53a44.08 44.08 0 0 1 -13.64-32zm384-176.08a64 64 0 1 0 -64-64 64 64 0 0 0 64 64zm32 32h-64a63.91 63.91 0 0 0 -59.38 40.42c1.84 1.27 4 2 5.62 3.59l72.12 68.06a44.37 44.37 0 0 1 0 64l-50.36 47.55v96.38a32 32 0 0 0 32 32h64a32 32 0 0 0 32-32v-128a32 32 0 0 0 32-32v-96a64 64 0 0 0 -64-64zm-67.6 135.34-72.12-68.06a12 12 0 0 0 -20.28 8.72v36h-128v-36a12 12 0 0 0 -20.28-8.73l-72.12 68.07a12.4 12.4 0 0 0 0 17.47l72.12 68.07a12 12 0 0 0 20.28-8.74v-36.14h128v36.14a12 12 0 0 0 20.28 8.74l72.12-68.07a12.4 12.4 0 0 0 0-17.47z"/></svg>