<svg viewBox="0 0 512 512" xmlns="http://www.w3.org/2000/svg"><path d="m330.67 263.12v-89.72l-52.75-24.22c-58.48 69.58-80.34 250.82-221.92 250.82a56 56 0 0 0 0 112c212.64 0 370.65-122.87 419.18-210.34l-37.05-38.54zm131.09-128.37c32.16-59.84 15.42-108.27-3.14-131.75a8 8 0 0 0 -11.93-.59l-22.9 23a8.06 8.06 0 0 0 -.89 10.23c6.86 10.36 17.05 35.1-1.4 72.32a142.85 142.85 0 0 0 -57.16-11.96c-28 0-54 8.54-76.34 22.59l74.67 34.29v78.24h89.09l54.68 56.88c3.26-12.62 5.56-25.63 5.56-39.31a154 154 0 0 0 -50.24-113.94z"/></svg>