<svg viewBox="0 0 448 512" xmlns="http://www.w3.org/2000/svg"><path d="m112 224c61.9 0 112-50.1 112-112s-50.1-112-112-112-112 50.1-112 112 50.1 112 112 112zm0-160c26.5 0 48 21.5 48 48s-21.5 48-48 48-48-21.5-48-48 21.5-48 48-48zm224 224c-61.9 0-112 50.1-112 112s50.1 112 112 112 112-50.1 112-112-50.1-112-112-112zm0 160c-26.5 0-48-21.5-48-48s21.5-48 48-48 48 21.5 48 48-21.5 48-48 48zm56.3-447.8 31.6-.1c19.4-.1 30.9 21.8 19.7 37.8l-366.2 463.7a23.95 23.95 0 0 1 -19.6 10.2l-33.4.1c-19.5 0-30.9-21.9-19.7-37.8l368-463.7c4.5-6.4 11.8-10.2 19.6-10.2z"/></svg>