<svg viewBox="0 0 576 512" xmlns="http://www.w3.org/2000/svg"><path d="m192 496c0 8.8 7.2 16 16 16h32c8.8 0 16-7.2 16-16v-176h-64zm32-272h-50.9l-45.2-45.3c-12.1-12.1-28.2-18.7-45.2-18.7h-18.7c-17.1 0-33.2 6.7-45.3 18.8-12 12.1-18.7 28.2-18.7 45.3l.2 95.9-.2 160c0 17.7 14.3 32 31.9 32s32-14.3 32-32l.1-100.7c.9.5 1.6 1.3 2.5 1.7l29.1 43v56c0 17.7 14.3 32 32 32s32-14.3 32-32v-56.5c0-9.9-2.3-19.8-6.7-28.6l-41.2-61.3v-80.6l20.9 20.9c9.1 9.1 21.1 14.1 33.9 14.1h57.5c17.7 0 32-14.3 32-32s-14.3-32-32-32zm-160-96c26.5 0 48-21.5 48-48s-21.5-48-48-48-48 21.5-48 48 21.5 48 48 48zm224-96 31.5 223.1-30.9 154.6c-4.3 21.6 13 38.3 31.4 38.3 15.2 0 28-9.1 32.3-30.4.9 16.9 14.6 30.4 31.7 30.4 17.7 0 32-14.3 32-32 0 17.7 14.3 32 32 32s32-14.3 32-32v-416h-192zm-96 0v160h64v-192h-32c-17.7 0-32 14.3-32 32zm352-32h-32v496c0 8.8 7.2 16 16 16h32c8.8 0 16-7.2 16-16v-464c0-17.7-14.3-32-32-32z"/></svg>