<svg viewBox="0 0 640 512" xmlns="http://www.w3.org/2000/svg"><path d="m608 0h-448a32 32 0 0 0 -32 32v96h160v-64h192v320h128a32 32 0 0 0 32-32v-320a32 32 0 0 0 -32-32zm-376 103a9 9 0 0 1 -9 9h-30a9 9 0 0 1 -9-9v-30a9 9 0 0 1 9-9h30a9 9 0 0 1 9 9zm352 208a9 9 0 0 1 -9 9h-30a9 9 0 0 1 -9-9v-30a9 9 0 0 1 9-9h30a9 9 0 0 1 9 9zm0-104a9 9 0 0 1 -9 9h-30a9 9 0 0 1 -9-9v-30a9 9 0 0 1 9-9h30a9 9 0 0 1 9 9zm0-104a9 9 0 0 1 -9 9h-30a9 9 0 0 1 -9-9v-30a9 9 0 0 1 9-9h30a9 9 0 0 1 9 9zm-168 57h-384a32 32 0 0 0 -32 32v288a32 32 0 0 0 32 32h384a32 32 0 0 0 32-32v-288a32 32 0 0 0 -32-32zm-320 64a32 32 0 1 1 -32 32 32 32 0 0 1 32-32zm288 224h-320v-32l64-64 32 32 128-128 96 96z"/></svg>