<svg viewBox="0 0 640 512" xmlns="http://www.w3.org/2000/svg"><path d="m620.61 366.55-108.61-46.55v192h112c8.84 0 16-7.16 16-16v-100.04a32 32 0 0 0 -19.39-29.41zm-620.61 29.41v100.04c0 8.84 7.16 16 16 16h112v-192l-108.61 46.55a32 32 0 0 0 -19.39 29.41zm464.46-149.28-48.46-29.08v-114.97c0-8.49-3.37-16.62-9.38-22.63l-75.31-75.31c-6.25-6.25-16.38-6.25-22.62 0l-75.31 75.31c-6 6-9.38 14.14-9.38 22.63v114.97l-48.46 29.08a31.997 31.997 0 0 0 -15.54 27.44v237.88h96v-96c0-35.35 28.66-64 64-64s64 28.65 64 64v96h96v-237.88c0-11.24-5.9-21.66-15.54-27.44z"/></svg>