<svg viewBox="0 0 640 512" xmlns="http://www.w3.org/2000/svg"><path d="m32.48 147.88 31.52 108.12-31.52 108.13a16 16 0 0 0 15.52 19.87h40a16 16 0 0 0 12.8-6.41l43.2-57.59h102.85l-49 171.59a16 16 0 0 0 15.35 20.41h65.5a16 16 0 0 0 13.89-8.06l66.6-116.54-324.84-251.06a15.47 15.47 0 0 0 -1.87 11.54zm601.34 310.21-178.68-138.09h56.86c35.34 0 96-28.66 96-64s-60.66-64-96-64h-114.3l-105.09-183.94c-2.55-4.45-8.77-8.06-13.9-8.06h-65.51a16 16 0 0 0 -15.38 20.39l36.94 129.29-189.3-146.3a16 16 0 0 0 -22.46 2.81l-19.63 25.26a16 16 0 0 0 2.81 22.46l588.36 454.72a16 16 0 0 0 22.46-2.82l19.64-25.26a16 16 0 0 0 -2.82-22.46z"/></svg>