<svg viewBox="0 0 576 512" xmlns="http://www.w3.org/2000/svg"><path d="m480 192h-114.29l-105.1-183.94a16.014 16.014 0 0 0 -13.9-8.06h-65.5c-10.63 0-18.3 10.17-15.38 20.39l49.03 171.61h-102.86l-43.2-57.6c-3.02-4.03-7.77-6.4-12.8-6.4h-39.99c-10.41 0-18.05 9.78-15.52 19.88l31.51 108.12-31.51 108.12c-2.53 10.1 5.11 19.88 15.52 19.88h39.99c5.04 0 9.78-2.37 12.8-6.4l43.2-57.6h102.86l-49.03 171.6c-2.92 10.22 4.75 20.4 15.38 20.4h65.5c5.74 0 11.04-3.08 13.89-8.06l105.11-183.94h114.29c35.35 0 96-28.65 96-64s-60.65-64-96-64z"/></svg>