<svg viewBox="0 0 448 512" xmlns="http://www.w3.org/2000/svg"><path d="m267.429 488.563c-5.143 19.01-24.571 23.437-43.429 23.437-18.857 0-38.286-4.427-43.428-23.437-7.645-28.429-20.572-99.665-20.572-132.813 0-35.156 31.142-43.75 64-43.75s64 8.594 64 43.75c0 32.949-12.871 104.179-20.571 132.813zm-110.562-200.009c-18.693-18.308-29.958-44.173-28.784-72.599 2.054-49.724 42.395-89.956 92.124-91.881 54.655-2.116 99.793 41.733 99.793 95.926 0 26.827-11.064 51.116-28.866 68.552-2.675 2.62-2.401 6.986.628 9.187 9.312 6.765 16.46 15.343 21.234 25.363 1.741 3.654 6.497 4.66 9.449 1.891 28.826-27.043 46.553-65.783 45.511-108.565-1.855-76.206-63.595-138.208-139.793-140.369-81.294-2.306-148.163 63.156-148.163 143.941 0 41.361 17.532 78.7 45.55 104.989 2.953 2.771 7.711 1.77 9.453-1.887 4.774-10.021 11.923-18.598 21.235-25.363 3.029-2.2 3.304-6.566.629-9.185zm67.133-288.554c-123.796 0-224 100.185-224 224 0 89.992 52.602 165.647 125.739 201.408 4.333 2.118 9.267-1.544 8.535-6.31-2.382-15.512-4.342-30.946-5.406-44.339-.146-1.836-1.149-3.486-2.678-4.512-47.4-31.806-78.564-86.016-78.187-147.347.592-96.237 79.29-174.648 175.529-174.899 97.261-.254 176.468 78.796 176.468 175.999 0 61.932-32.158 116.49-80.65 147.867-.999 14.037-3.069 30.588-5.624 47.23-.732 4.767 4.203 8.429 8.535 6.31 72.966-35.68 125.739-111.22 125.739-201.407 0-123.795-100.185-224-224-224zm0 160c-35.346 0-64 28.654-64 64s28.654 64 64 64 64-28.654 64-64-28.654-64-64-64z"/></svg>