<svg viewBox="0 0 512 512" xmlns="http://www.w3.org/2000/svg"><path d="m451.36 369.14c17.3-13.15 28.64-33.73 28.64-57.14 0-39.77-32.24-72-72-72h-14.07c13.42-11.73 22.07-28.78 22.07-48 0-35.35-28.65-64-64-64h-5.88c3.57-10.05 5.88-20.72 5.88-32 0-53.02-42.98-96-96-96-5.17 0-10.15.74-15.11 1.52 9.42 13.12 15.11 29.1 15.11 46.48 0 44.18-35.82 80-80 80h-16c-35.35 0-64 28.65-64 64 0 19.22 8.65 36.27 22.07 48h-14.07c-39.76 0-72 32.23-72 72 0 23.41 11.34 43.99 28.64 57.14-34.33 5.48-60.64 34.98-60.64 70.86 0 39.76 32.24 72 72 72h368c39.76 0 72-32.24 72-72 0-35.88-26.31-65.38-60.64-70.86z"/></svg>