<svg viewBox="0 0 320 512" xmlns="http://www.w3.org/2000/svg"><path d="m308 352h-45.495c-6.627 0-12 5.373-12 12v50.848h-122.505v-126.848h84c6.627 0 12-5.373 12-12v-40c0-6.627-5.373-12-12-12h-84v-63.556c0-32.266 24.562-57.086 61.792-57.086 23.658 0 45.878 11.505 57.652 18.849 5.151 3.213 11.888 2.051 15.688-2.685l28.493-35.513c4.233-5.276 3.279-13.005-2.119-17.081-16.382-12.368-52.93-34.928-101.575-34.928-81.905 0-139.931 52.742-139.931 125.961v66.039h-28c-6.627 0-12 5.373-12 12v40c0 6.627 5.373 12 12 12h28v128h-36c-6.627 0-12 5.373-12 12v40c0 6.627 5.373 12 12 12h296c6.627 0 12-5.373 12-12v-104c0-6.627-5.373-12-12-12z"/></svg>