<svg viewBox="0 0 384 512" xmlns="http://www.w3.org/2000/svg"><path d="m301.26 352 78.06-78.06c6.25-6.25 6.25-16.38 0-22.63l-22.63-22.63c-6.25-6.25-16.38-6.25-22.63 0l-78.06 78.06-83.96-83.96c47.27-5.98 83.96-45.89 83.96-94.78 0-53.02-42.98-96-96-96h-144c-8.84 0-16 7.16-16 16v256c0 8.84 7.16 16 16 16h32c8.84 0 16-7.16 16-16v-80h18.75l128 128-78.06 78.06c-6.25 6.25-6.25 16.38 0 22.63l22.63 22.63c6.25 6.25 16.38 6.25 22.63 0l78.05-78.07 78.06 78.06c6.25 6.25 16.38 6.25 22.63 0l22.63-22.63c6.25-6.25 6.25-16.38 0-22.63zm-237.26-256h96c17.64 0 32 14.36 32 32s-14.36 32-32 32h-96z"/></svg>