<svg viewBox="0 0 640 512" xmlns="http://www.w3.org/2000/svg"><path d="m528 224h-256c-8.8 0-16 7.2-16 16v144h-192v-240c0-8.8-7.2-16-16-16h-32c-8.8 0-16 7.2-16 16v352c0 8.8 7.2 16 16 16h32c8.8 0 16-7.2 16-16v-48h512v48c0 8.8 7.2 16 16 16h32c8.8 0 16-7.2 16-16v-160c0-61.9-50.1-112-112-112zm-392-128h126.1l27.6 55.2c5.9 11.8 22.7 11.8 28.6 0l49.7-99.4 22.1 44.2h121.9c8.8 0 16-7.2 16-16s-7.2-16-16-16h-102.1l-27.6-55.2c-5.9-11.8-22.7-11.8-28.6 0l-49.7 99.4-19.9-39.8c-1.4-2.7-4.1-4.4-7.2-4.4h-140.9c-4.4 0-8 3.6-8 8v16c0 4.4 3.6 8 8 8zm24 256c35.3 0 64-28.7 64-64s-28.7-64-64-64-64 28.7-64 64 28.7 64 64 64z"/></svg>