<svg viewBox="0 0 640 512" xmlns="http://www.w3.org/2000/svg"><path d="m384 320h-128c-17.67 0-32 14.33-32 32v128c0 17.67 14.33 32 32 32h128c17.67 0 32-14.33 32-32v-128c0-17.67-14.33-32-32-32zm-192-288c0-17.67-14.33-32-32-32h-128c-17.67 0-32 14.33-32 32v128c0 17.67 14.33 32 32 32h95.72l73.16 128.04c11.1-19.06 31.52-32.04 55.12-32.04h.28l-64.28-112.49v-47.51h224v-64h-224zm416-32h-128c-17.67 0-32 14.33-32 32v128c0 17.67 14.33 32 32 32h128c17.67 0 32-14.33 32-32v-128c0-17.67-14.33-32-32-32z"/></svg>