<svg viewBox="0 0 384 512" xmlns="http://www.w3.org/2000/svg"><path d="m235.63 160h-151.26a64 64 0 0 0 -63.74 58.21l-20.36 224a64 64 0 0 0 63.73 69.79h192a64 64 0 0 0 63.74-69.79l-20.36-224a64 64 0 0 0 -63.75-58.21zm-75.63 256c-33.12 0-60-26.33-60-58.75 0-25 35.7-75.47 52-97.27a10 10 0 0 1 16 .02c16.33 21.8 52 72.27 52 97.27 0 32.4-26.88 58.73-60 58.73zm219.31-321.94-43.31-43.32a64 64 0 0 0 -45.25-18.74h-66.75a32 32 0 0 0 -32-32h-64a32 32 0 0 0 -32 32v96h128v-32h66.75l43.31 43.31a16 16 0 0 0 22.63 0l22.62-22.62a16 16 0 0 0 0-22.63z"/></svg>