<svg viewBox="0 0 576 512" xmlns="http://www.w3.org/2000/svg"><path d="m519.442 288.651c-41.519 0-59.5 31.593-82.058 31.593-59.975 0-5.384-176.244-5.384-176.244s-196.288 80-196.288-3.297c0-35.827 36.288-46.25 36.288-85.985 0-35.502-28.115-54.718-61.461-54.718-34.654 0-66.366 18.891-66.366 56.346 0 41.364 31.711 59.277 31.711 81.75.001 69.623-175.884 28.662-175.884 28.662v333.237s178.635 41.047 178.635-28.662c0-22.473-40-40.107-40-81.471 0-37.456 29.25-56.346 63.577-56.346 33.673 0 61.788 19.216 61.788 54.717 0 39.735-36.288 50.158-36.288 85.985 0 60.803 129.675 25.73 181.23 25.73 0 0-34.725-120.101 25.827-120.101 35.962 0 46.423 36.152 86.308 36.152 35.635.001 54.923-28.009 54.923-61.556 0-34.199-18.962-65.792-56.558-65.792z"/></svg>