<svg viewBox="0 0 496 512" xmlns="http://www.w3.org/2000/svg"><path d="m312 256h79.1c9.2 0 16.9-7.7 16-16.8-4.6-43.6-27-81.8-59.5-107.8-7.6-6.1-18.8-4.5-24 3.8l-41.7 66.8c18 11.2 30.1 31.2 30.1 54zm-97.8 54.1-41.8 66.9c-4.9 7.8-2.4 18.4 5.8 22.5 21.1 10.4 44.7 16.5 69.8 16.5s48.7-6.1 69.9-16.5c8.2-4.1 10.6-14.7 5.8-22.5l-41.8-66.9c-9.8 6.2-21.4 9.9-33.8 9.9s-24.1-3.7-33.9-9.9zm-109.3-54.1h79.1c0-22.8 12.1-42.8 30.2-54.1l-41.7-66.8c-5.2-8.3-16.4-9.9-24-3.8-32.6 26-54.9 64.2-59.5 107.8-1.1 9.2 6.7 16.9 15.9 16.9zm143.1 248c137 0 248-111 248-248s-111-248-248-248-248 111-248 248 111 248 248 248zm0-432c101.5 0 184 82.5 184 184s-82.5 184-184 184-184-82.5-184-184 82.5-184 184-184zm0 216c17.7 0 32-14.3 32-32s-14.3-32-32-32-32 14.3-32 32 14.3 32 32 32z"/></svg>