<svg viewBox="0 0 576 512" xmlns="http://www.w3.org/2000/svg"><path d="m268.3 32.7c-152.9 10.2-268.3 144.2-268.3 297.5v133.8c0 8.8 7.2 16 16 16h32c8.8 0 16-7.2 16-16v-144c0-133.2 116.9-239.7 253.5-222.1 112.9 14.5 194.5 116.1 194.5 229.9v136.2c0 8.8 7.2 16 16 16h32c8.8 0 16-7.2 16-16v-144c0-165.3-140-298.6-307.7-287.3zm-5.6 96.9c-96.7 12.4-166.7 99.5-166.7 197.1v137.3c0 8.8 7.2 16 16 16h32c8.8 0 16-7.2 16-16v-144c0-74.8 64.5-134.8 140.8-127.4 66.5 6.5 115.2 66.2 115.2 133.1v138.3c0 8.8 7.2 16 16 16h32c8.8 0 16-7.2 16-16v-144c0-114.2-100.2-205.4-217.3-190.4zm6.2 96.3c-45.6 8.9-76.9 51.5-76.9 97.9v140.2c0 8.8 7.2 16 16 16h32c8.8 0 16-7.2 16-16v-144c0-17.6 14.3-32 32-32s32 14.4 32 32v144c0 8.8 7.2 16 16 16h32c8.8 0 16-7.2 16-16v-144c0-59.2-53.8-106-115.1-94.1z"/></svg>