<svg viewBox="0 0 512 512" xmlns="http://www.w3.org/2000/svg"><path d="m504.971 359.029c9.373 9.373 9.373 24.569 0 33.941l-80 79.984c-15.01 15.01-40.971 4.49-40.971-16.971v-39.983h-58.785a12.004 12.004 0 0 1 -8.773-3.812l-70.556-75.596 53.333-57.143 52.781 56.551h32v-39.981c0-21.438 25.943-31.998 40.971-16.971zm-492.971-183.029h84l52.781 56.551 53.333-57.143-70.556-75.596a11.999 11.999 0 0 0 -8.773-3.812h-110.785c-6.627 0-12 5.373-12 12v56c0 6.627 5.373 12 12 12zm372 0v39.984c0 21.46 25.961 31.98 40.971 16.971l80-79.984c9.373-9.373 9.373-24.569 0-33.941l-80-79.981c-15.028-15.028-40.971-4.467-40.971 16.97v39.981h-58.785a12.004 12.004 0 0 0 -8.773 3.812l-220.442 236.188h-84c-6.627 0-12 5.373-12 12v56c0 6.627 5.373 12 12 12h110.785c3.326 0 6.503-1.381 8.773-3.812l220.442-236.188z"/></svg>