<svg viewBox="0 0 384 512" xmlns="http://www.w3.org/2000/svg"><path d="m358.4 3.2-38.4 44.8-54.4-44.8a15.9 15.9 0 0 0 -19.2 0l-54.4 44.8-54.4-44.8a15.9 15.9 0 0 0 -19.2 0l-54.4 44.8-38.4-44.8c-10.6-7.9-25.6-.4-25.6 12.8v480c0 13.2 15 20.7 25.6 12.8l38.4-44.8 54.4 44.8a15.9 15.9 0 0 0 19.2 0l54.4-44.8 54.4 44.8a15.9 15.9 0 0 0 19.2 0l54.4-44.8 38.4 44.8c10.5 7.9 25.6.4 25.6-12.8v-480c0-13.2-15-20.7-25.6-12.8zm-38.4 356.8c0 4.4-3.6 8-8 8h-240c-4.4 0-8-3.6-8-8v-16c0-4.4 3.6-8 8-8h240c4.4 0 8 3.6 8 8zm0-96c0 4.4-3.6 8-8 8h-240c-4.4 0-8-3.6-8-8v-16c0-4.4 3.6-8 8-8h240c4.4 0 8 3.6 8 8zm0-96c0 4.4-3.6 8-8 8h-240c-4.4 0-8-3.6-8-8v-16c0-4.4 3.6-8 8-8h240c4.4 0 8 3.6 8 8z"/></svg>