<svg viewBox="0 0 640 512" xmlns="http://www.w3.org/2000/svg"><path d="m336 416h-11.17l9.26-27.77-67.09-51.83-26.51 79.6h-32.49a16 16 0 0 0 -16 16v32a16 16 0 0 0 16 16h128a16 16 0 0 0 16-16v-32a16 16 0 0 0 -16-16zm297.82 42.1-256.82-198.51 49.17-147.59h117.83v32a16 16 0 0 0 16 16h32a16 16 0 0 0 16-16v-96a16 16 0 0 0 -16-16h-416a16 16 0 0 0 -16 16v43.9l-114.54-88.52a16 16 0 0 0 -22.46 2.81l-19.63 25.27a16 16 0 0 0 2.81 22.45l588.36 454.72a16 16 0 0 0 22.46-2.81l19.64-25.27a16 16 0 0 0 -2.82-22.45zm-323.91-250.34-85.91-66.4v-29.36h117.83z"/></svg>