<svg viewBox="0 0 576 512" xmlns="http://www.w3.org/2000/svg"><path d="m136.309 189.836 176.004-151.985c15.407-13.305 39.687-2.503 39.687 18.164v82.763c129.182 10.231 224 52.212 224 183.548 0 61.441-39.582 122.309-83.333 154.132-13.653 9.931-33.111-2.533-28.077-18.631 38.512-123.162-3.922-169.482-112.59-182.015v84.175c0 20.701-24.3 31.453-39.687 18.164l-176.004-151.987c-11.071-9.561-11.086-26.753 0-36.328zm-128 36.328 176.004 151.986c15.387 13.289 39.687 2.537 39.687-18.164v-15.818l-108.606-93.785a55.96 55.96 0 0 1 -19.394-42.385 55.953 55.953 0 0 1 19.393-42.38l108.607-93.786v-15.817c0-20.667-24.28-31.469-39.687-18.164l-176.004 151.985c-11.086 9.575-11.071 26.767 0 36.328z"/></svg>