<svg viewBox="0 0 640 512" xmlns="http://www.w3.org/2000/svg"><path d="m544 192c0-88.4-71.6-160-160-160h-224c-88.4 0-160 71.6-160 160v64h544zm-367.7-21.6-19.8 19.3 4.7 27.3c.8 4.9-4.3 8.6-8.7 6.3l-24.5-12.9-24.5 12.9c-4.3 2.3-9.5-1.4-8.7-6.3l4.7-27.3-19.8-19.3c-3.6-3.5-1.6-9.5 3.3-10.2l27.4-4 12.2-24.8c2.2-4.5 8.6-4.4 10.7 0l12.2 24.8 27.4 4c5 .7 6.9 6.7 3.4 10.2zm144 0-19.8 19.3 4.7 27.3c.8 4.9-4.3 8.6-8.7 6.3l-24.5-12.9-24.5 12.9c-4.3 2.3-9.5-1.4-8.7-6.3l4.7-27.3-19.8-19.3c-3.6-3.5-1.6-9.5 3.3-10.2l27.4-4 12.2-24.8c2.2-4.5 8.6-4.4 10.7 0l12.2 24.8 27.4 4c5 .7 6.9 6.7 3.4 10.2zm144 0-19.8 19.3 4.7 27.3c.8 4.9-4.3 8.6-8.7 6.3l-24.5-12.9-24.5 12.9c-4.3 2.3-9.5-1.4-8.7-6.3l4.7-27.3-19.8-19.3c-3.6-3.5-1.6-9.5 3.3-10.2l27.4-4 12.2-24.8c2.2-4.5 8.6-4.4 10.7 0l12.2 24.8 27.4 4c5 .7 6.9 6.7 3.4 10.2zm159.7 149.6h-32c-8.8 0-16 7.2-16 16v64c0 8.8-7.2 16-16 16s-16-7.2-16-16v-112h-544v176c0 8.8 7.2 16 16 16h96c8.8 0 16-7.2 16-16v-80h192v80c0 8.8 7.2 16 16 16h96c8.8 0 16-7.2 16-16v-112h32v43.3c0 41.8 30 80.1 71.6 84.3 47.8 4.9 88.4-32.7 88.4-79.6v-64c0-8.8-7.2-16-16-16z"/></svg>