<svg viewBox="0 0 640 512" xmlns="http://www.w3.org/2000/svg"><path d="m629.657 343.598-100.686 100.686c-9.373 9.372-24.568 9.372-33.941 0l-100.687-100.686c-9.373-9.373-9.373-24.569 0-33.941l10.823-10.823c9.562-9.562 25.133-9.34 34.419.492l40.415 42.792v-182.118h-187.549a24.005 24.005 0 0 1 -16.971-7.029l-16-16c-15.119-15.12-4.411-40.971 16.971-40.971h243.549c13.255 0 24 10.745 24 24v222.118l40.416-42.792c9.285-9.831 24.856-10.054 34.419-.492l10.823 10.823c9.372 9.372 9.372 24.569-.001 33.941zm-265.138 15.431a23.999 23.999 0 0 0 -16.971-7.029h-187.548v-182.119l40.416 42.792c9.286 9.831 24.856 10.054 34.419.491l10.822-10.822c9.373-9.373 9.373-24.569 0-33.941l-100.686-100.685c-9.373-9.373-24.569-9.373-33.941 0l-100.687 100.686c-9.373 9.373-9.373 24.569 0 33.941l10.822 10.822c9.562 9.562 25.133 9.34 34.419-.491l40.416-42.793v222.119c0 13.255 10.745 24 24 24h243.549c21.382 0 32.09-25.851 16.971-40.971z"/></svg>