<svg viewBox="0 0 512 512" xmlns="http://www.w3.org/2000/svg"><path d="m256 64c-145.94 0-256 61.91-256 144v98.13c0 78.35 114.62 141.87 256 141.87s256-63.52 256-141.87v-98.13c0-82.09-110.06-144-256-144zm0 64c106.04 0 192 35.82 192 80 0 9.26-3.97 18.12-10.91 26.39-44.94-26.18-108.86-42.39-181.09-42.39s-136.15 16.21-181.09 42.39c-6.94-8.27-10.91-17.13-10.91-26.39 0-44.18 85.96-80 192-80zm-135.57 136.64c34.61-14.71 81.21-24.64 135.57-24.64s100.96 9.93 135.57 24.64c-34.73 14.43-82.64 23.36-135.57 23.36s-100.84-8.93-135.57-23.36z"/></svg>