<svg viewBox="0 0 576 512" xmlns="http://www.w3.org/2000/svg"><path d="m573.19 402.67-139.79-320c-4.97-11.38-15.8-18.67-27.72-18.67h-97.59l2.45 23.16c.5 4.72-3.21 8.84-7.96 8.84h-29.16c-4.75 0-8.46-4.12-7.96-8.84l2.45-23.16h-97.59c-11.93 0-22.76 7.29-27.73 18.67l-139.79 320c-9.25 21.19 5.51 45.33 27.74 45.33h196.84l10.31-97.68c.86-8.14 7.72-14.32 15.91-14.32h68.8c8.19 0 15.05 6.18 15.91 14.32l10.31 97.68h196.84c22.23 0 36.99-24.14 27.73-45.33zm-312.79-267.51a8 8 0 0 1 7.96-7.16h39.29c4.09 0 7.53 3.09 7.96 7.16l4.6 43.58c.75 7.09-4.81 13.26-11.93 13.26h-40.54c-7.13 0-12.68-6.17-11.93-13.26zm55.24 168.84h-55.29c-9.5 0-16.91-8.23-15.91-17.68l5.07-48c.86-8.14 7.72-14.32 15.91-14.32h45.15c8.19 0 15.05 6.18 15.91 14.32l5.07 48c1 9.45-6.41 17.68-15.91 17.68z"/></svg>