<svg viewBox="0 0 384 512" xmlns="http://www.w3.org/2000/svg"><path d="m239.36 320c85.12 0 144.64-59.458 144.64-144.929s-59.52-143.071-144.64-143.071h-163.36c-6.627 0-12 5.373-12 12v206.632h-52c-6.627 0-12 5.373-12 12v45.368c0 6.627 5.373 12 12 12h52v32h-52c-6.627 0-12 5.373-12 12v40c0 6.627 5.373 12 12 12h52v52c0 6.627 5.373 12 12 12h58.56c6.627 0 12-5.373 12-12v-52h161.44c6.627 0 12-5.373 12-12v-40c0-6.627-5.373-12-12-12h-161.44v-32zm-92.8-219.252h78.72c46.72 0 74.88 29.11 74.88 74.323 0 45.832-28.16 75.561-76.16 75.561h-77.44z"/></svg>