<svg viewBox="0 0 640 512" xmlns="http://www.w3.org/2000/svg"><path d="m635.7 167.2-79.6-135.5c-8.8-15-28.3-20.1-43.5-11.5l-69 39.1 59.7 101.7c2.2 3.8.9 8.5-2.9 10.7l-13.8 7.8c-3.8 2.2-8.7.9-10.9-2.9l-59.7-101.6-55.2 31.3 27.9 47.4c2.2 3.8.9 8.5-2.9 10.7l-13.8 7.8c-3.8 2.2-8.7.9-10.9-2.9l-27.9-47.3-55.2 31.3 59.8 101.7c2.2 3.7.9 8.5-2.9 10.7l-13.8 7.8c-3.8 2.2-8.7.9-10.9-2.9l-59.7-101.7-55.2 31.3 27.9 47.4c2.2 3.8.9 8.5-2.9 10.7l-13.8 7.8c-3.8 2.2-8.7.9-10.9-2.9l-27.9-47.5-55.2 31.3 59.7 101.7c2.2 3.7.9 8.5-2.9 10.7l-13.8 7.8c-3.8 2.2-8.7.9-10.9-2.9l-59.7-101.4-69 39.1c-15.2 8.7-20.5 27.8-11.7 42.8l79.6 135.6c8.8 15 28.3 20.1 43.5 11.5l496.8-281.9c15.2-8.6 20.4-27.8 11.6-42.8z"/></svg>