<svg viewBox="0 0 320 512" xmlns="http://www.w3.org/2000/svg"><path d="m308 96c6.627 0 12-5.373 12-12v-40c0-6.627-5.373-12-12-12h-296c-6.627 0-12 5.373-12 12v44.748c0 6.627 5.373 12 12 12h85.28c27.308 0 48.261 9.958 60.97 27.252h-146.25c-6.627 0-12 5.373-12 12v40c0 6.627 5.373 12 12 12h158.757c-6.217 36.086-32.961 58.632-74.757 58.632h-84c-6.627 0-12 5.373-12 12v53.012c0 3.349 1.4 6.546 3.861 8.818l165.052 152.356a12.001 12.001 0 0 0 8.139 3.182h82.562c10.924 0 16.166-13.408 8.139-20.818l-150.882-139.276c76.499-2.34 131.144-53.395 138.318-127.906h52.811c6.627 0 12-5.373 12-12v-40c0-6.627-5.373-12-12-12h-58.69c-3.486-11.541-8.28-22.246-14.252-32z"/></svg>