<svg viewBox="0 0 496 512" xmlns="http://www.w3.org/2000/svg"><path d="m248 8c-137 0-248 111-248 248 0 90.1 48.2 168.7 120 212.1v-180.1c0-8.8 7.2-16 16-16s16 7.2 16 16v196.7c29.5 12.4 62 19.3 96 19.3s66.5-6.9 96-19.3v-196.7c0-8.8 7.2-16 16-16s16 7.2 16 16v180.1c71.8-43.4 120-122.1 120-212.1 0-137-111-248-248-248zm-65.5 216.5c-14.8-13.2-46.2-13.2-61 0l-9.5 8.5c-3.8 3.3-9.3 4-13.7 1.6s-6.9-7.4-6.1-12.4c4-25.2 34.2-42.1 59.9-42.1s55.9 16.9 59.9 42.1c.8 5-1.7 10-6.1 12.4-5.8 3.1-11.2.7-13.7-1.6zm65.5 191.5c-26.5 0-48-28.7-48-64s21.5-64 48-64 48 28.7 48 64-21.5 64-48 64zm149.8-181.5c-5.8 3.1-11.2.7-13.7-1.6l-9.5-8.5c-14.8-13.2-46.2-13.2-61 0l-9.6 8.6c-3.8 3.3-9.3 4-13.7 1.6s-6.9-7.4-6.1-12.4c4-25.2 34.2-42.1 59.9-42.1s55.9 16.9 59.9 42.1c.6 4.9-1.8 9.9-6.2 12.3z"/></svg>