<svg viewBox="0 0 496 512" xmlns="http://www.w3.org/2000/svg"><path d="m248 8c-137 0-248 111-248 248s111 248 248 248 248-111 248-248-111-248-248-248zm80 168c17.7 0 32 14.3 32 32s-14.3 32-32 32-32-14.3-32-32 14.3-32 32-32zm-176 240c-26.5 0-48-21-48-47 0-20 28.5-60.4 41.6-77.8 3.2-4.3 9.6-4.3 12.8 0 13.1 17.4 41.6 57.8 41.6 77.8 0 26-21.5 47-48 47zm16-176c-17.7 0-32-14.3-32-32s14.3-32 32-32 32 14.3 32 32-14.3 32-32 32zm170.2 154.2c-22.4-26.8-55.3-42.2-90.2-42.2-21.2 0-21.2-32 0-32 44.4 0 86.3 19.6 114.7 53.8 13.8 16.4-11.2 36.5-24.5 20.4z"/></svg>