<svg viewBox="0 0 512 512" xmlns="http://www.w3.org/2000/svg"><path d="m305.44954 462.59c7.39157 7.29792 6.18829 20.09661-3.00038 25.00356-77.713 41.80281-176.72559 29.9105-242.34331-35.7082-65.60209-65.60309-77.50985-164.52336-35.69204-242.33136 4.89125-9.095 17.68975-10.29834 25.00318-3.00043l116.81173 116.81351 27.39411-27.39452c-.68759-2.60974-1.594-5.00071-1.594-7.81361a32.00407 32.00407 0 1 1 32.00407 32.00455c-2.79723 0-5.20378-.89075-7.79786-1.594l-27.40974 27.41015zm206.52626-159.52268a16.10336 16.10336 0 0 1 -16.002 17.00242h-32.11349a15.96956 15.96956 0 0 1 -15.89265-15.00213c-7.50095-129.51841-111.51418-234.53334-240.93688-241.53433a15.84486 15.84486 0 0 1 -15.00191-15.90852v-31.59824a16.09389 16.09389 0 0 1 17.00213-16.00227c163.22391 8.59497 294.44372 139.81675 302.9448 303.04307zm-96.01221-.29692a16.21093 16.21093 0 0 1 -16.11142 17.29934h-32.20717a16.06862 16.06862 0 0 1 -15.89265-14.70522c-6.90712-77.01094-68.118-138.91037-144.92467-145.22376a15.94 15.94 0 0 1 -14.79876-15.89289v-32.11394a16.134 16.134 0 0 1 17.29908-16.096c110.12332 8.50117 198.22827 96.60745 206.63559 206.73247z"/></svg>