<svg viewBox="0 0 512 512" xmlns="http://www.w3.org/2000/svg"><path d="m502.60969 310.04206-96.70393 96.71625a31.88151 31.88151 0 0 1 -45.00765 0l-80.32611-80.41716-9.89231 9.90759a190.56343 190.56343 0 0 1 -5.40716 168.52287c-4.50077 8.50115-16.39342 9.59505-23.20707 2.79725l-107.51831-107.51458-17.7999 17.79929c.70324 2.60972 1.60965 5.00067 1.60965 7.79793a32.00544 32.00544 0 1 1 -32.00544-32.00434c2.79735 0 5.18838.90637 7.7982 1.60959l17.7999-17.79929-107.51827-107.51459c-6.798-6.81342-5.70409-18.6119 2.79735-23.20627a190.58161 190.58161 0 0 1 168.52864-5.407l9.79854-9.79821-80.31053-80.41716a32.002 32.002 0 0 1 0-45.09987l96.71945-96.71622a31.62639 31.62639 0 0 1 22.50394-9.29814 31.99951 31.99951 0 0 1 22.59759 9.29814l80.32615 80.30777 47.805-47.89713a33.6075 33.6075 0 0 1 47.50808 0l47.50807 47.50645a33.63308 33.63308 0 0 1 0 47.50644l-47.805 47.89713 80.31051 80.4172a31.78938 31.78938 0 0 1 -.10939 45.00606zm-283.0481-112.60906 73.82505-73.82252-68.918-68.9-73.80942 73.80689zm237.74352 90.106-68.90233-68.9156-73.825 73.82252 68.918 68.9z"/></svg>