<svg viewBox="0 0 448 512" xmlns="http://www.w3.org/2000/svg"><path d="m433.941 129.941-83.882-83.882a48 48 0 0 0 -33.941-14.059h-268.118c-26.51 0-48 21.49-48 48v352c0 26.51 21.49 48 48 48h352c26.51 0 48-21.49 48-48v-268.118a48 48 0 0 0 -14.059-33.941zm-209.941 286.059c-35.346 0-64-28.654-64-64s28.654-64 64-64 64 28.654 64 64-28.654 64-64 64zm96-304.52v100.52c0 6.627-5.373 12-12 12h-232c-6.627 0-12-5.373-12-12v-104c0-6.627 5.373-12 12-12h228.52c3.183 0 6.235 1.264 8.485 3.515l3.48 3.48a11.996 11.996 0 0 1 3.515 8.485z"/></svg>