<svg viewBox="0 0 640 512" xmlns="http://www.w3.org/2000/svg"><path d="m0 224v272c0 8.84 7.16 16 16 16h80v-320h-64c-17.67 0-32 14.33-32 32zm360-48h-24v-40c0-4.42-3.58-8-8-8h-16c-4.42 0-8 3.58-8 8v64c0 4.42 3.58 8 8 8h48c4.42 0 8-3.58 8-8v-16c0-4.42-3.58-8-8-8zm137.75-63.96-160-106.67a32.02 32.02 0 0 0 -35.5 0l-160 106.67a32.002 32.002 0 0 0 -14.25 26.62v373.34h128v-144c0-8.84 7.16-16 16-16h96c8.84 0 16 7.16 16 16v144h128v-373.33c0-10.7-5.35-20.7-14.25-26.63zm-177.75 143.96c-44.18 0-80-35.82-80-80s35.82-80 80-80 80 35.82 80 80-35.82 80-80 80zm288-64h-64v320h80c8.84 0 16-7.16 16-16v-272c0-17.67-14.33-32-32-32z"/></svg>