<svg viewBox="0 0 576 512" xmlns="http://www.w3.org/2000/svg"><path d="m568.482 177.448-144.003 135.985c-15.179 14.335-40.479 3.707-40.479-17.448v-71.963c-144.575.97-205.566 35.113-164.775 171.353 4.483 14.973-12.846 26.567-25.006 17.33-38.967-29.6-74.219-86.217-74.219-143.366 0-143.937 117.599-172.5 264-173.312v-72.015c0-21.174 25.317-31.768 40.479-17.448l144.003 135.988c10.02 9.463 10.028 25.425 0 34.896zm-184.482 201.68v68.872h-320v-320h50.916a11.99 11.99 0 0 0 8.648-3.693c14.953-15.568 32.237-27.89 51.014-37.676 11.13-5.801 7.006-22.631-5.545-22.631h-121.033c-26.51 0-48 21.49-48 48v352c0 26.51 21.49 48 48 48h352c26.51 0 48-21.49 48-48v-88.806c0-8.288-8.197-14.066-16.011-11.302a71.83 71.83 0 0 1 -34.189 3.377c-7.27-1.046-13.8 4.514-13.8 11.859z"/></svg>