<svg viewBox="0 0 448 512" xmlns="http://www.w3.org/2000/svg"><path d="m448 80v352c0 26.51-21.49 48-48 48h-352c-26.51 0-48-21.49-48-48v-352c0-26.51 21.49-48 48-48h352c26.51 0 48 21.49 48 48zm-144 216c-14.562 0-27.823 5.561-37.783 14.671l-67.958-40.775a56.339 56.339 0 0 0 0-27.793l67.958-40.775c9.96 9.111 23.221 14.672 37.783 14.672 30.928 0 56-25.072 56-56s-25.072-56-56-56-56 25.072-56 56c0 4.797.605 9.453 1.74 13.897l-67.958 40.775c-9.959-9.111-23.22-14.672-37.782-14.672-30.928 0-56 25.072-56 56s25.072 56 56 56c14.562 0 27.823-5.561 37.783-14.671l67.958 40.775a56.088 56.088 0 0 0 -1.74 13.897c0 30.928 25.072 56 56 56s56-25.072 56-56c-.001-30.929-25.073-56.001-56.001-56.001z"/></svg>