<svg viewBox="0 0 448 512" xmlns="http://www.w3.org/2000/svg"><path d="m352 320c-22.608 0-43.387 7.819-59.79 20.895l-102.486-64.054a96.551 96.551 0 0 0 0-41.683l102.486-64.054c16.403 13.077 37.182 20.896 59.79 20.896 53.019 0 96-42.981 96-96s-42.981-96-96-96-96 42.981-96 96c0 7.158.79 14.13 2.276 20.841l-102.486 64.054c-16.403-13.076-37.182-20.895-59.79-20.895-53.019 0-96 42.981-96 96s42.981 96 96 96c22.608 0 43.387-7.819 59.79-20.895l102.486 64.054a96.301 96.301 0 0 0 -2.276 20.841c0 53.019 42.981 96 96 96s96-42.981 96-96-42.981-96-96-96z"/></svg>