<svg viewBox="0 0 640 512" xmlns="http://www.w3.org/2000/svg"><path d="m496.616 372.639 70.012-70.012c16.899-16.9 9.942-45.771-12.836-53.092l-41.792-13.433v-140.102c0-17.673-14.327-32-32-32h-64v-40c0-13.255-10.745-24-24-24h-144c-13.255 0-24 10.745-24 24v40h-64c-17.673 0-32 14.327-32 32v140.102l-41.792 13.433c-22.753 7.313-29.754 36.173-12.836 53.092l70.012 70.012c-17.556 43.648-57.797 75.361-119.384 75.361-13.255 0-24 10.745-24 24v16c0 13.255 10.745 24 24 24 61.023 0 107.499-20.61 143.258-59.396 14.419 34.828 48.763 59.396 88.742 59.396h128c39.979 0 74.323-24.568 88.742-59.396 35.753 38.78 82.226 59.396 143.258 59.396 13.255 0 24-10.745 24-24v-16c0-13.255-10.745-24-24-24-60.817 0-101.542-31.001-119.384-75.361zm-304.616-244.639h256v87.531l-118.208-37.995a31.995 31.995 0 0 0 -19.584 0l-118.208 37.995z"/></svg>