<svg viewBox="0 0 640 512" xmlns="http://www.w3.org/2000/svg"><path d="m624 352h-16v-108.1c0-12.7-5.1-24.9-14.1-33.9l-99.9-99.9c-9-9-21.2-14.1-33.9-14.1h-44.1v-48c0-26.5-21.5-48-48-48h-256c-26.5 0-48 21.5-48 48v48h-56c-4.4 0-8 3.6-8 8v16c0 4.4 3.6 8 8 8h272c4.4 0 8 3.6 8 8v16c0 4.4-3.6 8-8 8h-240c-4.4 0-8 3.6-8 8v16c0 4.4 3.6 8 8 8h208c4.4 0 8 3.6 8 8v16c0 4.4-3.6 8-8 8h-240c-4.4 0-8 3.6-8 8v16c0 4.4 3.6 8 8 8h208c4.4 0 8 3.6 8 8v16c0 4.4-3.6 8-8 8h-152v128c0 53 43 96 96 96s96-43 96-96h128c0 53 43 96 96 96s96-43 96-96h48c8.8 0 16-7.2 16-16v-32c0-8.8-7.2-16-16-16zm-464 112c-26.5 0-48-21.5-48-48s21.5-48 48-48 48 21.5 48 48-21.5 48-48 48zm320 0c-26.5 0-48-21.5-48-48s21.5-48 48-48 48 21.5 48 48-21.5 48-48 48zm80-208h-144v-112h44.1l99.9 99.9z"/></svg>