<svg viewBox="0 0 640 512" xmlns="http://www.w3.org/2000/svg"><path d="m192 160h32v-128h-32c-35.35 0-64 28.65-64 64s28.65 64 64 64zm-192 256c0 35.35 28.65 64 64 64h32v-128h-32c-35.35 0-64 28.65-64 64zm337.46-128c-34.91 0-76.16 13.12-104.73 32-24.79 16.38-44.52 32-104.73 32v128l57.53 15.97c26.21 7.28 53.01 13.12 80.31 15.05 32.69 2.31 65.6.67 97.58-6.2 109.48-23.52 148.58-75.6 148.58-120.82 0-64-84.18-96-174.54-96zm153.96-280.81c-31.98-6.87-64.89-8.52-97.58-6.2-27.3 1.93-54.1 7.77-80.31 15.04l-57.53 15.97v128c60.2 0 79.94 15.62 104.73 32 28.57 18.88 69.82 32 104.73 32 90.36 0 174.54-32 174.54-96 0-45.22-39.1-97.3-148.58-120.81z"/></svg>