<svg viewBox="0 0 576 512" xmlns="http://www.w3.org/2000/svg"><path d="m528.12 301.319 47.273-208c3.413-15.018-8.002-29.319-23.403-29.319h-392.782l-9.166-44.81c-2.284-11.169-12.112-19.19-23.513-19.19h-102.529c-13.255 0-24 10.745-24 24v16c0 13.255 10.745 24 24 24h69.883l70.248 343.435c-16.806 9.665-28.131 27.787-28.131 48.565 0 30.928 25.072 56 56 56s56-25.072 56-56c0-15.674-6.447-29.835-16.824-40h209.647c-10.376 10.165-16.823 24.326-16.823 40 0 30.928 25.072 56 56 56s56-25.072 56-56c0-22.172-12.888-41.332-31.579-50.405l5.517-24.276c3.413-15.018-8.002-29.319-23.403-29.319h-268.418l-6.545-32h293.145c11.206 0 20.92-7.754 23.403-18.681z"/></svg>