<svg viewBox="0 0 576 512" xmlns="http://www.w3.org/2000/svg"><path d="m576 216v16c0 13.255-10.745 24-24 24h-8l-26.113 182.788c-3.378 23.647-23.63 41.212-47.517 41.212h-364.74c-23.887 0-44.139-17.565-47.518-41.212l-26.112-182.788h-8c-13.255 0-24-10.745-24-24v-16c0-13.255 10.745-24 24-24h67.341l106.78-146.821c10.395-14.292 30.407-17.453 44.701-7.058 14.293 10.395 17.453 30.408 7.058 44.701l-79.403 109.178h235.046l-79.403-109.179c-10.395-14.292-7.234-34.306 7.059-44.701 14.291-10.395 34.306-7.235 44.701 7.058l106.779 146.822h67.341c13.255 0 24 10.745 24 24zm-264 176v-112c0-13.255-10.745-24-24-24s-24 10.745-24 24v112c0 13.255 10.745 24 24 24s24-10.745 24-24zm112 0v-112c0-13.255-10.745-24-24-24s-24 10.745-24 24v112c0 13.255 10.745 24 24 24s24-10.745 24-24zm-224 0v-112c0-13.255-10.745-24-24-24s-24 10.745-24 24v112c0 13.255 10.745 24 24 24s24-10.745 24-24z"/></svg>