<svg viewBox="0 0 640 512" xmlns="http://www.w3.org/2000/svg"><path d="m628.88 210.65-134.49-161.38a48.01 48.01 0 0 0 -36.87-17.27h-425.52c-17.67 0-32 14.33-32 32v288c0 17.67 14.33 32 32 32h32c0 53.02 42.98 96 96 96s96-42.98 96-96h128c0 53.02 42.98 96 96 96s96-42.98 96-96h32c17.67 0 32-14.33 32-32v-110.62c0-11.23-3.94-22.1-11.12-30.73zm-564.88-18.65v-96h96v96zm96 240c-26.51 0-48-21.49-48-48s21.49-48 48-48 48 21.49 48 48-21.49 48-48 48zm160-240h-96v-96h96zm160 240c-26.51 0-48-21.49-48-48s21.49-48 48-48 48 21.49 48 48-21.49 48-48 48zm-96-240v-96h66.02l80 96z"/></svg>