<svg viewBox="0 0 512 512" xmlns="http://www.w3.org/2000/svg"><path d="m32 416a96 96 0 0 0 96 96h256a96 96 0 0 0 96-96v-32h-448zm464-128h-96v-32h64a16 16 0 0 0 16-16v-16a16 16 0 0 0 -16-16h-80a32 32 0 0 0 -32 32v48h-64v-192a32 32 0 0 1 64 0v16a16 16 0 0 0 16 16h32a16 16 0 0 0 16-16v-16a96.16 96.16 0 0 0 -115.13-94.14c-45.58 8.85-76.87 51.5-76.87 97.93v188.21h-64v-48a32 32 0 0 0 -32-32h-80a16 16 0 0 0 -16 16v16a16 16 0 0 0 16 16h64v32h-96a16 16 0 0 0 -16 16v32a16 16 0 0 0 16 16h480a16 16 0 0 0 16-16v-32a16 16 0 0 0 -16-16z"/></svg>