<svg viewBox="0 0 496 512" xmlns="http://www.w3.org/2000/svg"><path d="m0 256c0 137 111 248 248 248s248-111 248-248-111-248-248-248-248 111-248 248zm200-48c0 17.7-14.3 32-32 32s-32-14.3-32-32 14.3-32 32-32 32 14.3 32 32zm158.5 16.5c-14.8-13.2-46.2-13.2-61 0l-9.5 8.5c-8.3 7.4-21.6.4-19.8-10.8 4-25.2 34.2-42.1 59.9-42.1s55.9 16.9 59.9 42.1c1.7 11.1-11.4 18.3-19.8 10.8zm-200.7 101.3c22.4 26.9 55.2 42.2 90.2 42.2s67.8-15.4 90.2-42.2c13.6-16.2 38.1 4.2 24.6 20.5-28.5 34.1-70.3 53.7-114.8 53.7s-86.3-19.6-114.8-53.8c-13.5-16.3 11.2-36.7 24.6-20.4z"/></svg>