<svg viewBox="0 0 640 512" xmlns="http://www.w3.org/2000/svg"><path d="m624 368h-544c-8.8 0-16 7.2-16 16v16c0 8.8 7.2 16 16 16h544c8.8 0 16-7.2 16-16v-16c0-8.8-7.2-16-16-16zm-480 96h-128c-8.8 0-16 7.2-16 16v16c0 8.8 7.2 16 16 16h128c8.8 0 16-7.2 16-16v-16c0-8.8-7.2-16-16-16zm416 0h-336c-8.8 0-16 7.2-16 16v16c0 8.8 7.2 16 16 16h336c8.8 0 16-7.2 16-16v-16c0-8.8-7.2-16-16-16zm-416-176h156.1c22.5 19.7 51.6 32 83.9 32s61.3-12.3 83.9-32h60.1c61.9 0 112-50.1 112-112s-50.1-112-112-112c-18 0-34.7 4.6-49.7 12.1-24.3-45.1-71.5-76.1-126.3-76.1-41 0-77.8 17.3-104 44.8-26.2-27.5-63-44.8-104-44.8-79.5 0-144 64.5-144 144s64.5 144 144 144z"/></svg>