<svg viewBox="0 0 512 512" xmlns="http://www.w3.org/2000/svg"><path d="m96 304c0 8.8 7.2 16 16 16h117.5l-96-96h-21.5c-8.8 0-16 7.2-16 16zm160-304c-141.4 0-256 114.6-256 256s114.6 256 256 256 256-114.6 256-256-114.6-256-256-256zm0 448c-105.9 0-192-86.1-192-192 0-41.4 13.3-79.7 35.7-111.1l267.4 267.4c-31.4 22.4-69.7 35.7-111.1 35.7zm45.2-192h82.8v32h-50.8zm111.1 111.1-47.1-47.1h34.8c8.8 0 16-7.2 16-16v-64c0-8.8-7.2-16-16-16h-130.8l-124.3-124.3c31.4-22.4 69.7-35.7 111.1-35.7 105.9 0 192 86.1 192 192 0 41.4-13.3 79.7-35.7 111.1zm-91.7-239.1c-15.6 0-28.6-11.2-31.4-25.9-.7-3.6-4-6.1-7.7-6.1h-16.2c-5 0-8.7 4.5-8 9.4 4.6 30.9 31.2 54.6 63.3 54.6 15.6 0 28.6 11.2 31.4 25.9.7 3.6 4 6.1 7.7 6.1h16.2c5 0 8.7-4.5 8-9.4-4.6-30.9-31.2-54.6-63.3-54.6z"/></svg>