<svg viewBox="0 0 512 512" xmlns="http://www.w3.org/2000/svg"><path d="m214.66 311.01 73.34-55.01v-160h-160v176l-86.65 64.61c-39.4 29.56-53.86 84.42-29.21 127.06 18.25 31.58 51.13 48.33 83.94 48.33 20.03 0 40.25-6.25 57.52-19.2l21.86-16.39c-29.85-55.38-13.54-125.84 39.2-165.4zm73.34-279.01c0-11.05 3.07-21.3 8.02-30.38-2.62-.7-5.17-1.62-8.02-1.62h-128c-17.67 0-32 14.33-32 32v32h160zm192-32h-128c-17.67 0-32 14.33-32 32v32h192v-32c0-17.67-14.33-32-32-32zm-160 272-86.13 64.61c-39.4 29.56-53.86 84.42-29.21 127.06 18.25 31.58 50.61 48.33 83.42 48.33 20.03 0 40.25-6.25 57.52-19.2l115.2-86.4a127.997 127.997 0 0 0 51.2-102.4v-208h-192z"/></svg>