<svg viewBox="0 0 512 512" xmlns="http://www.w3.org/2000/svg"><path d="m304 416h-64a16 16 0 0 0 -16 16v32a16 16 0 0 0 16 16h64a16 16 0 0 0 16-16v-32a16 16 0 0 0 -16-16zm-288-256h48v304a16 16 0 0 0 16 16h32a16 16 0 0 0 16-16v-304h48c14.21 0 21.38-17.24 11.31-27.31l-80-96a16 16 0 0 0 -22.62 0l-80 96c-10.04 10.05-2.92 27.31 11.31 27.31zm416 0h-192a16 16 0 0 0 -16 16v32a16 16 0 0 0 16 16h192a16 16 0 0 0 16-16v-32a16 16 0 0 0 -16-16zm-64 128h-128a16 16 0 0 0 -16 16v32a16 16 0 0 0 16 16h128a16 16 0 0 0 16-16v-32a16 16 0 0 0 -16-16zm128-256h-256a16 16 0 0 0 -16 16v32a16 16 0 0 0 16 16h256a16 16 0 0 0 16-16v-32a16 16 0 0 0 -16-16z"/></svg>