<svg viewBox="0 0 512 512" xmlns="http://www.w3.org/2000/svg"><path d="m304 416h-64a16 16 0 0 0 -16 16v32a16 16 0 0 0 16 16h64a16 16 0 0 0 16-16v-32a16 16 0 0 0 -16-16zm-128-64h-48v-304a16 16 0 0 0 -16-16h-32a16 16 0 0 0 -16 16v304h-48c-14.19 0-21.37 17.24-11.29 27.31l80 96a16 16 0 0 0 22.62 0l80-96c10.02-10.05 2.89-27.31-11.33-27.31zm256-192h-192a16 16 0 0 0 -16 16v32a16 16 0 0 0 16 16h192a16 16 0 0 0 16-16v-32a16 16 0 0 0 -16-16zm-64 128h-128a16 16 0 0 0 -16 16v32a16 16 0 0 0 16 16h128a16 16 0 0 0 16-16v-32a16 16 0 0 0 -16-16zm128-256h-256a16 16 0 0 0 -16 16v32a16 16 0 0 0 16 16h256a16 16 0 0 0 16-16v-32a16 16 0 0 0 -16-16z"/></svg>