<svg viewBox="0 0 448 512" xmlns="http://www.w3.org/2000/svg"><path d="m16 160h48v304a16 16 0 0 0 16 16h32a16 16 0 0 0 16-16v-304h48c14.21 0 21.38-17.24 11.31-27.31l-80-96a16 16 0 0 0 -22.62 0l-80 96c-10.04 10.05-2.91 27.31 11.31 27.31zm400 128h-128a16 16 0 0 0 -16 16v32a16 16 0 0 0 16 16h56l-61.26 70.45a32 32 0 0 0 -10.74 23.92v17.63a16 16 0 0 0 16 16h128a16 16 0 0 0 16-16v-32a16 16 0 0 0 -16-16h-56l61.26-70.45a32 32 0 0 0 10.74-23.92v-17.63a16 16 0 0 0 -16-16zm31.06-85.38-59.27-160a16 16 0 0 0 -15.07-10.62h-41.44a16 16 0 0 0 -15.07 10.62l-59.27 160a16 16 0 0 0 15.06 21.38h24.83a16 16 0 0 0 15.23-11.08l4.42-12.92h71l4.41 12.92a16 16 0 0 0 15.27 11.08h24.84a16 16 0 0 0 15.06-21.38zm-111.45-58.62 16.39-48 16.39 48z"/></svg>