<svg viewBox="0 0 640 512" xmlns="http://www.w3.org/2000/svg"><path d="m592.604 208.244c-32.869-15.408-76.827-24.244-120.604-24.244h-285.673c-4.952-6.555-10.585-11.978-16.72-16h206.393c-146.843-30.253-156.597-136-279.997-136h-.003v128h-16v-128c-26.51 0-48 28.654-48 64v64c-23.197 0-32 10.032-32 24v40c0 13.983 8.819 24 32 24v16c-23.197 0-32 10.032-32 24v40c0 13.983 8.819 24 32 24v64c0 35.346 21.49 64 48 64v-128h16v128h.003c123.4 0 133.154-105.747 279.997-136h-206.394c6.135-4.022 11.768-9.445 16.72-16h285.674c43.777 0 87.735-8.836 120.604-24.244 29.678-13.911 47.396-31.764 47.396-47.756s-17.718-33.845-47.396-47.756zm-104.604 87.756a8 8 0 0 1 -8-8v-64a8 8 0 0 1 8-8c31.909 0 31.942 80 0 80z"/></svg>