<svg viewBox="0 0 576 512" xmlns="http://www.w3.org/2000/svg"><path d="m272 256h91.36c43.2 0 82-32.2 84.51-75.34a79.82 79.82 0 0 0 -25.26-63.07 79.81 79.81 0 0 0 9.06-44.91c-3.77-42.11-42.37-72.68-84.67-72.68h-75a16 16 0 0 0 -16 16v224a16 16 0 0 0 16 16zm40-200h40a24 24 0 0 1 0 48h-40zm0 96h56a24 24 0 0 1 0 48h-56zm-156.88-129.75a32 32 0 0 0 -30.48-22.25h-25.28a32 32 0 0 0 -30.48 22.25l-68.29 213.48a16 16 0 0 0 15.41 20.27h24.93a16 16 0 0 0 15.42-11.73l11.94-36.27h87.42l11.94 36.27a16 16 0 0 0 15.42 11.73h24.93a16 16 0 0 0 15.42-20.27zm-65.75 121.75 22.63-68.7 22.63 68.7zm482 132.48-45.21-45.3a15.88 15.88 0 0 0 -22.59 0l-151.5 151.5-55.41-55.5a15.88 15.88 0 0 0 -22.59 0l-45.3 45.3a16 16 0 0 0 0 22.59l112 112.21a15.89 15.89 0 0 0 22.6 0l208-208.21a16 16 0 0 0 -.02-22.59z"/></svg>