<svg viewBox="0 0 576 512" xmlns="http://www.w3.org/2000/svg"><path d="m571.31 251.31-22.62-22.62c-6.25-6.25-16.38-6.25-22.63 0l-46.06 46.06-46.06-46.06c-6.25-6.25-16.38-6.25-22.63 0l-22.62 22.62c-6.25 6.25-6.25 16.38 0 22.63l46.06 46.06-46.06 46.06c-6.25 6.25-6.25 16.38 0 22.63l22.62 22.62c6.25 6.25 16.38 6.25 22.63 0l46.06-46.06 46.06 46.06c6.25 6.25 16.38 6.25 22.63 0l22.62-22.62c6.25-6.25 6.25-16.38 0-22.63l-46.06-46.06 46.06-46.06c6.25-6.25 6.25-16.38 0-22.63zm-19.31-251.31h-244.35c-14.54 0-27.26 9.8-30.95 23.87l-84.79 322.8-58.41-106.1a32.008 32.008 0 0 0 -28.03-16.57h-81.47c-13.25 0-24 10.74-24 24v48c0 13.25 10.75 24 24 24h43.62l88.88 163.73c12.49 19.77 29.8 28.27 48.44 28.27 17.27 0 44.44-9 54.28-41.48l97.81-374.52h194.97c13.25 0 24-10.75 24-24v-48c0-13.26-10.75-24-24-24z"/></svg>