<svg viewBox="0 0 480 512" xmlns="http://www.w3.org/2000/svg"><path d="m471.99 334.43-135.93-78.43 135.93-78.43c7.66-4.42 10.28-14.2 5.86-21.86l-32.02-55.43c-4.42-7.65-14.21-10.28-21.87-5.86l-135.93 78.43v-156.85c0-8.84-7.17-16-16.01-16h-64.04c-8.84 0-16.01 7.16-16.01 16v156.86l-135.93-78.43c-7.66-4.42-17.45-1.79-21.87 5.86l-32.02 55.42c-4.42 7.65-1.8 17.44 5.86 21.86l135.93 78.43-135.93 78.43c-7.66 4.42-10.28 14.21-5.86 21.86l32.02 55.43c4.42 7.65 14.21 10.27 21.87 5.86l135.93-78.43v156.85c0 8.84 7.17 16 16.01 16h64.04c8.84 0 16.01-7.16 16.01-16v-156.86l135.93 78.43c7.66 4.42 17.45 1.8 21.87-5.86l32.02-55.43c4.42-7.65 1.8-17.43-5.86-21.85z"/></svg>