<svg viewBox="0 0 640 512" xmlns="http://www.w3.org/2000/svg"><path d="m17.89 123.62-12.38 18.58c-14.2 21.3 1 49.8 26.59 49.8h74.26zm558.11 289.8v-189.42h-64v140l-128-99v-41h-53.08l-41.4-32h318.48c25.5 0 40.7-28.5 26.59-49.8l-85.29-128a32.18 32.18 0 0 0 -26.7-14.2h-405.18a31.87 31.87 0 0 0 -26.61 14.2l-10.66 16-34.69-26.82a16 16 0 0 0 -22.46 2.81l-19.63 25.27a16 16 0 0 0 2.81 22.45l588.35 454.72a16 16 0 0 0 22.47-2.82l19.64-25.26a16 16 0 0 0 -2.81-22.45zm-256-29.42h-192v-160h-64v256a32 32 0 0 0 32 32h256a32 32 0 0 0 32-32v-73.41l-64-49.47z"/></svg>