<svg viewBox="0 0 616 512" xmlns="http://www.w3.org/2000/svg"><path d="m602 118.6-64.9-103.6c-5.8-9.3-16.1-15-27.1-15h-404c-11 0-21.3 5.7-27.1 15l-64.9 103.6c-33.5 53.5-3.8 127.9 58.8 136.4 4.5.6 9.1.9 13.7.9 29.6 0 55.8-13 73.8-33.1 18 20.1 44.3 33.1 73.8 33.1 29.6 0 55.8-13 73.8-33.1 18 20.1 44.3 33.1 73.8 33.1 29.6 0 55.8-13 73.8-33.1 18.1 20.1 44.3 33.1 73.8 33.1 4.7 0 9.2-.3 13.7-.9 62.8-8.4 92.6-82.8 59-136.4zm-72.5 169.4c-10 0-19.9-1.5-29.5-3.8v99.8h-384v-99.8c-9.6 2.2-19.5 3.8-29.5 3.8-6 0-12.1-.4-18-1.2-5.6-.8-11.1-2.1-16.4-3.6v196.8c0 17.7 14.3 32 32 32h448c17.7 0 32-14.3 32-32v-196.8c-5.4 1.6-10.8 2.9-16.4 3.6-6.1.8-12.1 1.2-18.2 1.2z"/></svg>