<svg viewBox="0 0 512 512" xmlns="http://www.w3.org/2000/svg"><path d="m496 224h-202.1l-87.17-26.83a43.55 43.55 0 0 1 12.82-85.17h66.79a49.89 49.89 0 0 1 44.66 27.58 16 16 0 0 0 21.46 7.15l42.94-21.47a16 16 0 0 0 7.16-21.46l-.53-1a128 128 0 0 0 -114.52-70.8h-68a123.68 123.68 0 0 0 -123 135.64c2 20.89 10.1 39.83 21.78 56.36h-102.29a16 16 0 0 0 -16 16v32a16 16 0 0 0 16 16h480a16 16 0 0 0 16-16v-32a16 16 0 0 0 -16-16zm-180.24 96a43 43 0 0 1 20.24 36.45 43.59 43.59 0 0 1 -43.55 43.55h-66.79a49.89 49.89 0 0 1 -44.66-27.58 16 16 0 0 0 -21.46-7.15l-42.94 21.47a16 16 0 0 0 -7.16 21.46l.53 1a128 128 0 0 0 114.52 70.8h68a123.68 123.68 0 0 0 123-135.64 114.25 114.25 0 0 0 -5.34-24.36z"/></svg>