<svg viewBox="0 0 448 512" xmlns="http://www.w3.org/2000/svg"><path d="m448 96v256c0 51.815-61.624 96-130.022 96l62.98 49.721c5.947 4.696 2.604 14.279-4.958 14.279h-304c-7.578 0-10.892-9.594-4.957-14.279l62.979-49.721c-68.202 0-130.022-44.046-130.022-96v-256c0-53.019 64-96 128-96h192c65 0 128 42.981 128 96zm-248 136v-112c0-13.255-10.745-24-24-24h-104c-13.255 0-24 10.745-24 24v112c0 13.255 10.745 24 24 24h104c13.255 0 24-10.745 24-24zm200 0v-112c0-13.255-10.745-24-24-24h-104c-13.255 0-24 10.745-24 24v112c0 13.255 10.745 24 24 24h104c13.255 0 24-10.745 24-24zm-48 56c-26.51 0-48 21.49-48 48s21.49 48 48 48 48-21.49 48-48-21.49-48-48-48zm-256 0c-26.51 0-48 21.49-48 48s21.49 48 48 48 48-21.49 48-48-21.49-48-48-48z"/></svg>