<svg viewBox="0 0 384 512" xmlns="http://www.w3.org/2000/svg"><path d="m336 160h-288c-26.51 0-48 21.49-48 48v224c0 26.51 21.49 48 48 48h16v16c0 8.84 7.16 16 16 16h32c8.84 0 16-7.16 16-16v-16h128v16c0 8.84 7.16 16 16 16h32c8.84 0 16-7.16 16-16v-16h16c26.51 0 48-21.49 48-48v-224c0-26.51-21.49-48-48-48zm-16 216c0 4.42-3.58 8-8 8h-240c-4.42 0-8-3.58-8-8v-16c0-4.42 3.58-8 8-8h240c4.42 0 8 3.58 8 8zm0-96c0 4.42-3.58 8-8 8h-240c-4.42 0-8-3.58-8-8v-16c0-4.42 3.58-8 8-8h240c4.42 0 8 3.58 8 8zm-176-232h96v80h48v-80c0-26.51-21.49-48-48-48h-96c-26.51 0-48 21.49-48 48v80h48z"/></svg>