<svg viewBox="0 0 512 512" xmlns="http://www.w3.org/2000/svg"><path d="m496 160h-16v-144a16 16 0 0 0 -16-16h-48a16 16 0 0 0 -14.29 8.83l-16 32a16 16 0 0 0 14.29 23.17h16v96h-16a16 16 0 0 0 -16 16v32a16 16 0 0 0 16 16h96a16 16 0 0 0 16-16v-32a16 16 0 0 0 -16-16zm-160-96h-67a16 16 0 0 0 -13.14 6.87l-79.9 115-79.9-115a16 16 0 0 0 -13.06-6.87h-67a16 16 0 0 0 -16 16v48a16 16 0 0 0 16 16h33.48l77.81 112-77.81 112h-33.48a16 16 0 0 0 -16 16v48a16 16 0 0 0 16 16h67a16 16 0 0 0 13.14-6.87l79.9-115 79.9 115a16 16 0 0 0 13.06 6.87h67a16 16 0 0 0 16-16v-48a16 16 0 0 0 -16-16h-33.48l-77.81-112 77.81-112h33.48a16 16 0 0 0 16-16v-48a16 16 0 0 0 -16-16z"/></svg>