<svg viewBox="0 0 640 512" xmlns="http://www.w3.org/2000/svg"><path d="m70 196.51-63.33 71.78a26.643 26.643 0 0 0 -6.67 17.64v226.07h128v-272.42l-38-43.07c-5.31-6.01-14.69-6.01-20 0zm563.33 71.78-63.33-71.78c-5.31-6.02-14.69-6.02-20 0l-38 43.07v272.42h128v-226.07c0-6.5-2.37-12.77-6.67-17.64zm-293.34-261.28c-11.69-9.35-28.29-9.35-39.98 0l-128 102.4a32.005 32.005 0 0 0 -12.01 24.99v377.6h96v-92.57c0-31.88 21.78-61.43 53.25-66.55 40.09-6.53 74.75 24.25 74.75 63.12v96h96v-377.6c0-9.72-4.42-18.92-12.01-24.99l-128-102.4zm52.07 215.55c1.98 3.15-.29 7.24-4 7.24h-38.94l-25.12 39.99c-1.85 2.95-6.15 2.95-8 0l-25.12-39.98h-38.94c-3.72 0-5.98-4.09-4-7.24l19.2-30.56-19.2-30.56c-1.98-3.15.29-7.24 4-7.24h38.94l25.12-40c1.85-2.95 6.15-2.95 8 0l25.12 39.98h38.95c3.71 0 5.98 4.09 4 7.24l-19.2 30.57z"/></svg>