<svg viewBox="0 0 512 512" xmlns="http://www.w3.org/2000/svg"><path d="m440.65 12.57 4 82.77a247.16 247.16 0 0 0 -188.82-87.34c-121.1 0-221.92 86.92-243.54 201.82a12 12 0 0 0 11.8 14.18h49.05a12 12 0 0 0 11.67-9.26 175.91 175.91 0 0 1 317-56.94l-101.46-4.86a12 12 0 0 0 -12.57 12v47.41a12 12 0 0 0 12 12h200.22a12 12 0 0 0 12-12v-200.35a12 12 0 0 0 -12-12h-47.37a12 12 0 0 0 -11.98 12.57zm-184.82 419.43a175.61 175.61 0 0 1 -146-77.8l101.8 4.87a12 12 0 0 0 12.57-12v-47.4a12 12 0 0 0 -12-12h-200.2a12 12 0 0 0 -12 12v200.33a12 12 0 0 0 12 12h47.35a12 12 0 0 0 12-12.6l-4.15-82.57a247.17 247.17 0 0 0 188.63 87.17c121.11 0 221.93-86.92 243.55-201.82a12 12 0 0 0 -11.8-14.18h-49.05a12 12 0 0 0 -11.67 9.26 175.86 175.86 0 0 1 -171.03 134.74z"/></svg>