<svg viewBox="0 0 640 512" xmlns="http://www.w3.org/2000/svg"><path d="m160 192c-81.1 0-147.5 58.5-159.9 134.7-.8 4.8 3.3 9.3 8.3 9.3h303.3c5 0 9.1-4.5 8.3-9.3-12.5-76.2-78.9-134.7-160-134.7zm151.6 176h-303.2c-5 0-9.1 4.5-8.3 9.3 12.4 76.2 78.8 134.7 159.9 134.7s147.5-58.5 159.9-134.7c.8-4.8-3.3-9.3-8.3-9.3zm281.8-321.4c-56.5-56.5-144.2-61.4-206.9-16-4 2.9-4.3 8.9-.8 12.3l211.3 211.4c3.5 3.5 9.5 3.2 12.3-.8 45.5-62.7 40.6-150.4-15.9-206.9zm-230.4 19.1c-3.5-3.5-9.5-3.2-12.3.8-45.4 62.7-40.5 150.4 15.9 206.9 56.5 56.5 144.2 61.4 206.9 15.9 4-2.9 4.3-8.9.8-12.3z"/></svg>