<svg viewBox="0 0 512 512" xmlns="http://www.w3.org/2000/svg"><path d="m462 241.64-22-84.84c-9.6-35.2-41.6-60.8-76.8-60.8h-11.2v-32c0-17.67-14.33-32-32-32h-128c-17.67 0-32 14.33-32 32v32h-11.2c-35.2 0-67.2 25.6-76.8 60.8l-22 84.84c-28.59 6.4-50 31.83-50 62.36v48c0 23.63 12.95 44.04 32 55.12v40.88c0 17.67 14.33 32 32 32h32c17.67 0 32-14.33 32-32v-32h256v32c0 17.67 14.33 32 32 32h32c17.67 0 32-14.33 32-32v-40.88c19.05-11.09 32-31.5 32-55.12v-48c0-30.53-21.41-55.96-50-62.36zm-366 110.36c-17.67 0-32-14.33-32-32s14.33-32 32-32 32 14.33 32 32-14.33 32-32 32zm20.55-112 17.2-66.36c2.23-8.16 9.59-13.64 15.06-13.64h214.4c5.47 0 12.83 5.48 14.85 12.86l17.39 67.14zm299.45 112c-17.67 0-32-14.33-32-32s14.33-32 32-32 32 14.33 32 32-14.33 32-32 32z"/></svg>