<svg viewBox="0 0 512 512" xmlns="http://www.w3.org/2000/svg"><path d="m416 0c-52.9 0-96 43.1-96 96s43.1 96 96 96 96-43.1 96-96-43.1-96-96-96zm0 128c-17.7 0-32-14.3-32-32s14.3-32 32-32 32 14.3 32 32-14.3 32-32 32zm-160-16c0-61.9-50.1-112-112-112s-112 50.1-112 112v166.5c-19.7 24.7-32 55.5-32 89.5 0 79.5 64.5 144 144 144s144-64.5 144-144c0-34-12.3-64.9-32-89.5zm-112 336c-44.1 0-80-35.9-80-80 0-25.5 12.2-48.9 32-63.8v-192.2c0-26.5 21.5-48 48-48s48 21.5 48 48v192.2c19.8 14.8 32 38.3 32 63.8 0 44.1-35.9 80-80 80zm16-125.1v-210.9c0-8.8-7.2-16-16-16s-16 7.2-16 16v210.9c-18.6 6.6-32 24.2-32 45.1 0 26.5 21.5 48 48 48s48-21.5 48-48c0-20.9-13.4-38.5-32-45.1z"/></svg>