<svg viewBox="0 0 448 512" xmlns="http://www.w3.org/2000/svg"><path d="m432 32h-416a16 16 0 0 0 -16 16v80a16 16 0 0 0 16 16h32a16 16 0 0 0 16-16v-16h120v112h-24a16 16 0 0 0 -16 16v32a16 16 0 0 0 16 16h128a16 16 0 0 0 16-16v-32a16 16 0 0 0 -16-16h-24v-112h120v16a16 16 0 0 0 16 16h32a16 16 0 0 0 16-16v-80a16 16 0 0 0 -16-16zm-68.69 260.69c-9.31-9.33-27.31-4.33-27.31 11.31v48h-224v-48c0-14.31-17.31-21.32-27.31-11.31l-80 80a16 16 0 0 0 0 22.62l80 80c9.31 9.33 27.31 4.33 27.31-11.31v-48h224v48c0 14.31 17.31 21.33 27.31 11.31l80-80a16 16 0 0 0 0-22.62z"/></svg>