<svg viewBox="0 0 576 512" xmlns="http://www.w3.org/2000/svg"><path d="m304 32h-288a16 16 0 0 0 -16 16v96a16 16 0 0 0 16 16h32a16 16 0 0 0 16-16v-32h56v304h-40a16 16 0 0 0 -16 16v32a16 16 0 0 0 16 16h160a16 16 0 0 0 16-16v-32a16 16 0 0 0 -16-16h-40v-304h56v32a16 16 0 0 0 16 16h32a16 16 0 0 0 16-16v-96a16 16 0 0 0 -16-16zm256 336h-48v-224h48c14.31 0 21.33-17.31 11.31-27.31l-80-80a16 16 0 0 0 -22.62 0l-80 80c-9.33 9.31-4.33 27.31 11.31 27.31h48v224h-48c-14.31 0-21.32 17.31-11.31 27.31l80 80a16 16 0 0 0 22.62 0l80-80c9.33-9.31 4.33-27.31-11.31-27.31z"/></svg>