<svg viewBox="0 0 512 512" xmlns="http://www.w3.org/2000/svg"><path d="m149.333 216v80c0 13.255-10.745 24-24 24h-101.333c-13.255 0-24-10.745-24-24v-80c0-13.255 10.745-24 24-24h101.333c13.255 0 24 10.745 24 24zm-149.333 160v80c0 13.255 10.745 24 24 24h101.333c13.255 0 24-10.745 24-24v-80c0-13.255-10.745-24-24-24h-101.333c-13.255 0-24 10.745-24 24zm125.333-344h-101.333c-13.255 0-24 10.745-24 24v80c0 13.255 10.745 24 24 24h101.333c13.255 0 24-10.745 24-24v-80c0-13.255-10.745-24-24-24zm80 448h282.667c13.255 0 24-10.745 24-24v-80c0-13.255-10.745-24-24-24h-282.667c-13.255 0-24 10.745-24 24v80c0 13.255 10.745 24 24 24zm-24-424v80c0 13.255 10.745 24 24 24h282.667c13.255 0 24-10.745 24-24v-80c0-13.255-10.745-24-24-24h-282.667c-13.255 0-24 10.745-24 24zm24 264h282.667c13.255 0 24-10.745 24-24v-80c0-13.255-10.745-24-24-24h-282.667c-13.255 0-24 10.745-24 24v80c0 13.255 10.745 24 24 24z"/></svg>