<svg viewBox="0 0 512 512" xmlns="http://www.w3.org/2000/svg"><path d="m296 32h192c13.255 0 24 10.745 24 24v160c0 13.255-10.745 24-24 24h-192c-13.255 0-24-10.745-24-24v-160c0-13.255 10.745-24 24-24zm-80 0h-192c-13.255 0-24 10.745-24 24v160c0 13.255 10.745 24 24 24h192c13.255 0 24-10.745 24-24v-160c0-13.255-10.745-24-24-24zm-216 264v160c0 13.255 10.745 24 24 24h192c13.255 0 24-10.745 24-24v-160c0-13.255-10.745-24-24-24h-192c-13.255 0-24 10.745-24 24zm296 184h192c13.255 0 24-10.745 24-24v-160c0-13.255-10.745-24-24-24h-192c-13.255 0-24 10.745-24 24v160c0 13.255 10.745 24 24 24z"/></svg>