<svg viewBox="0 0 512 512" xmlns="http://www.w3.org/2000/svg"><path d="m149.333 56v80c0 13.255-10.745 24-24 24h-101.333c-13.255 0-24-10.745-24-24v-80c0-13.255 10.745-24 24-24h101.333c13.255 0 24 10.745 24 24zm181.334 240v-80c0-13.255-10.745-24-24-24h-101.334c-13.255 0-24 10.745-24 24v80c0 13.255 10.745 24 24 24h101.333c13.256 0 24.001-10.745 24.001-24zm32-240v80c0 13.255 10.745 24 24 24h101.333c13.255 0 24-10.745 24-24v-80c0-13.255-10.745-24-24-24h-101.333c-13.255 0-24 10.745-24 24zm-32 80v-80c0-13.255-10.745-24-24-24h-101.334c-13.255 0-24 10.745-24 24v80c0 13.255 10.745 24 24 24h101.333c13.256 0 24.001-10.745 24.001-24zm-205.334 56h-101.333c-13.255 0-24 10.745-24 24v80c0 13.255 10.745 24 24 24h101.333c13.255 0 24-10.745 24-24v-80c0-13.255-10.745-24-24-24zm-125.333 184v80c0 13.255 10.745 24 24 24h101.333c13.255 0 24-10.745 24-24v-80c0-13.255-10.745-24-24-24h-101.333c-13.255 0-24 10.745-24 24zm386.667-56h101.333c13.255 0 24-10.745 24-24v-80c0-13.255-10.745-24-24-24h-101.333c-13.255 0-24 10.745-24 24v80c0 13.255 10.745 24 24 24zm0 160h101.333c13.255 0 24-10.745 24-24v-80c0-13.255-10.745-24-24-24h-101.333c-13.255 0-24 10.745-24 24v80c0 13.255 10.745 24 24 24zm-205.334-104v80c0 13.255 10.745 24 24 24h101.333c13.255 0 24-10.745 24-24v-80c0-13.255-10.745-24-24-24h-101.333c-13.255 0-24 10.745-24 24z"/></svg>