<svg viewBox="0 0 256 512" xmlns="http://www.w3.org/2000/svg"><path d="m192 384c0 35.346-28.654 64-64 64s-64-28.654-64-64 28.654-64 64-64 64 28.654 64 64zm32-84.653c19.912 22.563 32 52.194 32 84.653 0 70.696-57.303 128-128 128-.299 0-.609-.001-.909-.003-70.302-.488-127.448-58.361-127.089-128.664.164-32.198 12.223-61.578 31.998-83.986v-203.347c0-53.019 42.981-96 96-96s96 42.981 96 96zm-16 84.653c0-34.339-19.37-52.19-32-66.502v-221.498c0-26.467-21.533-48-48-48s-48 21.533-48 48v221.498c-12.732 14.428-31.825 32.1-31.999 66.08-.224 43.876 35.563 80.116 79.423 80.42l.576.002c44.112 0 80-35.888 80-80z"/></svg>