<svg viewBox="0 0 256 512" xmlns="http://www.w3.org/2000/svg"><path d="m224 96c0-53.019-42.981-96-96-96s-96 42.981-96 96v203.347c-19.775 22.409-31.834 51.789-31.998 83.986-.359 70.303 56.787 128.176 127.089 128.664.299.002.61.003.909.003 70.698 0 128-57.304 128-128 0-32.459-12.088-62.09-32-84.653zm-96 368-.576-.002c-43.86-.304-79.647-36.544-79.423-80.42.173-33.98 19.266-51.652 31.999-66.08v-221.498c0-26.467 21.533-48 48-48s48 21.533 48 48v221.498c12.63 14.312 32 32.164 32 66.502 0 44.112-35.888 80-80 80zm64-80c0 35.346-28.654 64-64 64s-64-28.654-64-64c0-23.685 12.876-44.349 32-55.417v-232.583c0-17.673 14.327-32 32-32s32 14.327 32 32v232.583c19.124 11.068 32 31.732 32 55.417z"/></svg>