<svg viewBox="0 0 512 512" xmlns="http://www.w3.org/2000/svg"><path d="m476.8 20.4c-37.5-30.7-95.5-26.3-131.9 10.2l-45.7 46 50.5 50.5c3.1 3.1 3.1 8.2 0 11.3l-11.3 11.3c-3.1 3.1-8.2 3.1-11.3 0l-50.4-50.5-45.1 45.4 50.3 50.4c3.1 3.1 3.1 8.2 0 11.3l-11.3 11.3c-3.1 3.1-8.2 3.1-11.3 0l-50.3-50.2-45.1 45.4 50.1 50.2c3.1 3.1 3.1 8.2 0 11.3l-11.3 11.3c-3.1 3.1-8.2 3.1-11.3 0l-50.1-50.2-45.3 45.7v100.9l-89 89c-9.4 9.4-9.4 24.6 0 33.9 9.4 9.4 24.6 9.4 33.9 0l89-89h99.9l254.2-253.3c34.9-34.9 42.2-101.5-7.2-142.2z"/></svg>