<svg viewBox="0 0 512 512" xmlns="http://www.w3.org/2000/svg"><path d="m0 56v240c0 13.255 10.745 24 24 24h80c13.255 0 24-10.745 24-24v-240c0-13.255-10.745-24-24-24h-80c-13.255 0-24 10.745-24 24zm40 200c0-13.255 10.745-24 24-24s24 10.745 24 24-10.745 24-24 24-24-10.745-24-24zm272 256c-20.183 0-29.485-39.293-33.931-57.795-5.206-21.666-10.589-44.07-25.393-58.902-32.469-32.524-49.503-73.967-89.117-113.111a11.98 11.98 0 0 1 -3.558-8.521v-213.77c0-6.541 5.243-11.878 11.783-11.998 15.831-.29 36.694-9.079 52.651-16.178 31.754-14.127 71.274-31.708 119.56-31.725h2.844c42.777 0 93.363.413 113.774 29.737 8.392 12.057 10.446 27.034 6.148 44.632 16.312 17.053 25.063 48.863 16.382 74.757 17.544 23.432 19.143 56.132 9.308 79.469l.11.11c11.893 11.949 19.523 31.259 19.439 49.197-.156 30.352-26.157 58.098-59.553 58.098h-101.724c7.307 28.34 33.277 52.132 33.277 94.548 0 73.452-48 81.452-72 81.452z"/></svg>