<svg viewBox="0 0 384 512" xmlns="http://www.w3.org/2000/svg"><path d="m298.028 214.267-12.235-118.267h42.207c13.255 0 24-10.745 24-24v-48c0-13.255-10.745-24-24-24h-272c-13.255 0-24 10.745-24 24v48c0 13.255 10.745 24 24 24h42.207l-12.235 118.267c-48.507 22.553-85.972 62.994-85.972 113.733 0 13.255 10.745 24 24 24h136v104.007c0 1.242.289 2.467.845 3.578l24 48c2.941 5.882 11.364 5.893 14.311 0l24-48a8.008 8.008 0 0 0 .845-3.578v-104.007h136c13.255 0 24-10.745 24-24-.001-51.183-37.983-91.42-85.973-113.733z"/></svg>