<svg viewBox="0 0 640 512" xmlns="http://www.w3.org/2000/svg"><path d="m633.82 458.1-138.85-107.32c.52-5.57 1.03-11.16 1.03-16.87 0-111.76-99.79-153.34-146.78-311.82-7.94-28.78-49.44-30.12-58.44 0-15.52 52.34-36.87 91.96-58.49 125.68l-186.82-144.4c-6.98-5.42-17.04-4.17-22.46 2.81l-19.64 25.27c-5.42 6.97-4.17 17.02 2.81 22.45l588.36 454.73c6.98 5.43 17.03 4.17 22.46-2.81l19.64-25.27c5.41-6.97 4.16-17.02-2.82-22.45zm-489.82-124.19c0 98.44 78.72 178.09 176 178.09 44.71 0 85.37-16.96 116.4-44.7l-273.68-211.52c-11.41 23.5-18.72 48.35-18.72 78.13z"/></svg>