<svg viewBox="0 0 640 512" xmlns="http://www.w3.org/2000/svg"><path d="m64 192v172.13c0 41.12-9.75 62.75-31.12 126.87a16 16 0 0 0 15.12 21h280.86a31.87 31.87 0 0 0 30.38-21.87c9.31-27.83 18-53.35 22.18-85.55l-316-244.25c-.89 10.33-1.42 20.86-1.42 31.67zm569.82 266.09-102-78.81c43.46-18.37 76.18-94.96 76.18-187.28 0-106-43-192-96-192s-96 86-96 192c0 42 7 80.4 18.43 112l-50.43-39v-73c0-83.62 23.63-153.5 60.5-192h-284.5c-23.33 0-44.63 16.83-61.26 44.53l-53.28-41.15a16 16 0 0 0 -22.46 2.81l-19.63 25.26a16 16 0 0 0 2.81 22.46l588.36 454.72a16 16 0 0 0 22.46-2.82l19.64-25.26a16 16 0 0 0 -2.82-22.46zm-121.82-202.09c-17.63 0-32-28.62-32-64s14.37-64 32-64 32 28.63 32 64-14.38 64-32 64z"/></svg>