<svg viewBox="0 0 384 512" xmlns="http://www.w3.org/2000/svg"><path d="m368 48c8.8 0 16-7.2 16-16v-16c0-8.8-7.2-16-16-16h-352c-8.8 0-16 7.2-16 16v16c0 8.8 7.2 16 16 16h16v156.7c-20.2 10.1-32 22.2-32 35.3 0 67.2 34.6 126.2 86.8 160.5l-21.4 70.2c-6.3 20.5 9.1 41.3 30.6 41.3h192c21.5 0 36.9-20.8 30.6-41.3l-21.4-70.2c52.2-34.3 86.8-93.3 86.8-160.5 0-13.1-11.8-25.2-32-35.3v-156.7zm-288 24c0-4.4 3.6-8 8-8h48c4.4 0 8 3.6 8 8v16c0 4.4-3.6 8-8 8h-48c-4.4 0-8-3.6-8-8zm112 200c-77.1 0-139.6-14.3-139.6-32s62.5-32 139.6-32 139.6 14.3 139.6 32-62.5 32-139.6 32z"/></svg>