<svg viewBox="0 0 512 512" xmlns="http://www.w3.org/2000/svg"><path d="m502.63 214.63-45.25-45.25c-6-6-14.14-9.37-22.63-9.37h-50.75v-80.01c0-26.51-21.49-48-48-48h-160c-26.51 0-48 21.49-48 48v80h-50.75c-8.49 0-16.62 3.37-22.63 9.37l-45.25 45.26c-6 6-9.37 14.14-9.37 22.63v82.74h128v-16c0-8.84 7.16-16 16-16h32c8.84 0 16 7.16 16 16v16h128v-16c0-8.84 7.16-16 16-16h32c8.84 0 16 7.16 16 16v16h128v-82.75c0-8.48-3.37-16.62-9.37-22.62zm-182.63-54.63h-128v-64h128zm64 208c0 8.84-7.16 16-16 16h-32c-8.84 0-16-7.16-16-16v-16h-128v16c0 8.84-7.16 16-16 16h-32c-8.84 0-16-7.16-16-16v-16h-128v96c0 17.67 14.33 32 32 32h448c17.67 0 32-14.33 32-32v-96h-128z"/></svg>