<svg viewBox="0 0 640 512" xmlns="http://www.w3.org/2000/svg"><path d="m320.05 366.48 17.72-29.64h-35.46zm99.21-166h-36.86l18.46 30.82zm-371.26-200.48c-26.51 0-48 14.33-48 32v448c0 17.67 21.49 32 48 32s48-14.33 48-32v-448c0-17.67-21.49-32-48-32zm172.74 311.5h36.85l-18.46-30.82zm161.71 0h36.86l-18.45-30.8zm-254.45 152.5h384v-416h-384zm66.77-278.13a21.22 21.22 0 0 1 18.48-10.71h59.45l29.13-48.71a21.13 21.13 0 0 1 18.22-10.37 20.76 20.76 0 0 1 17.95 10.21l29.25 48.86h59.52a21.12 21.12 0 0 1 18.1 32l-29.24 48.85 29.37 49a20.69 20.69 0 0 1 .24 21.12 21.25 21.25 0 0 1 -18.48 10.72h-59.47l-29.13 48.7a21.13 21.13 0 0 1 -18.16 10.4 20.79 20.79 0 0 1 -18-10.22l-29.25-48.88h-59.5a21.11 21.11 0 0 1 -18.1-32l29.21-48.84-29.36-49a20.7 20.7 0 0 1 -.23-21.13zm397.23-185.87c-26.51 0-48 14.33-48 32v448c0 17.67 21.49 32 48 32s48-14.33 48-32v-448c0-17.67-21.49-32-48-32zm-272 145.53-17.78 29.62h35.46zm-62.45 55h-36.81l18.44 30.8zm29.58 111h65.79l33.17-55.53-33.23-55.52h-65.79l-33.17 55.52z"/></svg>