<svg viewBox="0 0 384 512" xmlns="http://www.w3.org/2000/svg"><path d="m384 192h-64v-37.88c37.2-13.22 64-48.38 64-90.12h-64v-32c0-17.67-14.33-32-32-32h-192c-17.67 0-32 14.33-32 32v32h-64c0 41.74 26.8 76.9 64 90.12v37.88h-64c0 41.74 26.8 76.9 64 90.12v37.88h-64c0 42.84 28.25 78.69 66.99 91.05 12.43 57.67 63.61 100.95 125.01 100.95s112.58-43.28 125.01-100.95c38.74-12.36 66.99-48.21 66.99-91.05h-64v-37.88c37.2-13.22 64-48.38 64-90.12zm-192 224c-26.51 0-48-21.49-48-48s21.49-48 48-48 48 21.49 48 48-21.49 48-48 48zm0-128c-26.51 0-48-21.49-48-48s21.49-48 48-48 48 21.49 48 48-21.49 48-48 48zm0-128c-26.51 0-48-21.49-48-48s21.49-48 48-48 48 21.49 48 48-21.49 48-48 48z"/></svg>