<svg viewBox="0 0 640 512" xmlns="http://www.w3.org/2000/svg"><path d="m624 320h-80v-240a16 16 0 0 0 -16-16h-512a16 16 0 0 0 -16 16v288a16 16 0 0 0 16 16h49.61c7.83-54.21 54-96 110.39-96s102.56 41.79 110.39 96h337.61a16 16 0 0 0 16-16v-32a16 16 0 0 0 -16-16zm-528-76.32a176.29 176.29 0 0 0 -32 20.71v-128.39a8 8 0 0 1 8-8h16a8 8 0 0 1 8 8zm96-18.54c-5.31-.49-10.57-1.14-16-1.14s-10.69.65-16 1.14v-89.14a8 8 0 0 1 8-8h16a8 8 0 0 1 8 8zm96 39.25a176.29 176.29 0 0 0 -32-20.71v-107.68a8 8 0 0 1 8-8h16a8 8 0 0 1 8 8zm96 55.61h-32v-184a8 8 0 0 1 8-8h16a8 8 0 0 1 8 8zm96 0h-32v-184a8 8 0 0 1 8-8h16a8 8 0 0 1 8 8zm-304 0a80 80 0 1 0 80 80 80 80 0 0 0 -80-80zm0 112a32 32 0 1 1 32-32 32 32 0 0 1 -32 32z"/></svg>