<svg viewBox="0 0 448 512" xmlns="http://www.w3.org/2000/svg"><path d="m448 96v256c0 51.815-61.624 96-130.022 96l62.98 49.721c5.947 4.696 2.604 14.279-4.958 14.279h-304c-7.578 0-10.892-9.594-4.957-14.279l62.979-49.721c-68.202 0-130.022-44.046-130.022-96v-256c0-53.019 64-96 128-96h192c65 0 128 42.981 128 96zm-48 136v-112c0-13.255-10.745-24-24-24h-304c-13.255 0-24 10.745-24 24v112c0 13.255 10.745 24 24 24h304c13.255 0 24-10.745 24-24zm-176 64c-30.928 0-56 25.072-56 56s25.072 56 56 56 56-25.072 56-56-25.072-56-56-56z"/></svg>