<svg viewBox="0 0 384 512" xmlns="http://www.w3.org/2000/svg"><path d="m372 0h-79c-10.7 0-16 12.9-8.5 20.5l16.9 16.9-80.7 80.7c-22.2-14-48.5-22.1-76.7-22.1-79.5 0-144 64.5-144 144 0 68.5 47.9 125.9 112 140.4v27.6h-36c-6.6 0-12 5.4-12 12v40c0 6.6 5.4 12 12 12h36v28c0 6.6 5.4 12 12 12h40c6.6 0 12-5.4 12-12v-28h36c6.6 0 12-5.4 12-12v-40c0-6.6-5.4-12-12-12h-36v-27.6c64.1-14.6 112-71.9 112-140.4 0-28.2-8.1-54.5-22.1-76.7l80.7-80.7 16.9 16.9c7.6 7.6 20.5 2.2 20.5-8.5v-79c0-6.6-5.4-12-12-12zm-228 320c-44.1 0-80-35.9-80-80s35.9-80 80-80 80 35.9 80 80-35.9 80-80 80z"/></svg>