<svg viewBox="0 0 448 512" xmlns="http://www.w3.org/2000/svg"><path d="m32 464a48 48 0 0 0 48 48h288a48 48 0 0 0 48-48v-336h-384zm91.31-172.8 89.38-94.26a15.41 15.41 0 0 1 22.62 0l89.38 94.26c10.08 10.62 2.94 28.8-11.32 28.8h-57.37v112a16 16 0 0 1 -16 16h-32a16 16 0 0 1 -16-16v-112h-57.37c-14.26 0-21.4-18.18-11.32-28.8zm308.69-259.2h-120l-9.4-18.7a24 24 0 0 0 -21.5-13.3h-114.3a23.72 23.72 0 0 0 -21.4 13.3l-9.4 18.7h-120a16 16 0 0 0 -16 16v32a16 16 0 0 0 16 16h416a16 16 0 0 0 16-16v-32a16 16 0 0 0 -16-16z"/></svg>