<svg viewBox="0 0 384 512" xmlns="http://www.w3.org/2000/svg"><path d="m378.31 378.49-79.89-90.49h30.63c9.01 0 16.98-5 20.78-13.06 3.8-8.04 2.55-17.26-3.28-24.05l-78.13-90.89h28.89c9.1 0 17.3-5.35 20.86-13.61 3.52-8.13 1.86-17.59-4.24-24.08l-110.27-117.48c-6.03-6.45-17.28-6.45-23.32 0l-110.28 117.48c-6.1 6.49-7.75 15.95-4.24 24.08 3.56 8.26 11.77 13.61 20.87 13.61h28.89l-78.14 90.91c-5.81 6.78-7.06 15.99-3.27 24.04 3.8 8.05 11.76 13.05 20.78 13.05h30.63l-79.89 90.49c-6 6.79-7.36 16.09-3.56 24.26 3.75 8.05 12 13.25 21.01 13.25h136.86v24.45l-30.29 48.4c-5.32 10.64 2.42 23.16 14.31 23.16h95.96c11.89 0 19.63-12.52 14.31-23.16l-30.29-48.4v-24.45h136.86c9.01 0 17.26-5.2 21.01-13.25 3.8-8.17 2.44-17.47-3.56-24.26z"/></svg>