<svg viewBox="0 0 640 512" xmlns="http://www.w3.org/2000/svg"><path d="m50.2 375.6c2.3 8.5 11.1 13.6 19.6 11.3l216.4-58c8.5-2.3 13.6-11.1 11.3-19.6l-49.7-185.5c-2.3-8.5-11.1-13.6-19.6-11.3l-77.2 20.8 24.8 92.7-61.8 16.5-24.8-92.7-77.3 20.7c-8.5 2.3-13.6 11.1-11.3 19.6zm333.8-375.6c-17.7 0-32 14.3-32 32v323.6l-346.1 94.4c-4.3 1.2-6.8 5.6-5.6 9.8l12.6 46.3c1.2 4.3 5.6 6.8 9.8 5.6l393.7-107.4c2.4 59.8 51.2 107.7 111.6 107.7 61.9 0 112-50.1 112-112v-400zm144 448c-26.5 0-48-21.5-48-48s21.5-48 48-48 48 21.5 48 48-21.5 48-48 48z"/></svg>