<svg viewBox="0 0 640 512" xmlns="http://www.w3.org/2000/svg"><path d="m624 288h-16v-64c0-17.67-14.33-32-32-32h-48l-108.78-135.98a64.025 64.025 0 0 0 -49.98-24.02h-113.24c-17.67 0-32 14.33-32 32v128h-160c-17.67 0-32 14.33-32 32v64h-16c-8.84 0-16 7.16-16 16v32c0 8.84 7.16 16 16 16h49.61c-.76 5.27-1.61 10.52-1.61 16 0 61.86 50.14 112 112 112s112-50.14 112-112c0-5.48-.85-10.73-1.61-16h67.23c-.76 5.27-1.61 10.52-1.61 16 0 61.86 50.14 112 112 112s112-50.14 112-112c0-5.48-.85-10.73-1.61-16h49.6c8.84 0 16-7.16 16-16v-32c0-8.84-7.16-16-16-16zm-336-192h81.24l76.8 96h-158.04zm-112 320c-26.47 0-48-21.53-48-48s21.53-48 48-48 48 21.53 48 48-21.53 48-48 48zm288 0c-26.47 0-48-21.53-48-48s21.53-48 48-48 48 21.53 48 48-21.53 48-48 48z"/></svg>