<svg viewBox="0 0 512 512" xmlns="http://www.w3.org/2000/svg"><path d="m212.333 224.333h-200.333c-6.627 0-12-5.373-12-12v-200.333c0-6.627 5.373-12 12-12h48c6.627 0 12 5.373 12 12v78.112c45.773-50.833 112.26-82.642 186.175-82.105 136.906.994 246.448 111.623 246.157 248.532-.291 136.719-111.212 247.461-247.999 247.461-64.089 0-122.496-24.313-166.51-64.215-5.099-4.622-5.334-12.554-.467-17.42l33.967-33.967c4.474-4.474 11.662-4.717 16.401-.525 31.036 27.463 71.856 44.127 116.609 44.127 97.268 0 176-78.716 176-176 0-97.267-78.716-176-176-176-58.496 0-110.28 28.476-142.274 72.333h98.274c6.627 0 12 5.373 12 12v48c0 6.627-5.373 12-12 12z"/></svg>