<svg viewBox="0 0 512 512" xmlns="http://www.w3.org/2000/svg"><path d="m496 128v16a8 8 0 0 1 -8 8h-24v12c0 6.627-5.373 12-12 12h-392c-6.627 0-12-5.373-12-12v-12h-24a8 8 0 0 1 -8-8v-16a8 8 0 0 1 4.941-7.392l232-88a7.996 7.996 0 0 1 6.118 0l232 88a8 8 0 0 1 4.941 7.392zm-24 304h-432c-13.255 0-24 10.745-24 24v16a8 8 0 0 0 8 8h464a8 8 0 0 0 8-8v-16c0-13.255-10.745-24-24-24zm-376-240v192h-36c-6.627 0-12 5.373-12 12v20h416v-20c0-6.627-5.373-12-12-12h-36v-192h-64v192h-64v-192h-64v192h-64v-192z"/></svg>