<svg viewBox="0 0 640 512" xmlns="http://www.w3.org/2000/svg"><path d="m132.65 212.32-96.44-74.54a63.4 63.4 0 0 0 -4.21 22.22 63.84 63.84 0 0 0 100.65 52.32zm40.44 62.28a63.79 63.79 0 0 0 -45.09-18.6h-64a64.06 64.06 0 0 0 -64 64v32a32 32 0 0 0 32 32h65.91a146.62 146.62 0 0 1 75.18-109.4zm370.91-50.6a64 64 0 1 0 -64-64 64.06 64.06 0 0 0 64 64zm-43.44 131.11a114.24 114.24 0 0 0 -84.47-65.28l-55.09-42.6c41.46-16.3 71-55.92 71-103.23a111.93 111.93 0 0 0 -112-112c-57.14 0-103.69 42.83-110.6 98.08l-163.94-126.7a16 16 0 0 0 -22.46 2.81l-19.63 25.27a16 16 0 0 0 2.81 22.45l588.35 454.72a16 16 0 0 0 22.47-2.81l19.64-25.27a16 16 0 0 0 -2.81-22.45zm-372.56 48.1v28.79a48 48 0 0 0 48 48h288a47.45 47.45 0 0 0 12.57-1.87l-244.57-189c-58.26 5.7-104 54.29-104 114.08zm448-147.21h-64a63.79 63.79 0 0 0 -45.09 18.6 146.29 146.29 0 0 1 75.09 109.4h66a32 32 0 0 0 32-32v-32a64.06 64.06 0 0 0 -64-64z"/></svg>