<svg viewBox="0 0 448 512" xmlns="http://www.w3.org/2000/svg"><path d="m319.41 320-95.41 95.39-95.41-95.39c-71.49 3.1-128.59 61.6-128.59 133.79a58.21 58.21 0 0 0 58.21 58.21h331.58a58.21 58.21 0 0 0 58.21-58.21c0-72.19-57.1-130.69-128.59-133.79zm-95.41-16a128 128 0 0 0 128-128v-110.18a32 32 0 0 0 -20.76-30l-84.77-31.75a64 64 0 0 0 -44.94 0l-84.77 31.79a32 32 0 0 0 -20.76 29.96v110.18a128 128 0 0 0 128 128zm-40-232.33a5 5 0 0 1 5-5h21.67v-21.67a5 5 0 0 1 5-5h16.66a5 5 0 0 1 5 5v21.67h21.67a5 5 0 0 1 5 5v16.66a5 5 0 0 1 -5 5h-21.67v21.67a5 5 0 0 1 -5 5h-16.66a5 5 0 0 1 -5-5v-21.67h-21.67a5 5 0 0 1 -5-5zm-40 88.33h160v16a80 80 0 0 1 -160 0z"/></svg>