<svg viewBox="0 0 448 512" xmlns="http://www.w3.org/2000/svg"><path d="m277.37 11.98c-16.29-7.51-34.26-11.98-53.37-11.98-53.69 0-99.5 33.13-118.51 80h81.19zm65.14 68.02c-7.9-19.47-20.67-36.2-36.49-49.52l-66.03 49.52zm-118.51 176c70.69 0 128-57.31 128-128 0-5.48-.95-10.7-1.61-16h-252.78c-.67 5.3-1.61 10.52-1.61 16 0 70.69 57.31 128 128 128zm-144 43.7v212.3h128.26l-98.45-221.52a132.835 132.835 0 0 0 -29.81 9.22zm-80 164.3c0 26.51 21.49 48 48 48v-191.76c-29.12 24.65-48 61.02-48 102.16zm256-48h-55.38l42.67 96h12.71c26.47 0 48-21.53 48-48s-21.53-48-48-48zm57.6-128h-16.71c-22.24 10.18-46.88 16-72.89 16s-50.65-5.82-72.89-16h-7.37l42.67 96h69.59c44.11 0 80 35.89 80 80 0 18.08-6.26 34.59-16.41 48h80.41c26.51 0 48-21.49 48-48v-41.6c0-74.23-60.17-134.4-134.4-134.4z"/></svg>