<svg viewBox="0 0 448 512" xmlns="http://www.w3.org/2000/svg"><path d="m64 224h13.5c24.7 56.5 80.9 96 146.5 96s121.8-39.5 146.5-96h13.5c8.8 0 16-7.2 16-16v-96c0-8.8-7.2-16-16-16h-13.5c-24.7-56.5-80.9-96-146.5-96s-121.8 39.5-146.5 96h-13.5c-8.8 0-16 7.2-16 16v96c0 8.8 7.2 16 16 16zm40-88c0-22.1 21.5-40 48-40h144c26.5 0 48 17.9 48 40v24c0 53-43 96-96 96h-48c-53 0-96-43-96-96zm72 72 12-36 36-12-36-12-12-36-12 36-36 12 36 12zm151.6 113.4c-29.9 19.3-65.4 30.6-103.6 30.6s-73.7-11.3-103.6-30.6c-67.5 7.1-120.4 63.6-120.4 133v9.6c0 26.5 21.5 48 48 48h80v-64c0-17.7 14.3-32 32-32h128c17.7 0 32 14.3 32 32v64h80c26.5 0 48-21.5 48-48v-9.6c0-69.4-52.9-125.9-120.4-133zm-55.6 126.6c-8.8 0-16 7.2-16 16s7.2 16 16 16 16-7.2 16-16-7.2-16-16-16zm-96 0c-8.8 0-16 7.2-16 16v48h32v-48c0-8.8-7.2-16-16-16z"/></svg>