<svg viewBox="0 0 448 512" xmlns="http://www.w3.org/2000/svg"><path d="m319.4 320.6-95.4 95.4-95.4-95.4c-71.5 3.1-128.6 61.6-128.6 133.8v9.6c0 26.5 21.5 48 48 48h352c26.5 0 48-21.5 48-48v-9.6c0-72.2-57.1-130.7-128.6-133.8zm-305.8-240.8 6.4 1.5v58.4c-7 4.2-12 11.5-12 20.3 0 8.4 4.6 15.4 11.1 19.7l-15.6 62.3c-1.7 6.9 2.1 14 7.6 14h41.8c5.5 0 9.3-7.1 7.6-14l-15.6-62.3c6.5-4.3 11.1-11.3 11.1-19.7 0-8.8-5-16.1-12-20.3v-52.6l66 15.9c-8.6 17.2-14 36.4-14 57 0 70.7 57.3 128 128 128s128-57.3 128-128c0-20.6-5.3-39.8-14-57l96.3-23.2c18.2-4.4 18.2-27.1 0-31.5l-190.4-46c-13-3.1-26.7-3.1-39.7 0l-190.6 45.9c-18.1 4.4-18.1 27.2 0 31.6z"/></svg>