<svg viewBox="0 0 416 512" xmlns="http://www.w3.org/2000/svg"><path d="m207.9 15.2c.8 4.7 16.1 94.5 16.1 128.8 0 52.3-27.8 89.6-68.9 104.6l12.9 238.1c.7 13.7-10.2 25.3-24 25.3h-64c-13.7 0-24.7-11.5-24-25.3l12.9-238.1c-41.2-15-68.9-52.4-68.9-104.6 0-34.4 15.3-124.1 16.1-128.8 3.2-20.3 45.3-20.6 47.9 1.1v141.2c1.3 3.4 15.1 3.2 16 0 1.4-25.3 7.9-139.2 8-141.8 3.3-20.8 44.7-20.8 47.9 0 .2 2.7 6.6 116.5 8 141.8.9 3.2 14.8 3.4 16 0v-141.2c2.6-21.6 44.8-21.4 48-1.1zm119.2 285.7-15 185.1c-1.2 14 9.9 26 23.9 26h56c13.3 0 24-10.7 24-24v-464c0-13.2-10.7-24-24-24-82.5 0-221.4 178.5-64.9 300.9z"/></svg>