<svg viewBox="0 0 448 512" xmlns="http://www.w3.org/2000/svg"><path d="m437.252 239.877-53.252-79.877v-128a32 32 0 0 0 -32-32h-32a24.021 24.021 0 0 0 -13.312 4.031l-25 16.672a103.794 103.794 0 0 1 -115.376 0l-25-16.672a24.021 24.021 0 0 0 -13.312-4.031h-32a32 32 0 0 0 -32 32v128l-53.252 79.877a64 64 0 0 0 -10.748 35.5v204.623a32 32 0 0 0 32 32h160v-224a31.987 31.987 0 0 1 1.643-10.119l13.492-40.481-56.947-170.836a151.518 151.518 0 0 0 73.812 19.67 151.55 151.55 0 0 0 73.812-19.672l-73.812 221.438v224h192a32 32 0 0 0 32-32v-204.623a64 64 0 0 0 -10.748-35.5zm-305.94 131.435-48 48a16 16 0 0 1 -22.624-22.624l48-48a16 16 0 0 1 22.624 22.624zm256 48a15.992 15.992 0 0 1 -22.624 0l-48-48a16 16 0 0 1 22.624-22.624l48 48a15.993 15.993 0 0 1 0 22.624z"/></svg>