<svg viewBox="0 0 448 512" xmlns="http://www.w3.org/2000/svg"><path d="m437.252 239.877-53.252-79.877v-128a32 32 0 0 0 -32-32h-32a23.982 23.982 0 0 0 -13.312 4.031l-25 16.672a103.794 103.794 0 0 1 -115.376 0l-25-16.672a23.982 23.982 0 0 0 -13.312-4.031h-32a32 32 0 0 0 -32 32v128l-53.252 79.877a64 64 0 0 0 -10.748 35.5v204.623a32 32 0 0 0 32 32h160v-224a31.987 31.987 0 0 1 1.643-10.119l13.492-40.481-56.947-170.839a151.579 151.579 0 0 0 73.812 19.673 151.565 151.565 0 0 0 73.811-19.668l-73.811 221.434v224h192a32 32 0 0 0 32-32v-204.623a64 64 0 0 0 -10.748-35.5zm-373.752 32.607a12.01 12.01 0 0 1 17-16.968l15.5 15.5 15.5-15.5a12.01 12.01 0 0 1 17 16.968l-15.516 15.516 15.516 15.516a12.01 12.01 0 0 1 -17 16.968l-15.5-15.5-15.5 15.5a12.01 12.01 0 0 1 -17-16.968l15.516-15.516zm32.5 183.516a40 40 0 1 1 40-40 40 40 0 0 1 -40 40zm263.227-120.215-48.527.215a6.671 6.671 0 0 1 -6.7-6.7l.215-48.574a24.987 24.987 0 0 1 27.215-24.626c12.789 1.162 22.129 12.619 22.056 25.419l-.037 5.057 5.051-.037c12.826-.035 24.236 9.275 25.4 22.076a24.948 24.948 0 0 1 -24.673 27.17z"/></svg>