<svg viewBox="0 0 640 512" xmlns="http://www.w3.org/2000/svg"><path d="m632.88 400.71-88.88-48.71v-64l55.16-17.69c11.79-5.9 11.79-22.72 0-28.62l-119.16-49.69v-64l27.31-16.3c7.72-7.72 5.61-20.74-4.16-25.62l-183.15-86.08-183.15 86.07c-9.77 4.88-11.88 17.9-4.16 25.62l27.31 16.31v64l-119.16 49.69c-11.79 5.9-11.79 22.72 0 28.62l55.16 17.69v64l-88.88 48.71c-5.42 3.62-7.7 9.63-7 15.29.62 5.01 3.57 9.75 8.72 12.33l55.16 19.67v48c0 8.84 7.16 16 16 16h32c8.84 0 16-7.16 16-16v-48h160v48c0 8.84 7.16 16 16 16h32c8.84 0 16-7.16 16-16v-48h160v48c0 8.84 7.16 16 16 16h32c8.84 0 16-7.16 16-16v-48l55.15-19.67c5.16-2.58 8.1-7.32 8.72-12.33.71-5.67-1.57-11.68-6.99-15.29zm-408.88-272.71h192v64h-192zm-64 224v-64h320v64z"/></svg>