<svg viewBox="0 0 512 512" xmlns="http://www.w3.org/2000/svg"><path d="m483.55 227.55h-21.55c-50.68 0-76.07-61.27-40.23-97.11l15.23-15.25a28.44 28.44 0 0 0 -40.2-40.19l-15.24 15.22c-35.84 35.83-97.11 10.45-97.11-40.23v-21.55a28.45 28.45 0 0 0 -56.9 0v21.56c0 50.68-61.27 76.06-97.11 40.23l-15.24-15.23a28.44 28.44 0 0 0 -40.2 40.19l15.25 15.25c35.84 35.84 10.45 97.11-40.23 97.11h-21.57a28.45 28.45 0 1 0 0 56.89h21.55c50.68 0 76.07 61.28 40.23 97.12l-15.23 15.24a28.45 28.45 0 0 0 40.2 40.2l15.24-15.25c35.84-35.84 97.11-10.45 97.11 40.23v21.54a28.45 28.45 0 0 0 56.9 0v-21.52c0-50.68 61.27-76.07 97.11-40.23l15.24 15.23a28.45 28.45 0 0 0 40.2-40.2l-15.25-15.24c-35.84-35.84-10.45-97.12 40.23-97.12h21.54a28.45 28.45 0 1 0 0-56.89zm-259.55 44.45a48 48 0 1 1 48-48 48 48 0 0 1 -48 48zm80 56a24 24 0 1 1 24-24 24 24 0 0 1 -24 24z"/></svg>