<svg viewBox="0 0 384 512" xmlns="http://www.w3.org/2000/svg"><path d="m215.03 72.04-88.97 88.96h-102.06c-13.26 0-24 10.74-24 24v144c0 13.25 10.74 24 24 24h102.06l88.97 88.95c15.03 15.03 40.97 4.47 40.97-16.97v-335.96c0-21.47-25.96-31.98-40.97-16.98zm123.2 108.08c-11.58-6.33-26.19-2.16-32.61 9.45-6.39 11.61-2.16 26.2 9.45 32.61 12.91 7.1 20.93 20.44 20.93 34.82s-8.02 27.72-20.92 34.81c-11.61 6.41-15.84 21-9.45 32.61 6.43 11.66 21.05 15.8 32.61 9.45 28.23-15.55 45.77-45 45.77-76.88s-17.54-61.32-45.78-76.87z"/></svg>