<svg viewBox="0 0 640 512" xmlns="http://www.w3.org/2000/svg"><path d="m608 64h-576c-17.67 0-32 14.33-32 32v320c0 17.67 14.33 32 32 32h160.22c25.19 0 48.03-14.77 58.36-37.74l27.74-61.64c7.89-17.54 24.03-28.62 41.68-28.62s33.79 11.08 41.68 28.62l27.74 61.64c10.33 22.97 33.18 37.74 58.36 37.74h160.22c17.67 0 32-14.33 32-32v-320c0-17.67-14.33-32-32-32zm-448 240c-35.35 0-64-28.65-64-64s28.65-64 64-64 64 28.65 64 64-28.65 64-64 64zm320 0c-35.35 0-64-28.65-64-64s28.65-64 64-64 64 28.65 64 64-28.65 64-64 64z"/></svg>