<svg viewBox="0 0 512 512" xmlns="http://www.w3.org/2000/svg"><path d="m496.101 385.669 14.227 28.663c3.929 7.915.697 17.516-7.218 21.445l-65.465 32.886c-16.049 7.967-35.556 1.194-43.189-15.055l-62.777-133.608h-139.679c-15.925 0-29.426-11.71-31.679-27.475-33.888-237.217-31.941-222.481-32.321-228.525 0-36.358 30.318-65.635 67.052-63.929 33.271 1.545 60.048 28.905 60.925 62.201.868 32.933-23.152 60.423-54.608 65.039l4.67 32.69h129.961c8.837 0 16 7.163 16 16v32c0 8.837-7.163 16-16 16h-120.818l4.572 32h132.246a32 32 0 0 1 28.962 18.392l57.515 122.407 36.178-18.349c7.915-3.929 17.517-.697 21.446 7.218zm-184.743-33.669h-24.506c-7.788 54.204-54.528 96-110.852 96-61.757 0-112-50.243-112-112 0-41.505 22.694-77.809 56.324-97.156-3.712-25.965-6.844-47.86-9.488-66.333-64.88 25.953-110.836 89.452-110.836 163.489 0 97.047 78.953 176 176 176 71.87 0 133.806-43.308 161.11-105.192z"/></svg>